<?xml version="1.0" encoding="utf-8" standalone="no"?>
<!DOCTYPE svg PUBLIC "-//W3C//DTD SVG 1.1//EN"
  "http://www.w3.org/Graphics/SVG/1.1/DTD/svg11.dtd">
<svg xmlns:xlink="http://www.w3.org/1999/xlink" width="864pt" height="360pt" viewBox="0 0 864 360" xmlns="http://www.w3.org/2000/svg" version="1.1">
 <metadata>
  <rdf:RDF xmlns:dc="http://purl.org/dc/elements/1.1/" xmlns:cc="http://creativecommons.org/ns#" xmlns:rdf="http://www.w3.org/1999/02/22-rdf-syntax-ns#">
   <cc:Work>
    <dc:type rdf:resource="http://purl.org/dc/dcmitype/StillImage"/>
    <dc:date>2025-09-12T08:15:48.782256</dc:date>
    <dc:format>image/svg+xml</dc:format>
    <dc:creator>
     <cc:Agent>
      <dc:title>Matplotlib v3.10.6, https://matplotlib.org/</dc:title>
     </cc:Agent>
    </dc:creator>
   </cc:Work>
  </rdf:RDF>
 </metadata>
 <defs>
  <style type="text/css">*{stroke-linejoin: round; stroke-linecap: butt}</style>
 </defs>
 <g id="figure_1">
  <g id="patch_1">
   <path d="M 0 360 
L 864 360 
L 864 0 
L 0 0 
L 0 360 
z
" style="fill: none; opacity: 0"/>
  </g>
  <g id="axes_1">
   <g id="patch_2">
    <path d="M 108 320.4 
L 777.6 320.4 
L 777.6 43.2 
L 108 43.2 
L 108 320.4 
z
" style="fill: none; opacity: 0"/>
   </g>
   <g id="matplotlib.axis_1">
    <g id="xtick_1">
     <g id="line2d_1">
      <path d="M 129.170495 320.4 
L 129.170495 43.2 
" clip-path="url(#p9b08d34434)" style="fill: none; stroke-dasharray: 5.12,1.28,0.8,1.28; stroke-dashoffset: 0; stroke: #b0b0b0; stroke-width: 0.8"/>
     </g>
     <g id="line2d_2">
      <defs>
       <path id="m5c7e1b70cd" d="M 0 0 
L 0 3.5 
" style="stroke: #a9a9a9; stroke-width: 0.8"/>
      </defs>
      <g>
       <use xlink:href="#m5c7e1b70cd" x="129.170495" y="320.4" style="fill: #a9a9a9; stroke: #a9a9a9; stroke-width: 0.8"/>
      </g>
     </g>
     <g id="text_1">
      <!-- 2021-07 -->
      <g style="fill: #a9a9a9" transform="translate(108.279089 334.998438) scale(0.1 -0.1)">
       <defs>
        <path id="DejaVuSans-32" d="M 1228 531 
L 3431 531 
L 3431 0 
L 469 0 
L 469 531 
Q 828 903 1448 1529 
Q 2069 2156 2228 2338 
Q 2531 2678 2651 2914 
Q 2772 3150 2772 3378 
Q 2772 3750 2511 3984 
Q 2250 4219 1831 4219 
Q 1534 4219 1204 4116 
Q 875 4013 500 3803 
L 500 4441 
Q 881 4594 1212 4672 
Q 1544 4750 1819 4750 
Q 2544 4750 2975 4387 
Q 3406 4025 3406 3419 
Q 3406 3131 3298 2873 
Q 3191 2616 2906 2266 
Q 2828 2175 2409 1742 
Q 1991 1309 1228 531 
z
" transform="scale(0.015625)"/>
        <path id="DejaVuSans-30" d="M 2034 4250 
Q 1547 4250 1301 3770 
Q 1056 3291 1056 2328 
Q 1056 1369 1301 889 
Q 1547 409 2034 409 
Q 2525 409 2770 889 
Q 3016 1369 3016 2328 
Q 3016 3291 2770 3770 
Q 2525 4250 2034 4250 
z
M 2034 4750 
Q 2819 4750 3233 4129 
Q 3647 3509 3647 2328 
Q 3647 1150 3233 529 
Q 2819 -91 2034 -91 
Q 1250 -91 836 529 
Q 422 1150 422 2328 
Q 422 3509 836 4129 
Q 1250 4750 2034 4750 
z
" transform="scale(0.015625)"/>
        <path id="DejaVuSans-31" d="M 794 531 
L 1825 531 
L 1825 4091 
L 703 3866 
L 703 4441 
L 1819 4666 
L 2450 4666 
L 2450 531 
L 3481 531 
L 3481 0 
L 794 0 
L 794 531 
z
" transform="scale(0.015625)"/>
        <path id="DejaVuSans-2d" d="M 313 2009 
L 1997 2009 
L 1997 1497 
L 313 1497 
L 313 2009 
z
" transform="scale(0.015625)"/>
        <path id="DejaVuSans-37" d="M 525 4666 
L 3525 4666 
L 3525 4397 
L 1831 0 
L 1172 0 
L 2766 4134 
L 525 4134 
L 525 4666 
z
" transform="scale(0.015625)"/>
       </defs>
       <use xlink:href="#DejaVuSans-32"/>
       <use xlink:href="#DejaVuSans-30" transform="translate(63.623047 0)"/>
       <use xlink:href="#DejaVuSans-32" transform="translate(127.246094 0)"/>
       <use xlink:href="#DejaVuSans-31" transform="translate(190.869141 0)"/>
       <use xlink:href="#DejaVuSans-2d" transform="translate(254.492188 0)"/>
       <use xlink:href="#DejaVuSans-30" transform="translate(290.576172 0)"/>
       <use xlink:href="#DejaVuSans-37" transform="translate(354.199219 0)"/>
      </g>
     </g>
    </g>
    <g id="xtick_2">
     <g id="line2d_3">
      <path d="M 203.297443 320.4 
L 203.297443 43.2 
" clip-path="url(#p9b08d34434)" style="fill: none; stroke-dasharray: 5.12,1.28,0.8,1.28; stroke-dashoffset: 0; stroke: #b0b0b0; stroke-width: 0.8"/>
     </g>
     <g id="line2d_4">
      <g>
       <use xlink:href="#m5c7e1b70cd" x="203.297443" y="320.4" style="fill: #a9a9a9; stroke: #a9a9a9; stroke-width: 0.8"/>
      </g>
     </g>
     <g id="text_2">
      <!-- 2022-01 -->
      <g style="fill: #a9a9a9" transform="translate(182.406037 334.998438) scale(0.1 -0.1)">
       <use xlink:href="#DejaVuSans-32"/>
       <use xlink:href="#DejaVuSans-30" transform="translate(63.623047 0)"/>
       <use xlink:href="#DejaVuSans-32" transform="translate(127.246094 0)"/>
       <use xlink:href="#DejaVuSans-32" transform="translate(190.869141 0)"/>
       <use xlink:href="#DejaVuSans-2d" transform="translate(254.492188 0)"/>
       <use xlink:href="#DejaVuSans-30" transform="translate(290.576172 0)"/>
       <use xlink:href="#DejaVuSans-31" transform="translate(354.199219 0)"/>
      </g>
     </g>
    </g>
    <g id="xtick_3">
     <g id="line2d_5">
      <path d="M 276.215799 320.4 
L 276.215799 43.2 
" clip-path="url(#p9b08d34434)" style="fill: none; stroke-dasharray: 5.12,1.28,0.8,1.28; stroke-dashoffset: 0; stroke: #b0b0b0; stroke-width: 0.8"/>
     </g>
     <g id="line2d_6">
      <g>
       <use xlink:href="#m5c7e1b70cd" x="276.215799" y="320.4" style="fill: #a9a9a9; stroke: #a9a9a9; stroke-width: 0.8"/>
      </g>
     </g>
     <g id="text_3">
      <!-- 2022-07 -->
      <g style="fill: #a9a9a9" transform="translate(255.324393 334.998438) scale(0.1 -0.1)">
       <use xlink:href="#DejaVuSans-32"/>
       <use xlink:href="#DejaVuSans-30" transform="translate(63.623047 0)"/>
       <use xlink:href="#DejaVuSans-32" transform="translate(127.246094 0)"/>
       <use xlink:href="#DejaVuSans-32" transform="translate(190.869141 0)"/>
       <use xlink:href="#DejaVuSans-2d" transform="translate(254.492188 0)"/>
       <use xlink:href="#DejaVuSans-30" transform="translate(290.576172 0)"/>
       <use xlink:href="#DejaVuSans-37" transform="translate(354.199219 0)"/>
      </g>
     </g>
    </g>
    <g id="xtick_4">
     <g id="line2d_7">
      <path d="M 350.342747 320.4 
L 350.342747 43.2 
" clip-path="url(#p9b08d34434)" style="fill: none; stroke-dasharray: 5.12,1.28,0.8,1.28; stroke-dashoffset: 0; stroke: #b0b0b0; stroke-width: 0.8"/>
     </g>
     <g id="line2d_8">
      <g>
       <use xlink:href="#m5c7e1b70cd" x="350.342747" y="320.4" style="fill: #a9a9a9; stroke: #a9a9a9; stroke-width: 0.8"/>
      </g>
     </g>
     <g id="text_4">
      <!-- 2023-01 -->
      <g style="fill: #a9a9a9" transform="translate(329.451341 334.998438) scale(0.1 -0.1)">
       <defs>
        <path id="DejaVuSans-33" d="M 2597 2516 
Q 3050 2419 3304 2112 
Q 3559 1806 3559 1356 
Q 3559 666 3084 287 
Q 2609 -91 1734 -91 
Q 1441 -91 1130 -33 
Q 819 25 488 141 
L 488 750 
Q 750 597 1062 519 
Q 1375 441 1716 441 
Q 2309 441 2620 675 
Q 2931 909 2931 1356 
Q 2931 1769 2642 2001 
Q 2353 2234 1838 2234 
L 1294 2234 
L 1294 2753 
L 1863 2753 
Q 2328 2753 2575 2939 
Q 2822 3125 2822 3475 
Q 2822 3834 2567 4026 
Q 2313 4219 1838 4219 
Q 1578 4219 1281 4162 
Q 984 4106 628 3988 
L 628 4550 
Q 988 4650 1302 4700 
Q 1616 4750 1894 4750 
Q 2613 4750 3031 4423 
Q 3450 4097 3450 3541 
Q 3450 3153 3228 2886 
Q 3006 2619 2597 2516 
z
" transform="scale(0.015625)"/>
       </defs>
       <use xlink:href="#DejaVuSans-32"/>
       <use xlink:href="#DejaVuSans-30" transform="translate(63.623047 0)"/>
       <use xlink:href="#DejaVuSans-32" transform="translate(127.246094 0)"/>
       <use xlink:href="#DejaVuSans-33" transform="translate(190.869141 0)"/>
       <use xlink:href="#DejaVuSans-2d" transform="translate(254.492188 0)"/>
       <use xlink:href="#DejaVuSans-30" transform="translate(290.576172 0)"/>
       <use xlink:href="#DejaVuSans-31" transform="translate(354.199219 0)"/>
      </g>
     </g>
    </g>
    <g id="xtick_5">
     <g id="line2d_9">
      <path d="M 423.261103 320.4 
L 423.261103 43.2 
" clip-path="url(#p9b08d34434)" style="fill: none; stroke-dasharray: 5.12,1.28,0.8,1.28; stroke-dashoffset: 0; stroke: #b0b0b0; stroke-width: 0.8"/>
     </g>
     <g id="line2d_10">
      <g>
       <use xlink:href="#m5c7e1b70cd" x="423.261103" y="320.4" style="fill: #a9a9a9; stroke: #a9a9a9; stroke-width: 0.8"/>
      </g>
     </g>
     <g id="text_5">
      <!-- 2023-07 -->
      <g style="fill: #a9a9a9" transform="translate(402.369697 334.998438) scale(0.1 -0.1)">
       <use xlink:href="#DejaVuSans-32"/>
       <use xlink:href="#DejaVuSans-30" transform="translate(63.623047 0)"/>
       <use xlink:href="#DejaVuSans-32" transform="translate(127.246094 0)"/>
       <use xlink:href="#DejaVuSans-33" transform="translate(190.869141 0)"/>
       <use xlink:href="#DejaVuSans-2d" transform="translate(254.492188 0)"/>
       <use xlink:href="#DejaVuSans-30" transform="translate(290.576172 0)"/>
       <use xlink:href="#DejaVuSans-37" transform="translate(354.199219 0)"/>
      </g>
     </g>
    </g>
    <g id="xtick_6">
     <g id="line2d_11">
      <path d="M 497.388051 320.4 
L 497.388051 43.2 
" clip-path="url(#p9b08d34434)" style="fill: none; stroke-dasharray: 5.12,1.28,0.8,1.28; stroke-dashoffset: 0; stroke: #b0b0b0; stroke-width: 0.8"/>
     </g>
     <g id="line2d_12">
      <g>
       <use xlink:href="#m5c7e1b70cd" x="497.388051" y="320.4" style="fill: #a9a9a9; stroke: #a9a9a9; stroke-width: 0.8"/>
      </g>
     </g>
     <g id="text_6">
      <!-- 2024-01 -->
      <g style="fill: #a9a9a9" transform="translate(476.496645 334.998438) scale(0.1 -0.1)">
       <defs>
        <path id="DejaVuSans-34" d="M 2419 4116 
L 825 1625 
L 2419 1625 
L 2419 4116 
z
M 2253 4666 
L 3047 4666 
L 3047 1625 
L 3713 1625 
L 3713 1100 
L 3047 1100 
L 3047 0 
L 2419 0 
L 2419 1100 
L 313 1100 
L 313 1709 
L 2253 4666 
z
" transform="scale(0.015625)"/>
       </defs>
       <use xlink:href="#DejaVuSans-32"/>
       <use xlink:href="#DejaVuSans-30" transform="translate(63.623047 0)"/>
       <use xlink:href="#DejaVuSans-32" transform="translate(127.246094 0)"/>
       <use xlink:href="#DejaVuSans-34" transform="translate(190.869141 0)"/>
       <use xlink:href="#DejaVuSans-2d" transform="translate(254.492188 0)"/>
       <use xlink:href="#DejaVuSans-30" transform="translate(290.576172 0)"/>
       <use xlink:href="#DejaVuSans-31" transform="translate(354.199219 0)"/>
      </g>
     </g>
    </g>
    <g id="xtick_7">
     <g id="line2d_13">
      <path d="M 570.709271 320.4 
L 570.709271 43.2 
" clip-path="url(#p9b08d34434)" style="fill: none; stroke-dasharray: 5.12,1.28,0.8,1.28; stroke-dashoffset: 0; stroke: #b0b0b0; stroke-width: 0.8"/>
     </g>
     <g id="line2d_14">
      <g>
       <use xlink:href="#m5c7e1b70cd" x="570.709271" y="320.4" style="fill: #a9a9a9; stroke: #a9a9a9; stroke-width: 0.8"/>
      </g>
     </g>
     <g id="text_7">
      <!-- 2024-07 -->
      <g style="fill: #a9a9a9" transform="translate(549.817865 334.998438) scale(0.1 -0.1)">
       <use xlink:href="#DejaVuSans-32"/>
       <use xlink:href="#DejaVuSans-30" transform="translate(63.623047 0)"/>
       <use xlink:href="#DejaVuSans-32" transform="translate(127.246094 0)"/>
       <use xlink:href="#DejaVuSans-34" transform="translate(190.869141 0)"/>
       <use xlink:href="#DejaVuSans-2d" transform="translate(254.492188 0)"/>
       <use xlink:href="#DejaVuSans-30" transform="translate(290.576172 0)"/>
       <use xlink:href="#DejaVuSans-37" transform="translate(354.199219 0)"/>
      </g>
     </g>
    </g>
    <g id="xtick_8">
     <g id="line2d_15">
      <path d="M 644.836219 320.4 
L 644.836219 43.2 
" clip-path="url(#p9b08d34434)" style="fill: none; stroke-dasharray: 5.12,1.28,0.8,1.28; stroke-dashoffset: 0; stroke: #b0b0b0; stroke-width: 0.8"/>
     </g>
     <g id="line2d_16">
      <g>
       <use xlink:href="#m5c7e1b70cd" x="644.836219" y="320.4" style="fill: #a9a9a9; stroke: #a9a9a9; stroke-width: 0.8"/>
      </g>
     </g>
     <g id="text_8">
      <!-- 2025-01 -->
      <g style="fill: #a9a9a9" transform="translate(623.944813 334.998438) scale(0.1 -0.1)">
       <defs>
        <path id="DejaVuSans-35" d="M 691 4666 
L 3169 4666 
L 3169 4134 
L 1269 4134 
L 1269 2991 
Q 1406 3038 1543 3061 
Q 1681 3084 1819 3084 
Q 2600 3084 3056 2656 
Q 3513 2228 3513 1497 
Q 3513 744 3044 326 
Q 2575 -91 1722 -91 
Q 1428 -91 1123 -41 
Q 819 9 494 109 
L 494 744 
Q 775 591 1075 516 
Q 1375 441 1709 441 
Q 2250 441 2565 725 
Q 2881 1009 2881 1497 
Q 2881 1984 2565 2268 
Q 2250 2553 1709 2553 
Q 1456 2553 1204 2497 
Q 953 2441 691 2322 
L 691 4666 
z
" transform="scale(0.015625)"/>
       </defs>
       <use xlink:href="#DejaVuSans-32"/>
       <use xlink:href="#DejaVuSans-30" transform="translate(63.623047 0)"/>
       <use xlink:href="#DejaVuSans-32" transform="translate(127.246094 0)"/>
       <use xlink:href="#DejaVuSans-35" transform="translate(190.869141 0)"/>
       <use xlink:href="#DejaVuSans-2d" transform="translate(254.492188 0)"/>
       <use xlink:href="#DejaVuSans-30" transform="translate(290.576172 0)"/>
       <use xlink:href="#DejaVuSans-31" transform="translate(354.199219 0)"/>
      </g>
     </g>
    </g>
    <g id="xtick_9">
     <g id="line2d_17">
      <path d="M 717.754576 320.4 
L 717.754576 43.2 
" clip-path="url(#p9b08d34434)" style="fill: none; stroke-dasharray: 5.12,1.28,0.8,1.28; stroke-dashoffset: 0; stroke: #b0b0b0; stroke-width: 0.8"/>
     </g>
     <g id="line2d_18">
      <g>
       <use xlink:href="#m5c7e1b70cd" x="717.754576" y="320.4" style="fill: #a9a9a9; stroke: #a9a9a9; stroke-width: 0.8"/>
      </g>
     </g>
     <g id="text_9">
      <!-- 2025-07 -->
      <g style="fill: #a9a9a9" transform="translate(696.863169 334.998438) scale(0.1 -0.1)">
       <use xlink:href="#DejaVuSans-32"/>
       <use xlink:href="#DejaVuSans-30" transform="translate(63.623047 0)"/>
       <use xlink:href="#DejaVuSans-32" transform="translate(127.246094 0)"/>
       <use xlink:href="#DejaVuSans-35" transform="translate(190.869141 0)"/>
       <use xlink:href="#DejaVuSans-2d" transform="translate(254.492188 0)"/>
       <use xlink:href="#DejaVuSans-30" transform="translate(290.576172 0)"/>
       <use xlink:href="#DejaVuSans-37" transform="translate(354.199219 0)"/>
      </g>
     </g>
    </g>
   </g>
   <g id="matplotlib.axis_2">
    <g id="ytick_1">
     <g id="line2d_19">
      <path d="M 108 307.831 
L 777.6 307.831 
" clip-path="url(#p9b08d34434)" style="fill: none; stroke-dasharray: 5.12,1.28,0.8,1.28; stroke-dashoffset: 0; stroke: #b0b0b0; stroke-width: 0.8"/>
     </g>
     <g id="line2d_20">
      <defs>
       <path id="mdfebac7732" d="M 0 0 
L -3.5 0 
" style="stroke: #a9a9a9; stroke-width: 0.8"/>
      </defs>
      <g>
       <use xlink:href="#mdfebac7732" x="108" y="307.831" style="fill: #a9a9a9; stroke: #a9a9a9; stroke-width: 0.8"/>
      </g>
     </g>
     <g id="text_10">
      <!-- 0 -->
      <g style="fill: #a9a9a9" transform="translate(94.6375 311.630219) scale(0.1 -0.1)">
       <use xlink:href="#DejaVuSans-30"/>
      </g>
     </g>
    </g>
    <g id="ytick_2">
     <g id="line2d_21">
      <path d="M 108 276.830877 
L 777.6 276.830877 
" clip-path="url(#p9b08d34434)" style="fill: none; stroke-dasharray: 5.12,1.28,0.8,1.28; stroke-dashoffset: 0; stroke: #b0b0b0; stroke-width: 0.8"/>
     </g>
     <g id="line2d_22">
      <g>
       <use xlink:href="#mdfebac7732" x="108" y="276.830877" style="fill: #a9a9a9; stroke: #a9a9a9; stroke-width: 0.8"/>
      </g>
     </g>
     <g id="text_11">
      <!-- 1000 -->
      <g style="fill: #a9a9a9" transform="translate(75.55 280.630096) scale(0.1 -0.1)">
       <use xlink:href="#DejaVuSans-31"/>
       <use xlink:href="#DejaVuSans-30" transform="translate(63.623047 0)"/>
       <use xlink:href="#DejaVuSans-30" transform="translate(127.246094 0)"/>
       <use xlink:href="#DejaVuSans-30" transform="translate(190.869141 0)"/>
      </g>
     </g>
    </g>
    <g id="ytick_3">
     <g id="line2d_23">
      <path d="M 108 245.830754 
L 777.6 245.830754 
" clip-path="url(#p9b08d34434)" style="fill: none; stroke-dasharray: 5.12,1.28,0.8,1.28; stroke-dashoffset: 0; stroke: #b0b0b0; stroke-width: 0.8"/>
     </g>
     <g id="line2d_24">
      <g>
       <use xlink:href="#mdfebac7732" x="108" y="245.830754" style="fill: #a9a9a9; stroke: #a9a9a9; stroke-width: 0.8"/>
      </g>
     </g>
     <g id="text_12">
      <!-- 2000 -->
      <g style="fill: #a9a9a9" transform="translate(75.55 249.629973) scale(0.1 -0.1)">
       <use xlink:href="#DejaVuSans-32"/>
       <use xlink:href="#DejaVuSans-30" transform="translate(63.623047 0)"/>
       <use xlink:href="#DejaVuSans-30" transform="translate(127.246094 0)"/>
       <use xlink:href="#DejaVuSans-30" transform="translate(190.869141 0)"/>
      </g>
     </g>
    </g>
    <g id="ytick_4">
     <g id="line2d_25">
      <path d="M 108 214.830631 
L 777.6 214.830631 
" clip-path="url(#p9b08d34434)" style="fill: none; stroke-dasharray: 5.12,1.28,0.8,1.28; stroke-dashoffset: 0; stroke: #b0b0b0; stroke-width: 0.8"/>
     </g>
     <g id="line2d_26">
      <g>
       <use xlink:href="#mdfebac7732" x="108" y="214.830631" style="fill: #a9a9a9; stroke: #a9a9a9; stroke-width: 0.8"/>
      </g>
     </g>
     <g id="text_13">
      <!-- 3000 -->
      <g style="fill: #a9a9a9" transform="translate(75.55 218.62985) scale(0.1 -0.1)">
       <use xlink:href="#DejaVuSans-33"/>
       <use xlink:href="#DejaVuSans-30" transform="translate(63.623047 0)"/>
       <use xlink:href="#DejaVuSans-30" transform="translate(127.246094 0)"/>
       <use xlink:href="#DejaVuSans-30" transform="translate(190.869141 0)"/>
      </g>
     </g>
    </g>
    <g id="ytick_5">
     <g id="line2d_27">
      <path d="M 108 183.830508 
L 777.6 183.830508 
" clip-path="url(#p9b08d34434)" style="fill: none; stroke-dasharray: 5.12,1.28,0.8,1.28; stroke-dashoffset: 0; stroke: #b0b0b0; stroke-width: 0.8"/>
     </g>
     <g id="line2d_28">
      <g>
       <use xlink:href="#mdfebac7732" x="108" y="183.830508" style="fill: #a9a9a9; stroke: #a9a9a9; stroke-width: 0.8"/>
      </g>
     </g>
     <g id="text_14">
      <!-- 4000 -->
      <g style="fill: #a9a9a9" transform="translate(75.55 187.629727) scale(0.1 -0.1)">
       <use xlink:href="#DejaVuSans-34"/>
       <use xlink:href="#DejaVuSans-30" transform="translate(63.623047 0)"/>
       <use xlink:href="#DejaVuSans-30" transform="translate(127.246094 0)"/>
       <use xlink:href="#DejaVuSans-30" transform="translate(190.869141 0)"/>
      </g>
     </g>
    </g>
    <g id="ytick_6">
     <g id="line2d_29">
      <path d="M 108 152.830385 
L 777.6 152.830385 
" clip-path="url(#p9b08d34434)" style="fill: none; stroke-dasharray: 5.12,1.28,0.8,1.28; stroke-dashoffset: 0; stroke: #b0b0b0; stroke-width: 0.8"/>
     </g>
     <g id="line2d_30">
      <g>
       <use xlink:href="#mdfebac7732" x="108" y="152.830385" style="fill: #a9a9a9; stroke: #a9a9a9; stroke-width: 0.8"/>
      </g>
     </g>
     <g id="text_15">
      <!-- 5000 -->
      <g style="fill: #a9a9a9" transform="translate(75.55 156.629604) scale(0.1 -0.1)">
       <use xlink:href="#DejaVuSans-35"/>
       <use xlink:href="#DejaVuSans-30" transform="translate(63.623047 0)"/>
       <use xlink:href="#DejaVuSans-30" transform="translate(127.246094 0)"/>
       <use xlink:href="#DejaVuSans-30" transform="translate(190.869141 0)"/>
      </g>
     </g>
    </g>
    <g id="ytick_7">
     <g id="line2d_31">
      <path d="M 108 121.830262 
L 777.6 121.830262 
" clip-path="url(#p9b08d34434)" style="fill: none; stroke-dasharray: 5.12,1.28,0.8,1.28; stroke-dashoffset: 0; stroke: #b0b0b0; stroke-width: 0.8"/>
     </g>
     <g id="line2d_32">
      <g>
       <use xlink:href="#mdfebac7732" x="108" y="121.830262" style="fill: #a9a9a9; stroke: #a9a9a9; stroke-width: 0.8"/>
      </g>
     </g>
     <g id="text_16">
      <!-- 6000 -->
      <g style="fill: #a9a9a9" transform="translate(75.55 125.629481) scale(0.1 -0.1)">
       <defs>
        <path id="DejaVuSans-36" d="M 2113 2584 
Q 1688 2584 1439 2293 
Q 1191 2003 1191 1497 
Q 1191 994 1439 701 
Q 1688 409 2113 409 
Q 2538 409 2786 701 
Q 3034 994 3034 1497 
Q 3034 2003 2786 2293 
Q 2538 2584 2113 2584 
z
M 3366 4563 
L 3366 3988 
Q 3128 4100 2886 4159 
Q 2644 4219 2406 4219 
Q 1781 4219 1451 3797 
Q 1122 3375 1075 2522 
Q 1259 2794 1537 2939 
Q 1816 3084 2150 3084 
Q 2853 3084 3261 2657 
Q 3669 2231 3669 1497 
Q 3669 778 3244 343 
Q 2819 -91 2113 -91 
Q 1303 -91 875 529 
Q 447 1150 447 2328 
Q 447 3434 972 4092 
Q 1497 4750 2381 4750 
Q 2619 4750 2861 4703 
Q 3103 4656 3366 4563 
z
" transform="scale(0.015625)"/>
       </defs>
       <use xlink:href="#DejaVuSans-36"/>
       <use xlink:href="#DejaVuSans-30" transform="translate(63.623047 0)"/>
       <use xlink:href="#DejaVuSans-30" transform="translate(127.246094 0)"/>
       <use xlink:href="#DejaVuSans-30" transform="translate(190.869141 0)"/>
      </g>
     </g>
    </g>
    <g id="ytick_8">
     <g id="line2d_33">
      <path d="M 108 90.830139 
L 777.6 90.830139 
" clip-path="url(#p9b08d34434)" style="fill: none; stroke-dasharray: 5.12,1.28,0.8,1.28; stroke-dashoffset: 0; stroke: #b0b0b0; stroke-width: 0.8"/>
     </g>
     <g id="line2d_34">
      <g>
       <use xlink:href="#mdfebac7732" x="108" y="90.830139" style="fill: #a9a9a9; stroke: #a9a9a9; stroke-width: 0.8"/>
      </g>
     </g>
     <g id="text_17">
      <!-- 7000 -->
      <g style="fill: #a9a9a9" transform="translate(75.55 94.629358) scale(0.1 -0.1)">
       <use xlink:href="#DejaVuSans-37"/>
       <use xlink:href="#DejaVuSans-30" transform="translate(63.623047 0)"/>
       <use xlink:href="#DejaVuSans-30" transform="translate(127.246094 0)"/>
       <use xlink:href="#DejaVuSans-30" transform="translate(190.869141 0)"/>
      </g>
     </g>
    </g>
    <g id="ytick_9">
     <g id="line2d_35">
      <path d="M 108 59.830016 
L 777.6 59.830016 
" clip-path="url(#p9b08d34434)" style="fill: none; stroke-dasharray: 5.12,1.28,0.8,1.28; stroke-dashoffset: 0; stroke: #b0b0b0; stroke-width: 0.8"/>
     </g>
     <g id="line2d_36">
      <g>
       <use xlink:href="#mdfebac7732" x="108" y="59.830016" style="fill: #a9a9a9; stroke: #a9a9a9; stroke-width: 0.8"/>
      </g>
     </g>
     <g id="text_18">
      <!-- 8000 -->
      <g style="fill: #a9a9a9" transform="translate(75.55 63.629235) scale(0.1 -0.1)">
       <defs>
        <path id="DejaVuSans-38" d="M 2034 2216 
Q 1584 2216 1326 1975 
Q 1069 1734 1069 1313 
Q 1069 891 1326 650 
Q 1584 409 2034 409 
Q 2484 409 2743 651 
Q 3003 894 3003 1313 
Q 3003 1734 2745 1975 
Q 2488 2216 2034 2216 
z
M 1403 2484 
Q 997 2584 770 2862 
Q 544 3141 544 3541 
Q 544 4100 942 4425 
Q 1341 4750 2034 4750 
Q 2731 4750 3128 4425 
Q 3525 4100 3525 3541 
Q 3525 3141 3298 2862 
Q 3072 2584 2669 2484 
Q 3125 2378 3379 2068 
Q 3634 1759 3634 1313 
Q 3634 634 3220 271 
Q 2806 -91 2034 -91 
Q 1263 -91 848 271 
Q 434 634 434 1313 
Q 434 1759 690 2068 
Q 947 2378 1403 2484 
z
M 1172 3481 
Q 1172 3119 1398 2916 
Q 1625 2713 2034 2713 
Q 2441 2713 2670 2916 
Q 2900 3119 2900 3481 
Q 2900 3844 2670 4047 
Q 2441 4250 2034 4250 
Q 1625 4250 1398 4047 
Q 1172 3844 1172 3481 
z
" transform="scale(0.015625)"/>
       </defs>
       <use xlink:href="#DejaVuSans-38"/>
       <use xlink:href="#DejaVuSans-30" transform="translate(63.623047 0)"/>
       <use xlink:href="#DejaVuSans-30" transform="translate(127.246094 0)"/>
       <use xlink:href="#DejaVuSans-30" transform="translate(190.869141 0)"/>
      </g>
     </g>
    </g>
   </g>
   <g id="line2d_37">
    <path d="M 138.436364 307.738 
L 140.853547 307.520999 
L 141.256411 307.334998 
L 142.867866 307.117997 
L 144.479321 306.776996 
L 145.285049 306.652995 
L 147.299368 306.466995 
L 148.105096 306.125993 
L 148.50796 305.567991 
L 148.910824 305.28899 
L 149.313688 304.358986 
L 149.716551 304.296986 
L 150.119415 303.955985 
L 150.925143 303.521983 
L 152.536598 302.188978 
L 154.148054 301.351974 
L 155.356645 300.762972 
L 155.759509 300.080969 
L 156.565237 299.460967 
L 156.968101 299.274966 
L 160.996739 298.654964 
L 161.399603 298.468963 
L 164.21965 298.220962 
L 165.831105 297.81796 
L 169.054016 297.352959 
L 169.45688 297.135958 
L 169.859744 297.073957 
L 170.665471 296.794956 
L 173.485518 296.298954 
L 174.291246 296.050953 
L 177.917021 295.430951 
L 178.722748 295.24495 
L 179.528476 295.21395 
L 181.139931 294.810948 
L 181.542795 294.221946 
L 182.751387 293.725944 
L 183.959978 293.384943 
L 184.362842 293.167942 
L 185.16857 293.012941 
L 186.780025 292.516939 
L 187.585753 292.454939 
L 188.391481 292.237938 
L 190.002936 291.803937 
L 190.4058 291.772936 
L 191.211528 291.369935 
L 191.614391 291.307935 
L 192.017255 291.090934 
L 196.448758 290.315931 
L 198.060213 289.819929 
L 198.463077 289.540928 
L 200.477396 288.858925 
L 201.283124 288.269922 
L 202.491715 288.021922 
L 207.728945 286.471915 
L 208.131809 286.409915 
L 209.743265 285.758913 
L 210.146128 285.696912 
L 210.951856 285.355911 
L 211.757584 285.324911 
L 212.966175 284.952909 
L 213.369039 284.952909 
L 213.771903 284.766909 
L 214.577631 284.673908 
L 214.980495 284.518908 
L 216.59195 284.456907 
L 217.397678 284.301907 
L 218.203405 283.867905 
L 219.411997 283.433903 
L 220.217725 282.999902 
L 221.426316 282.472899 
L 223.037771 281.635896 
L 223.440635 281.170894 
L 224.246363 279.868889 
L 224.649227 279.744889 
L 225.052091 279.744889 
L 226.663546 278.845885 
L 227.06641 278.752885 
L 227.469274 278.349883 
L 228.275002 278.008882 
L 229.080729 277.63688 
L 229.483593 277.140878 
L 229.886457 276.458876 
L 230.289321 276.179875 
L 230.692185 275.435872 
L 231.095048 274.97087 
L 233.512232 273.606864 
L 235.123687 272.118858 
L 235.526551 271.157855 
L 235.929415 270.537852 
L 236.332278 270.196851 
L 236.735142 270.01085 
L 239.958053 266.941838 
L 240.763781 266.166835 
L 243.180964 264.585829 
L 243.583828 264.430828 
L 245.195283 263.438824 
L 245.598147 263.252823 
L 247.612466 261.330816 
L 248.418194 260.989814 
L 249.223922 260.400812 
L 249.626785 260.152811 
L 250.029649 260.090811 
L 251.238241 259.377808 
L 251.641105 258.912806 
L 253.655424 257.765801 
L 254.058288 257.610801 
L 255.266879 256.742797 
L 261.309837 254.510789 
L 262.115565 253.735785 
L 263.324156 253.115783 
L 264.129884 252.588781 
L 264.935612 252.34078 
L 265.338475 252.061779 
L 265.741339 251.937778 
L 266.949931 251.100775 
L 268.96425 250.635773 
L 270.172842 249.89177 
L 271.381433 249.612769 
L 271.784297 249.519769 
L 272.992889 248.589765 
L 274.604344 248.124763 
L 275.007208 247.783762 
L 277.424391 246.915758 
L 278.230119 246.760758 
L 279.035846 246.419756 
L 281.855893 245.334752 
L 282.661621 245.241752 
L 283.870212 244.80775 
L 285.884532 243.784746 
L 288.301715 242.38974 
L 289.107442 242.17274 
L 290.316034 241.552737 
L 291.121762 241.397736 
L 291.927489 240.901735 
L 292.733217 240.684734 
L 293.941809 240.188732 
L 295.553264 239.971731 
L 296.358992 239.537729 
L 296.761855 239.165728 
L 297.164719 238.421725 
L 298.776175 237.956723 
L 300.38763 237.21272 
L 302.804813 236.034715 
L 303.610541 235.631714 
L 304.819132 235.383713 
L 306.027724 234.76371 
L 306.430588 234.70171 
L 308.444907 233.678706 
L 309.250635 233.151704 
L 310.459226 232.903703 
L 312.473546 232.376701 
L 312.876409 232.035699 
L 313.682137 231.756698 
L 315.696456 230.919695 
L 316.09932 230.609694 
L 316.502184 230.454693 
L 317.307912 229.989691 
L 318.919367 229.462689 
L 319.725095 228.935687 
L 320.127959 228.501685 
L 320.530822 228.253684 
L 320.933686 228.160684 
L 321.739414 227.478681 
L 322.142278 227.416681 
L 322.545142 226.734678 
L 322.948006 226.548678 
L 323.350869 226.207676 
L 323.753733 226.145676 
L 324.559461 225.618674 
L 325.365189 225.339673 
L 325.768052 225.029672 
L 326.170916 224.874671 
L 327.782372 223.758667 
L 328.990963 223.138664 
L 329.796691 222.921663 
L 330.602419 222.456661 
L 331.005282 221.743659 
L 331.81101 221.123656 
L 332.213874 221.030656 
L 334.631057 219.821651 
L 335.436785 219.48065 
L 336.242512 218.891647 
L 337.451104 217.744643 
L 338.256832 217.248641 
L 338.659696 216.783639 
L 340.271151 215.636634 
L 341.076879 214.799631 
L 341.882606 214.52063 
L 342.688334 213.962628 
L 343.896926 213.311625 
L 344.299789 213.249625 
L 347.925564 211.358617 
L 349.134156 210.986616 
L 350.342747 210.521614 
L 350.745611 210.180613 
L 352.357066 209.52961 
L 352.75993 209.40561 
L 353.565658 208.878607 
L 354.371386 208.537606 
L 355.177113 207.948604 
L 355.982841 206.305597 
L 356.788569 205.375594 
L 357.99716 204.724591 
L 358.802888 204.38359 
L 359.205752 204.321589 
L 360.011479 203.949588 
L 361.622935 203.391586 
L 362.428663 202.926584 
L 363.23439 202.523582 
L 363.637254 202.399582 
L 366.054437 200.911576 
L 366.457301 200.446574 
L 367.665893 199.733571 
L 368.068756 199.578571 
L 368.874484 199.082569 
L 370.485939 198.183565 
L 370.888803 198.090565 
L 371.291667 197.749563 
L 374.111714 196.788559 
L 374.514578 196.509558 
L 375.320306 196.261557 
L 376.126033 195.920556 
L 376.528897 195.579555 
L 378.140353 194.990552 
L 378.94608 194.40155 
L 379.751808 194.060549 
L 380.557536 193.409546 
L 381.363263 193.161545 
L 381.766127 192.789544 
L 382.168991 192.727543 
L 382.974719 192.107541 
L 384.989038 190.898536 
L 385.794766 190.650535 
L 386.19763 190.402534 
L 386.600493 190.340534 
L 387.809085 189.658531 
L 393.852043 187.736524 
L 395.060634 186.86852 
L 395.463498 186.713519 
L 396.269226 186.248518 
L 396.67209 186.124517 
L 399.089273 184.729512 
L 399.492136 184.636511 
L 400.700728 183.892508 
L 401.90932 183.458507 
L 402.715047 183.179505 
L 404.326503 182.621503 
L 405.13223 182.342502 
L 406.743686 182.001501 
L 407.14655 181.8155 
L 407.952277 181.598499 
L 408.355141 181.412498 
L 408.758005 181.350498 
L 409.160869 181.133497 
L 409.966596 180.978497 
L 411.175188 180.513495 
L 412.38378 180.327494 
L 414.800963 179.862492 
L 416.009554 179.583491 
L 416.412418 179.39749 
L 417.218146 179.24249 
L 418.023873 179.025489 
L 418.829601 178.653488 
L 419.232465 178.498487 
L 419.635329 178.498487 
L 424.066831 177.103481 
L 424.469695 176.886481 
L 424.872559 176.886481 
L 425.678287 176.576479 
L 426.08115 176.142478 
L 428.498333 175.119473 
L 430.109789 174.561471 
L 430.512653 174.31347 
L 431.721244 173.941469 
L 432.526972 173.724468 
L 432.929836 173.445467 
L 433.3327 173.352466 
L 433.735563 172.980465 
L 434.944155 172.732464 
L 435.749883 172.360463 
L 436.152747 171.864461 
L 440.584249 170.872457 
L 440.987113 170.872457 
L 441.389977 170.686456 
L 443.001432 170.376455 
L 443.404296 170.190454 
L 445.015751 169.880453 
L 445.821479 169.539451 
L 446.627207 169.384451 
L 448.641526 168.857449 
L 449.850117 168.485447 
L 451.864437 167.834445 
L 452.670164 167.493443 
L 453.475892 167.183442 
L 453.878756 166.904441 
L 454.684483 166.65644 
L 457.50453 165.571436 
L 459.115986 165.385435 
L 462.338897 164.17643 
L 462.74176 163.866429 
L 463.144624 163.773428 
L 463.547488 163.556428 
L 463.950352 163.525427 
L 468.381854 161.882421 
L 470.396174 161.324419 
L 471.201901 160.921417 
L 472.410493 160.642416 
L 474.021948 159.278411 
L 475.633404 158.565408 
L 476.841995 158.038406 
L 478.45345 157.356403 
L 478.856314 157.232403 
L 479.259178 156.953401 
L 481.273497 156.271399 
L 485.302136 154.19439 
L 486.107864 153.822389 
L 486.510727 153.512388 
L 487.316455 153.233387 
L 489.733638 152.055382 
L 490.136502 151.962382 
L 491.345094 151.404379 
L 492.956549 150.846377 
L 493.762277 150.505376 
L 494.568004 150.381375 
L 494.970868 150.102374 
L 496.582324 149.792373 
L 497.388051 149.451372 
L 499.805234 148.273367 
L 500.208098 148.211367 
L 501.41669 147.498364 
L 502.625281 147.064362 
L 505.445328 145.855357 
L 505.848192 145.731357 
L 506.251056 145.452356 
L 507.056784 145.359355 
L 507.459647 145.080354 
L 508.265375 144.956354 
L 509.071103 144.553352 
L 509.473967 144.367351 
L 510.279694 144.150351 
L 511.085422 143.90235 
L 512.294014 143.437348 
L 513.502605 143.034346 
L 514.711197 142.755345 
L 516.322652 142.073342 
L 517.12838 141.639341 
L 518.739835 140.802337 
L 519.545563 140.616337 
L 519.948427 140.368336 
L 520.351291 140.275335 
L 521.559882 139.562332 
L 522.768474 139.097331 
L 525.588521 138.105327 
L 525.991384 137.981326 
L 526.797112 137.547324 
L 528.811431 136.834322 
L 531.228614 135.842318 
L 532.84007 135.067315 
L 536.868708 133.455308 
L 537.674436 133.052307 
L 538.0773 132.959306 
L 538.883027 132.649305 
L 539.285891 132.649305 
L 540.091619 132.277303 
L 541.703074 130.913298 
L 542.105938 130.789298 
L 542.508802 130.541297 
L 543.717394 130.200295 
L 544.120258 129.890294 
L 544.523121 129.797294 
L 545.731713 129.053291 
L 546.134577 128.77429 
L 547.343168 128.309288 
L 547.746032 128.092287 
L 548.954624 127.813286 
L 550.968943 127.100283 
L 551.774671 126.852282 
L 552.983262 126.201279 
L 553.78899 125.798278 
L 554.594718 125.581277 
L 556.206173 124.837274 
L 556.609037 124.713273 
L 557.414764 124.341272 
L 559.429084 123.659269 
L 560.637675 122.884266 
L 561.040539 122.791266 
L 561.846267 122.388264 
L 562.651994 122.078263 
L 563.054858 121.706262 
L 564.26345 121.24126 
L 564.666314 121.179259 
L 566.277769 120.435256 
L 567.486361 120.063255 
L 567.889224 119.877254 
L 568.292088 119.815254 
L 569.097816 119.474253 
L 570.306408 119.195252 
L 571.112135 118.73025 
L 571.514999 118.575249 
L 571.917863 118.265248 
L 573.126454 117.955247 
L 573.932182 117.645245 
L 574.73791 117.304244 
L 576.349365 116.653241 
L 579.169412 115.909239 
L 579.97514 115.599237 
L 581.586595 115.289236 
L 582.392323 115.134235 
L 583.600915 114.669234 
L 584.809506 114.390233 
L 586.018098 113.73923 
L 586.420961 113.367228 
L 587.226689 112.933227 
L 588.435281 112.189224 
L 590.852464 111.445221 
L 591.255328 111.13522 
L 594.881102 109.833214 
L 595.68683 109.554213 
L 596.895421 109.027211 
L 600.521196 107.539205 
L 601.326924 107.229204 
L 602.938379 106.578202 
L 603.341243 106.2062 
L 603.744107 106.1442 
L 605.355562 105.493197 
L 606.967018 105.090196 
L 607.369881 105.028195 
L 607.772745 104.842195 
L 608.175609 104.811194 
L 608.981337 104.532193 
L 609.384201 104.501193 
L 610.592792 104.036191 
L 612.204248 103.57119 
L 613.009975 102.951187 
L 614.621431 102.052184 
L 615.024295 101.959183 
L 615.830022 101.649182 
L 619.052933 100.068176 
L 619.455797 99.851175 
L 619.858661 99.479173 
L 621.87298 98.983171 
L 623.081572 98.425169 
L 623.887299 98.208168 
L 624.290163 98.022168 
L 624.693027 97.681166 
L 626.304482 97.247164 
L 626.707346 96.937163 
L 631.944576 95.015156 
L 632.750304 94.860155 
L 634.764623 94.209152 
L 635.973215 93.68215 
L 638.793262 92.814147 
L 639.598989 92.349145 
L 642.419036 91.388141 
L 644.030492 90.861139 
L 645.239083 90.582138 
L 646.447675 90.210137 
L 646.850538 90.117136 
L 647.253402 89.838135 
L 648.05913 89.652134 
L 649.670585 89.187132 
L 650.073449 89.156132 
L 650.879177 88.784131 
L 653.699224 88.071128 
L 655.310679 87.482126 
L 655.713543 87.482126 
L 656.922135 87.203125 
L 657.727862 87.048124 
L 658.53359 86.831123 
L 659.742182 86.180121 
L 660.950773 85.808119 
L 663.77082 84.847115 
L 665.382275 84.041112 
L 666.590867 83.762111 
L 667.396595 83.51411 
L 668.202322 83.111108 
L 668.605186 82.770107 
L 669.410914 82.522106 
L 669.813778 82.274105 
L 670.619505 82.181105 
L 673.439552 81.375101 
L 674.648144 81.127101 
L 675.856735 80.817099 
L 676.662463 80.631099 
L 677.871055 80.011096 
L 683.108285 77.996088 
L 683.914012 77.872088 
L 684.71974 77.717087 
L 685.122604 77.717087 
L 686.331195 77.314085 
L 687.539787 76.942084 
L 691.165562 75.91908 
L 691.971289 75.702079 
L 692.374153 75.609079 
L 692.777017 75.361078 
L 693.582745 75.206077 
L 694.388472 75.113077 
L 694.791336 74.896076 
L 695.1942 74.865076 
L 695.999928 74.338074 
L 697.611383 73.997072 
L 698.417111 73.656071 
L 699.222839 73.37707 
L 700.028566 73.160069 
L 700.834294 72.819068 
L 701.640022 72.540066 
L 703.251477 72.075065 
L 704.057205 72.013064 
L 704.862932 71.734063 
L 705.265796 71.579063 
L 706.071524 71.455062 
L 707.682979 70.742059 
L 708.085843 70.680059 
L 708.891571 70.370058 
L 711.308754 69.967056 
L 712.114482 69.719055 
L 712.517346 69.657055 
L 713.323073 69.316054 
L 713.725937 69.254053 
L 714.128801 69.037053 
L 714.934529 68.35505 
L 718.963167 66.867044 
L 721.38035 66.216041 
L 721.783214 65.90604 
L 723.394669 65.193037 
L 725.006125 64.511035 
L 725.811852 64.263034 
L 727.020444 63.798032 
L 727.826172 63.45703 
L 729.437627 62.465026 
L 729.840491 62.372026 
L 731.049082 61.752024 
L 731.85481 61.442022 
L 733.466266 60.88402 
L 733.869129 60.698019 
L 734.271993 60.357018 
L 734.674857 60.264018 
L 735.480585 59.768016 
L 735.883449 59.675015 
L 737.09204 59.117013 
L 737.897768 58.838012 
L 738.300632 58.652011 
L 738.703496 58.621011 
L 740.717815 57.846008 
L 741.523543 57.691008 
L 742.32927 57.102005 
L 742.732134 57.102005 
L 743.537862 56.761004 
L 743.940726 56.699004 
L 744.343589 56.482003 
L 744.746453 56.420002 
L 745.149317 56.234002 
L 745.955045 56.110001 
L 746.760773 55.8 
L 747.163636 55.8 
L 747.163636 55.8 
" clip-path="url(#p9b08d34434)" style="fill: none; stroke: #1f77b4; stroke-width: 1.5; stroke-linecap: square"/>
   </g>
   <g id="line2d_38">
    <path d="M 138.839227 307.8 
L 142.465002 307.707 
L 145.687913 307.551999 
L 147.299368 307.551999 
L 147.702232 307.427999 
L 149.716551 307.334998 
L 152.133734 307.055997 
L 154.550918 306.962997 
L 155.356645 306.869996 
L 158.176692 306.745996 
L 160.996739 306.652995 
L 163.011058 306.590995 
L 168.248288 306.497995 
L 170.262608 306.435995 
L 173.888382 306.342994 
L 175.499838 306.311994 
L 179.528476 306.218994 
L 181.139931 306.063993 
L 182.751387 306.032993 
L 185.16857 305.939993 
L 186.780025 305.908992 
L 188.794345 305.846992 
L 190.4058 305.691992 
L 194.031575 305.598991 
L 194.837302 305.536991 
L 196.448758 305.443991 
L 198.865941 305.35099 
L 200.477396 305.25799 
L 207.728945 304.792988 
L 210.548992 304.699988 
L 211.757584 304.575987 
L 213.771903 304.482987 
L 217.800541 304.265986 
L 221.82918 304.203986 
L 223.440635 304.017985 
L 225.454955 303.924985 
L 229.483593 303.521983 
L 231.900776 303.211982 
L 233.512232 303.149982 
L 236.735142 302.71598 
L 239.152325 302.65398 
L 240.360917 302.529979 
L 241.569508 302.436979 
L 252.849696 301.537975 
L 253.655424 301.382975 
L 256.072607 301.289974 
L 262.518428 300.886973 
L 265.338475 300.793972 
L 266.949931 300.607971 
L 268.96425 300.514971 
L 271.381433 300.421971 
L 273.395752 300.32897 
L 275.007208 300.29797 
L 277.021527 300.23597 
L 277.827255 300.111969 
L 283.467349 300.018969 
L 284.273076 299.925969 
L 289.107442 299.832968 
L 292.733217 299.646968 
L 295.553264 299.553967 
L 297.164719 299.367967 
L 299.984766 299.274966 
L 300.790494 299.150966 
L 302.804813 299.088965 
L 306.833452 299.026965 
L 308.444907 298.871965 
L 310.056362 298.840964 
L 311.264954 298.747964 
L 312.876409 298.592963 
L 316.905048 298.375963 
L 320.933686 298.282962 
L 324.559461 298.096961 
L 325.768052 298.065961 
L 326.57378 297.941961 
L 328.588099 297.848961 
L 329.393827 297.78696 
L 330.199555 297.72496 
L 331.005282 297.66296 
L 335.033921 297.569959 
L 343.896926 296.980957 
L 344.702653 296.918957 
L 345.911245 296.825956 
L 348.731292 296.732956 
L 350.745611 296.670956 
L 356.385705 296.577955 
L 357.191433 296.453955 
L 362.831526 296.360955 
L 366.860165 296.143954 
L 367.665893 296.112954 
L 368.47162 296.019953 
L 370.485939 295.926953 
L 372.500259 295.864953 
L 374.514578 295.771952 
L 376.528897 295.709952 
L 380.154672 295.616952 
L 382.571855 295.523951 
L 388.211949 295.430951 
L 392.643451 295.18295 
L 394.254906 295.12095 
L 395.463498 295.027949 
L 401.103592 294.934949 
L 403.520775 294.841949 
L 410.772324 294.748948 
L 412.38378 294.717948 
L 417.218146 294.655948 
L 418.023873 294.593948 
L 423.663967 294.500947 
L 425.275423 294.469947 
L 435.749883 294.376947 
L 438.167066 294.283946 
L 455.087347 294.190946 
L 457.101667 294.128946 
L 467.576127 294.066946 
L 468.381854 294.004945 
L 470.396174 293.942945 
L 471.604765 293.818945 
L 474.021948 293.725944 
L 476.841995 293.601944 
L 480.46777 293.508943 
L 482.482089 293.446943 
L 485.302136 293.353943 
L 488.525047 293.198942 
L 490.539366 293.105942 
L 492.150821 293.074942 
L 498.999507 292.981941 
L 501.41669 292.888941 
L 505.848192 292.79594 
L 508.668239 292.67194 
L 511.488286 292.60994 
L 512.294014 292.547939 
L 521.962746 292.454939 
L 525.991384 292.237938 
L 528.811431 292.144938 
L 533.242934 291.896937 
L 536.062981 291.803937 
L 537.674436 291.772936 
L 540.494483 291.679936 
L 542.508802 291.462935 
L 546.537441 291.369935 
L 547.343168 291.276934 
L 551.371807 291.183934 
L 553.386126 291.121934 
L 557.817628 291.090934 
L 558.623356 290.997933 
L 563.054858 290.904933 
L 563.860586 290.842933 
L 572.723591 290.749932 
L 575.140774 290.656932 
L 581.183731 290.563932 
L 582.795187 290.532931 
L 586.420961 290.470931 
L 587.226689 290.377931 
L 592.463919 290.28493 
L 594.478238 290.22293 
L 601.729788 290.12993 
L 602.938379 290.03693 
L 604.146971 289.943929 
L 605.355562 289.850929 
L 611.39852 289.757928 
L 613.815703 289.664928 
L 624.693027 289.571928 
L 628.318802 289.385927 
L 633.153168 289.323927 
L 633.958895 289.261926 
L 640.001853 289.199926 
L 640.807581 289.137926 
L 645.239083 289.044926 
L 646.850538 289.013925 
L 653.699224 288.920925 
L 654.504952 288.858925 
L 661.756501 288.765924 
L 663.367956 288.734924 
L 667.396595 288.641924 
L 670.216642 288.517923 
L 674.648144 288.424923 
L 677.468191 288.300923 
L 681.093965 288.207922 
L 681.899693 288.145922 
L 689.95697 288.052922 
L 691.971289 287.990921 
L 694.388472 287.897921 
L 696.805655 287.804921 
L 708.891571 287.71192 
L 711.711618 287.58792 
L 718.560303 287.494919 
L 720.977486 287.401919 
L 726.214716 287.308919 
L 728.631899 287.215918 
L 731.85481 287.122918 
L 734.271993 287.029918 
L 747.163636 286.936917 
L 747.163636 286.936917 
" clip-path="url(#p9b08d34434)" style="fill: none; stroke: #ff7f0e; stroke-width: 1.5; stroke-linecap: square"/>
   </g>
   <g id="patch_3">
    <path d="M 108 320.4 
L 108 43.2 
" style="fill: none; stroke: #a9a9a9; stroke-width: 0.8; stroke-linejoin: miter; stroke-linecap: square"/>
   </g>
   <g id="patch_4">
    <path d="M 777.6 320.4 
L 777.6 43.2 
" style="fill: none"/>
   </g>
   <g id="patch_5">
    <path d="M 108 320.4 
L 777.6 320.4 
" style="fill: none; stroke: #a9a9a9; stroke-width: 0.8; stroke-linejoin: miter; stroke-linecap: square"/>
   </g>
   <g id="patch_6">
    <path d="M 108 43.2 
L 777.6 43.2 
" style="fill: none"/>
   </g>
   <g id="text_19">
    <!-- get_subscribe history -->
    <g style="fill: #a9a9a9" transform="translate(378.6075 37.2) scale(0.12 -0.12)">
     <defs>
      <path id="DejaVuSans-67" d="M 2906 1791 
Q 2906 2416 2648 2759 
Q 2391 3103 1925 3103 
Q 1463 3103 1205 2759 
Q 947 2416 947 1791 
Q 947 1169 1205 825 
Q 1463 481 1925 481 
Q 2391 481 2648 825 
Q 2906 1169 2906 1791 
z
M 3481 434 
Q 3481 -459 3084 -895 
Q 2688 -1331 1869 -1331 
Q 1566 -1331 1297 -1286 
Q 1028 -1241 775 -1147 
L 775 -588 
Q 1028 -725 1275 -790 
Q 1522 -856 1778 -856 
Q 2344 -856 2625 -561 
Q 2906 -266 2906 331 
L 2906 616 
Q 2728 306 2450 153 
Q 2172 0 1784 0 
Q 1141 0 747 490 
Q 353 981 353 1791 
Q 353 2603 747 3093 
Q 1141 3584 1784 3584 
Q 2172 3584 2450 3431 
Q 2728 3278 2906 2969 
L 2906 3500 
L 3481 3500 
L 3481 434 
z
" transform="scale(0.015625)"/>
      <path id="DejaVuSans-65" d="M 3597 1894 
L 3597 1613 
L 953 1613 
Q 991 1019 1311 708 
Q 1631 397 2203 397 
Q 2534 397 2845 478 
Q 3156 559 3463 722 
L 3463 178 
Q 3153 47 2828 -22 
Q 2503 -91 2169 -91 
Q 1331 -91 842 396 
Q 353 884 353 1716 
Q 353 2575 817 3079 
Q 1281 3584 2069 3584 
Q 2775 3584 3186 3129 
Q 3597 2675 3597 1894 
z
M 3022 2063 
Q 3016 2534 2758 2815 
Q 2500 3097 2075 3097 
Q 1594 3097 1305 2825 
Q 1016 2553 972 2059 
L 3022 2063 
z
" transform="scale(0.015625)"/>
      <path id="DejaVuSans-74" d="M 1172 4494 
L 1172 3500 
L 2356 3500 
L 2356 3053 
L 1172 3053 
L 1172 1153 
Q 1172 725 1289 603 
Q 1406 481 1766 481 
L 2356 481 
L 2356 0 
L 1766 0 
Q 1100 0 847 248 
Q 594 497 594 1153 
L 594 3053 
L 172 3053 
L 172 3500 
L 594 3500 
L 594 4494 
L 1172 4494 
z
" transform="scale(0.015625)"/>
      <path id="DejaVuSans-5f" d="M 3263 -1063 
L 3263 -1509 
L -63 -1509 
L -63 -1063 
L 3263 -1063 
z
" transform="scale(0.015625)"/>
      <path id="DejaVuSans-73" d="M 2834 3397 
L 2834 2853 
Q 2591 2978 2328 3040 
Q 2066 3103 1784 3103 
Q 1356 3103 1142 2972 
Q 928 2841 928 2578 
Q 928 2378 1081 2264 
Q 1234 2150 1697 2047 
L 1894 2003 
Q 2506 1872 2764 1633 
Q 3022 1394 3022 966 
Q 3022 478 2636 193 
Q 2250 -91 1575 -91 
Q 1294 -91 989 -36 
Q 684 19 347 128 
L 347 722 
Q 666 556 975 473 
Q 1284 391 1588 391 
Q 1994 391 2212 530 
Q 2431 669 2431 922 
Q 2431 1156 2273 1281 
Q 2116 1406 1581 1522 
L 1381 1569 
Q 847 1681 609 1914 
Q 372 2147 372 2553 
Q 372 3047 722 3315 
Q 1072 3584 1716 3584 
Q 2034 3584 2315 3537 
Q 2597 3491 2834 3397 
z
" transform="scale(0.015625)"/>
      <path id="DejaVuSans-75" d="M 544 1381 
L 544 3500 
L 1119 3500 
L 1119 1403 
Q 1119 906 1312 657 
Q 1506 409 1894 409 
Q 2359 409 2629 706 
Q 2900 1003 2900 1516 
L 2900 3500 
L 3475 3500 
L 3475 0 
L 2900 0 
L 2900 538 
Q 2691 219 2414 64 
Q 2138 -91 1772 -91 
Q 1169 -91 856 284 
Q 544 659 544 1381 
z
M 1991 3584 
L 1991 3584 
z
" transform="scale(0.015625)"/>
      <path id="DejaVuSans-62" d="M 3116 1747 
Q 3116 2381 2855 2742 
Q 2594 3103 2138 3103 
Q 1681 3103 1420 2742 
Q 1159 2381 1159 1747 
Q 1159 1113 1420 752 
Q 1681 391 2138 391 
Q 2594 391 2855 752 
Q 3116 1113 3116 1747 
z
M 1159 2969 
Q 1341 3281 1617 3432 
Q 1894 3584 2278 3584 
Q 2916 3584 3314 3078 
Q 3713 2572 3713 1747 
Q 3713 922 3314 415 
Q 2916 -91 2278 -91 
Q 1894 -91 1617 61 
Q 1341 213 1159 525 
L 1159 0 
L 581 0 
L 581 4863 
L 1159 4863 
L 1159 2969 
z
" transform="scale(0.015625)"/>
      <path id="DejaVuSans-63" d="M 3122 3366 
L 3122 2828 
Q 2878 2963 2633 3030 
Q 2388 3097 2138 3097 
Q 1578 3097 1268 2742 
Q 959 2388 959 1747 
Q 959 1106 1268 751 
Q 1578 397 2138 397 
Q 2388 397 2633 464 
Q 2878 531 3122 666 
L 3122 134 
Q 2881 22 2623 -34 
Q 2366 -91 2075 -91 
Q 1284 -91 818 406 
Q 353 903 353 1747 
Q 353 2603 823 3093 
Q 1294 3584 2113 3584 
Q 2378 3584 2631 3529 
Q 2884 3475 3122 3366 
z
" transform="scale(0.015625)"/>
      <path id="DejaVuSans-72" d="M 2631 2963 
Q 2534 3019 2420 3045 
Q 2306 3072 2169 3072 
Q 1681 3072 1420 2755 
Q 1159 2438 1159 1844 
L 1159 0 
L 581 0 
L 581 3500 
L 1159 3500 
L 1159 2956 
Q 1341 3275 1631 3429 
Q 1922 3584 2338 3584 
Q 2397 3584 2469 3576 
Q 2541 3569 2628 3553 
L 2631 2963 
z
" transform="scale(0.015625)"/>
      <path id="DejaVuSans-69" d="M 603 3500 
L 1178 3500 
L 1178 0 
L 603 0 
L 603 3500 
z
M 603 4863 
L 1178 4863 
L 1178 4134 
L 603 4134 
L 603 4863 
z
" transform="scale(0.015625)"/>
      <path id="DejaVuSans-20" transform="scale(0.015625)"/>
      <path id="DejaVuSans-68" d="M 3513 2113 
L 3513 0 
L 2938 0 
L 2938 2094 
Q 2938 2591 2744 2837 
Q 2550 3084 2163 3084 
Q 1697 3084 1428 2787 
Q 1159 2491 1159 1978 
L 1159 0 
L 581 0 
L 581 4863 
L 1159 4863 
L 1159 2956 
Q 1366 3272 1645 3428 
Q 1925 3584 2291 3584 
Q 2894 3584 3203 3211 
Q 3513 2838 3513 2113 
z
" transform="scale(0.015625)"/>
      <path id="DejaVuSans-6f" d="M 1959 3097 
Q 1497 3097 1228 2736 
Q 959 2375 959 1747 
Q 959 1119 1226 758 
Q 1494 397 1959 397 
Q 2419 397 2687 759 
Q 2956 1122 2956 1747 
Q 2956 2369 2687 2733 
Q 2419 3097 1959 3097 
z
M 1959 3584 
Q 2709 3584 3137 3096 
Q 3566 2609 3566 1747 
Q 3566 888 3137 398 
Q 2709 -91 1959 -91 
Q 1206 -91 779 398 
Q 353 888 353 1747 
Q 353 2609 779 3096 
Q 1206 3584 1959 3584 
z
" transform="scale(0.015625)"/>
      <path id="DejaVuSans-79" d="M 2059 -325 
Q 1816 -950 1584 -1140 
Q 1353 -1331 966 -1331 
L 506 -1331 
L 506 -850 
L 844 -850 
Q 1081 -850 1212 -737 
Q 1344 -625 1503 -206 
L 1606 56 
L 191 3500 
L 800 3500 
L 1894 763 
L 2988 3500 
L 3597 3500 
L 2059 -325 
z
" transform="scale(0.015625)"/>
     </defs>
     <use xlink:href="#DejaVuSans-67"/>
     <use xlink:href="#DejaVuSans-65" transform="translate(63.476562 0)"/>
     <use xlink:href="#DejaVuSans-74" transform="translate(125 0)"/>
     <use xlink:href="#DejaVuSans-5f" transform="translate(164.208984 0)"/>
     <use xlink:href="#DejaVuSans-73" transform="translate(214.208984 0)"/>
     <use xlink:href="#DejaVuSans-75" transform="translate(266.308594 0)"/>
     <use xlink:href="#DejaVuSans-62" transform="translate(329.6875 0)"/>
     <use xlink:href="#DejaVuSans-73" transform="translate(393.164062 0)"/>
     <use xlink:href="#DejaVuSans-63" transform="translate(445.263672 0)"/>
     <use xlink:href="#DejaVuSans-72" transform="translate(500.244141 0)"/>
     <use xlink:href="#DejaVuSans-69" transform="translate(541.357422 0)"/>
     <use xlink:href="#DejaVuSans-62" transform="translate(569.140625 0)"/>
     <use xlink:href="#DejaVuSans-65" transform="translate(632.617188 0)"/>
     <use xlink:href="#DejaVuSans-20" transform="translate(694.140625 0)"/>
     <use xlink:href="#DejaVuSans-68" transform="translate(725.927734 0)"/>
     <use xlink:href="#DejaVuSans-69" transform="translate(789.306641 0)"/>
     <use xlink:href="#DejaVuSans-73" transform="translate(817.089844 0)"/>
     <use xlink:href="#DejaVuSans-74" transform="translate(869.189453 0)"/>
     <use xlink:href="#DejaVuSans-6f" transform="translate(908.398438 0)"/>
     <use xlink:href="#DejaVuSans-72" transform="translate(969.580078 0)"/>
     <use xlink:href="#DejaVuSans-79" transform="translate(1010.693359 0)"/>
    </g>
   </g>
   <g id="legend_1">
    <g id="line2d_39">
     <path d="M 815.08 328.498438 
L 825.08 328.498438 
L 835.08 328.498438 
" style="fill: none; stroke: #1f77b4; stroke-width: 1.5; stroke-linecap: square"/>
    </g>
    <g id="text_20">
     <!-- star -->
     <g style="fill: #a9a9a9" transform="translate(843.08 331.998438) scale(0.1 -0.1)">
      <defs>
       <path id="DejaVuSans-61" d="M 2194 1759 
Q 1497 1759 1228 1600 
Q 959 1441 959 1056 
Q 959 750 1161 570 
Q 1363 391 1709 391 
Q 2188 391 2477 730 
Q 2766 1069 2766 1631 
L 2766 1759 
L 2194 1759 
z
M 3341 1997 
L 3341 0 
L 2766 0 
L 2766 531 
Q 2569 213 2275 61 
Q 1981 -91 1556 -91 
Q 1019 -91 701 211 
Q 384 513 384 1019 
Q 384 1609 779 1909 
Q 1175 2209 1959 2209 
L 2766 2209 
L 2766 2266 
Q 2766 2663 2505 2880 
Q 2244 3097 1772 3097 
Q 1472 3097 1187 3025 
Q 903 2953 641 2809 
L 641 3341 
Q 956 3463 1253 3523 
Q 1550 3584 1831 3584 
Q 2591 3584 2966 3190 
Q 3341 2797 3341 1997 
z
" transform="scale(0.015625)"/>
      </defs>
      <use xlink:href="#DejaVuSans-73"/>
      <use xlink:href="#DejaVuSans-74" transform="translate(52.099609 0)"/>
      <use xlink:href="#DejaVuSans-61" transform="translate(91.308594 0)"/>
      <use xlink:href="#DejaVuSans-72" transform="translate(152.587891 0)"/>
     </g>
    </g>
    <g id="line2d_40">
     <path d="M 815.08 343.176562 
L 825.08 343.176562 
L 835.08 343.176562 
" style="fill: none; stroke: #ff7f0e; stroke-width: 1.5; stroke-linecap: square"/>
    </g>
    <g id="text_21">
     <!-- fork -->
     <g style="fill: #a9a9a9" transform="translate(843.08 346.676562) scale(0.1 -0.1)">
      <defs>
       <path id="DejaVuSans-66" d="M 2375 4863 
L 2375 4384 
L 1825 4384 
Q 1516 4384 1395 4259 
Q 1275 4134 1275 3809 
L 1275 3500 
L 2222 3500 
L 2222 3053 
L 1275 3053 
L 1275 0 
L 697 0 
L 697 3053 
L 147 3053 
L 147 3500 
L 697 3500 
L 697 3744 
Q 697 4328 969 4595 
Q 1241 4863 1831 4863 
L 2375 4863 
z
" transform="scale(0.015625)"/>
       <path id="DejaVuSans-6b" d="M 581 4863 
L 1159 4863 
L 1159 1991 
L 2875 3500 
L 3609 3500 
L 1753 1863 
L 3688 0 
L 2938 0 
L 1159 1709 
L 1159 0 
L 581 0 
L 581 4863 
z
" transform="scale(0.015625)"/>
      </defs>
      <use xlink:href="#DejaVuSans-66"/>
      <use xlink:href="#DejaVuSans-6f" transform="translate(35.205078 0)"/>
      <use xlink:href="#DejaVuSans-72" transform="translate(96.386719 0)"/>
      <use xlink:href="#DejaVuSans-6b" transform="translate(137.5 0)"/>
     </g>
    </g>
   </g>
  </g>
 </g>
 <defs>
  <clipPath id="p9b08d34434">
   <rect x="108" y="43.2" width="669.6" height="277.2"/>
  </clipPath>
 </defs>
</svg>
