<?xml version="1.0" encoding="utf-8" standalone="no"?>
<!DOCTYPE svg PUBLIC "-//W3C//DTD SVG 1.1//EN"
  "http://www.w3.org/Graphics/SVG/1.1/DTD/svg11.dtd">
<svg xmlns:xlink="http://www.w3.org/1999/xlink" width="864pt" height="360pt" viewBox="0 0 864 360" xmlns="http://www.w3.org/2000/svg" version="1.1">
 <metadata>
  <rdf:RDF xmlns:dc="http://purl.org/dc/elements/1.1/" xmlns:cc="http://creativecommons.org/ns#" xmlns:rdf="http://www.w3.org/1999/02/22-rdf-syntax-ns#">
   <cc:Work>
    <dc:type rdf:resource="http://purl.org/dc/dcmitype/StillImage"/>
    <dc:date>2025-09-11T08:15:33.659501</dc:date>
    <dc:format>image/svg+xml</dc:format>
    <dc:creator>
     <cc:Agent>
      <dc:title>Matplotlib v3.10.6, https://matplotlib.org/</dc:title>
     </cc:Agent>
    </dc:creator>
   </cc:Work>
  </rdf:RDF>
 </metadata>
 <defs>
  <style type="text/css">*{stroke-linejoin: round; stroke-linecap: butt}</style>
 </defs>
 <g id="figure_1">
  <g id="patch_1">
   <path d="M 0 360 
L 864 360 
L 864 0 
L 0 0 
L 0 360 
z
" style="fill: none; opacity: 0"/>
  </g>
  <g id="axes_1">
   <g id="patch_2">
    <path d="M 108 320.4 
L 777.6 320.4 
L 777.6 43.2 
L 108 43.2 
L 108 320.4 
z
" style="fill: none; opacity: 0"/>
   </g>
   <g id="matplotlib.axis_1">
    <g id="xtick_1">
     <g id="line2d_1">
      <path d="M 129.164359 320.4 
L 129.164359 43.2 
" clip-path="url(#pe66d169aad)" style="fill: none; stroke-dasharray: 5.12,1.28,0.8,1.28; stroke-dashoffset: 0; stroke: #b0b0b0; stroke-width: 0.8"/>
     </g>
     <g id="line2d_2">
      <defs>
       <path id="m981ebeaa9b" d="M 0 0 
L 0 3.5 
" style="stroke: #a9a9a9; stroke-width: 0.8"/>
      </defs>
      <g>
       <use xlink:href="#m981ebeaa9b" x="129.164359" y="320.4" style="fill: #a9a9a9; stroke: #a9a9a9; stroke-width: 0.8"/>
      </g>
     </g>
     <g id="text_1">
      <!-- 2021-07 -->
      <g style="fill: #a9a9a9" transform="translate(108.272953 334.998438) scale(0.1 -0.1)">
       <defs>
        <path id="DejaVuSans-32" d="M 1228 531 
L 3431 531 
L 3431 0 
L 469 0 
L 469 531 
Q 828 903 1448 1529 
Q 2069 2156 2228 2338 
Q 2531 2678 2651 2914 
Q 2772 3150 2772 3378 
Q 2772 3750 2511 3984 
Q 2250 4219 1831 4219 
Q 1534 4219 1204 4116 
Q 875 4013 500 3803 
L 500 4441 
Q 881 4594 1212 4672 
Q 1544 4750 1819 4750 
Q 2544 4750 2975 4387 
Q 3406 4025 3406 3419 
Q 3406 3131 3298 2873 
Q 3191 2616 2906 2266 
Q 2828 2175 2409 1742 
Q 1991 1309 1228 531 
z
" transform="scale(0.015625)"/>
        <path id="DejaVuSans-30" d="M 2034 4250 
Q 1547 4250 1301 3770 
Q 1056 3291 1056 2328 
Q 1056 1369 1301 889 
Q 1547 409 2034 409 
Q 2525 409 2770 889 
Q 3016 1369 3016 2328 
Q 3016 3291 2770 3770 
Q 2525 4250 2034 4250 
z
M 2034 4750 
Q 2819 4750 3233 4129 
Q 3647 3509 3647 2328 
Q 3647 1150 3233 529 
Q 2819 -91 2034 -91 
Q 1250 -91 836 529 
Q 422 1150 422 2328 
Q 422 3509 836 4129 
Q 1250 4750 2034 4750 
z
" transform="scale(0.015625)"/>
        <path id="DejaVuSans-31" d="M 794 531 
L 1825 531 
L 1825 4091 
L 703 3866 
L 703 4441 
L 1819 4666 
L 2450 4666 
L 2450 531 
L 3481 531 
L 3481 0 
L 794 0 
L 794 531 
z
" transform="scale(0.015625)"/>
        <path id="DejaVuSans-2d" d="M 313 2009 
L 1997 2009 
L 1997 1497 
L 313 1497 
L 313 2009 
z
" transform="scale(0.015625)"/>
        <path id="DejaVuSans-37" d="M 525 4666 
L 3525 4666 
L 3525 4397 
L 1831 0 
L 1172 0 
L 2766 4134 
L 525 4134 
L 525 4666 
z
" transform="scale(0.015625)"/>
       </defs>
       <use xlink:href="#DejaVuSans-32"/>
       <use xlink:href="#DejaVuSans-30" transform="translate(63.623047 0)"/>
       <use xlink:href="#DejaVuSans-32" transform="translate(127.246094 0)"/>
       <use xlink:href="#DejaVuSans-31" transform="translate(190.869141 0)"/>
       <use xlink:href="#DejaVuSans-2d" transform="translate(254.492188 0)"/>
       <use xlink:href="#DejaVuSans-30" transform="translate(290.576172 0)"/>
       <use xlink:href="#DejaVuSans-37" transform="translate(354.199219 0)"/>
      </g>
     </g>
    </g>
    <g id="xtick_2">
     <g id="line2d_3">
      <path d="M 203.340397 320.4 
L 203.340397 43.2 
" clip-path="url(#pe66d169aad)" style="fill: none; stroke-dasharray: 5.12,1.28,0.8,1.28; stroke-dashoffset: 0; stroke: #b0b0b0; stroke-width: 0.8"/>
     </g>
     <g id="line2d_4">
      <g>
       <use xlink:href="#m981ebeaa9b" x="203.340397" y="320.4" style="fill: #a9a9a9; stroke: #a9a9a9; stroke-width: 0.8"/>
      </g>
     </g>
     <g id="text_2">
      <!-- 2022-01 -->
      <g style="fill: #a9a9a9" transform="translate(182.448991 334.998438) scale(0.1 -0.1)">
       <use xlink:href="#DejaVuSans-32"/>
       <use xlink:href="#DejaVuSans-30" transform="translate(63.623047 0)"/>
       <use xlink:href="#DejaVuSans-32" transform="translate(127.246094 0)"/>
       <use xlink:href="#DejaVuSans-32" transform="translate(190.869141 0)"/>
       <use xlink:href="#DejaVuSans-2d" transform="translate(254.492188 0)"/>
       <use xlink:href="#DejaVuSans-30" transform="translate(290.576172 0)"/>
       <use xlink:href="#DejaVuSans-31" transform="translate(354.199219 0)"/>
      </g>
     </g>
    </g>
    <g id="xtick_3">
     <g id="line2d_5">
      <path d="M 276.307044 320.4 
L 276.307044 43.2 
" clip-path="url(#pe66d169aad)" style="fill: none; stroke-dasharray: 5.12,1.28,0.8,1.28; stroke-dashoffset: 0; stroke: #b0b0b0; stroke-width: 0.8"/>
     </g>
     <g id="line2d_6">
      <g>
       <use xlink:href="#m981ebeaa9b" x="276.307044" y="320.4" style="fill: #a9a9a9; stroke: #a9a9a9; stroke-width: 0.8"/>
      </g>
     </g>
     <g id="text_3">
      <!-- 2022-07 -->
      <g style="fill: #a9a9a9" transform="translate(255.415638 334.998438) scale(0.1 -0.1)">
       <use xlink:href="#DejaVuSans-32"/>
       <use xlink:href="#DejaVuSans-30" transform="translate(63.623047 0)"/>
       <use xlink:href="#DejaVuSans-32" transform="translate(127.246094 0)"/>
       <use xlink:href="#DejaVuSans-32" transform="translate(190.869141 0)"/>
       <use xlink:href="#DejaVuSans-2d" transform="translate(254.492188 0)"/>
       <use xlink:href="#DejaVuSans-30" transform="translate(290.576172 0)"/>
       <use xlink:href="#DejaVuSans-37" transform="translate(354.199219 0)"/>
      </g>
     </g>
    </g>
    <g id="xtick_4">
     <g id="line2d_7">
      <path d="M 350.483082 320.4 
L 350.483082 43.2 
" clip-path="url(#pe66d169aad)" style="fill: none; stroke-dasharray: 5.12,1.28,0.8,1.28; stroke-dashoffset: 0; stroke: #b0b0b0; stroke-width: 0.8"/>
     </g>
     <g id="line2d_8">
      <g>
       <use xlink:href="#m981ebeaa9b" x="350.483082" y="320.4" style="fill: #a9a9a9; stroke: #a9a9a9; stroke-width: 0.8"/>
      </g>
     </g>
     <g id="text_4">
      <!-- 2023-01 -->
      <g style="fill: #a9a9a9" transform="translate(329.591676 334.998438) scale(0.1 -0.1)">
       <defs>
        <path id="DejaVuSans-33" d="M 2597 2516 
Q 3050 2419 3304 2112 
Q 3559 1806 3559 1356 
Q 3559 666 3084 287 
Q 2609 -91 1734 -91 
Q 1441 -91 1130 -33 
Q 819 25 488 141 
L 488 750 
Q 750 597 1062 519 
Q 1375 441 1716 441 
Q 2309 441 2620 675 
Q 2931 909 2931 1356 
Q 2931 1769 2642 2001 
Q 2353 2234 1838 2234 
L 1294 2234 
L 1294 2753 
L 1863 2753 
Q 2328 2753 2575 2939 
Q 2822 3125 2822 3475 
Q 2822 3834 2567 4026 
Q 2313 4219 1838 4219 
Q 1578 4219 1281 4162 
Q 984 4106 628 3988 
L 628 4550 
Q 988 4650 1302 4700 
Q 1616 4750 1894 4750 
Q 2613 4750 3031 4423 
Q 3450 4097 3450 3541 
Q 3450 3153 3228 2886 
Q 3006 2619 2597 2516 
z
" transform="scale(0.015625)"/>
       </defs>
       <use xlink:href="#DejaVuSans-32"/>
       <use xlink:href="#DejaVuSans-30" transform="translate(63.623047 0)"/>
       <use xlink:href="#DejaVuSans-32" transform="translate(127.246094 0)"/>
       <use xlink:href="#DejaVuSans-33" transform="translate(190.869141 0)"/>
       <use xlink:href="#DejaVuSans-2d" transform="translate(254.492188 0)"/>
       <use xlink:href="#DejaVuSans-30" transform="translate(290.576172 0)"/>
       <use xlink:href="#DejaVuSans-31" transform="translate(354.199219 0)"/>
      </g>
     </g>
    </g>
    <g id="xtick_5">
     <g id="line2d_9">
      <path d="M 423.449729 320.4 
L 423.449729 43.2 
" clip-path="url(#pe66d169aad)" style="fill: none; stroke-dasharray: 5.12,1.28,0.8,1.28; stroke-dashoffset: 0; stroke: #b0b0b0; stroke-width: 0.8"/>
     </g>
     <g id="line2d_10">
      <g>
       <use xlink:href="#m981ebeaa9b" x="423.449729" y="320.4" style="fill: #a9a9a9; stroke: #a9a9a9; stroke-width: 0.8"/>
      </g>
     </g>
     <g id="text_5">
      <!-- 2023-07 -->
      <g style="fill: #a9a9a9" transform="translate(402.558323 334.998438) scale(0.1 -0.1)">
       <use xlink:href="#DejaVuSans-32"/>
       <use xlink:href="#DejaVuSans-30" transform="translate(63.623047 0)"/>
       <use xlink:href="#DejaVuSans-32" transform="translate(127.246094 0)"/>
       <use xlink:href="#DejaVuSans-33" transform="translate(190.869141 0)"/>
       <use xlink:href="#DejaVuSans-2d" transform="translate(254.492188 0)"/>
       <use xlink:href="#DejaVuSans-30" transform="translate(290.576172 0)"/>
       <use xlink:href="#DejaVuSans-37" transform="translate(354.199219 0)"/>
      </g>
     </g>
    </g>
    <g id="xtick_6">
     <g id="line2d_11">
      <path d="M 497.625768 320.4 
L 497.625768 43.2 
" clip-path="url(#pe66d169aad)" style="fill: none; stroke-dasharray: 5.12,1.28,0.8,1.28; stroke-dashoffset: 0; stroke: #b0b0b0; stroke-width: 0.8"/>
     </g>
     <g id="line2d_12">
      <g>
       <use xlink:href="#m981ebeaa9b" x="497.625768" y="320.4" style="fill: #a9a9a9; stroke: #a9a9a9; stroke-width: 0.8"/>
      </g>
     </g>
     <g id="text_6">
      <!-- 2024-01 -->
      <g style="fill: #a9a9a9" transform="translate(476.734361 334.998438) scale(0.1 -0.1)">
       <defs>
        <path id="DejaVuSans-34" d="M 2419 4116 
L 825 1625 
L 2419 1625 
L 2419 4116 
z
M 2253 4666 
L 3047 4666 
L 3047 1625 
L 3713 1625 
L 3713 1100 
L 3047 1100 
L 3047 0 
L 2419 0 
L 2419 1100 
L 313 1100 
L 313 1709 
L 2253 4666 
z
" transform="scale(0.015625)"/>
       </defs>
       <use xlink:href="#DejaVuSans-32"/>
       <use xlink:href="#DejaVuSans-30" transform="translate(63.623047 0)"/>
       <use xlink:href="#DejaVuSans-32" transform="translate(127.246094 0)"/>
       <use xlink:href="#DejaVuSans-34" transform="translate(190.869141 0)"/>
       <use xlink:href="#DejaVuSans-2d" transform="translate(254.492188 0)"/>
       <use xlink:href="#DejaVuSans-30" transform="translate(290.576172 0)"/>
       <use xlink:href="#DejaVuSans-31" transform="translate(354.199219 0)"/>
      </g>
     </g>
    </g>
    <g id="xtick_7">
     <g id="line2d_13">
      <path d="M 570.995545 320.4 
L 570.995545 43.2 
" clip-path="url(#pe66d169aad)" style="fill: none; stroke-dasharray: 5.12,1.28,0.8,1.28; stroke-dashoffset: 0; stroke: #b0b0b0; stroke-width: 0.8"/>
     </g>
     <g id="line2d_14">
      <g>
       <use xlink:href="#m981ebeaa9b" x="570.995545" y="320.4" style="fill: #a9a9a9; stroke: #a9a9a9; stroke-width: 0.8"/>
      </g>
     </g>
     <g id="text_7">
      <!-- 2024-07 -->
      <g style="fill: #a9a9a9" transform="translate(550.104139 334.998438) scale(0.1 -0.1)">
       <use xlink:href="#DejaVuSans-32"/>
       <use xlink:href="#DejaVuSans-30" transform="translate(63.623047 0)"/>
       <use xlink:href="#DejaVuSans-32" transform="translate(127.246094 0)"/>
       <use xlink:href="#DejaVuSans-34" transform="translate(190.869141 0)"/>
       <use xlink:href="#DejaVuSans-2d" transform="translate(254.492188 0)"/>
       <use xlink:href="#DejaVuSans-30" transform="translate(290.576172 0)"/>
       <use xlink:href="#DejaVuSans-37" transform="translate(354.199219 0)"/>
      </g>
     </g>
    </g>
    <g id="xtick_8">
     <g id="line2d_15">
      <path d="M 645.171583 320.4 
L 645.171583 43.2 
" clip-path="url(#pe66d169aad)" style="fill: none; stroke-dasharray: 5.12,1.28,0.8,1.28; stroke-dashoffset: 0; stroke: #b0b0b0; stroke-width: 0.8"/>
     </g>
     <g id="line2d_16">
      <g>
       <use xlink:href="#m981ebeaa9b" x="645.171583" y="320.4" style="fill: #a9a9a9; stroke: #a9a9a9; stroke-width: 0.8"/>
      </g>
     </g>
     <g id="text_8">
      <!-- 2025-01 -->
      <g style="fill: #a9a9a9" transform="translate(624.280177 334.998438) scale(0.1 -0.1)">
       <defs>
        <path id="DejaVuSans-35" d="M 691 4666 
L 3169 4666 
L 3169 4134 
L 1269 4134 
L 1269 2991 
Q 1406 3038 1543 3061 
Q 1681 3084 1819 3084 
Q 2600 3084 3056 2656 
Q 3513 2228 3513 1497 
Q 3513 744 3044 326 
Q 2575 -91 1722 -91 
Q 1428 -91 1123 -41 
Q 819 9 494 109 
L 494 744 
Q 775 591 1075 516 
Q 1375 441 1709 441 
Q 2250 441 2565 725 
Q 2881 1009 2881 1497 
Q 2881 1984 2565 2268 
Q 2250 2553 1709 2553 
Q 1456 2553 1204 2497 
Q 953 2441 691 2322 
L 691 4666 
z
" transform="scale(0.015625)"/>
       </defs>
       <use xlink:href="#DejaVuSans-32"/>
       <use xlink:href="#DejaVuSans-30" transform="translate(63.623047 0)"/>
       <use xlink:href="#DejaVuSans-32" transform="translate(127.246094 0)"/>
       <use xlink:href="#DejaVuSans-35" transform="translate(190.869141 0)"/>
       <use xlink:href="#DejaVuSans-2d" transform="translate(254.492188 0)"/>
       <use xlink:href="#DejaVuSans-30" transform="translate(290.576172 0)"/>
       <use xlink:href="#DejaVuSans-31" transform="translate(354.199219 0)"/>
      </g>
     </g>
    </g>
    <g id="xtick_9">
     <g id="line2d_17">
      <path d="M 718.13823 320.4 
L 718.13823 43.2 
" clip-path="url(#pe66d169aad)" style="fill: none; stroke-dasharray: 5.12,1.28,0.8,1.28; stroke-dashoffset: 0; stroke: #b0b0b0; stroke-width: 0.8"/>
     </g>
     <g id="line2d_18">
      <g>
       <use xlink:href="#m981ebeaa9b" x="718.13823" y="320.4" style="fill: #a9a9a9; stroke: #a9a9a9; stroke-width: 0.8"/>
      </g>
     </g>
     <g id="text_9">
      <!-- 2025-07 -->
      <g style="fill: #a9a9a9" transform="translate(697.246824 334.998438) scale(0.1 -0.1)">
       <use xlink:href="#DejaVuSans-32"/>
       <use xlink:href="#DejaVuSans-30" transform="translate(63.623047 0)"/>
       <use xlink:href="#DejaVuSans-32" transform="translate(127.246094 0)"/>
       <use xlink:href="#DejaVuSans-35" transform="translate(190.869141 0)"/>
       <use xlink:href="#DejaVuSans-2d" transform="translate(254.492188 0)"/>
       <use xlink:href="#DejaVuSans-30" transform="translate(290.576172 0)"/>
       <use xlink:href="#DejaVuSans-37" transform="translate(354.199219 0)"/>
      </g>
     </g>
    </g>
   </g>
   <g id="matplotlib.axis_2">
    <g id="ytick_1">
     <g id="line2d_19">
      <path d="M 108 307.831012 
L 777.6 307.831012 
" clip-path="url(#pe66d169aad)" style="fill: none; stroke-dasharray: 5.12,1.28,0.8,1.28; stroke-dashoffset: 0; stroke: #b0b0b0; stroke-width: 0.8"/>
     </g>
     <g id="line2d_20">
      <defs>
       <path id="m6b1c759a3d" d="M 0 0 
L -3.5 0 
" style="stroke: #a9a9a9; stroke-width: 0.8"/>
      </defs>
      <g>
       <use xlink:href="#m6b1c759a3d" x="108" y="307.831012" style="fill: #a9a9a9; stroke: #a9a9a9; stroke-width: 0.8"/>
      </g>
     </g>
     <g id="text_10">
      <!-- 0 -->
      <g style="fill: #a9a9a9" transform="translate(94.6375 311.63023) scale(0.1 -0.1)">
       <use xlink:href="#DejaVuSans-30"/>
      </g>
     </g>
    </g>
    <g id="ytick_2">
     <g id="line2d_21">
      <path d="M 108 276.819444 
L 777.6 276.819444 
" clip-path="url(#pe66d169aad)" style="fill: none; stroke-dasharray: 5.12,1.28,0.8,1.28; stroke-dashoffset: 0; stroke: #b0b0b0; stroke-width: 0.8"/>
     </g>
     <g id="line2d_22">
      <g>
       <use xlink:href="#m6b1c759a3d" x="108" y="276.819444" style="fill: #a9a9a9; stroke: #a9a9a9; stroke-width: 0.8"/>
      </g>
     </g>
     <g id="text_11">
      <!-- 1000 -->
      <g style="fill: #a9a9a9" transform="translate(75.55 280.618663) scale(0.1 -0.1)">
       <use xlink:href="#DejaVuSans-31"/>
       <use xlink:href="#DejaVuSans-30" transform="translate(63.623047 0)"/>
       <use xlink:href="#DejaVuSans-30" transform="translate(127.246094 0)"/>
       <use xlink:href="#DejaVuSans-30" transform="translate(190.869141 0)"/>
      </g>
     </g>
    </g>
    <g id="ytick_3">
     <g id="line2d_23">
      <path d="M 108 245.807876 
L 777.6 245.807876 
" clip-path="url(#pe66d169aad)" style="fill: none; stroke-dasharray: 5.12,1.28,0.8,1.28; stroke-dashoffset: 0; stroke: #b0b0b0; stroke-width: 0.8"/>
     </g>
     <g id="line2d_24">
      <g>
       <use xlink:href="#m6b1c759a3d" x="108" y="245.807876" style="fill: #a9a9a9; stroke: #a9a9a9; stroke-width: 0.8"/>
      </g>
     </g>
     <g id="text_12">
      <!-- 2000 -->
      <g style="fill: #a9a9a9" transform="translate(75.55 249.607095) scale(0.1 -0.1)">
       <use xlink:href="#DejaVuSans-32"/>
       <use xlink:href="#DejaVuSans-30" transform="translate(63.623047 0)"/>
       <use xlink:href="#DejaVuSans-30" transform="translate(127.246094 0)"/>
       <use xlink:href="#DejaVuSans-30" transform="translate(190.869141 0)"/>
      </g>
     </g>
    </g>
    <g id="ytick_4">
     <g id="line2d_25">
      <path d="M 108 214.796308 
L 777.6 214.796308 
" clip-path="url(#pe66d169aad)" style="fill: none; stroke-dasharray: 5.12,1.28,0.8,1.28; stroke-dashoffset: 0; stroke: #b0b0b0; stroke-width: 0.8"/>
     </g>
     <g id="line2d_26">
      <g>
       <use xlink:href="#m6b1c759a3d" x="108" y="214.796308" style="fill: #a9a9a9; stroke: #a9a9a9; stroke-width: 0.8"/>
      </g>
     </g>
     <g id="text_13">
      <!-- 3000 -->
      <g style="fill: #a9a9a9" transform="translate(75.55 218.595527) scale(0.1 -0.1)">
       <use xlink:href="#DejaVuSans-33"/>
       <use xlink:href="#DejaVuSans-30" transform="translate(63.623047 0)"/>
       <use xlink:href="#DejaVuSans-30" transform="translate(127.246094 0)"/>
       <use xlink:href="#DejaVuSans-30" transform="translate(190.869141 0)"/>
      </g>
     </g>
    </g>
    <g id="ytick_5">
     <g id="line2d_27">
      <path d="M 108 183.78474 
L 777.6 183.78474 
" clip-path="url(#pe66d169aad)" style="fill: none; stroke-dasharray: 5.12,1.28,0.8,1.28; stroke-dashoffset: 0; stroke: #b0b0b0; stroke-width: 0.8"/>
     </g>
     <g id="line2d_28">
      <g>
       <use xlink:href="#m6b1c759a3d" x="108" y="183.78474" style="fill: #a9a9a9; stroke: #a9a9a9; stroke-width: 0.8"/>
      </g>
     </g>
     <g id="text_14">
      <!-- 4000 -->
      <g style="fill: #a9a9a9" transform="translate(75.55 187.583959) scale(0.1 -0.1)">
       <use xlink:href="#DejaVuSans-34"/>
       <use xlink:href="#DejaVuSans-30" transform="translate(63.623047 0)"/>
       <use xlink:href="#DejaVuSans-30" transform="translate(127.246094 0)"/>
       <use xlink:href="#DejaVuSans-30" transform="translate(190.869141 0)"/>
      </g>
     </g>
    </g>
    <g id="ytick_6">
     <g id="line2d_29">
      <path d="M 108 152.773173 
L 777.6 152.773173 
" clip-path="url(#pe66d169aad)" style="fill: none; stroke-dasharray: 5.12,1.28,0.8,1.28; stroke-dashoffset: 0; stroke: #b0b0b0; stroke-width: 0.8"/>
     </g>
     <g id="line2d_30">
      <g>
       <use xlink:href="#m6b1c759a3d" x="108" y="152.773173" style="fill: #a9a9a9; stroke: #a9a9a9; stroke-width: 0.8"/>
      </g>
     </g>
     <g id="text_15">
      <!-- 5000 -->
      <g style="fill: #a9a9a9" transform="translate(75.55 156.572391) scale(0.1 -0.1)">
       <use xlink:href="#DejaVuSans-35"/>
       <use xlink:href="#DejaVuSans-30" transform="translate(63.623047 0)"/>
       <use xlink:href="#DejaVuSans-30" transform="translate(127.246094 0)"/>
       <use xlink:href="#DejaVuSans-30" transform="translate(190.869141 0)"/>
      </g>
     </g>
    </g>
    <g id="ytick_7">
     <g id="line2d_31">
      <path d="M 108 121.761605 
L 777.6 121.761605 
" clip-path="url(#pe66d169aad)" style="fill: none; stroke-dasharray: 5.12,1.28,0.8,1.28; stroke-dashoffset: 0; stroke: #b0b0b0; stroke-width: 0.8"/>
     </g>
     <g id="line2d_32">
      <g>
       <use xlink:href="#m6b1c759a3d" x="108" y="121.761605" style="fill: #a9a9a9; stroke: #a9a9a9; stroke-width: 0.8"/>
      </g>
     </g>
     <g id="text_16">
      <!-- 6000 -->
      <g style="fill: #a9a9a9" transform="translate(75.55 125.560823) scale(0.1 -0.1)">
       <defs>
        <path id="DejaVuSans-36" d="M 2113 2584 
Q 1688 2584 1439 2293 
Q 1191 2003 1191 1497 
Q 1191 994 1439 701 
Q 1688 409 2113 409 
Q 2538 409 2786 701 
Q 3034 994 3034 1497 
Q 3034 2003 2786 2293 
Q 2538 2584 2113 2584 
z
M 3366 4563 
L 3366 3988 
Q 3128 4100 2886 4159 
Q 2644 4219 2406 4219 
Q 1781 4219 1451 3797 
Q 1122 3375 1075 2522 
Q 1259 2794 1537 2939 
Q 1816 3084 2150 3084 
Q 2853 3084 3261 2657 
Q 3669 2231 3669 1497 
Q 3669 778 3244 343 
Q 2819 -91 2113 -91 
Q 1303 -91 875 529 
Q 447 1150 447 2328 
Q 447 3434 972 4092 
Q 1497 4750 2381 4750 
Q 2619 4750 2861 4703 
Q 3103 4656 3366 4563 
z
" transform="scale(0.015625)"/>
       </defs>
       <use xlink:href="#DejaVuSans-36"/>
       <use xlink:href="#DejaVuSans-30" transform="translate(63.623047 0)"/>
       <use xlink:href="#DejaVuSans-30" transform="translate(127.246094 0)"/>
       <use xlink:href="#DejaVuSans-30" transform="translate(190.869141 0)"/>
      </g>
     </g>
    </g>
    <g id="ytick_8">
     <g id="line2d_33">
      <path d="M 108 90.750037 
L 777.6 90.750037 
" clip-path="url(#pe66d169aad)" style="fill: none; stroke-dasharray: 5.12,1.28,0.8,1.28; stroke-dashoffset: 0; stroke: #b0b0b0; stroke-width: 0.8"/>
     </g>
     <g id="line2d_34">
      <g>
       <use xlink:href="#m6b1c759a3d" x="108" y="90.750037" style="fill: #a9a9a9; stroke: #a9a9a9; stroke-width: 0.8"/>
      </g>
     </g>
     <g id="text_17">
      <!-- 7000 -->
      <g style="fill: #a9a9a9" transform="translate(75.55 94.549256) scale(0.1 -0.1)">
       <use xlink:href="#DejaVuSans-37"/>
       <use xlink:href="#DejaVuSans-30" transform="translate(63.623047 0)"/>
       <use xlink:href="#DejaVuSans-30" transform="translate(127.246094 0)"/>
       <use xlink:href="#DejaVuSans-30" transform="translate(190.869141 0)"/>
      </g>
     </g>
    </g>
    <g id="ytick_9">
     <g id="line2d_35">
      <path d="M 108 59.738469 
L 777.6 59.738469 
" clip-path="url(#pe66d169aad)" style="fill: none; stroke-dasharray: 5.12,1.28,0.8,1.28; stroke-dashoffset: 0; stroke: #b0b0b0; stroke-width: 0.8"/>
     </g>
     <g id="line2d_36">
      <g>
       <use xlink:href="#m6b1c759a3d" x="108" y="59.738469" style="fill: #a9a9a9; stroke: #a9a9a9; stroke-width: 0.8"/>
      </g>
     </g>
     <g id="text_18">
      <!-- 8000 -->
      <g style="fill: #a9a9a9" transform="translate(75.55 63.537688) scale(0.1 -0.1)">
       <defs>
        <path id="DejaVuSans-38" d="M 2034 2216 
Q 1584 2216 1326 1975 
Q 1069 1734 1069 1313 
Q 1069 891 1326 650 
Q 1584 409 2034 409 
Q 2484 409 2743 651 
Q 3003 894 3003 1313 
Q 3003 1734 2745 1975 
Q 2488 2216 2034 2216 
z
M 1403 2484 
Q 997 2584 770 2862 
Q 544 3141 544 3541 
Q 544 4100 942 4425 
Q 1341 4750 2034 4750 
Q 2731 4750 3128 4425 
Q 3525 4100 3525 3541 
Q 3525 3141 3298 2862 
Q 3072 2584 2669 2484 
Q 3125 2378 3379 2068 
Q 3634 1759 3634 1313 
Q 3634 634 3220 271 
Q 2806 -91 2034 -91 
Q 1263 -91 848 271 
Q 434 634 434 1313 
Q 434 1759 690 2068 
Q 947 2378 1403 2484 
z
M 1172 3481 
Q 1172 3119 1398 2916 
Q 1625 2713 2034 2713 
Q 2441 2713 2670 2916 
Q 2900 3119 2900 3481 
Q 2900 3844 2670 4047 
Q 2441 4250 2034 4250 
Q 1625 4250 1398 4047 
Q 1172 3844 1172 3481 
z
" transform="scale(0.015625)"/>
       </defs>
       <use xlink:href="#DejaVuSans-38"/>
       <use xlink:href="#DejaVuSans-30" transform="translate(63.623047 0)"/>
       <use xlink:href="#DejaVuSans-30" transform="translate(127.246094 0)"/>
       <use xlink:href="#DejaVuSans-30" transform="translate(190.869141 0)"/>
      </g>
     </g>
    </g>
   </g>
   <g id="line2d_37">
    <path d="M 138.436364 307.737977 
L 140.855148 307.520896 
L 141.258278 307.334826 
L 142.870801 307.117746 
L 144.483323 306.776618 
L 145.289585 306.652572 
L 147.305238 306.466503 
L 148.111499 306.125375 
L 148.51463 305.567167 
L 148.91776 305.288063 
L 149.320891 304.357716 
L 149.724022 304.295693 
L 150.127152 303.954566 
L 150.933414 303.520404 
L 152.545936 302.186906 
L 154.158459 301.349594 
L 155.367851 300.760374 
L 155.770981 300.07812 
L 156.577243 299.457888 
L 156.980373 299.271819 
L 161.01168 298.651587 
L 161.41481 298.465518 
L 164.236725 298.217426 
L 165.849247 297.814275 
L 169.074293 297.349102 
L 169.477423 297.132021 
L 169.880554 297.069998 
L 170.686815 296.790893 
L 173.50873 296.294708 
L 174.314991 296.046616 
L 177.943167 295.426384 
L 178.749428 295.240315 
L 179.555689 295.209303 
L 181.168212 294.806153 
L 181.571343 294.216933 
L 182.780734 293.720748 
L 183.990126 293.379621 
L 184.393257 293.16254 
L 185.199518 293.007482 
L 186.812041 292.511297 
L 187.618302 292.449274 
L 188.424564 292.232193 
L 190.037086 291.798031 
L 190.440217 291.767019 
L 191.246478 291.363869 
L 191.649609 291.301846 
L 192.052739 291.084765 
L 196.487176 290.309476 
L 198.099699 289.813291 
L 198.50283 289.534187 
L 200.518483 288.851932 
L 201.324744 288.262712 
L 202.534136 288.01462 
L 207.774834 286.464041 
L 208.177965 286.402018 
L 209.790488 285.750775 
L 210.193618 285.688752 
L 210.99988 285.347625 
L 211.806141 285.316613 
L 213.015533 284.944475 
L 213.418663 284.944475 
L 213.821794 284.758405 
L 214.628055 284.66537 
L 215.031186 284.510313 
L 216.643709 284.448289 
L 217.44997 284.293232 
L 218.256231 283.85907 
L 219.465623 283.424908 
L 220.271884 282.990746 
L 221.481276 282.463549 
L 223.093799 281.626237 
L 223.49693 281.161063 
L 224.303191 279.858577 
L 224.706321 279.734531 
L 225.109452 279.734531 
L 226.721975 278.835196 
L 227.125105 278.742161 
L 227.528236 278.339011 
L 228.334497 277.997883 
L 229.140759 277.625745 
L 229.543889 277.129559 
L 229.94702 276.447305 
L 230.350151 276.168201 
L 230.753281 275.423923 
L 231.156412 274.95875 
L 233.575196 273.594241 
L 235.187718 272.105685 
L 235.590849 271.144327 
L 235.99398 270.524095 
L 236.39711 270.182968 
L 236.800241 269.996899 
L 240.025286 266.926754 
L 240.831547 266.151464 
L 243.250331 264.569874 
L 243.653462 264.414817 
L 245.265984 263.422446 
L 245.669115 263.236377 
L 247.684768 261.31366 
L 248.49103 260.972533 
L 249.297291 260.383313 
L 249.700421 260.13522 
L 250.103552 260.073197 
L 251.312944 259.359931 
L 251.716075 258.894758 
L 253.731728 257.74733 
L 254.134859 257.592272 
L 255.34425 256.723948 
L 261.39121 254.491115 
L 262.197471 253.715826 
L 263.406863 253.095594 
L 264.213125 252.568398 
L 265.019386 252.320305 
L 265.422517 252.041201 
L 265.825647 251.917155 
L 267.035039 251.079842 
L 269.050692 250.614669 
L 270.260084 249.870391 
L 271.469476 249.591287 
L 271.872607 249.498253 
L 273.081999 248.567905 
L 274.694521 248.102732 
L 275.097652 247.761605 
L 277.516436 246.893281 
L 278.322697 246.738223 
L 279.128958 246.397096 
L 281.950873 245.311691 
L 282.757134 245.218656 
L 283.966526 244.784494 
L 285.982179 243.761112 
L 288.400963 242.365592 
L 289.207225 242.148511 
L 290.416616 241.52828 
L 291.222878 241.373222 
L 292.029139 240.877037 
L 292.8354 240.659956 
L 294.044792 240.163771 
L 295.657315 239.94669 
L 296.463576 239.512528 
L 296.866707 239.140389 
L 297.269837 238.396111 
L 298.88236 237.930938 
L 300.494883 237.18666 
L 302.913666 236.008221 
L 303.719928 235.60507 
L 304.92932 235.356978 
L 306.138712 234.736746 
L 306.541842 234.674723 
L 308.557495 233.651341 
L 309.363757 233.124145 
L 310.573149 232.876052 
L 312.588802 232.348856 
L 312.991933 232.007728 
L 313.798194 231.728624 
L 315.813847 230.891312 
L 316.216978 230.581196 
L 316.620108 230.426138 
L 317.42637 229.960965 
L 319.038892 229.433768 
L 319.845154 228.906571 
L 320.248284 228.47241 
L 320.651415 228.224317 
L 321.054545 228.131282 
L 321.860807 227.449028 
L 322.263937 227.387005 
L 322.667068 226.70475 
L 323.070199 226.518681 
L 323.473329 226.177554 
L 323.87646 226.11553 
L 324.682721 225.588334 
L 325.488983 225.30923 
L 325.892113 224.999114 
L 326.295244 224.844056 
L 327.907766 223.72764 
L 329.117158 223.107408 
L 329.92342 222.890327 
L 330.729681 222.425154 
L 331.132812 221.711888 
L 331.939073 221.091656 
L 332.342203 220.998622 
L 334.760987 219.789171 
L 335.567249 219.448043 
L 336.37351 218.858824 
L 337.582902 217.711396 
L 338.389163 217.21521 
L 338.792294 216.750037 
L 340.404816 215.602609 
L 341.211078 214.765297 
L 342.017339 214.486192 
L 342.8236 213.927984 
L 344.032992 213.276741 
L 344.436123 213.214718 
L 348.064299 211.323013 
L 349.273691 210.950874 
L 350.483082 210.4857 
L 350.886213 210.144573 
L 352.498736 209.49333 
L 352.901866 209.369284 
L 353.708128 208.842087 
L 354.514389 208.50096 
L 355.32065 207.91174 
L 356.126911 206.268127 
L 356.933173 205.33778 
L 358.142565 204.686537 
L 358.948826 204.34541 
L 359.351957 204.283387 
L 360.158218 203.911248 
L 361.770741 203.35304 
L 362.577002 202.887866 
L 363.383263 202.484716 
L 363.786394 202.360669 
L 366.205178 200.872114 
L 366.608308 200.406941 
L 367.8177 199.693675 
L 368.220831 199.538617 
L 369.027092 199.042432 
L 370.639615 198.143096 
L 371.042745 198.050062 
L 371.445876 197.708934 
L 374.26779 196.747576 
L 374.670921 196.468472 
L 375.477182 196.220379 
L 376.283444 195.879252 
L 376.686574 195.538125 
L 378.299097 194.948905 
L 379.105358 194.359685 
L 379.91162 194.018558 
L 380.717881 193.367315 
L 381.524142 193.119222 
L 381.927273 192.747083 
L 382.330403 192.68506 
L 383.136665 192.064829 
L 385.152318 190.855378 
L 385.958579 190.607285 
L 386.36171 190.359193 
L 386.76484 190.29717 
L 387.974232 189.614915 
L 394.021192 187.692198 
L 395.230584 186.823874 
L 395.633715 186.668816 
L 396.439976 186.203643 
L 396.843107 186.079596 
L 399.26189 184.684076 
L 399.665021 184.591041 
L 400.874413 183.846763 
L 402.083805 183.412602 
L 402.890066 183.133497 
L 404.502589 182.575289 
L 405.30885 182.296185 
L 406.921373 181.955058 
L 407.324503 181.768988 
L 408.130765 181.551907 
L 408.533895 181.365838 
L 408.937026 181.303815 
L 409.340157 181.086734 
L 410.146418 180.931676 
L 411.35581 180.466503 
L 412.565202 180.280433 
L 414.983986 179.81526 
L 416.193377 179.536156 
L 416.596508 179.350086 
L 417.402769 179.195028 
L 418.209031 178.977947 
L 419.015292 178.605809 
L 419.418423 178.450751 
L 419.821553 178.450751 
L 424.25599 177.05523 
L 424.659121 176.838149 
L 425.062252 176.838149 
L 425.868513 176.528033 
L 426.271644 176.093872 
L 428.690427 175.07049 
L 430.30295 174.512282 
L 430.706081 174.264189 
L 431.915473 173.89205 
L 432.721734 173.674969 
L 433.124865 173.395865 
L 433.527995 173.30283 
L 433.931126 172.930692 
L 435.140518 172.682599 
L 435.946779 172.31046 
L 436.34991 171.814275 
L 440.784347 170.821905 
L 441.187477 170.821905 
L 441.590608 170.635836 
L 443.203131 170.32572 
L 443.606261 170.139651 
L 445.218784 169.829535 
L 446.025045 169.488408 
L 446.831306 169.33335 
L 448.84696 168.806153 
L 450.056352 168.434014 
L 452.072005 167.782771 
L 452.878266 167.441644 
L 453.684527 167.131528 
L 454.087658 166.852424 
L 454.893919 166.604332 
L 457.715834 165.518927 
L 459.328356 165.332857 
L 462.553402 164.123406 
L 462.956532 163.813291 
L 463.359663 163.720256 
L 463.762793 163.503175 
L 464.165924 163.472163 
L 468.600361 161.82855 
L 470.616014 161.270342 
L 471.422276 160.867192 
L 472.631668 160.588088 
L 474.24419 159.223579 
L 475.856713 158.510313 
L 477.066105 157.983116 
L 478.678627 157.300861 
L 479.081758 157.176815 
L 479.484889 156.897711 
L 481.500542 156.215457 
L 485.531848 154.137682 
L 486.33811 153.765543 
L 486.74124 153.455427 
L 487.547502 153.176323 
L 489.966285 151.997883 
L 490.369416 151.904849 
L 491.578808 151.34664 
L 493.191331 150.788432 
L 493.997592 150.447305 
L 494.803853 150.323259 
L 495.206984 150.044155 
L 496.819506 149.734039 
L 497.625768 149.392912 
L 500.044551 148.214472 
L 500.447682 148.152449 
L 501.657074 147.439183 
L 502.866466 147.005021 
L 505.68838 145.79557 
L 506.091511 145.671524 
L 506.494642 145.392419 
L 507.300903 145.299385 
L 507.704034 145.020281 
L 508.510295 144.896234 
L 509.316556 144.493084 
L 509.719687 144.307015 
L 510.525948 144.089934 
L 511.33221 143.841841 
L 512.541601 143.376667 
L 513.750993 142.973517 
L 514.960385 142.694413 
L 516.572908 142.012159 
L 517.379169 141.577997 
L 518.991692 140.740684 
L 519.797953 140.554615 
L 520.201084 140.306522 
L 520.604214 140.213488 
L 521.813606 139.500222 
L 523.022998 139.035048 
L 525.844913 138.042678 
L 526.248043 137.918632 
L 527.054305 137.48447 
L 529.069958 136.771204 
L 531.488742 135.778833 
L 533.101264 135.003544 
L 537.132571 133.390943 
L 537.938832 132.987792 
L 538.341963 132.894758 
L 539.148224 132.584642 
L 539.551355 132.584642 
L 540.357616 132.212503 
L 541.970138 130.847994 
L 542.373269 130.723948 
L 542.7764 130.475855 
L 543.985792 130.134728 
L 544.388922 129.824612 
L 544.792053 129.731578 
L 546.001445 128.9873 
L 546.404576 128.708196 
L 547.613967 128.243022 
L 548.017098 128.025941 
L 549.22649 127.746837 
L 551.242143 127.033571 
L 552.048405 126.785479 
L 553.257797 126.134236 
L 554.064058 125.731085 
L 554.870319 125.514004 
L 556.482842 124.769727 
L 556.885972 124.645681 
L 557.692234 124.273542 
L 559.707887 123.591287 
L 560.917279 122.815998 
L 561.320409 122.722963 
L 562.126671 122.319813 
L 562.932932 122.009697 
L 563.336063 121.637558 
L 564.545455 121.172385 
L 564.948585 121.110362 
L 566.561108 120.366084 
L 567.7705 119.993945 
L 568.17363 119.807876 
L 568.576761 119.745853 
L 569.383022 119.404726 
L 570.592414 119.125621 
L 571.398675 118.660448 
L 571.801806 118.50539 
L 572.204937 118.195274 
L 573.414329 117.885159 
L 573.817459 117.637066 
L 574.623721 117.419985 
L 575.833113 116.737731 
L 576.236243 116.706719 
L 577.445635 116.303569 
L 578.251896 116.241546 
L 579.058158 115.93143 
L 581.476942 115.187152 
L 582.283203 115.156141 
L 585.508248 114.070736 
L 586.314509 113.636574 
L 586.71764 113.264435 
L 587.523901 112.830273 
L 588.733293 112.085996 
L 591.152077 111.341718 
L 591.555208 111.031602 
L 595.183384 109.729116 
L 595.989645 109.450012 
L 597.199037 108.922816 
L 600.827213 107.43426 
L 601.633474 107.124145 
L 603.245996 106.472902 
L 603.649127 106.100763 
L 604.052258 106.03874 
L 605.66478 105.387497 
L 607.277303 104.984347 
L 607.680433 104.922323 
L 608.083564 104.736254 
L 608.486695 104.705242 
L 609.292956 104.426138 
L 609.696087 104.395127 
L 610.905479 103.929953 
L 612.518001 103.46478 
L 613.324262 102.844548 
L 614.936785 101.945213 
L 615.339916 101.852178 
L 616.146177 101.542063 
L 619.371222 99.960473 
L 619.774353 99.743392 
L 620.177483 99.371253 
L 622.193137 98.875068 
L 623.402529 98.316859 
L 624.20879 98.099778 
L 624.611921 97.913709 
L 625.015051 97.572582 
L 626.627574 97.13842 
L 627.030704 96.828304 
L 632.271403 94.905587 
L 633.077664 94.750529 
L 635.093317 94.099286 
L 636.302709 93.57209 
L 639.124624 92.703766 
L 639.930885 92.238592 
L 642.7528 91.277234 
L 644.365322 90.750037 
L 645.574714 90.470933 
L 646.784106 90.098794 
L 647.187237 90.005759 
L 647.590367 89.726655 
L 648.396629 89.540586 
L 650.009151 89.075412 
L 650.412282 89.044401 
L 651.218543 88.672262 
L 654.040458 87.958996 
L 655.65298 87.369776 
L 656.056111 87.369776 
L 657.265503 87.090672 
L 658.071764 86.935614 
L 658.878025 86.718533 
L 660.087417 86.06729 
L 661.296809 85.695151 
L 664.118724 84.733793 
L 665.731246 83.927492 
L 666.940638 83.648388 
L 667.746899 83.400295 
L 668.553161 82.997145 
L 668.956291 82.656018 
L 669.762553 82.407925 
L 670.165683 82.159833 
L 670.971945 82.066798 
L 673.793859 81.260497 
L 675.003251 81.012405 
L 676.212643 80.702289 
L 677.018904 80.51622 
L 678.228296 79.895988 
L 683.468995 77.880236 
L 684.275256 77.75619 
L 685.081517 77.601132 
L 685.484648 77.601132 
L 686.69404 77.197982 
L 687.903432 76.825843 
L 691.531607 75.802461 
L 692.337869 75.58538 
L 692.740999 75.492346 
L 693.14413 75.244253 
L 693.950391 75.089195 
L 694.756653 74.99616 
L 695.159783 74.779079 
L 695.562914 74.748068 
L 696.369175 74.220871 
L 697.981698 73.879744 
L 698.787959 73.538617 
L 699.59422 73.259513 
L 700.400482 73.042432 
L 701.206743 72.701304 
L 702.013004 72.4222 
L 703.625527 71.957027 
L 704.431788 71.895004 
L 705.238049 71.6159 
L 705.64118 71.460842 
L 706.447441 71.336795 
L 708.059964 70.623529 
L 708.463095 70.561506 
L 709.269356 70.251391 
L 711.68814 69.84824 
L 712.494401 69.600148 
L 712.897532 69.538125 
L 713.703793 69.196997 
L 714.106924 69.134974 
L 714.510054 68.917893 
L 715.316315 68.235639 
L 719.347622 66.747083 
L 721.766406 66.095841 
L 722.169536 65.785725 
L 723.782059 65.072459 
L 725.394582 64.390204 
L 726.200843 64.142112 
L 727.410235 63.676938 
L 728.216496 63.335811 
L 729.829019 62.343441 
L 730.232149 62.250406 
L 731.441541 61.630175 
L 732.247803 61.320059 
L 733.860325 60.761851 
L 734.263456 60.575781 
L 734.666586 60.234654 
L 735.069717 60.141619 
L 735.875978 59.645434 
L 736.279109 59.5524 
L 737.488501 58.994191 
L 738.294762 58.715087 
L 738.697893 58.529018 
L 739.101023 58.498006 
L 741.116677 57.722717 
L 741.922938 57.567659 
L 742.729199 56.97844 
L 743.13233 56.97844 
L 743.938591 56.637312 
L 744.341722 56.575289 
L 744.744852 56.358208 
L 745.147983 56.296185 
L 745.551114 56.110116 
L 746.357375 55.986069 
L 746.760506 55.8 
L 747.163636 55.8 
L 747.163636 55.8 
" clip-path="url(#pe66d169aad)" style="fill: none; stroke: #1f77b4; stroke-width: 1.5; stroke-linecap: square"/>
   </g>
   <g id="line2d_38">
    <path d="M 138.839494 307.8 
L 142.46767 307.706965 
L 145.692715 307.551907 
L 147.305238 307.551907 
L 147.708368 307.427861 
L 149.724022 307.334826 
L 152.142806 307.055722 
L 154.561589 306.962688 
L 155.367851 306.869653 
L 158.189765 306.745607 
L 161.01168 306.652572 
L 163.027333 306.590549 
L 168.268031 306.497514 
L 170.283685 306.435491 
L 173.91186 306.342456 
L 175.524383 306.311445 
L 179.555689 306.21841 
L 181.168212 306.063352 
L 182.780734 306.032341 
L 185.199518 305.939306 
L 186.812041 305.908294 
L 188.827694 305.846271 
L 190.440217 305.691213 
L 194.068393 305.598179 
L 194.874654 305.536156 
L 196.487176 305.443121 
L 198.90596 305.350086 
L 200.518483 305.257051 
L 207.774834 304.791878 
L 210.596749 304.698843 
L 211.806141 304.574797 
L 213.821794 304.481762 
L 217.853101 304.264681 
L 221.884407 304.202658 
L 223.49693 304.016589 
L 225.512583 303.923554 
L 229.543889 303.520404 
L 231.962673 303.210288 
L 233.575196 303.148265 
L 236.800241 302.714103 
L 239.219025 302.65208 
L 240.428417 302.528033 
L 241.637809 302.434999 
L 252.925467 301.535663 
L 253.731728 301.380605 
L 256.150512 301.287571 
L 262.600602 300.88442 
L 265.422517 300.791386 
L 267.035039 300.605316 
L 269.050692 300.512282 
L 271.469476 300.419247 
L 273.485129 300.326212 
L 275.097652 300.295201 
L 277.113305 300.233177 
L 277.919567 300.109131 
L 283.563396 300.016096 
L 284.369657 299.923062 
L 289.207225 299.830027 
L 292.8354 299.643958 
L 295.657315 299.550923 
L 297.269837 299.364854 
L 300.091752 299.271819 
L 300.898013 299.147773 
L 302.913666 299.085749 
L 306.944973 299.023726 
L 308.557495 298.868668 
L 310.170018 298.837657 
L 311.37941 298.744622 
L 312.991933 298.589564 
L 317.023239 298.372483 
L 321.054545 298.279449 
L 324.682721 298.093379 
L 325.892113 298.062368 
L 326.698374 297.938321 
L 328.714028 297.845287 
L 329.520289 297.783264 
L 330.32655 297.72124 
L 331.132812 297.659217 
L 335.164118 297.566183 
L 344.032992 296.976963 
L 344.839253 296.91494 
L 346.048645 296.821905 
L 348.87056 296.72887 
L 350.886213 296.666847 
L 356.530042 296.573812 
L 357.336303 296.449766 
L 362.980132 296.356731 
L 367.011439 296.139651 
L 367.8177 296.108639 
L 368.623961 296.015604 
L 370.639615 295.92257 
L 372.655268 295.860546 
L 374.670921 295.767512 
L 376.686574 295.705489 
L 380.31475 295.612454 
L 382.733534 295.519419 
L 388.377363 295.426384 
L 392.8118 295.178292 
L 394.424323 295.116269 
L 395.633715 295.023234 
L 401.277544 294.930199 
L 403.696328 294.837165 
L 410.952679 294.74413 
L 412.565202 294.713118 
L 417.402769 294.651095 
L 418.209031 294.589072 
L 423.85286 294.496037 
L 425.465382 294.465026 
L 435.946779 294.371991 
L 438.365563 294.278956 
L 455.29705 294.185922 
L 457.312703 294.123899 
L 467.7941 294.061875 
L 468.600361 293.999852 
L 470.616014 293.937829 
L 471.825406 293.813783 
L 474.24419 293.720748 
L 477.066105 293.596702 
L 480.694281 293.503667 
L 482.709934 293.441644 
L 485.531848 293.348609 
L 488.756893 293.193552 
L 490.772547 293.100517 
L 492.385069 293.069505 
L 499.23829 292.976471 
L 501.657074 292.883436 
L 506.091511 292.790401 
L 508.913426 292.666355 
L 511.73534 292.604332 
L 512.541601 292.542309 
L 522.216737 292.449274 
L 526.248043 292.232193 
L 529.069958 292.139158 
L 533.504395 291.891066 
L 536.326309 291.798031 
L 537.938832 291.767019 
L 540.760747 291.673985 
L 542.7764 291.456904 
L 546.807706 291.363869 
L 547.613967 291.270834 
L 551.645274 291.1778 
L 553.660927 291.115777 
L 558.095364 291.084765 
L 558.901626 290.99173 
L 563.336063 290.898696 
L 564.142324 290.836672 
L 573.011198 290.743638 
L 575.429982 290.650603 
L 581.476942 290.557568 
L 583.089464 290.526557 
L 586.71764 290.464534 
L 587.523901 290.371499 
L 592.7646 290.278464 
L 594.780253 290.216441 
L 602.036604 290.123406 
L 603.245996 290.030372 
L 604.455388 289.937337 
L 605.66478 289.844302 
L 611.71174 289.751268 
L 614.130524 289.658233 
L 625.015051 289.565198 
L 628.643227 289.379129 
L 633.480795 289.317106 
L 634.287056 289.255082 
L 640.334016 289.193059 
L 641.140277 289.131036 
L 645.574714 289.038001 
L 647.187237 289.00699 
L 654.040458 288.913955 
L 654.846719 288.851932 
L 662.10307 288.758897 
L 663.715593 288.727886 
L 667.746899 288.634851 
L 670.568814 288.510805 
L 675.003251 288.41777 
L 677.825166 288.293724 
L 681.453341 288.200689 
L 682.259603 288.138666 
L 690.322216 288.045631 
L 692.337869 287.983608 
L 694.756653 287.890573 
L 697.175436 287.797539 
L 709.269356 287.704504 
L 712.09127 287.580458 
L 718.944491 287.487423 
L 721.363275 287.394388 
L 726.603974 287.301354 
L 729.022757 287.208319 
L 732.247803 287.115284 
L 734.666586 287.02225 
L 747.163636 286.929215 
L 747.163636 286.929215 
" clip-path="url(#pe66d169aad)" style="fill: none; stroke: #ff7f0e; stroke-width: 1.5; stroke-linecap: square"/>
   </g>
   <g id="patch_3">
    <path d="M 108 320.4 
L 108 43.2 
" style="fill: none; stroke: #a9a9a9; stroke-width: 0.8; stroke-linejoin: miter; stroke-linecap: square"/>
   </g>
   <g id="patch_4">
    <path d="M 777.6 320.4 
L 777.6 43.2 
" style="fill: none"/>
   </g>
   <g id="patch_5">
    <path d="M 108 320.4 
L 777.6 320.4 
" style="fill: none; stroke: #a9a9a9; stroke-width: 0.8; stroke-linejoin: miter; stroke-linecap: square"/>
   </g>
   <g id="patch_6">
    <path d="M 108 43.2 
L 777.6 43.2 
" style="fill: none"/>
   </g>
   <g id="text_19">
    <!-- get_subscribe history -->
    <g style="fill: #a9a9a9" transform="translate(378.6075 37.2) scale(0.12 -0.12)">
     <defs>
      <path id="DejaVuSans-67" d="M 2906 1791 
Q 2906 2416 2648 2759 
Q 2391 3103 1925 3103 
Q 1463 3103 1205 2759 
Q 947 2416 947 1791 
Q 947 1169 1205 825 
Q 1463 481 1925 481 
Q 2391 481 2648 825 
Q 2906 1169 2906 1791 
z
M 3481 434 
Q 3481 -459 3084 -895 
Q 2688 -1331 1869 -1331 
Q 1566 -1331 1297 -1286 
Q 1028 -1241 775 -1147 
L 775 -588 
Q 1028 -725 1275 -790 
Q 1522 -856 1778 -856 
Q 2344 -856 2625 -561 
Q 2906 -266 2906 331 
L 2906 616 
Q 2728 306 2450 153 
Q 2172 0 1784 0 
Q 1141 0 747 490 
Q 353 981 353 1791 
Q 353 2603 747 3093 
Q 1141 3584 1784 3584 
Q 2172 3584 2450 3431 
Q 2728 3278 2906 2969 
L 2906 3500 
L 3481 3500 
L 3481 434 
z
" transform="scale(0.015625)"/>
      <path id="DejaVuSans-65" d="M 3597 1894 
L 3597 1613 
L 953 1613 
Q 991 1019 1311 708 
Q 1631 397 2203 397 
Q 2534 397 2845 478 
Q 3156 559 3463 722 
L 3463 178 
Q 3153 47 2828 -22 
Q 2503 -91 2169 -91 
Q 1331 -91 842 396 
Q 353 884 353 1716 
Q 353 2575 817 3079 
Q 1281 3584 2069 3584 
Q 2775 3584 3186 3129 
Q 3597 2675 3597 1894 
z
M 3022 2063 
Q 3016 2534 2758 2815 
Q 2500 3097 2075 3097 
Q 1594 3097 1305 2825 
Q 1016 2553 972 2059 
L 3022 2063 
z
" transform="scale(0.015625)"/>
      <path id="DejaVuSans-74" d="M 1172 4494 
L 1172 3500 
L 2356 3500 
L 2356 3053 
L 1172 3053 
L 1172 1153 
Q 1172 725 1289 603 
Q 1406 481 1766 481 
L 2356 481 
L 2356 0 
L 1766 0 
Q 1100 0 847 248 
Q 594 497 594 1153 
L 594 3053 
L 172 3053 
L 172 3500 
L 594 3500 
L 594 4494 
L 1172 4494 
z
" transform="scale(0.015625)"/>
      <path id="DejaVuSans-5f" d="M 3263 -1063 
L 3263 -1509 
L -63 -1509 
L -63 -1063 
L 3263 -1063 
z
" transform="scale(0.015625)"/>
      <path id="DejaVuSans-73" d="M 2834 3397 
L 2834 2853 
Q 2591 2978 2328 3040 
Q 2066 3103 1784 3103 
Q 1356 3103 1142 2972 
Q 928 2841 928 2578 
Q 928 2378 1081 2264 
Q 1234 2150 1697 2047 
L 1894 2003 
Q 2506 1872 2764 1633 
Q 3022 1394 3022 966 
Q 3022 478 2636 193 
Q 2250 -91 1575 -91 
Q 1294 -91 989 -36 
Q 684 19 347 128 
L 347 722 
Q 666 556 975 473 
Q 1284 391 1588 391 
Q 1994 391 2212 530 
Q 2431 669 2431 922 
Q 2431 1156 2273 1281 
Q 2116 1406 1581 1522 
L 1381 1569 
Q 847 1681 609 1914 
Q 372 2147 372 2553 
Q 372 3047 722 3315 
Q 1072 3584 1716 3584 
Q 2034 3584 2315 3537 
Q 2597 3491 2834 3397 
z
" transform="scale(0.015625)"/>
      <path id="DejaVuSans-75" d="M 544 1381 
L 544 3500 
L 1119 3500 
L 1119 1403 
Q 1119 906 1312 657 
Q 1506 409 1894 409 
Q 2359 409 2629 706 
Q 2900 1003 2900 1516 
L 2900 3500 
L 3475 3500 
L 3475 0 
L 2900 0 
L 2900 538 
Q 2691 219 2414 64 
Q 2138 -91 1772 -91 
Q 1169 -91 856 284 
Q 544 659 544 1381 
z
M 1991 3584 
L 1991 3584 
z
" transform="scale(0.015625)"/>
      <path id="DejaVuSans-62" d="M 3116 1747 
Q 3116 2381 2855 2742 
Q 2594 3103 2138 3103 
Q 1681 3103 1420 2742 
Q 1159 2381 1159 1747 
Q 1159 1113 1420 752 
Q 1681 391 2138 391 
Q 2594 391 2855 752 
Q 3116 1113 3116 1747 
z
M 1159 2969 
Q 1341 3281 1617 3432 
Q 1894 3584 2278 3584 
Q 2916 3584 3314 3078 
Q 3713 2572 3713 1747 
Q 3713 922 3314 415 
Q 2916 -91 2278 -91 
Q 1894 -91 1617 61 
Q 1341 213 1159 525 
L 1159 0 
L 581 0 
L 581 4863 
L 1159 4863 
L 1159 2969 
z
" transform="scale(0.015625)"/>
      <path id="DejaVuSans-63" d="M 3122 3366 
L 3122 2828 
Q 2878 2963 2633 3030 
Q 2388 3097 2138 3097 
Q 1578 3097 1268 2742 
Q 959 2388 959 1747 
Q 959 1106 1268 751 
Q 1578 397 2138 397 
Q 2388 397 2633 464 
Q 2878 531 3122 666 
L 3122 134 
Q 2881 22 2623 -34 
Q 2366 -91 2075 -91 
Q 1284 -91 818 406 
Q 353 903 353 1747 
Q 353 2603 823 3093 
Q 1294 3584 2113 3584 
Q 2378 3584 2631 3529 
Q 2884 3475 3122 3366 
z
" transform="scale(0.015625)"/>
      <path id="DejaVuSans-72" d="M 2631 2963 
Q 2534 3019 2420 3045 
Q 2306 3072 2169 3072 
Q 1681 3072 1420 2755 
Q 1159 2438 1159 1844 
L 1159 0 
L 581 0 
L 581 3500 
L 1159 3500 
L 1159 2956 
Q 1341 3275 1631 3429 
Q 1922 3584 2338 3584 
Q 2397 3584 2469 3576 
Q 2541 3569 2628 3553 
L 2631 2963 
z
" transform="scale(0.015625)"/>
      <path id="DejaVuSans-69" d="M 603 3500 
L 1178 3500 
L 1178 0 
L 603 0 
L 603 3500 
z
M 603 4863 
L 1178 4863 
L 1178 4134 
L 603 4134 
L 603 4863 
z
" transform="scale(0.015625)"/>
      <path id="DejaVuSans-20" transform="scale(0.015625)"/>
      <path id="DejaVuSans-68" d="M 3513 2113 
L 3513 0 
L 2938 0 
L 2938 2094 
Q 2938 2591 2744 2837 
Q 2550 3084 2163 3084 
Q 1697 3084 1428 2787 
Q 1159 2491 1159 1978 
L 1159 0 
L 581 0 
L 581 4863 
L 1159 4863 
L 1159 2956 
Q 1366 3272 1645 3428 
Q 1925 3584 2291 3584 
Q 2894 3584 3203 3211 
Q 3513 2838 3513 2113 
z
" transform="scale(0.015625)"/>
      <path id="DejaVuSans-6f" d="M 1959 3097 
Q 1497 3097 1228 2736 
Q 959 2375 959 1747 
Q 959 1119 1226 758 
Q 1494 397 1959 397 
Q 2419 397 2687 759 
Q 2956 1122 2956 1747 
Q 2956 2369 2687 2733 
Q 2419 3097 1959 3097 
z
M 1959 3584 
Q 2709 3584 3137 3096 
Q 3566 2609 3566 1747 
Q 3566 888 3137 398 
Q 2709 -91 1959 -91 
Q 1206 -91 779 398 
Q 353 888 353 1747 
Q 353 2609 779 3096 
Q 1206 3584 1959 3584 
z
" transform="scale(0.015625)"/>
      <path id="DejaVuSans-79" d="M 2059 -325 
Q 1816 -950 1584 -1140 
Q 1353 -1331 966 -1331 
L 506 -1331 
L 506 -850 
L 844 -850 
Q 1081 -850 1212 -737 
Q 1344 -625 1503 -206 
L 1606 56 
L 191 3500 
L 800 3500 
L 1894 763 
L 2988 3500 
L 3597 3500 
L 2059 -325 
z
" transform="scale(0.015625)"/>
     </defs>
     <use xlink:href="#DejaVuSans-67"/>
     <use xlink:href="#DejaVuSans-65" transform="translate(63.476562 0)"/>
     <use xlink:href="#DejaVuSans-74" transform="translate(125 0)"/>
     <use xlink:href="#DejaVuSans-5f" transform="translate(164.208984 0)"/>
     <use xlink:href="#DejaVuSans-73" transform="translate(214.208984 0)"/>
     <use xlink:href="#DejaVuSans-75" transform="translate(266.308594 0)"/>
     <use xlink:href="#DejaVuSans-62" transform="translate(329.6875 0)"/>
     <use xlink:href="#DejaVuSans-73" transform="translate(393.164062 0)"/>
     <use xlink:href="#DejaVuSans-63" transform="translate(445.263672 0)"/>
     <use xlink:href="#DejaVuSans-72" transform="translate(500.244141 0)"/>
     <use xlink:href="#DejaVuSans-69" transform="translate(541.357422 0)"/>
     <use xlink:href="#DejaVuSans-62" transform="translate(569.140625 0)"/>
     <use xlink:href="#DejaVuSans-65" transform="translate(632.617188 0)"/>
     <use xlink:href="#DejaVuSans-20" transform="translate(694.140625 0)"/>
     <use xlink:href="#DejaVuSans-68" transform="translate(725.927734 0)"/>
     <use xlink:href="#DejaVuSans-69" transform="translate(789.306641 0)"/>
     <use xlink:href="#DejaVuSans-73" transform="translate(817.089844 0)"/>
     <use xlink:href="#DejaVuSans-74" transform="translate(869.189453 0)"/>
     <use xlink:href="#DejaVuSans-6f" transform="translate(908.398438 0)"/>
     <use xlink:href="#DejaVuSans-72" transform="translate(969.580078 0)"/>
     <use xlink:href="#DejaVuSans-79" transform="translate(1010.693359 0)"/>
    </g>
   </g>
   <g id="legend_1">
    <g id="line2d_39">
     <path d="M 815.08 328.498438 
L 825.08 328.498438 
L 835.08 328.498438 
" style="fill: none; stroke: #1f77b4; stroke-width: 1.5; stroke-linecap: square"/>
    </g>
    <g id="text_20">
     <!-- star -->
     <g style="fill: #a9a9a9" transform="translate(843.08 331.998438) scale(0.1 -0.1)">
      <defs>
       <path id="DejaVuSans-61" d="M 2194 1759 
Q 1497 1759 1228 1600 
Q 959 1441 959 1056 
Q 959 750 1161 570 
Q 1363 391 1709 391 
Q 2188 391 2477 730 
Q 2766 1069 2766 1631 
L 2766 1759 
L 2194 1759 
z
M 3341 1997 
L 3341 0 
L 2766 0 
L 2766 531 
Q 2569 213 2275 61 
Q 1981 -91 1556 -91 
Q 1019 -91 701 211 
Q 384 513 384 1019 
Q 384 1609 779 1909 
Q 1175 2209 1959 2209 
L 2766 2209 
L 2766 2266 
Q 2766 2663 2505 2880 
Q 2244 3097 1772 3097 
Q 1472 3097 1187 3025 
Q 903 2953 641 2809 
L 641 3341 
Q 956 3463 1253 3523 
Q 1550 3584 1831 3584 
Q 2591 3584 2966 3190 
Q 3341 2797 3341 1997 
z
" transform="scale(0.015625)"/>
      </defs>
      <use xlink:href="#DejaVuSans-73"/>
      <use xlink:href="#DejaVuSans-74" transform="translate(52.099609 0)"/>
      <use xlink:href="#DejaVuSans-61" transform="translate(91.308594 0)"/>
      <use xlink:href="#DejaVuSans-72" transform="translate(152.587891 0)"/>
     </g>
    </g>
    <g id="line2d_40">
     <path d="M 815.08 343.176562 
L 825.08 343.176562 
L 835.08 343.176562 
" style="fill: none; stroke: #ff7f0e; stroke-width: 1.5; stroke-linecap: square"/>
    </g>
    <g id="text_21">
     <!-- fork -->
     <g style="fill: #a9a9a9" transform="translate(843.08 346.676562) scale(0.1 -0.1)">
      <defs>
       <path id="DejaVuSans-66" d="M 2375 4863 
L 2375 4384 
L 1825 4384 
Q 1516 4384 1395 4259 
Q 1275 4134 1275 3809 
L 1275 3500 
L 2222 3500 
L 2222 3053 
L 1275 3053 
L 1275 0 
L 697 0 
L 697 3053 
L 147 3053 
L 147 3500 
L 697 3500 
L 697 3744 
Q 697 4328 969 4595 
Q 1241 4863 1831 4863 
L 2375 4863 
z
" transform="scale(0.015625)"/>
       <path id="DejaVuSans-6b" d="M 581 4863 
L 1159 4863 
L 1159 1991 
L 2875 3500 
L 3609 3500 
L 1753 1863 
L 3688 0 
L 2938 0 
L 1159 1709 
L 1159 0 
L 581 0 
L 581 4863 
z
" transform="scale(0.015625)"/>
      </defs>
      <use xlink:href="#DejaVuSans-66"/>
      <use xlink:href="#DejaVuSans-6f" transform="translate(35.205078 0)"/>
      <use xlink:href="#DejaVuSans-72" transform="translate(96.386719 0)"/>
      <use xlink:href="#DejaVuSans-6b" transform="translate(137.5 0)"/>
     </g>
    </g>
   </g>
  </g>
 </g>
 <defs>
  <clipPath id="pe66d169aad">
   <rect x="108" y="43.2" width="669.6" height="277.2"/>
  </clipPath>
 </defs>
</svg>
