<?xml version="1.0" encoding="utf-8" standalone="no"?>
<!DOCTYPE svg PUBLIC "-//W3C//DTD SVG 1.1//EN"
  "http://www.w3.org/Graphics/SVG/1.1/DTD/svg11.dtd">
<svg xmlns:xlink="http://www.w3.org/1999/xlink" width="864pt" height="360pt" viewBox="0 0 864 360" xmlns="http://www.w3.org/2000/svg" version="1.1">
 <metadata>
  <rdf:RDF xmlns:dc="http://purl.org/dc/elements/1.1/" xmlns:cc="http://creativecommons.org/ns#" xmlns:rdf="http://www.w3.org/1999/02/22-rdf-syntax-ns#">
   <cc:Work>
    <dc:type rdf:resource="http://purl.org/dc/dcmitype/StillImage"/>
    <dc:date>2025-09-09T08:15:36.043461</dc:date>
    <dc:format>image/svg+xml</dc:format>
    <dc:creator>
     <cc:Agent>
      <dc:title>Matplotlib v3.10.6, https://matplotlib.org/</dc:title>
     </cc:Agent>
    </dc:creator>
   </cc:Work>
  </rdf:RDF>
 </metadata>
 <defs>
  <style type="text/css">*{stroke-linejoin: round; stroke-linecap: butt}</style>
 </defs>
 <g id="figure_1">
  <g id="patch_1">
   <path d="M 0 360 
L 864 360 
L 864 0 
L 0 0 
L 0 360 
z
" style="fill: none; opacity: 0"/>
  </g>
  <g id="axes_1">
   <g id="patch_2">
    <path d="M 108 320.4 
L 777.6 320.4 
L 777.6 43.2 
L 108 43.2 
L 108 320.4 
z
" style="fill: none; opacity: 0"/>
   </g>
   <g id="matplotlib.axis_1">
    <g id="xtick_1">
     <g id="line2d_1">
      <path d="M 129.152062 320.4 
L 129.152062 43.2 
" clip-path="url(#pa451a27b08)" style="fill: none; stroke-dasharray: 5.12,1.28,0.8,1.28; stroke-dashoffset: 0; stroke: #b0b0b0; stroke-width: 0.8"/>
     </g>
     <g id="line2d_2">
      <defs>
       <path id="m60506d1a28" d="M 0 0 
L 0 3.5 
" style="stroke: #a9a9a9; stroke-width: 0.8"/>
      </defs>
      <g>
       <use xlink:href="#m60506d1a28" x="129.152062" y="320.4" style="fill: #a9a9a9; stroke: #a9a9a9; stroke-width: 0.8"/>
      </g>
     </g>
     <g id="text_1">
      <!-- 2021-07 -->
      <g style="fill: #a9a9a9" transform="translate(108.260655 334.998438) scale(0.1 -0.1)">
       <defs>
        <path id="DejaVuSans-32" d="M 1228 531 
L 3431 531 
L 3431 0 
L 469 0 
L 469 531 
Q 828 903 1448 1529 
Q 2069 2156 2228 2338 
Q 2531 2678 2651 2914 
Q 2772 3150 2772 3378 
Q 2772 3750 2511 3984 
Q 2250 4219 1831 4219 
Q 1534 4219 1204 4116 
Q 875 4013 500 3803 
L 500 4441 
Q 881 4594 1212 4672 
Q 1544 4750 1819 4750 
Q 2544 4750 2975 4387 
Q 3406 4025 3406 3419 
Q 3406 3131 3298 2873 
Q 3191 2616 2906 2266 
Q 2828 2175 2409 1742 
Q 1991 1309 1228 531 
z
" transform="scale(0.015625)"/>
        <path id="DejaVuSans-30" d="M 2034 4250 
Q 1547 4250 1301 3770 
Q 1056 3291 1056 2328 
Q 1056 1369 1301 889 
Q 1547 409 2034 409 
Q 2525 409 2770 889 
Q 3016 1369 3016 2328 
Q 3016 3291 2770 3770 
Q 2525 4250 2034 4250 
z
M 2034 4750 
Q 2819 4750 3233 4129 
Q 3647 3509 3647 2328 
Q 3647 1150 3233 529 
Q 2819 -91 2034 -91 
Q 1250 -91 836 529 
Q 422 1150 422 2328 
Q 422 3509 836 4129 
Q 1250 4750 2034 4750 
z
" transform="scale(0.015625)"/>
        <path id="DejaVuSans-31" d="M 794 531 
L 1825 531 
L 1825 4091 
L 703 3866 
L 703 4441 
L 1819 4666 
L 2450 4666 
L 2450 531 
L 3481 531 
L 3481 0 
L 794 0 
L 794 531 
z
" transform="scale(0.015625)"/>
        <path id="DejaVuSans-2d" d="M 313 2009 
L 1997 2009 
L 1997 1497 
L 313 1497 
L 313 2009 
z
" transform="scale(0.015625)"/>
        <path id="DejaVuSans-37" d="M 525 4666 
L 3525 4666 
L 3525 4397 
L 1831 0 
L 1172 0 
L 2766 4134 
L 525 4134 
L 525 4666 
z
" transform="scale(0.015625)"/>
       </defs>
       <use xlink:href="#DejaVuSans-32"/>
       <use xlink:href="#DejaVuSans-30" transform="translate(63.623047 0)"/>
       <use xlink:href="#DejaVuSans-32" transform="translate(127.246094 0)"/>
       <use xlink:href="#DejaVuSans-31" transform="translate(190.869141 0)"/>
       <use xlink:href="#DejaVuSans-2d" transform="translate(254.492188 0)"/>
       <use xlink:href="#DejaVuSans-30" transform="translate(290.576172 0)"/>
       <use xlink:href="#DejaVuSans-37" transform="translate(354.199219 0)"/>
      </g>
     </g>
    </g>
    <g id="xtick_2">
     <g id="line2d_3">
      <path d="M 203.426477 320.4 
L 203.426477 43.2 
" clip-path="url(#pa451a27b08)" style="fill: none; stroke-dasharray: 5.12,1.28,0.8,1.28; stroke-dashoffset: 0; stroke: #b0b0b0; stroke-width: 0.8"/>
     </g>
     <g id="line2d_4">
      <g>
       <use xlink:href="#m60506d1a28" x="203.426477" y="320.4" style="fill: #a9a9a9; stroke: #a9a9a9; stroke-width: 0.8"/>
      </g>
     </g>
     <g id="text_2">
      <!-- 2022-01 -->
      <g style="fill: #a9a9a9" transform="translate(182.535071 334.998438) scale(0.1 -0.1)">
       <use xlink:href="#DejaVuSans-32"/>
       <use xlink:href="#DejaVuSans-30" transform="translate(63.623047 0)"/>
       <use xlink:href="#DejaVuSans-32" transform="translate(127.246094 0)"/>
       <use xlink:href="#DejaVuSans-32" transform="translate(190.869141 0)"/>
       <use xlink:href="#DejaVuSans-2d" transform="translate(254.492188 0)"/>
       <use xlink:href="#DejaVuSans-30" transform="translate(290.576172 0)"/>
       <use xlink:href="#DejaVuSans-31" transform="translate(354.199219 0)"/>
      </g>
     </g>
    </g>
    <g id="xtick_3">
     <g id="line2d_5">
      <path d="M 276.489896 320.4 
L 276.489896 43.2 
" clip-path="url(#pa451a27b08)" style="fill: none; stroke-dasharray: 5.12,1.28,0.8,1.28; stroke-dashoffset: 0; stroke: #b0b0b0; stroke-width: 0.8"/>
     </g>
     <g id="line2d_6">
      <g>
       <use xlink:href="#m60506d1a28" x="276.489896" y="320.4" style="fill: #a9a9a9; stroke: #a9a9a9; stroke-width: 0.8"/>
      </g>
     </g>
     <g id="text_3">
      <!-- 2022-07 -->
      <g style="fill: #a9a9a9" transform="translate(255.59849 334.998438) scale(0.1 -0.1)">
       <use xlink:href="#DejaVuSans-32"/>
       <use xlink:href="#DejaVuSans-30" transform="translate(63.623047 0)"/>
       <use xlink:href="#DejaVuSans-32" transform="translate(127.246094 0)"/>
       <use xlink:href="#DejaVuSans-32" transform="translate(190.869141 0)"/>
       <use xlink:href="#DejaVuSans-2d" transform="translate(254.492188 0)"/>
       <use xlink:href="#DejaVuSans-30" transform="translate(290.576172 0)"/>
       <use xlink:href="#DejaVuSans-37" transform="translate(354.199219 0)"/>
      </g>
     </g>
    </g>
    <g id="xtick_4">
     <g id="line2d_7">
      <path d="M 350.764312 320.4 
L 350.764312 43.2 
" clip-path="url(#pa451a27b08)" style="fill: none; stroke-dasharray: 5.12,1.28,0.8,1.28; stroke-dashoffset: 0; stroke: #b0b0b0; stroke-width: 0.8"/>
     </g>
     <g id="line2d_8">
      <g>
       <use xlink:href="#m60506d1a28" x="350.764312" y="320.4" style="fill: #a9a9a9; stroke: #a9a9a9; stroke-width: 0.8"/>
      </g>
     </g>
     <g id="text_4">
      <!-- 2023-01 -->
      <g style="fill: #a9a9a9" transform="translate(329.872905 334.998438) scale(0.1 -0.1)">
       <defs>
        <path id="DejaVuSans-33" d="M 2597 2516 
Q 3050 2419 3304 2112 
Q 3559 1806 3559 1356 
Q 3559 666 3084 287 
Q 2609 -91 1734 -91 
Q 1441 -91 1130 -33 
Q 819 25 488 141 
L 488 750 
Q 750 597 1062 519 
Q 1375 441 1716 441 
Q 2309 441 2620 675 
Q 2931 909 2931 1356 
Q 2931 1769 2642 2001 
Q 2353 2234 1838 2234 
L 1294 2234 
L 1294 2753 
L 1863 2753 
Q 2328 2753 2575 2939 
Q 2822 3125 2822 3475 
Q 2822 3834 2567 4026 
Q 2313 4219 1838 4219 
Q 1578 4219 1281 4162 
Q 984 4106 628 3988 
L 628 4550 
Q 988 4650 1302 4700 
Q 1616 4750 1894 4750 
Q 2613 4750 3031 4423 
Q 3450 4097 3450 3541 
Q 3450 3153 3228 2886 
Q 3006 2619 2597 2516 
z
" transform="scale(0.015625)"/>
       </defs>
       <use xlink:href="#DejaVuSans-32"/>
       <use xlink:href="#DejaVuSans-30" transform="translate(63.623047 0)"/>
       <use xlink:href="#DejaVuSans-32" transform="translate(127.246094 0)"/>
       <use xlink:href="#DejaVuSans-33" transform="translate(190.869141 0)"/>
       <use xlink:href="#DejaVuSans-2d" transform="translate(254.492188 0)"/>
       <use xlink:href="#DejaVuSans-30" transform="translate(290.576172 0)"/>
       <use xlink:href="#DejaVuSans-31" transform="translate(354.199219 0)"/>
      </g>
     </g>
    </g>
    <g id="xtick_5">
     <g id="line2d_9">
      <path d="M 423.827731 320.4 
L 423.827731 43.2 
" clip-path="url(#pa451a27b08)" style="fill: none; stroke-dasharray: 5.12,1.28,0.8,1.28; stroke-dashoffset: 0; stroke: #b0b0b0; stroke-width: 0.8"/>
     </g>
     <g id="line2d_10">
      <g>
       <use xlink:href="#m60506d1a28" x="423.827731" y="320.4" style="fill: #a9a9a9; stroke: #a9a9a9; stroke-width: 0.8"/>
      </g>
     </g>
     <g id="text_5">
      <!-- 2023-07 -->
      <g style="fill: #a9a9a9" transform="translate(402.936325 334.998438) scale(0.1 -0.1)">
       <use xlink:href="#DejaVuSans-32"/>
       <use xlink:href="#DejaVuSans-30" transform="translate(63.623047 0)"/>
       <use xlink:href="#DejaVuSans-32" transform="translate(127.246094 0)"/>
       <use xlink:href="#DejaVuSans-33" transform="translate(190.869141 0)"/>
       <use xlink:href="#DejaVuSans-2d" transform="translate(254.492188 0)"/>
       <use xlink:href="#DejaVuSans-30" transform="translate(290.576172 0)"/>
       <use xlink:href="#DejaVuSans-37" transform="translate(354.199219 0)"/>
      </g>
     </g>
    </g>
    <g id="xtick_6">
     <g id="line2d_11">
      <path d="M 498.102146 320.4 
L 498.102146 43.2 
" clip-path="url(#pa451a27b08)" style="fill: none; stroke-dasharray: 5.12,1.28,0.8,1.28; stroke-dashoffset: 0; stroke: #b0b0b0; stroke-width: 0.8"/>
     </g>
     <g id="line2d_12">
      <g>
       <use xlink:href="#m60506d1a28" x="498.102146" y="320.4" style="fill: #a9a9a9; stroke: #a9a9a9; stroke-width: 0.8"/>
      </g>
     </g>
     <g id="text_6">
      <!-- 2024-01 -->
      <g style="fill: #a9a9a9" transform="translate(477.21074 334.998438) scale(0.1 -0.1)">
       <defs>
        <path id="DejaVuSans-34" d="M 2419 4116 
L 825 1625 
L 2419 1625 
L 2419 4116 
z
M 2253 4666 
L 3047 4666 
L 3047 1625 
L 3713 1625 
L 3713 1100 
L 3047 1100 
L 3047 0 
L 2419 0 
L 2419 1100 
L 313 1100 
L 313 1709 
L 2253 4666 
z
" transform="scale(0.015625)"/>
       </defs>
       <use xlink:href="#DejaVuSans-32"/>
       <use xlink:href="#DejaVuSans-30" transform="translate(63.623047 0)"/>
       <use xlink:href="#DejaVuSans-32" transform="translate(127.246094 0)"/>
       <use xlink:href="#DejaVuSans-34" transform="translate(190.869141 0)"/>
       <use xlink:href="#DejaVuSans-2d" transform="translate(254.492188 0)"/>
       <use xlink:href="#DejaVuSans-30" transform="translate(290.576172 0)"/>
       <use xlink:href="#DejaVuSans-31" transform="translate(354.199219 0)"/>
      </g>
     </g>
    </g>
    <g id="xtick_7">
     <g id="line2d_13">
      <path d="M 571.569231 320.4 
L 571.569231 43.2 
" clip-path="url(#pa451a27b08)" style="fill: none; stroke-dasharray: 5.12,1.28,0.8,1.28; stroke-dashoffset: 0; stroke: #b0b0b0; stroke-width: 0.8"/>
     </g>
     <g id="line2d_14">
      <g>
       <use xlink:href="#m60506d1a28" x="571.569231" y="320.4" style="fill: #a9a9a9; stroke: #a9a9a9; stroke-width: 0.8"/>
      </g>
     </g>
     <g id="text_7">
      <!-- 2024-07 -->
      <g style="fill: #a9a9a9" transform="translate(550.677825 334.998438) scale(0.1 -0.1)">
       <use xlink:href="#DejaVuSans-32"/>
       <use xlink:href="#DejaVuSans-30" transform="translate(63.623047 0)"/>
       <use xlink:href="#DejaVuSans-32" transform="translate(127.246094 0)"/>
       <use xlink:href="#DejaVuSans-34" transform="translate(190.869141 0)"/>
       <use xlink:href="#DejaVuSans-2d" transform="translate(254.492188 0)"/>
       <use xlink:href="#DejaVuSans-30" transform="translate(290.576172 0)"/>
       <use xlink:href="#DejaVuSans-37" transform="translate(354.199219 0)"/>
      </g>
     </g>
    </g>
    <g id="xtick_8">
     <g id="line2d_15">
      <path d="M 645.843646 320.4 
L 645.843646 43.2 
" clip-path="url(#pa451a27b08)" style="fill: none; stroke-dasharray: 5.12,1.28,0.8,1.28; stroke-dashoffset: 0; stroke: #b0b0b0; stroke-width: 0.8"/>
     </g>
     <g id="line2d_16">
      <g>
       <use xlink:href="#m60506d1a28" x="645.843646" y="320.4" style="fill: #a9a9a9; stroke: #a9a9a9; stroke-width: 0.8"/>
      </g>
     </g>
     <g id="text_8">
      <!-- 2025-01 -->
      <g style="fill: #a9a9a9" transform="translate(624.95224 334.998438) scale(0.1 -0.1)">
       <defs>
        <path id="DejaVuSans-35" d="M 691 4666 
L 3169 4666 
L 3169 4134 
L 1269 4134 
L 1269 2991 
Q 1406 3038 1543 3061 
Q 1681 3084 1819 3084 
Q 2600 3084 3056 2656 
Q 3513 2228 3513 1497 
Q 3513 744 3044 326 
Q 2575 -91 1722 -91 
Q 1428 -91 1123 -41 
Q 819 9 494 109 
L 494 744 
Q 775 591 1075 516 
Q 1375 441 1709 441 
Q 2250 441 2565 725 
Q 2881 1009 2881 1497 
Q 2881 1984 2565 2268 
Q 2250 2553 1709 2553 
Q 1456 2553 1204 2497 
Q 953 2441 691 2322 
L 691 4666 
z
" transform="scale(0.015625)"/>
       </defs>
       <use xlink:href="#DejaVuSans-32"/>
       <use xlink:href="#DejaVuSans-30" transform="translate(63.623047 0)"/>
       <use xlink:href="#DejaVuSans-32" transform="translate(127.246094 0)"/>
       <use xlink:href="#DejaVuSans-35" transform="translate(190.869141 0)"/>
       <use xlink:href="#DejaVuSans-2d" transform="translate(254.492188 0)"/>
       <use xlink:href="#DejaVuSans-30" transform="translate(290.576172 0)"/>
       <use xlink:href="#DejaVuSans-31" transform="translate(354.199219 0)"/>
      </g>
     </g>
    </g>
    <g id="xtick_9">
     <g id="line2d_17">
      <path d="M 718.907065 320.4 
L 718.907065 43.2 
" clip-path="url(#pa451a27b08)" style="fill: none; stroke-dasharray: 5.12,1.28,0.8,1.28; stroke-dashoffset: 0; stroke: #b0b0b0; stroke-width: 0.8"/>
     </g>
     <g id="line2d_18">
      <g>
       <use xlink:href="#m60506d1a28" x="718.907065" y="320.4" style="fill: #a9a9a9; stroke: #a9a9a9; stroke-width: 0.8"/>
      </g>
     </g>
     <g id="text_9">
      <!-- 2025-07 -->
      <g style="fill: #a9a9a9" transform="translate(698.015659 334.998438) scale(0.1 -0.1)">
       <use xlink:href="#DejaVuSans-32"/>
       <use xlink:href="#DejaVuSans-30" transform="translate(63.623047 0)"/>
       <use xlink:href="#DejaVuSans-32" transform="translate(127.246094 0)"/>
       <use xlink:href="#DejaVuSans-35" transform="translate(190.869141 0)"/>
       <use xlink:href="#DejaVuSans-2d" transform="translate(254.492188 0)"/>
       <use xlink:href="#DejaVuSans-30" transform="translate(290.576172 0)"/>
       <use xlink:href="#DejaVuSans-37" transform="translate(354.199219 0)"/>
      </g>
     </g>
    </g>
   </g>
   <g id="matplotlib.axis_2">
    <g id="ytick_1">
     <g id="line2d_19">
      <path d="M 108 307.831027 
L 777.6 307.831027 
" clip-path="url(#pa451a27b08)" style="fill: none; stroke-dasharray: 5.12,1.28,0.8,1.28; stroke-dashoffset: 0; stroke: #b0b0b0; stroke-width: 0.8"/>
     </g>
     <g id="line2d_20">
      <defs>
       <path id="mbe8e4ec32c" d="M 0 0 
L -3.5 0 
" style="stroke: #a9a9a9; stroke-width: 0.8"/>
      </defs>
      <g>
       <use xlink:href="#mbe8e4ec32c" x="108" y="307.831027" style="fill: #a9a9a9; stroke: #a9a9a9; stroke-width: 0.8"/>
      </g>
     </g>
     <g id="text_10">
      <!-- 0 -->
      <g style="fill: #a9a9a9" transform="translate(94.6375 311.630246) scale(0.1 -0.1)">
       <use xlink:href="#DejaVuSans-30"/>
      </g>
     </g>
    </g>
    <g id="ytick_2">
     <g id="line2d_21">
      <path d="M 108 276.804186 
L 777.6 276.804186 
" clip-path="url(#pa451a27b08)" style="fill: none; stroke-dasharray: 5.12,1.28,0.8,1.28; stroke-dashoffset: 0; stroke: #b0b0b0; stroke-width: 0.8"/>
     </g>
     <g id="line2d_22">
      <g>
       <use xlink:href="#mbe8e4ec32c" x="108" y="276.804186" style="fill: #a9a9a9; stroke: #a9a9a9; stroke-width: 0.8"/>
      </g>
     </g>
     <g id="text_11">
      <!-- 1000 -->
      <g style="fill: #a9a9a9" transform="translate(75.55 280.603405) scale(0.1 -0.1)">
       <use xlink:href="#DejaVuSans-31"/>
       <use xlink:href="#DejaVuSans-30" transform="translate(63.623047 0)"/>
       <use xlink:href="#DejaVuSans-30" transform="translate(127.246094 0)"/>
       <use xlink:href="#DejaVuSans-30" transform="translate(190.869141 0)"/>
      </g>
     </g>
    </g>
    <g id="ytick_3">
     <g id="line2d_23">
      <path d="M 108 245.777345 
L 777.6 245.777345 
" clip-path="url(#pa451a27b08)" style="fill: none; stroke-dasharray: 5.12,1.28,0.8,1.28; stroke-dashoffset: 0; stroke: #b0b0b0; stroke-width: 0.8"/>
     </g>
     <g id="line2d_24">
      <g>
       <use xlink:href="#mbe8e4ec32c" x="108" y="245.777345" style="fill: #a9a9a9; stroke: #a9a9a9; stroke-width: 0.8"/>
      </g>
     </g>
     <g id="text_12">
      <!-- 2000 -->
      <g style="fill: #a9a9a9" transform="translate(75.55 249.576564) scale(0.1 -0.1)">
       <use xlink:href="#DejaVuSans-32"/>
       <use xlink:href="#DejaVuSans-30" transform="translate(63.623047 0)"/>
       <use xlink:href="#DejaVuSans-30" transform="translate(127.246094 0)"/>
       <use xlink:href="#DejaVuSans-30" transform="translate(190.869141 0)"/>
      </g>
     </g>
    </g>
    <g id="ytick_4">
     <g id="line2d_25">
      <path d="M 108 214.750505 
L 777.6 214.750505 
" clip-path="url(#pa451a27b08)" style="fill: none; stroke-dasharray: 5.12,1.28,0.8,1.28; stroke-dashoffset: 0; stroke: #b0b0b0; stroke-width: 0.8"/>
     </g>
     <g id="line2d_26">
      <g>
       <use xlink:href="#mbe8e4ec32c" x="108" y="214.750505" style="fill: #a9a9a9; stroke: #a9a9a9; stroke-width: 0.8"/>
      </g>
     </g>
     <g id="text_13">
      <!-- 3000 -->
      <g style="fill: #a9a9a9" transform="translate(75.55 218.549724) scale(0.1 -0.1)">
       <use xlink:href="#DejaVuSans-33"/>
       <use xlink:href="#DejaVuSans-30" transform="translate(63.623047 0)"/>
       <use xlink:href="#DejaVuSans-30" transform="translate(127.246094 0)"/>
       <use xlink:href="#DejaVuSans-30" transform="translate(190.869141 0)"/>
      </g>
     </g>
    </g>
    <g id="ytick_5">
     <g id="line2d_27">
      <path d="M 108 183.723664 
L 777.6 183.723664 
" clip-path="url(#pa451a27b08)" style="fill: none; stroke-dasharray: 5.12,1.28,0.8,1.28; stroke-dashoffset: 0; stroke: #b0b0b0; stroke-width: 0.8"/>
     </g>
     <g id="line2d_28">
      <g>
       <use xlink:href="#mbe8e4ec32c" x="108" y="183.723664" style="fill: #a9a9a9; stroke: #a9a9a9; stroke-width: 0.8"/>
      </g>
     </g>
     <g id="text_14">
      <!-- 4000 -->
      <g style="fill: #a9a9a9" transform="translate(75.55 187.522883) scale(0.1 -0.1)">
       <use xlink:href="#DejaVuSans-34"/>
       <use xlink:href="#DejaVuSans-30" transform="translate(63.623047 0)"/>
       <use xlink:href="#DejaVuSans-30" transform="translate(127.246094 0)"/>
       <use xlink:href="#DejaVuSans-30" transform="translate(190.869141 0)"/>
      </g>
     </g>
    </g>
    <g id="ytick_6">
     <g id="line2d_29">
      <path d="M 108 152.696823 
L 777.6 152.696823 
" clip-path="url(#pa451a27b08)" style="fill: none; stroke-dasharray: 5.12,1.28,0.8,1.28; stroke-dashoffset: 0; stroke: #b0b0b0; stroke-width: 0.8"/>
     </g>
     <g id="line2d_30">
      <g>
       <use xlink:href="#mbe8e4ec32c" x="108" y="152.696823" style="fill: #a9a9a9; stroke: #a9a9a9; stroke-width: 0.8"/>
      </g>
     </g>
     <g id="text_15">
      <!-- 5000 -->
      <g style="fill: #a9a9a9" transform="translate(75.55 156.496042) scale(0.1 -0.1)">
       <use xlink:href="#DejaVuSans-35"/>
       <use xlink:href="#DejaVuSans-30" transform="translate(63.623047 0)"/>
       <use xlink:href="#DejaVuSans-30" transform="translate(127.246094 0)"/>
       <use xlink:href="#DejaVuSans-30" transform="translate(190.869141 0)"/>
      </g>
     </g>
    </g>
    <g id="ytick_7">
     <g id="line2d_31">
      <path d="M 108 121.669983 
L 777.6 121.669983 
" clip-path="url(#pa451a27b08)" style="fill: none; stroke-dasharray: 5.12,1.28,0.8,1.28; stroke-dashoffset: 0; stroke: #b0b0b0; stroke-width: 0.8"/>
     </g>
     <g id="line2d_32">
      <g>
       <use xlink:href="#mbe8e4ec32c" x="108" y="121.669983" style="fill: #a9a9a9; stroke: #a9a9a9; stroke-width: 0.8"/>
      </g>
     </g>
     <g id="text_16">
      <!-- 6000 -->
      <g style="fill: #a9a9a9" transform="translate(75.55 125.469202) scale(0.1 -0.1)">
       <defs>
        <path id="DejaVuSans-36" d="M 2113 2584 
Q 1688 2584 1439 2293 
Q 1191 2003 1191 1497 
Q 1191 994 1439 701 
Q 1688 409 2113 409 
Q 2538 409 2786 701 
Q 3034 994 3034 1497 
Q 3034 2003 2786 2293 
Q 2538 2584 2113 2584 
z
M 3366 4563 
L 3366 3988 
Q 3128 4100 2886 4159 
Q 2644 4219 2406 4219 
Q 1781 4219 1451 3797 
Q 1122 3375 1075 2522 
Q 1259 2794 1537 2939 
Q 1816 3084 2150 3084 
Q 2853 3084 3261 2657 
Q 3669 2231 3669 1497 
Q 3669 778 3244 343 
Q 2819 -91 2113 -91 
Q 1303 -91 875 529 
Q 447 1150 447 2328 
Q 447 3434 972 4092 
Q 1497 4750 2381 4750 
Q 2619 4750 2861 4703 
Q 3103 4656 3366 4563 
z
" transform="scale(0.015625)"/>
       </defs>
       <use xlink:href="#DejaVuSans-36"/>
       <use xlink:href="#DejaVuSans-30" transform="translate(63.623047 0)"/>
       <use xlink:href="#DejaVuSans-30" transform="translate(127.246094 0)"/>
       <use xlink:href="#DejaVuSans-30" transform="translate(190.869141 0)"/>
      </g>
     </g>
    </g>
    <g id="ytick_8">
     <g id="line2d_33">
      <path d="M 108 90.643142 
L 777.6 90.643142 
" clip-path="url(#pa451a27b08)" style="fill: none; stroke-dasharray: 5.12,1.28,0.8,1.28; stroke-dashoffset: 0; stroke: #b0b0b0; stroke-width: 0.8"/>
     </g>
     <g id="line2d_34">
      <g>
       <use xlink:href="#mbe8e4ec32c" x="108" y="90.643142" style="fill: #a9a9a9; stroke: #a9a9a9; stroke-width: 0.8"/>
      </g>
     </g>
     <g id="text_17">
      <!-- 7000 -->
      <g style="fill: #a9a9a9" transform="translate(75.55 94.442361) scale(0.1 -0.1)">
       <use xlink:href="#DejaVuSans-37"/>
       <use xlink:href="#DejaVuSans-30" transform="translate(63.623047 0)"/>
       <use xlink:href="#DejaVuSans-30" transform="translate(127.246094 0)"/>
       <use xlink:href="#DejaVuSans-30" transform="translate(190.869141 0)"/>
      </g>
     </g>
    </g>
    <g id="ytick_9">
     <g id="line2d_35">
      <path d="M 108 59.616301 
L 777.6 59.616301 
" clip-path="url(#pa451a27b08)" style="fill: none; stroke-dasharray: 5.12,1.28,0.8,1.28; stroke-dashoffset: 0; stroke: #b0b0b0; stroke-width: 0.8"/>
     </g>
     <g id="line2d_36">
      <g>
       <use xlink:href="#mbe8e4ec32c" x="108" y="59.616301" style="fill: #a9a9a9; stroke: #a9a9a9; stroke-width: 0.8"/>
      </g>
     </g>
     <g id="text_18">
      <!-- 8000 -->
      <g style="fill: #a9a9a9" transform="translate(75.55 63.41552) scale(0.1 -0.1)">
       <defs>
        <path id="DejaVuSans-38" d="M 2034 2216 
Q 1584 2216 1326 1975 
Q 1069 1734 1069 1313 
Q 1069 891 1326 650 
Q 1584 409 2034 409 
Q 2484 409 2743 651 
Q 3003 894 3003 1313 
Q 3003 1734 2745 1975 
Q 2488 2216 2034 2216 
z
M 1403 2484 
Q 997 2584 770 2862 
Q 544 3141 544 3541 
Q 544 4100 942 4425 
Q 1341 4750 2034 4750 
Q 2731 4750 3128 4425 
Q 3525 4100 3525 3541 
Q 3525 3141 3298 2862 
Q 3072 2584 2669 2484 
Q 3125 2378 3379 2068 
Q 3634 1759 3634 1313 
Q 3634 634 3220 271 
Q 2806 -91 2034 -91 
Q 1263 -91 848 271 
Q 434 634 434 1313 
Q 434 1759 690 2068 
Q 947 2378 1403 2484 
z
M 1172 3481 
Q 1172 3119 1398 2916 
Q 1625 2713 2034 2713 
Q 2441 2713 2670 2916 
Q 2900 3119 2900 3481 
Q 2900 3844 2670 4047 
Q 2441 4250 2034 4250 
Q 1625 4250 1398 4047 
Q 1172 3844 1172 3481 
z
" transform="scale(0.015625)"/>
       </defs>
       <use xlink:href="#DejaVuSans-38"/>
       <use xlink:href="#DejaVuSans-30" transform="translate(63.623047 0)"/>
       <use xlink:href="#DejaVuSans-30" transform="translate(127.246094 0)"/>
       <use xlink:href="#DejaVuSans-30" transform="translate(190.869141 0)"/>
      </g>
     </g>
    </g>
   </g>
   <g id="line2d_37">
    <path d="M 138.436364 307.737946 
L 140.858355 307.520758 
L 141.262021 307.334597 
L 142.876682 307.11741 
L 144.491343 306.776114 
L 145.298674 306.652007 
L 147.317 306.465846 
L 148.124331 306.124551 
L 148.527996 305.566067 
L 148.931661 305.286826 
L 149.335327 304.356021 
L 149.738992 304.293967 
L 150.142657 303.952672 
L 150.949988 303.518296 
L 152.564649 302.153115 
L 154.17931 301.31539 
L 155.390306 300.72588 
L 155.793972 300.04329 
L 156.601302 299.422753 
L 157.004967 299.236592 
L 161.04162 298.616055 
L 161.445286 298.429894 
L 164.270943 298.181679 
L 165.885604 297.77833 
L 169.114926 297.312928 
L 169.518592 297.09574 
L 169.922257 297.033686 
L 170.729588 296.754445 
L 173.555245 296.258015 
L 174.362575 296.009801 
L 177.995563 295.389264 
L 178.802894 295.203103 
L 179.610224 295.172076 
L 181.224885 294.768727 
L 181.628551 294.179217 
L 182.839547 293.682787 
L 184.050543 293.341492 
L 184.454208 293.124304 
L 185.261538 292.96917 
L 186.8762 292.472741 
L 187.68353 292.410687 
L 188.490861 292.193499 
L 190.105522 291.759123 
L 190.509187 291.728097 
L 191.316518 291.324748 
L 191.720183 291.262694 
L 192.123849 291.045506 
L 196.564167 290.269835 
L 198.178828 289.773406 
L 198.582493 289.494164 
L 200.60082 288.811574 
L 201.40815 288.222064 
L 202.619146 287.973849 
L 207.866795 286.422507 
L 208.270461 286.360453 
L 209.885122 285.708889 
L 210.288787 285.646836 
L 211.096118 285.305541 
L 211.903448 285.274514 
L 213.114444 284.902192 
L 213.518109 284.902192 
L 213.921775 284.716031 
L 214.729105 284.62295 
L 215.132771 284.467816 
L 216.747432 284.405762 
L 217.554762 284.250628 
L 218.362093 283.816252 
L 219.573089 283.35085 
L 220.38042 282.916474 
L 221.591415 282.389017 
L 223.206077 281.551293 
L 223.609742 281.08589 
L 224.417073 279.782763 
L 224.820738 279.658656 
L 225.224403 279.658656 
L 226.839064 278.72785 
L 227.24273 278.63477 
L 227.646395 278.231421 
L 228.453726 277.890126 
L 229.261056 277.517803 
L 229.664721 277.021374 
L 230.068387 276.338784 
L 230.472052 276.059542 
L 230.875717 275.314898 
L 231.279383 274.849495 
L 233.701374 273.484314 
L 235.316036 271.995026 
L 235.719701 271.033194 
L 236.123366 270.412657 
L 236.527032 270.071362 
L 236.930697 269.885201 
L 240.160019 266.813543 
L 240.96735 266.037872 
L 243.389342 264.455504 
L 243.793007 264.300369 
L 245.407668 263.30751 
L 245.811333 263.121349 
L 247.82966 261.197685 
L 248.636991 260.85639 
L 249.444321 260.26688 
L 249.847986 260.018665 
L 250.251652 259.956612 
L 251.462648 259.242994 
L 251.866313 258.777592 
L 253.884639 257.629599 
L 254.288305 257.474464 
L 255.499301 256.605713 
L 261.55428 254.37178 
L 262.361611 253.596109 
L 263.572607 252.975573 
L 264.379937 252.448116 
L 265.187268 252.199902 
L 265.590933 251.92066 
L 265.994599 251.796553 
L 267.205594 250.958828 
L 269.223921 250.493425 
L 270.434917 249.748781 
L 271.645913 249.46954 
L 272.049578 249.376459 
L 273.260574 248.445654 
L 274.875235 247.980251 
L 275.2789 247.638956 
L 277.700892 246.770204 
L 278.508223 246.61507 
L 279.315553 246.273775 
L 282.141211 245.187836 
L 282.948541 245.094755 
L 284.159537 244.660379 
L 286.177864 243.636493 
L 288.599855 242.240286 
L 289.407186 242.023098 
L 290.618182 241.402561 
L 291.425512 241.247427 
L 292.232843 240.750997 
L 293.040174 240.533809 
L 294.25117 240.03738 
L 295.865831 239.820192 
L 296.673161 239.385816 
L 297.076827 239.013494 
L 297.480492 238.26885 
L 299.095153 237.803447 
L 300.709814 237.058803 
L 303.131806 235.879783 
L 303.939137 235.476434 
L 305.150133 235.22822 
L 306.361129 234.607683 
L 306.764794 234.545629 
L 308.78312 233.521743 
L 309.590451 232.994287 
L 310.801447 232.746072 
L 312.819773 232.218616 
L 313.223439 231.877321 
L 314.030769 231.598079 
L 316.049096 230.760355 
L 316.452761 230.450086 
L 316.856426 230.294952 
L 317.663757 229.829549 
L 319.278418 229.302093 
L 320.085749 228.774637 
L 320.489414 228.340261 
L 320.893079 228.092046 
L 321.296745 227.998966 
L 322.104075 227.316375 
L 322.507741 227.254322 
L 322.911406 226.571731 
L 323.315071 226.38557 
L 323.718736 226.044275 
L 324.122402 225.982221 
L 324.929732 225.454765 
L 325.737063 225.175523 
L 326.140728 224.865255 
L 326.544394 224.710121 
L 328.159055 223.593154 
L 329.370051 222.972618 
L 330.177381 222.75543 
L 330.984712 222.290027 
L 331.388377 221.57641 
L 332.195708 220.955873 
L 332.599373 220.862792 
L 335.021365 219.652746 
L 335.828695 219.31145 
L 336.636026 218.72194 
L 337.847022 217.573947 
L 338.654353 217.077518 
L 339.058018 216.612115 
L 340.672679 215.464122 
L 341.48001 214.626397 
L 342.28734 214.347156 
L 343.094671 213.788673 
L 344.305667 213.137109 
L 344.709332 213.075055 
L 348.34232 211.182418 
L 349.553316 210.810096 
L 350.764312 210.344693 
L 351.167977 210.003398 
L 352.782638 209.351835 
L 353.186303 209.227727 
L 353.993634 208.700271 
L 354.800965 208.358976 
L 355.608295 207.769466 
L 356.415626 206.125043 
L 357.222956 205.194238 
L 358.433952 204.542674 
L 359.241283 204.201379 
L 359.644948 204.139325 
L 360.452279 203.767003 
L 362.06694 203.20852 
L 362.874271 202.743117 
L 363.681601 202.339769 
L 364.085266 202.215661 
L 366.507258 200.726373 
L 366.910924 200.26097 
L 368.121919 199.547353 
L 368.525585 199.392219 
L 369.332915 198.895789 
L 370.947577 197.996011 
L 371.351242 197.90293 
L 371.754907 197.561635 
L 374.580564 196.599803 
L 374.98423 196.320561 
L 375.79156 196.072347 
L 376.598891 195.731051 
L 377.002556 195.389756 
L 378.617217 194.800246 
L 379.424548 194.210736 
L 380.231878 193.869441 
L 381.039209 193.217877 
L 381.84654 192.969663 
L 382.250205 192.597341 
L 382.65387 192.535287 
L 383.461201 191.91475 
L 385.479527 190.704703 
L 386.286858 190.456489 
L 386.690523 190.208274 
L 387.094189 190.14622 
L 388.305184 189.46363 
L 394.360164 187.539966 
L 395.57116 186.671214 
L 395.974825 186.51608 
L 396.782156 186.050677 
L 397.185821 185.92657 
L 399.607813 184.530362 
L 400.011478 184.437281 
L 401.222474 183.692637 
L 402.43347 183.258262 
L 403.240801 182.97902 
L 404.855462 182.420537 
L 405.662792 182.141295 
L 407.277454 181.8 
L 407.681119 181.613839 
L 408.488449 181.396651 
L 408.892115 181.21049 
L 409.29578 181.148436 
L 409.699445 180.931248 
L 410.506776 180.776114 
L 411.717772 180.310712 
L 412.928768 180.124551 
L 415.35076 179.659148 
L 416.561755 179.379906 
L 416.965421 179.193745 
L 417.772751 179.038611 
L 418.580082 178.821423 
L 419.387413 178.449101 
L 419.791078 178.293967 
L 420.194743 178.293967 
L 424.635061 176.897759 
L 425.038727 176.680571 
L 425.442392 176.680571 
L 426.249723 176.370303 
L 426.653388 175.935927 
L 429.07538 174.912041 
L 430.690041 174.353558 
L 431.093706 174.105344 
L 432.304702 173.733021 
L 433.112033 173.515834 
L 433.515698 173.236592 
L 433.919363 173.143511 
L 434.323029 172.771189 
L 435.534025 172.522975 
L 436.341355 172.150653 
L 436.74502 171.654223 
L 441.185339 170.661364 
L 441.589004 170.661364 
L 441.992669 170.475203 
L 443.607331 170.164935 
L 444.010996 169.978774 
L 445.625657 169.668505 
L 446.432988 169.32721 
L 447.240318 169.172076 
L 449.258645 168.64462 
L 450.873306 168.117163 
L 451.276971 168.024083 
L 451.680637 167.806895 
L 452.487967 167.589707 
L 453.295298 167.248412 
L 454.102628 166.938143 
L 454.506294 166.658902 
L 455.313624 166.410687 
L 458.139281 165.324748 
L 459.753943 165.138587 
L 462.983265 163.92854 
L 463.38693 163.618271 
L 463.790596 163.525191 
L 464.194261 163.308003 
L 464.597926 163.276976 
L 469.038245 161.632554 
L 471.056571 161.07407 
L 471.863902 160.670721 
L 473.074898 160.39148 
L 474.689559 159.026299 
L 476.30422 158.312682 
L 477.515216 157.785225 
L 479.129877 157.102635 
L 479.533542 156.978527 
L 479.937208 156.699286 
L 481.955534 156.016695 
L 485.992187 153.937897 
L 486.799518 153.565575 
L 487.203183 153.255307 
L 488.010514 152.976065 
L 490.432505 151.797045 
L 490.836171 151.703965 
L 492.047167 151.145481 
L 493.661828 150.586998 
L 494.469158 150.245703 
L 495.276489 150.121596 
L 495.680154 149.842354 
L 497.294816 149.532086 
L 498.102146 149.19079 
L 500.524138 148.01177 
L 500.927803 147.949717 
L 502.138799 147.236099 
L 503.349795 146.801724 
L 506.175452 145.591677 
L 506.579117 145.46757 
L 506.982783 145.188328 
L 507.790113 145.095247 
L 508.193779 144.816006 
L 509.001109 144.691899 
L 509.80844 144.28855 
L 510.212105 144.102389 
L 511.019436 143.885201 
L 511.826766 143.636986 
L 513.037762 143.171583 
L 514.248758 142.768234 
L 515.459754 142.488993 
L 517.074415 141.806402 
L 517.881746 141.372027 
L 519.496407 140.534302 
L 520.303738 140.348141 
L 520.707403 140.099926 
L 521.111068 140.006846 
L 522.322064 139.293228 
L 523.53306 138.827826 
L 526.358717 137.834967 
L 526.762382 137.710859 
L 527.569713 137.276484 
L 529.58804 136.562866 
L 532.010031 135.570007 
L 533.624693 134.794336 
L 537.661346 133.180941 
L 538.468676 132.777592 
L 538.872341 132.684511 
L 539.679672 132.374243 
L 540.083337 132.374243 
L 540.890668 132.001921 
L 542.505329 130.63674 
L 542.908994 130.512632 
L 543.31266 130.264418 
L 544.523656 129.923122 
L 544.927321 129.612854 
L 545.330986 129.519773 
L 546.541982 128.775129 
L 546.945647 128.495888 
L 548.156643 128.030485 
L 548.560309 127.813297 
L 549.771305 127.534056 
L 551.789631 126.820438 
L 552.596962 126.572224 
L 553.807958 125.92066 
L 554.615288 125.517311 
L 555.422619 125.300123 
L 557.03728 124.555479 
L 557.440945 124.431372 
L 558.248276 124.059049 
L 560.266602 123.376459 
L 561.477598 122.600788 
L 561.881264 122.507707 
L 562.688594 122.104359 
L 563.495925 121.79409 
L 563.89959 121.421768 
L 565.110586 120.956365 
L 565.514251 120.894312 
L 567.128912 120.149668 
L 568.339908 119.777345 
L 568.743574 119.591184 
L 569.147239 119.529131 
L 569.95457 119.187836 
L 571.165565 118.908594 
L 571.972896 118.443191 
L 572.376561 118.288057 
L 572.780227 117.977789 
L 573.991223 117.66752 
L 574.394888 117.419306 
L 575.202218 117.202118 
L 576.413214 116.519527 
L 576.81688 116.4885 
L 578.027876 116.085151 
L 578.835206 116.023098 
L 579.642537 115.712829 
L 582.064529 114.968185 
L 582.871859 114.937158 
L 586.101182 113.851219 
L 586.908512 113.416843 
L 587.312177 113.044521 
L 588.119508 112.610145 
L 589.330504 111.865501 
L 591.752496 111.120857 
L 592.156161 110.810589 
L 595.789149 109.507461 
L 596.596479 109.22822 
L 597.807475 108.700763 
L 601.440463 107.211475 
L 602.247794 106.901207 
L 603.862455 106.249643 
L 604.26612 105.877321 
L 604.669785 105.815267 
L 606.284447 105.163704 
L 607.899108 104.760355 
L 608.302773 104.698301 
L 608.706438 104.51214 
L 609.110104 104.481113 
L 609.917434 104.201871 
L 610.3211 104.170845 
L 611.532095 103.705442 
L 613.146757 103.240039 
L 613.954087 102.619503 
L 615.568748 101.719724 
L 615.972414 101.626644 
L 616.779744 101.316375 
L 620.009067 99.734006 
L 620.412732 99.516819 
L 620.816397 99.144496 
L 622.834724 98.648067 
L 624.04572 98.089584 
L 624.85305 97.872396 
L 625.256716 97.686235 
L 625.660381 97.34494 
L 627.275042 96.910564 
L 627.678707 96.600295 
L 632.926356 94.676631 
L 633.733687 94.521497 
L 635.752014 93.869934 
L 636.963009 93.342477 
L 639.788667 92.473726 
L 640.595997 92.008323 
L 643.421654 91.046491 
L 645.036315 90.519035 
L 646.247311 90.239793 
L 647.458307 89.867471 
L 647.861973 89.774391 
L 648.265638 89.495149 
L 649.072968 89.308988 
L 650.68763 88.843585 
L 651.091295 88.812558 
L 651.898626 88.440236 
L 654.724283 87.726619 
L 656.338944 87.137109 
L 656.742609 87.137109 
L 657.953605 86.857868 
L 658.760936 86.702733 
L 659.568266 86.485545 
L 660.779262 85.833982 
L 661.990258 85.46166 
L 664.815915 84.499828 
L 666.430576 83.69313 
L 667.641572 83.413888 
L 668.448903 83.165673 
L 669.256233 82.762325 
L 669.659899 82.421029 
L 670.467229 82.172815 
L 670.870895 81.9246 
L 671.678225 81.831519 
L 674.503882 81.024821 
L 675.714878 80.776607 
L 676.925874 80.466338 
L 677.733205 80.280177 
L 678.944201 79.65964 
L 684.19185 77.642896 
L 684.99918 77.518788 
L 685.806511 77.363654 
L 686.210176 77.363654 
L 687.421172 76.960305 
L 688.632168 76.587983 
L 692.265156 75.564098 
L 693.072486 75.34691 
L 693.476151 75.253829 
L 693.879817 75.005614 
L 694.687147 74.85048 
L 695.494478 74.7574 
L 695.898143 74.540212 
L 696.301809 74.509185 
L 697.109139 73.981729 
L 698.7238 73.640433 
L 699.531131 73.299138 
L 700.338462 73.019897 
L 701.145792 72.802709 
L 701.953123 72.461413 
L 702.760453 72.182172 
L 704.375115 71.716769 
L 705.182445 71.654716 
L 705.989776 71.375474 
L 706.393441 71.22034 
L 707.200772 71.096232 
L 708.815433 70.382615 
L 709.219098 70.320561 
L 710.026429 70.010293 
L 712.448421 69.606944 
L 713.255751 69.358729 
L 713.659416 69.296676 
L 714.466747 68.95538 
L 714.870412 68.893327 
L 715.274078 68.676139 
L 716.081408 67.993548 
L 720.118061 66.50426 
L 722.540053 65.852696 
L 722.943718 65.542428 
L 724.55838 64.828811 
L 726.173041 64.14622 
L 726.980371 63.898005 
L 728.191367 63.432603 
L 728.998698 63.091308 
L 730.613359 62.098449 
L 731.017024 62.005368 
L 732.22802 61.384831 
L 733.035351 61.074563 
L 734.650012 60.51608 
L 735.053677 60.329919 
L 735.457343 59.988623 
L 735.861008 59.895543 
L 736.668339 59.399114 
L 737.072004 59.306033 
L 738.283 58.74755 
L 739.09033 58.468308 
L 739.493996 58.282147 
L 739.897661 58.25112 
L 741.915987 57.475449 
L 742.723318 57.320315 
L 743.530649 56.730805 
L 743.934314 56.730805 
L 744.741645 56.38951 
L 745.14531 56.327456 
L 745.548975 56.110268 
L 745.95264 56.048215 
L 746.356306 55.862054 
L 747.163636 55.8 
L 747.163636 55.8 
" clip-path="url(#pa451a27b08)" style="fill: none; stroke: #1f77b4; stroke-width: 1.5; stroke-linecap: square"/>
   </g>
   <g id="line2d_38">
    <path d="M 138.840029 307.8 
L 142.473017 307.706919 
L 145.702339 307.551785 
L 147.317 307.551785 
L 147.720666 307.427678 
L 149.738992 307.334597 
L 152.160984 307.055356 
L 154.582976 306.962275 
L 155.390306 306.869195 
L 158.215963 306.745087 
L 161.04162 306.652007 
L 163.059947 306.589953 
L 168.307596 306.496873 
L 170.325922 306.434819 
L 173.95891 306.341738 
L 175.573571 306.310712 
L 179.610224 306.217631 
L 181.224885 306.062497 
L 182.839547 306.03147 
L 185.261538 305.93839 
L 186.8762 305.907363 
L 188.894526 305.845309 
L 190.509187 305.690175 
L 194.142175 305.597094 
L 194.949506 305.535041 
L 196.564167 305.44196 
L 198.986159 305.34888 
L 200.60082 305.255799 
L 207.866795 304.790396 
L 210.692452 304.697316 
L 211.903448 304.573209 
L 213.921775 304.480128 
L 217.958428 304.26294 
L 221.995081 304.200886 
L 223.609742 304.014725 
L 225.628068 303.921645 
L 229.664721 303.518296 
L 232.086713 303.208028 
L 233.701374 303.145974 
L 236.930697 302.711598 
L 239.352689 302.649544 
L 240.563685 302.525437 
L 241.77468 302.432357 
L 253.077309 301.532578 
L 253.884639 301.377444 
L 256.306631 301.284363 
L 262.765276 300.881015 
L 265.590933 300.787934 
L 267.205594 300.601773 
L 269.223921 300.508692 
L 271.645913 300.415612 
L 273.664239 300.322531 
L 275.2789 300.291505 
L 277.297227 300.229451 
L 278.104558 300.105344 
L 283.755872 300.012263 
L 284.563202 299.919182 
L 289.407186 299.826102 
L 293.040174 299.639941 
L 295.865831 299.54686 
L 297.480492 299.360699 
L 300.306149 299.267619 
L 301.11348 299.143511 
L 303.131806 299.081458 
L 307.168459 299.019404 
L 308.78312 298.86427 
L 310.397782 298.833243 
L 311.608777 298.740163 
L 313.223439 298.585028 
L 317.260092 298.36784 
L 321.296745 298.27476 
L 324.929732 298.088599 
L 326.140728 298.057572 
L 326.948059 297.933465 
L 328.966385 297.840384 
L 329.773716 297.77833 
L 330.581047 297.716277 
L 331.388377 297.654223 
L 335.42503 297.561143 
L 344.305667 296.971633 
L 345.112997 296.909579 
L 346.323993 296.816498 
L 349.14965 296.723418 
L 351.167977 296.661364 
L 356.819291 296.568284 
L 357.626622 296.444176 
L 363.277936 296.351096 
L 367.314589 296.133908 
L 368.121919 296.102881 
L 368.92925 296.009801 
L 370.947577 295.91672 
L 372.965903 295.854666 
L 374.98423 295.761586 
L 377.002556 295.699532 
L 380.635544 295.606452 
L 383.057536 295.513371 
L 388.70885 295.420291 
L 393.149168 295.172076 
L 394.763829 295.110022 
L 395.974825 295.016942 
L 401.626139 294.923861 
L 404.048131 294.830781 
L 411.314107 294.7377 
L 412.928768 294.706673 
L 417.772751 294.64462 
L 418.580082 294.582566 
L 424.231396 294.489485 
L 425.846057 294.458459 
L 436.341355 294.365378 
L 438.763347 294.272297 
L 455.71729 294.179217 
L 457.735616 294.117163 
L 468.230914 294.05511 
L 469.038245 293.993056 
L 471.056571 293.931002 
L 472.267567 293.806895 
L 474.689559 293.713814 
L 477.515216 293.589707 
L 481.148204 293.496626 
L 483.16653 293.434573 
L 485.992187 293.341492 
L 489.22151 293.186358 
L 491.239836 293.093278 
L 492.854497 293.062251 
L 499.716807 292.96917 
L 502.138799 292.87609 
L 506.579117 292.783009 
L 509.404775 292.658902 
L 512.230432 292.596848 
L 513.037762 292.534794 
L 522.725729 292.441714 
L 526.762382 292.224526 
L 529.58804 292.131445 
L 534.028358 291.883231 
L 536.854015 291.79015 
L 538.468676 291.759123 
L 541.294333 291.666043 
L 543.31266 291.448855 
L 547.349313 291.355774 
L 548.156643 291.262694 
L 552.193296 291.169613 
L 554.211623 291.10756 
L 558.651941 291.076533 
L 559.459272 290.983452 
L 563.89959 290.890372 
L 564.706921 290.828318 
L 573.587557 290.735238 
L 576.009549 290.642157 
L 582.064529 290.549077 
L 583.67919 290.51805 
L 587.312177 290.455996 
L 588.119508 290.362916 
L 593.367157 290.269835 
L 595.385483 290.207781 
L 602.651459 290.114701 
L 603.862455 290.02162 
L 605.073451 289.92854 
L 606.284447 289.835459 
L 612.339426 289.742379 
L 614.761418 289.649298 
L 625.660381 289.556218 
L 629.293369 289.370057 
L 634.137352 289.308003 
L 634.944683 289.245949 
L 640.999662 289.183896 
L 641.806993 289.121842 
L 646.247311 289.028761 
L 647.861973 288.997735 
L 654.724283 288.904654 
L 655.531613 288.8426 
L 662.797589 288.74952 
L 664.41225 288.718493 
L 668.045238 288.625412 
L 671.27456 288.470278 
L 675.714878 288.377198 
L 678.540535 288.25309 
L 682.173523 288.16001 
L 682.980854 288.097956 
L 691.05416 288.004876 
L 693.072486 287.942822 
L 695.494478 287.849741 
L 697.91647 287.756661 
L 710.026429 287.66358 
L 712.852086 287.539473 
L 719.714396 287.446393 
L 722.136388 287.353312 
L 727.384037 287.260231 
L 729.806028 287.167151 
L 733.035351 287.07407 
L 735.457343 286.98099 
L 747.163636 286.887909 
L 747.163636 286.887909 
" clip-path="url(#pa451a27b08)" style="fill: none; stroke: #ff7f0e; stroke-width: 1.5; stroke-linecap: square"/>
   </g>
   <g id="patch_3">
    <path d="M 108 320.4 
L 108 43.2 
" style="fill: none; stroke: #a9a9a9; stroke-width: 0.8; stroke-linejoin: miter; stroke-linecap: square"/>
   </g>
   <g id="patch_4">
    <path d="M 777.6 320.4 
L 777.6 43.2 
" style="fill: none"/>
   </g>
   <g id="patch_5">
    <path d="M 108 320.4 
L 777.6 320.4 
" style="fill: none; stroke: #a9a9a9; stroke-width: 0.8; stroke-linejoin: miter; stroke-linecap: square"/>
   </g>
   <g id="patch_6">
    <path d="M 108 43.2 
L 777.6 43.2 
" style="fill: none"/>
   </g>
   <g id="text_19">
    <!-- get_subscribe history -->
    <g style="fill: #a9a9a9" transform="translate(378.6075 37.2) scale(0.12 -0.12)">
     <defs>
      <path id="DejaVuSans-67" d="M 2906 1791 
Q 2906 2416 2648 2759 
Q 2391 3103 1925 3103 
Q 1463 3103 1205 2759 
Q 947 2416 947 1791 
Q 947 1169 1205 825 
Q 1463 481 1925 481 
Q 2391 481 2648 825 
Q 2906 1169 2906 1791 
z
M 3481 434 
Q 3481 -459 3084 -895 
Q 2688 -1331 1869 -1331 
Q 1566 -1331 1297 -1286 
Q 1028 -1241 775 -1147 
L 775 -588 
Q 1028 -725 1275 -790 
Q 1522 -856 1778 -856 
Q 2344 -856 2625 -561 
Q 2906 -266 2906 331 
L 2906 616 
Q 2728 306 2450 153 
Q 2172 0 1784 0 
Q 1141 0 747 490 
Q 353 981 353 1791 
Q 353 2603 747 3093 
Q 1141 3584 1784 3584 
Q 2172 3584 2450 3431 
Q 2728 3278 2906 2969 
L 2906 3500 
L 3481 3500 
L 3481 434 
z
" transform="scale(0.015625)"/>
      <path id="DejaVuSans-65" d="M 3597 1894 
L 3597 1613 
L 953 1613 
Q 991 1019 1311 708 
Q 1631 397 2203 397 
Q 2534 397 2845 478 
Q 3156 559 3463 722 
L 3463 178 
Q 3153 47 2828 -22 
Q 2503 -91 2169 -91 
Q 1331 -91 842 396 
Q 353 884 353 1716 
Q 353 2575 817 3079 
Q 1281 3584 2069 3584 
Q 2775 3584 3186 3129 
Q 3597 2675 3597 1894 
z
M 3022 2063 
Q 3016 2534 2758 2815 
Q 2500 3097 2075 3097 
Q 1594 3097 1305 2825 
Q 1016 2553 972 2059 
L 3022 2063 
z
" transform="scale(0.015625)"/>
      <path id="DejaVuSans-74" d="M 1172 4494 
L 1172 3500 
L 2356 3500 
L 2356 3053 
L 1172 3053 
L 1172 1153 
Q 1172 725 1289 603 
Q 1406 481 1766 481 
L 2356 481 
L 2356 0 
L 1766 0 
Q 1100 0 847 248 
Q 594 497 594 1153 
L 594 3053 
L 172 3053 
L 172 3500 
L 594 3500 
L 594 4494 
L 1172 4494 
z
" transform="scale(0.015625)"/>
      <path id="DejaVuSans-5f" d="M 3263 -1063 
L 3263 -1509 
L -63 -1509 
L -63 -1063 
L 3263 -1063 
z
" transform="scale(0.015625)"/>
      <path id="DejaVuSans-73" d="M 2834 3397 
L 2834 2853 
Q 2591 2978 2328 3040 
Q 2066 3103 1784 3103 
Q 1356 3103 1142 2972 
Q 928 2841 928 2578 
Q 928 2378 1081 2264 
Q 1234 2150 1697 2047 
L 1894 2003 
Q 2506 1872 2764 1633 
Q 3022 1394 3022 966 
Q 3022 478 2636 193 
Q 2250 -91 1575 -91 
Q 1294 -91 989 -36 
Q 684 19 347 128 
L 347 722 
Q 666 556 975 473 
Q 1284 391 1588 391 
Q 1994 391 2212 530 
Q 2431 669 2431 922 
Q 2431 1156 2273 1281 
Q 2116 1406 1581 1522 
L 1381 1569 
Q 847 1681 609 1914 
Q 372 2147 372 2553 
Q 372 3047 722 3315 
Q 1072 3584 1716 3584 
Q 2034 3584 2315 3537 
Q 2597 3491 2834 3397 
z
" transform="scale(0.015625)"/>
      <path id="DejaVuSans-75" d="M 544 1381 
L 544 3500 
L 1119 3500 
L 1119 1403 
Q 1119 906 1312 657 
Q 1506 409 1894 409 
Q 2359 409 2629 706 
Q 2900 1003 2900 1516 
L 2900 3500 
L 3475 3500 
L 3475 0 
L 2900 0 
L 2900 538 
Q 2691 219 2414 64 
Q 2138 -91 1772 -91 
Q 1169 -91 856 284 
Q 544 659 544 1381 
z
M 1991 3584 
L 1991 3584 
z
" transform="scale(0.015625)"/>
      <path id="DejaVuSans-62" d="M 3116 1747 
Q 3116 2381 2855 2742 
Q 2594 3103 2138 3103 
Q 1681 3103 1420 2742 
Q 1159 2381 1159 1747 
Q 1159 1113 1420 752 
Q 1681 391 2138 391 
Q 2594 391 2855 752 
Q 3116 1113 3116 1747 
z
M 1159 2969 
Q 1341 3281 1617 3432 
Q 1894 3584 2278 3584 
Q 2916 3584 3314 3078 
Q 3713 2572 3713 1747 
Q 3713 922 3314 415 
Q 2916 -91 2278 -91 
Q 1894 -91 1617 61 
Q 1341 213 1159 525 
L 1159 0 
L 581 0 
L 581 4863 
L 1159 4863 
L 1159 2969 
z
" transform="scale(0.015625)"/>
      <path id="DejaVuSans-63" d="M 3122 3366 
L 3122 2828 
Q 2878 2963 2633 3030 
Q 2388 3097 2138 3097 
Q 1578 3097 1268 2742 
Q 959 2388 959 1747 
Q 959 1106 1268 751 
Q 1578 397 2138 397 
Q 2388 397 2633 464 
Q 2878 531 3122 666 
L 3122 134 
Q 2881 22 2623 -34 
Q 2366 -91 2075 -91 
Q 1284 -91 818 406 
Q 353 903 353 1747 
Q 353 2603 823 3093 
Q 1294 3584 2113 3584 
Q 2378 3584 2631 3529 
Q 2884 3475 3122 3366 
z
" transform="scale(0.015625)"/>
      <path id="DejaVuSans-72" d="M 2631 2963 
Q 2534 3019 2420 3045 
Q 2306 3072 2169 3072 
Q 1681 3072 1420 2755 
Q 1159 2438 1159 1844 
L 1159 0 
L 581 0 
L 581 3500 
L 1159 3500 
L 1159 2956 
Q 1341 3275 1631 3429 
Q 1922 3584 2338 3584 
Q 2397 3584 2469 3576 
Q 2541 3569 2628 3553 
L 2631 2963 
z
" transform="scale(0.015625)"/>
      <path id="DejaVuSans-69" d="M 603 3500 
L 1178 3500 
L 1178 0 
L 603 0 
L 603 3500 
z
M 603 4863 
L 1178 4863 
L 1178 4134 
L 603 4134 
L 603 4863 
z
" transform="scale(0.015625)"/>
      <path id="DejaVuSans-20" transform="scale(0.015625)"/>
      <path id="DejaVuSans-68" d="M 3513 2113 
L 3513 0 
L 2938 0 
L 2938 2094 
Q 2938 2591 2744 2837 
Q 2550 3084 2163 3084 
Q 1697 3084 1428 2787 
Q 1159 2491 1159 1978 
L 1159 0 
L 581 0 
L 581 4863 
L 1159 4863 
L 1159 2956 
Q 1366 3272 1645 3428 
Q 1925 3584 2291 3584 
Q 2894 3584 3203 3211 
Q 3513 2838 3513 2113 
z
" transform="scale(0.015625)"/>
      <path id="DejaVuSans-6f" d="M 1959 3097 
Q 1497 3097 1228 2736 
Q 959 2375 959 1747 
Q 959 1119 1226 758 
Q 1494 397 1959 397 
Q 2419 397 2687 759 
Q 2956 1122 2956 1747 
Q 2956 2369 2687 2733 
Q 2419 3097 1959 3097 
z
M 1959 3584 
Q 2709 3584 3137 3096 
Q 3566 2609 3566 1747 
Q 3566 888 3137 398 
Q 2709 -91 1959 -91 
Q 1206 -91 779 398 
Q 353 888 353 1747 
Q 353 2609 779 3096 
Q 1206 3584 1959 3584 
z
" transform="scale(0.015625)"/>
      <path id="DejaVuSans-79" d="M 2059 -325 
Q 1816 -950 1584 -1140 
Q 1353 -1331 966 -1331 
L 506 -1331 
L 506 -850 
L 844 -850 
Q 1081 -850 1212 -737 
Q 1344 -625 1503 -206 
L 1606 56 
L 191 3500 
L 800 3500 
L 1894 763 
L 2988 3500 
L 3597 3500 
L 2059 -325 
z
" transform="scale(0.015625)"/>
     </defs>
     <use xlink:href="#DejaVuSans-67"/>
     <use xlink:href="#DejaVuSans-65" transform="translate(63.476562 0)"/>
     <use xlink:href="#DejaVuSans-74" transform="translate(125 0)"/>
     <use xlink:href="#DejaVuSans-5f" transform="translate(164.208984 0)"/>
     <use xlink:href="#DejaVuSans-73" transform="translate(214.208984 0)"/>
     <use xlink:href="#DejaVuSans-75" transform="translate(266.308594 0)"/>
     <use xlink:href="#DejaVuSans-62" transform="translate(329.6875 0)"/>
     <use xlink:href="#DejaVuSans-73" transform="translate(393.164062 0)"/>
     <use xlink:href="#DejaVuSans-63" transform="translate(445.263672 0)"/>
     <use xlink:href="#DejaVuSans-72" transform="translate(500.244141 0)"/>
     <use xlink:href="#DejaVuSans-69" transform="translate(541.357422 0)"/>
     <use xlink:href="#DejaVuSans-62" transform="translate(569.140625 0)"/>
     <use xlink:href="#DejaVuSans-65" transform="translate(632.617188 0)"/>
     <use xlink:href="#DejaVuSans-20" transform="translate(694.140625 0)"/>
     <use xlink:href="#DejaVuSans-68" transform="translate(725.927734 0)"/>
     <use xlink:href="#DejaVuSans-69" transform="translate(789.306641 0)"/>
     <use xlink:href="#DejaVuSans-73" transform="translate(817.089844 0)"/>
     <use xlink:href="#DejaVuSans-74" transform="translate(869.189453 0)"/>
     <use xlink:href="#DejaVuSans-6f" transform="translate(908.398438 0)"/>
     <use xlink:href="#DejaVuSans-72" transform="translate(969.580078 0)"/>
     <use xlink:href="#DejaVuSans-79" transform="translate(1010.693359 0)"/>
    </g>
   </g>
   <g id="legend_1">
    <g id="line2d_39">
     <path d="M 815.08 328.498438 
L 825.08 328.498438 
L 835.08 328.498438 
" style="fill: none; stroke: #1f77b4; stroke-width: 1.5; stroke-linecap: square"/>
    </g>
    <g id="text_20">
     <!-- star -->
     <g style="fill: #a9a9a9" transform="translate(843.08 331.998438) scale(0.1 -0.1)">
      <defs>
       <path id="DejaVuSans-61" d="M 2194 1759 
Q 1497 1759 1228 1600 
Q 959 1441 959 1056 
Q 959 750 1161 570 
Q 1363 391 1709 391 
Q 2188 391 2477 730 
Q 2766 1069 2766 1631 
L 2766 1759 
L 2194 1759 
z
M 3341 1997 
L 3341 0 
L 2766 0 
L 2766 531 
Q 2569 213 2275 61 
Q 1981 -91 1556 -91 
Q 1019 -91 701 211 
Q 384 513 384 1019 
Q 384 1609 779 1909 
Q 1175 2209 1959 2209 
L 2766 2209 
L 2766 2266 
Q 2766 2663 2505 2880 
Q 2244 3097 1772 3097 
Q 1472 3097 1187 3025 
Q 903 2953 641 2809 
L 641 3341 
Q 956 3463 1253 3523 
Q 1550 3584 1831 3584 
Q 2591 3584 2966 3190 
Q 3341 2797 3341 1997 
z
" transform="scale(0.015625)"/>
      </defs>
      <use xlink:href="#DejaVuSans-73"/>
      <use xlink:href="#DejaVuSans-74" transform="translate(52.099609 0)"/>
      <use xlink:href="#DejaVuSans-61" transform="translate(91.308594 0)"/>
      <use xlink:href="#DejaVuSans-72" transform="translate(152.587891 0)"/>
     </g>
    </g>
    <g id="line2d_40">
     <path d="M 815.08 343.176562 
L 825.08 343.176562 
L 835.08 343.176562 
" style="fill: none; stroke: #ff7f0e; stroke-width: 1.5; stroke-linecap: square"/>
    </g>
    <g id="text_21">
     <!-- fork -->
     <g style="fill: #a9a9a9" transform="translate(843.08 346.676562) scale(0.1 -0.1)">
      <defs>
       <path id="DejaVuSans-66" d="M 2375 4863 
L 2375 4384 
L 1825 4384 
Q 1516 4384 1395 4259 
Q 1275 4134 1275 3809 
L 1275 3500 
L 2222 3500 
L 2222 3053 
L 1275 3053 
L 1275 0 
L 697 0 
L 697 3053 
L 147 3053 
L 147 3500 
L 697 3500 
L 697 3744 
Q 697 4328 969 4595 
Q 1241 4863 1831 4863 
L 2375 4863 
z
" transform="scale(0.015625)"/>
       <path id="DejaVuSans-6b" d="M 581 4863 
L 1159 4863 
L 1159 1991 
L 2875 3500 
L 3609 3500 
L 1753 1863 
L 3688 0 
L 2938 0 
L 1159 1709 
L 1159 0 
L 581 0 
L 581 4863 
z
" transform="scale(0.015625)"/>
      </defs>
      <use xlink:href="#DejaVuSans-66"/>
      <use xlink:href="#DejaVuSans-6f" transform="translate(35.205078 0)"/>
      <use xlink:href="#DejaVuSans-72" transform="translate(96.386719 0)"/>
      <use xlink:href="#DejaVuSans-6b" transform="translate(137.5 0)"/>
     </g>
    </g>
   </g>
  </g>
 </g>
 <defs>
  <clipPath id="pa451a27b08">
   <rect x="108" y="43.2" width="669.6" height="277.2"/>
  </clipPath>
 </defs>
</svg>
