<?xml version="1.0" encoding="utf-8" standalone="no"?>
<!DOCTYPE svg PUBLIC "-//W3C//DTD SVG 1.1//EN"
  "http://www.w3.org/Graphics/SVG/1.1/DTD/svg11.dtd">
<svg xmlns:xlink="http://www.w3.org/1999/xlink" width="864pt" height="360pt" viewBox="0 0 864 360" xmlns="http://www.w3.org/2000/svg" version="1.1">
 <metadata>
  <rdf:RDF xmlns:dc="http://purl.org/dc/elements/1.1/" xmlns:cc="http://creativecommons.org/ns#" xmlns:rdf="http://www.w3.org/1999/02/22-rdf-syntax-ns#">
   <cc:Work>
    <dc:type rdf:resource="http://purl.org/dc/dcmitype/StillImage"/>
    <dc:date>2025-09-11T20:06:53.832110</dc:date>
    <dc:format>image/svg+xml</dc:format>
    <dc:creator>
     <cc:Agent>
      <dc:title>Matplotlib v3.10.6, https://matplotlib.org/</dc:title>
     </cc:Agent>
    </dc:creator>
   </cc:Work>
  </rdf:RDF>
 </metadata>
 <defs>
  <style type="text/css">*{stroke-linejoin: round; stroke-linecap: butt}</style>
 </defs>
 <g id="figure_1">
  <g id="patch_1">
   <path d="M 0 360 
L 864 360 
L 864 0 
L 0 0 
L 0 360 
z
" style="fill: none; opacity: 0"/>
  </g>
  <g id="axes_1">
   <g id="patch_2">
    <path d="M 108 320.4 
L 777.6 320.4 
L 777.6 43.2 
L 108 43.2 
L 108 320.4 
z
" style="fill: none; opacity: 0"/>
   </g>
   <g id="matplotlib.axis_1">
    <g id="xtick_1">
     <g id="line2d_1">
      <path d="M 129.164359 320.4 
L 129.164359 43.2 
" clip-path="url(#p54fb1e27b4)" style="fill: none; stroke-dasharray: 5.12,1.28,0.8,1.28; stroke-dashoffset: 0; stroke: #b0b0b0; stroke-width: 0.8"/>
     </g>
     <g id="line2d_2">
      <defs>
       <path id="mad542d96ff" d="M 0 0 
L 0 3.5 
" style="stroke: #a9a9a9; stroke-width: 0.8"/>
      </defs>
      <g>
       <use xlink:href="#mad542d96ff" x="129.164359" y="320.4" style="fill: #a9a9a9; stroke: #a9a9a9; stroke-width: 0.8"/>
      </g>
     </g>
     <g id="text_1">
      <!-- 2021-07 -->
      <g style="fill: #a9a9a9" transform="translate(108.272953 334.998438) scale(0.1 -0.1)">
       <defs>
        <path id="DejaVuSans-32" d="M 1228 531 
L 3431 531 
L 3431 0 
L 469 0 
L 469 531 
Q 828 903 1448 1529 
Q 2069 2156 2228 2338 
Q 2531 2678 2651 2914 
Q 2772 3150 2772 3378 
Q 2772 3750 2511 3984 
Q 2250 4219 1831 4219 
Q 1534 4219 1204 4116 
Q 875 4013 500 3803 
L 500 4441 
Q 881 4594 1212 4672 
Q 1544 4750 1819 4750 
Q 2544 4750 2975 4387 
Q 3406 4025 3406 3419 
Q 3406 3131 3298 2873 
Q 3191 2616 2906 2266 
Q 2828 2175 2409 1742 
Q 1991 1309 1228 531 
z
" transform="scale(0.015625)"/>
        <path id="DejaVuSans-30" d="M 2034 4250 
Q 1547 4250 1301 3770 
Q 1056 3291 1056 2328 
Q 1056 1369 1301 889 
Q 1547 409 2034 409 
Q 2525 409 2770 889 
Q 3016 1369 3016 2328 
Q 3016 3291 2770 3770 
Q 2525 4250 2034 4250 
z
M 2034 4750 
Q 2819 4750 3233 4129 
Q 3647 3509 3647 2328 
Q 3647 1150 3233 529 
Q 2819 -91 2034 -91 
Q 1250 -91 836 529 
Q 422 1150 422 2328 
Q 422 3509 836 4129 
Q 1250 4750 2034 4750 
z
" transform="scale(0.015625)"/>
        <path id="DejaVuSans-31" d="M 794 531 
L 1825 531 
L 1825 4091 
L 703 3866 
L 703 4441 
L 1819 4666 
L 2450 4666 
L 2450 531 
L 3481 531 
L 3481 0 
L 794 0 
L 794 531 
z
" transform="scale(0.015625)"/>
        <path id="DejaVuSans-2d" d="M 313 2009 
L 1997 2009 
L 1997 1497 
L 313 1497 
L 313 2009 
z
" transform="scale(0.015625)"/>
        <path id="DejaVuSans-37" d="M 525 4666 
L 3525 4666 
L 3525 4397 
L 1831 0 
L 1172 0 
L 2766 4134 
L 525 4134 
L 525 4666 
z
" transform="scale(0.015625)"/>
       </defs>
       <use xlink:href="#DejaVuSans-32"/>
       <use xlink:href="#DejaVuSans-30" transform="translate(63.623047 0)"/>
       <use xlink:href="#DejaVuSans-32" transform="translate(127.246094 0)"/>
       <use xlink:href="#DejaVuSans-31" transform="translate(190.869141 0)"/>
       <use xlink:href="#DejaVuSans-2d" transform="translate(254.492188 0)"/>
       <use xlink:href="#DejaVuSans-30" transform="translate(290.576172 0)"/>
       <use xlink:href="#DejaVuSans-37" transform="translate(354.199219 0)"/>
      </g>
     </g>
    </g>
    <g id="xtick_2">
     <g id="line2d_3">
      <path d="M 203.340397 320.4 
L 203.340397 43.2 
" clip-path="url(#p54fb1e27b4)" style="fill: none; stroke-dasharray: 5.12,1.28,0.8,1.28; stroke-dashoffset: 0; stroke: #b0b0b0; stroke-width: 0.8"/>
     </g>
     <g id="line2d_4">
      <g>
       <use xlink:href="#mad542d96ff" x="203.340397" y="320.4" style="fill: #a9a9a9; stroke: #a9a9a9; stroke-width: 0.8"/>
      </g>
     </g>
     <g id="text_2">
      <!-- 2022-01 -->
      <g style="fill: #a9a9a9" transform="translate(182.448991 334.998438) scale(0.1 -0.1)">
       <use xlink:href="#DejaVuSans-32"/>
       <use xlink:href="#DejaVuSans-30" transform="translate(63.623047 0)"/>
       <use xlink:href="#DejaVuSans-32" transform="translate(127.246094 0)"/>
       <use xlink:href="#DejaVuSans-32" transform="translate(190.869141 0)"/>
       <use xlink:href="#DejaVuSans-2d" transform="translate(254.492188 0)"/>
       <use xlink:href="#DejaVuSans-30" transform="translate(290.576172 0)"/>
       <use xlink:href="#DejaVuSans-31" transform="translate(354.199219 0)"/>
      </g>
     </g>
    </g>
    <g id="xtick_3">
     <g id="line2d_5">
      <path d="M 276.307044 320.4 
L 276.307044 43.2 
" clip-path="url(#p54fb1e27b4)" style="fill: none; stroke-dasharray: 5.12,1.28,0.8,1.28; stroke-dashoffset: 0; stroke: #b0b0b0; stroke-width: 0.8"/>
     </g>
     <g id="line2d_6">
      <g>
       <use xlink:href="#mad542d96ff" x="276.307044" y="320.4" style="fill: #a9a9a9; stroke: #a9a9a9; stroke-width: 0.8"/>
      </g>
     </g>
     <g id="text_3">
      <!-- 2022-07 -->
      <g style="fill: #a9a9a9" transform="translate(255.415638 334.998438) scale(0.1 -0.1)">
       <use xlink:href="#DejaVuSans-32"/>
       <use xlink:href="#DejaVuSans-30" transform="translate(63.623047 0)"/>
       <use xlink:href="#DejaVuSans-32" transform="translate(127.246094 0)"/>
       <use xlink:href="#DejaVuSans-32" transform="translate(190.869141 0)"/>
       <use xlink:href="#DejaVuSans-2d" transform="translate(254.492188 0)"/>
       <use xlink:href="#DejaVuSans-30" transform="translate(290.576172 0)"/>
       <use xlink:href="#DejaVuSans-37" transform="translate(354.199219 0)"/>
      </g>
     </g>
    </g>
    <g id="xtick_4">
     <g id="line2d_7">
      <path d="M 350.483082 320.4 
L 350.483082 43.2 
" clip-path="url(#p54fb1e27b4)" style="fill: none; stroke-dasharray: 5.12,1.28,0.8,1.28; stroke-dashoffset: 0; stroke: #b0b0b0; stroke-width: 0.8"/>
     </g>
     <g id="line2d_8">
      <g>
       <use xlink:href="#mad542d96ff" x="350.483082" y="320.4" style="fill: #a9a9a9; stroke: #a9a9a9; stroke-width: 0.8"/>
      </g>
     </g>
     <g id="text_4">
      <!-- 2023-01 -->
      <g style="fill: #a9a9a9" transform="translate(329.591676 334.998438) scale(0.1 -0.1)">
       <defs>
        <path id="DejaVuSans-33" d="M 2597 2516 
Q 3050 2419 3304 2112 
Q 3559 1806 3559 1356 
Q 3559 666 3084 287 
Q 2609 -91 1734 -91 
Q 1441 -91 1130 -33 
Q 819 25 488 141 
L 488 750 
Q 750 597 1062 519 
Q 1375 441 1716 441 
Q 2309 441 2620 675 
Q 2931 909 2931 1356 
Q 2931 1769 2642 2001 
Q 2353 2234 1838 2234 
L 1294 2234 
L 1294 2753 
L 1863 2753 
Q 2328 2753 2575 2939 
Q 2822 3125 2822 3475 
Q 2822 3834 2567 4026 
Q 2313 4219 1838 4219 
Q 1578 4219 1281 4162 
Q 984 4106 628 3988 
L 628 4550 
Q 988 4650 1302 4700 
Q 1616 4750 1894 4750 
Q 2613 4750 3031 4423 
Q 3450 4097 3450 3541 
Q 3450 3153 3228 2886 
Q 3006 2619 2597 2516 
z
" transform="scale(0.015625)"/>
       </defs>
       <use xlink:href="#DejaVuSans-32"/>
       <use xlink:href="#DejaVuSans-30" transform="translate(63.623047 0)"/>
       <use xlink:href="#DejaVuSans-32" transform="translate(127.246094 0)"/>
       <use xlink:href="#DejaVuSans-33" transform="translate(190.869141 0)"/>
       <use xlink:href="#DejaVuSans-2d" transform="translate(254.492188 0)"/>
       <use xlink:href="#DejaVuSans-30" transform="translate(290.576172 0)"/>
       <use xlink:href="#DejaVuSans-31" transform="translate(354.199219 0)"/>
      </g>
     </g>
    </g>
    <g id="xtick_5">
     <g id="line2d_9">
      <path d="M 423.449729 320.4 
L 423.449729 43.2 
" clip-path="url(#p54fb1e27b4)" style="fill: none; stroke-dasharray: 5.12,1.28,0.8,1.28; stroke-dashoffset: 0; stroke: #b0b0b0; stroke-width: 0.8"/>
     </g>
     <g id="line2d_10">
      <g>
       <use xlink:href="#mad542d96ff" x="423.449729" y="320.4" style="fill: #a9a9a9; stroke: #a9a9a9; stroke-width: 0.8"/>
      </g>
     </g>
     <g id="text_5">
      <!-- 2023-07 -->
      <g style="fill: #a9a9a9" transform="translate(402.558323 334.998438) scale(0.1 -0.1)">
       <use xlink:href="#DejaVuSans-32"/>
       <use xlink:href="#DejaVuSans-30" transform="translate(63.623047 0)"/>
       <use xlink:href="#DejaVuSans-32" transform="translate(127.246094 0)"/>
       <use xlink:href="#DejaVuSans-33" transform="translate(190.869141 0)"/>
       <use xlink:href="#DejaVuSans-2d" transform="translate(254.492188 0)"/>
       <use xlink:href="#DejaVuSans-30" transform="translate(290.576172 0)"/>
       <use xlink:href="#DejaVuSans-37" transform="translate(354.199219 0)"/>
      </g>
     </g>
    </g>
    <g id="xtick_6">
     <g id="line2d_11">
      <path d="M 497.625768 320.4 
L 497.625768 43.2 
" clip-path="url(#p54fb1e27b4)" style="fill: none; stroke-dasharray: 5.12,1.28,0.8,1.28; stroke-dashoffset: 0; stroke: #b0b0b0; stroke-width: 0.8"/>
     </g>
     <g id="line2d_12">
      <g>
       <use xlink:href="#mad542d96ff" x="497.625768" y="320.4" style="fill: #a9a9a9; stroke: #a9a9a9; stroke-width: 0.8"/>
      </g>
     </g>
     <g id="text_6">
      <!-- 2024-01 -->
      <g style="fill: #a9a9a9" transform="translate(476.734361 334.998438) scale(0.1 -0.1)">
       <defs>
        <path id="DejaVuSans-34" d="M 2419 4116 
L 825 1625 
L 2419 1625 
L 2419 4116 
z
M 2253 4666 
L 3047 4666 
L 3047 1625 
L 3713 1625 
L 3713 1100 
L 3047 1100 
L 3047 0 
L 2419 0 
L 2419 1100 
L 313 1100 
L 313 1709 
L 2253 4666 
z
" transform="scale(0.015625)"/>
       </defs>
       <use xlink:href="#DejaVuSans-32"/>
       <use xlink:href="#DejaVuSans-30" transform="translate(63.623047 0)"/>
       <use xlink:href="#DejaVuSans-32" transform="translate(127.246094 0)"/>
       <use xlink:href="#DejaVuSans-34" transform="translate(190.869141 0)"/>
       <use xlink:href="#DejaVuSans-2d" transform="translate(254.492188 0)"/>
       <use xlink:href="#DejaVuSans-30" transform="translate(290.576172 0)"/>
       <use xlink:href="#DejaVuSans-31" transform="translate(354.199219 0)"/>
      </g>
     </g>
    </g>
    <g id="xtick_7">
     <g id="line2d_13">
      <path d="M 570.995545 320.4 
L 570.995545 43.2 
" clip-path="url(#p54fb1e27b4)" style="fill: none; stroke-dasharray: 5.12,1.28,0.8,1.28; stroke-dashoffset: 0; stroke: #b0b0b0; stroke-width: 0.8"/>
     </g>
     <g id="line2d_14">
      <g>
       <use xlink:href="#mad542d96ff" x="570.995545" y="320.4" style="fill: #a9a9a9; stroke: #a9a9a9; stroke-width: 0.8"/>
      </g>
     </g>
     <g id="text_7">
      <!-- 2024-07 -->
      <g style="fill: #a9a9a9" transform="translate(550.104139 334.998438) scale(0.1 -0.1)">
       <use xlink:href="#DejaVuSans-32"/>
       <use xlink:href="#DejaVuSans-30" transform="translate(63.623047 0)"/>
       <use xlink:href="#DejaVuSans-32" transform="translate(127.246094 0)"/>
       <use xlink:href="#DejaVuSans-34" transform="translate(190.869141 0)"/>
       <use xlink:href="#DejaVuSans-2d" transform="translate(254.492188 0)"/>
       <use xlink:href="#DejaVuSans-30" transform="translate(290.576172 0)"/>
       <use xlink:href="#DejaVuSans-37" transform="translate(354.199219 0)"/>
      </g>
     </g>
    </g>
    <g id="xtick_8">
     <g id="line2d_15">
      <path d="M 645.171583 320.4 
L 645.171583 43.2 
" clip-path="url(#p54fb1e27b4)" style="fill: none; stroke-dasharray: 5.12,1.28,0.8,1.28; stroke-dashoffset: 0; stroke: #b0b0b0; stroke-width: 0.8"/>
     </g>
     <g id="line2d_16">
      <g>
       <use xlink:href="#mad542d96ff" x="645.171583" y="320.4" style="fill: #a9a9a9; stroke: #a9a9a9; stroke-width: 0.8"/>
      </g>
     </g>
     <g id="text_8">
      <!-- 2025-01 -->
      <g style="fill: #a9a9a9" transform="translate(624.280177 334.998438) scale(0.1 -0.1)">
       <defs>
        <path id="DejaVuSans-35" d="M 691 4666 
L 3169 4666 
L 3169 4134 
L 1269 4134 
L 1269 2991 
Q 1406 3038 1543 3061 
Q 1681 3084 1819 3084 
Q 2600 3084 3056 2656 
Q 3513 2228 3513 1497 
Q 3513 744 3044 326 
Q 2575 -91 1722 -91 
Q 1428 -91 1123 -41 
Q 819 9 494 109 
L 494 744 
Q 775 591 1075 516 
Q 1375 441 1709 441 
Q 2250 441 2565 725 
Q 2881 1009 2881 1497 
Q 2881 1984 2565 2268 
Q 2250 2553 1709 2553 
Q 1456 2553 1204 2497 
Q 953 2441 691 2322 
L 691 4666 
z
" transform="scale(0.015625)"/>
       </defs>
       <use xlink:href="#DejaVuSans-32"/>
       <use xlink:href="#DejaVuSans-30" transform="translate(63.623047 0)"/>
       <use xlink:href="#DejaVuSans-32" transform="translate(127.246094 0)"/>
       <use xlink:href="#DejaVuSans-35" transform="translate(190.869141 0)"/>
       <use xlink:href="#DejaVuSans-2d" transform="translate(254.492188 0)"/>
       <use xlink:href="#DejaVuSans-30" transform="translate(290.576172 0)"/>
       <use xlink:href="#DejaVuSans-31" transform="translate(354.199219 0)"/>
      </g>
     </g>
    </g>
    <g id="xtick_9">
     <g id="line2d_17">
      <path d="M 718.13823 320.4 
L 718.13823 43.2 
" clip-path="url(#p54fb1e27b4)" style="fill: none; stroke-dasharray: 5.12,1.28,0.8,1.28; stroke-dashoffset: 0; stroke: #b0b0b0; stroke-width: 0.8"/>
     </g>
     <g id="line2d_18">
      <g>
       <use xlink:href="#mad542d96ff" x="718.13823" y="320.4" style="fill: #a9a9a9; stroke: #a9a9a9; stroke-width: 0.8"/>
      </g>
     </g>
     <g id="text_9">
      <!-- 2025-07 -->
      <g style="fill: #a9a9a9" transform="translate(697.246824 334.998438) scale(0.1 -0.1)">
       <use xlink:href="#DejaVuSans-32"/>
       <use xlink:href="#DejaVuSans-30" transform="translate(63.623047 0)"/>
       <use xlink:href="#DejaVuSans-32" transform="translate(127.246094 0)"/>
       <use xlink:href="#DejaVuSans-35" transform="translate(190.869141 0)"/>
       <use xlink:href="#DejaVuSans-2d" transform="translate(254.492188 0)"/>
       <use xlink:href="#DejaVuSans-30" transform="translate(290.576172 0)"/>
       <use xlink:href="#DejaVuSans-37" transform="translate(354.199219 0)"/>
      </g>
     </g>
    </g>
   </g>
   <g id="matplotlib.axis_2">
    <g id="ytick_1">
     <g id="line2d_19">
      <path d="M 108 307.831004 
L 777.6 307.831004 
" clip-path="url(#p54fb1e27b4)" style="fill: none; stroke-dasharray: 5.12,1.28,0.8,1.28; stroke-dashoffset: 0; stroke: #b0b0b0; stroke-width: 0.8"/>
     </g>
     <g id="line2d_20">
      <defs>
       <path id="m445cc6107b" d="M 0 0 
L -3.5 0 
" style="stroke: #a9a9a9; stroke-width: 0.8"/>
      </defs>
      <g>
       <use xlink:href="#m445cc6107b" x="108" y="307.831004" style="fill: #a9a9a9; stroke: #a9a9a9; stroke-width: 0.8"/>
      </g>
     </g>
     <g id="text_10">
      <!-- 0 -->
      <g style="fill: #a9a9a9" transform="translate(94.6375 311.630223) scale(0.1 -0.1)">
       <use xlink:href="#DejaVuSans-30"/>
      </g>
     </g>
    </g>
    <g id="ytick_2">
     <g id="line2d_21">
      <path d="M 108 276.827067 
L 777.6 276.827067 
" clip-path="url(#p54fb1e27b4)" style="fill: none; stroke-dasharray: 5.12,1.28,0.8,1.28; stroke-dashoffset: 0; stroke: #b0b0b0; stroke-width: 0.8"/>
     </g>
     <g id="line2d_22">
      <g>
       <use xlink:href="#m445cc6107b" x="108" y="276.827067" style="fill: #a9a9a9; stroke: #a9a9a9; stroke-width: 0.8"/>
      </g>
     </g>
     <g id="text_11">
      <!-- 1000 -->
      <g style="fill: #a9a9a9" transform="translate(75.55 280.626286) scale(0.1 -0.1)">
       <use xlink:href="#DejaVuSans-31"/>
       <use xlink:href="#DejaVuSans-30" transform="translate(63.623047 0)"/>
       <use xlink:href="#DejaVuSans-30" transform="translate(127.246094 0)"/>
       <use xlink:href="#DejaVuSans-30" transform="translate(190.869141 0)"/>
      </g>
     </g>
    </g>
    <g id="ytick_3">
     <g id="line2d_23">
      <path d="M 108 245.82313 
L 777.6 245.82313 
" clip-path="url(#p54fb1e27b4)" style="fill: none; stroke-dasharray: 5.12,1.28,0.8,1.28; stroke-dashoffset: 0; stroke: #b0b0b0; stroke-width: 0.8"/>
     </g>
     <g id="line2d_24">
      <g>
       <use xlink:href="#m445cc6107b" x="108" y="245.82313" style="fill: #a9a9a9; stroke: #a9a9a9; stroke-width: 0.8"/>
      </g>
     </g>
     <g id="text_12">
      <!-- 2000 -->
      <g style="fill: #a9a9a9" transform="translate(75.55 249.622349) scale(0.1 -0.1)">
       <use xlink:href="#DejaVuSans-32"/>
       <use xlink:href="#DejaVuSans-30" transform="translate(63.623047 0)"/>
       <use xlink:href="#DejaVuSans-30" transform="translate(127.246094 0)"/>
       <use xlink:href="#DejaVuSans-30" transform="translate(190.869141 0)"/>
      </g>
     </g>
    </g>
    <g id="ytick_4">
     <g id="line2d_25">
      <path d="M 108 214.819193 
L 777.6 214.819193 
" clip-path="url(#p54fb1e27b4)" style="fill: none; stroke-dasharray: 5.12,1.28,0.8,1.28; stroke-dashoffset: 0; stroke: #b0b0b0; stroke-width: 0.8"/>
     </g>
     <g id="line2d_26">
      <g>
       <use xlink:href="#m445cc6107b" x="108" y="214.819193" style="fill: #a9a9a9; stroke: #a9a9a9; stroke-width: 0.8"/>
      </g>
     </g>
     <g id="text_13">
      <!-- 3000 -->
      <g style="fill: #a9a9a9" transform="translate(75.55 218.618412) scale(0.1 -0.1)">
       <use xlink:href="#DejaVuSans-33"/>
       <use xlink:href="#DejaVuSans-30" transform="translate(63.623047 0)"/>
       <use xlink:href="#DejaVuSans-30" transform="translate(127.246094 0)"/>
       <use xlink:href="#DejaVuSans-30" transform="translate(190.869141 0)"/>
      </g>
     </g>
    </g>
    <g id="ytick_5">
     <g id="line2d_27">
      <path d="M 108 183.815256 
L 777.6 183.815256 
" clip-path="url(#p54fb1e27b4)" style="fill: none; stroke-dasharray: 5.12,1.28,0.8,1.28; stroke-dashoffset: 0; stroke: #b0b0b0; stroke-width: 0.8"/>
     </g>
     <g id="line2d_28">
      <g>
       <use xlink:href="#m445cc6107b" x="108" y="183.815256" style="fill: #a9a9a9; stroke: #a9a9a9; stroke-width: 0.8"/>
      </g>
     </g>
     <g id="text_14">
      <!-- 4000 -->
      <g style="fill: #a9a9a9" transform="translate(75.55 187.614475) scale(0.1 -0.1)">
       <use xlink:href="#DejaVuSans-34"/>
       <use xlink:href="#DejaVuSans-30" transform="translate(63.623047 0)"/>
       <use xlink:href="#DejaVuSans-30" transform="translate(127.246094 0)"/>
       <use xlink:href="#DejaVuSans-30" transform="translate(190.869141 0)"/>
      </g>
     </g>
    </g>
    <g id="ytick_6">
     <g id="line2d_29">
      <path d="M 108 152.811319 
L 777.6 152.811319 
" clip-path="url(#p54fb1e27b4)" style="fill: none; stroke-dasharray: 5.12,1.28,0.8,1.28; stroke-dashoffset: 0; stroke: #b0b0b0; stroke-width: 0.8"/>
     </g>
     <g id="line2d_30">
      <g>
       <use xlink:href="#m445cc6107b" x="108" y="152.811319" style="fill: #a9a9a9; stroke: #a9a9a9; stroke-width: 0.8"/>
      </g>
     </g>
     <g id="text_15">
      <!-- 5000 -->
      <g style="fill: #a9a9a9" transform="translate(75.55 156.610538) scale(0.1 -0.1)">
       <use xlink:href="#DejaVuSans-35"/>
       <use xlink:href="#DejaVuSans-30" transform="translate(63.623047 0)"/>
       <use xlink:href="#DejaVuSans-30" transform="translate(127.246094 0)"/>
       <use xlink:href="#DejaVuSans-30" transform="translate(190.869141 0)"/>
      </g>
     </g>
    </g>
    <g id="ytick_7">
     <g id="line2d_31">
      <path d="M 108 121.807382 
L 777.6 121.807382 
" clip-path="url(#p54fb1e27b4)" style="fill: none; stroke-dasharray: 5.12,1.28,0.8,1.28; stroke-dashoffset: 0; stroke: #b0b0b0; stroke-width: 0.8"/>
     </g>
     <g id="line2d_32">
      <g>
       <use xlink:href="#m445cc6107b" x="108" y="121.807382" style="fill: #a9a9a9; stroke: #a9a9a9; stroke-width: 0.8"/>
      </g>
     </g>
     <g id="text_16">
      <!-- 6000 -->
      <g style="fill: #a9a9a9" transform="translate(75.55 125.606601) scale(0.1 -0.1)">
       <defs>
        <path id="DejaVuSans-36" d="M 2113 2584 
Q 1688 2584 1439 2293 
Q 1191 2003 1191 1497 
Q 1191 994 1439 701 
Q 1688 409 2113 409 
Q 2538 409 2786 701 
Q 3034 994 3034 1497 
Q 3034 2003 2786 2293 
Q 2538 2584 2113 2584 
z
M 3366 4563 
L 3366 3988 
Q 3128 4100 2886 4159 
Q 2644 4219 2406 4219 
Q 1781 4219 1451 3797 
Q 1122 3375 1075 2522 
Q 1259 2794 1537 2939 
Q 1816 3084 2150 3084 
Q 2853 3084 3261 2657 
Q 3669 2231 3669 1497 
Q 3669 778 3244 343 
Q 2819 -91 2113 -91 
Q 1303 -91 875 529 
Q 447 1150 447 2328 
Q 447 3434 972 4092 
Q 1497 4750 2381 4750 
Q 2619 4750 2861 4703 
Q 3103 4656 3366 4563 
z
" transform="scale(0.015625)"/>
       </defs>
       <use xlink:href="#DejaVuSans-36"/>
       <use xlink:href="#DejaVuSans-30" transform="translate(63.623047 0)"/>
       <use xlink:href="#DejaVuSans-30" transform="translate(127.246094 0)"/>
       <use xlink:href="#DejaVuSans-30" transform="translate(190.869141 0)"/>
      </g>
     </g>
    </g>
    <g id="ytick_8">
     <g id="line2d_33">
      <path d="M 108 90.803445 
L 777.6 90.803445 
" clip-path="url(#p54fb1e27b4)" style="fill: none; stroke-dasharray: 5.12,1.28,0.8,1.28; stroke-dashoffset: 0; stroke: #b0b0b0; stroke-width: 0.8"/>
     </g>
     <g id="line2d_34">
      <g>
       <use xlink:href="#m445cc6107b" x="108" y="90.803445" style="fill: #a9a9a9; stroke: #a9a9a9; stroke-width: 0.8"/>
      </g>
     </g>
     <g id="text_17">
      <!-- 7000 -->
      <g style="fill: #a9a9a9" transform="translate(75.55 94.602664) scale(0.1 -0.1)">
       <use xlink:href="#DejaVuSans-37"/>
       <use xlink:href="#DejaVuSans-30" transform="translate(63.623047 0)"/>
       <use xlink:href="#DejaVuSans-30" transform="translate(127.246094 0)"/>
       <use xlink:href="#DejaVuSans-30" transform="translate(190.869141 0)"/>
      </g>
     </g>
    </g>
    <g id="ytick_9">
     <g id="line2d_35">
      <path d="M 108 59.799508 
L 777.6 59.799508 
" clip-path="url(#p54fb1e27b4)" style="fill: none; stroke-dasharray: 5.12,1.28,0.8,1.28; stroke-dashoffset: 0; stroke: #b0b0b0; stroke-width: 0.8"/>
     </g>
     <g id="line2d_36">
      <g>
       <use xlink:href="#m445cc6107b" x="108" y="59.799508" style="fill: #a9a9a9; stroke: #a9a9a9; stroke-width: 0.8"/>
      </g>
     </g>
     <g id="text_18">
      <!-- 8000 -->
      <g style="fill: #a9a9a9" transform="translate(75.55 63.598727) scale(0.1 -0.1)">
       <defs>
        <path id="DejaVuSans-38" d="M 2034 2216 
Q 1584 2216 1326 1975 
Q 1069 1734 1069 1313 
Q 1069 891 1326 650 
Q 1584 409 2034 409 
Q 2484 409 2743 651 
Q 3003 894 3003 1313 
Q 3003 1734 2745 1975 
Q 2488 2216 2034 2216 
z
M 1403 2484 
Q 997 2584 770 2862 
Q 544 3141 544 3541 
Q 544 4100 942 4425 
Q 1341 4750 2034 4750 
Q 2731 4750 3128 4425 
Q 3525 4100 3525 3541 
Q 3525 3141 3298 2862 
Q 3072 2584 2669 2484 
Q 3125 2378 3379 2068 
Q 3634 1759 3634 1313 
Q 3634 634 3220 271 
Q 2806 -91 2034 -91 
Q 1263 -91 848 271 
Q 434 634 434 1313 
Q 434 1759 690 2068 
Q 947 2378 1403 2484 
z
M 1172 3481 
Q 1172 3119 1398 2916 
Q 1625 2713 2034 2713 
Q 2441 2713 2670 2916 
Q 2900 3119 2900 3481 
Q 2900 3844 2670 4047 
Q 2441 4250 2034 4250 
Q 1625 4250 1398 4047 
Q 1172 3844 1172 3481 
z
" transform="scale(0.015625)"/>
       </defs>
       <use xlink:href="#DejaVuSans-38"/>
       <use xlink:href="#DejaVuSans-30" transform="translate(63.623047 0)"/>
       <use xlink:href="#DejaVuSans-30" transform="translate(127.246094 0)"/>
       <use xlink:href="#DejaVuSans-30" transform="translate(190.869141 0)"/>
      </g>
     </g>
    </g>
   </g>
   <g id="line2d_37">
    <path d="M 138.436364 307.737992 
L 140.855148 307.520965 
L 141.258278 307.334941 
L 142.870801 307.117913 
L 144.483323 306.77687 
L 145.289585 306.652854 
L 147.305238 306.466831 
L 148.111499 306.125787 
L 148.51463 305.567717 
L 148.91776 305.288681 
L 149.320891 304.358563 
L 149.724022 304.296555 
L 150.127152 303.955512 
L 150.933414 303.521457 
L 152.545936 302.188287 
L 154.158459 301.351181 
L 155.367851 300.762106 
L 155.770981 300.08002 
L 156.577243 299.459941 
L 156.980373 299.273917 
L 161.01168 298.653839 
L 161.41481 298.467815 
L 164.236725 298.219783 
L 165.849247 297.816732 
L 169.074293 297.351673 
L 169.477423 297.134646 
L 169.880554 297.072638 
L 170.686815 296.793602 
L 173.50873 296.297539 
L 174.314991 296.049508 
L 177.943167 295.429429 
L 178.749428 295.243406 
L 179.555689 295.212402 
L 181.168212 294.80935 
L 181.571343 294.220276 
L 182.780734 293.724213 
L 183.990126 293.383169 
L 184.393257 293.166142 
L 185.199518 293.011122 
L 186.812041 292.515059 
L 187.618302 292.453051 
L 188.424564 292.236024 
L 190.037086 291.801969 
L 190.440217 291.770965 
L 191.246478 291.367913 
L 191.649609 291.305906 
L 192.052739 291.088878 
L 196.487176 290.31378 
L 198.099699 289.817717 
L 198.50283 289.538681 
L 200.518483 288.856594 
L 201.324744 288.26752 
L 202.534136 288.019488 
L 207.774834 286.469291 
L 208.177965 286.407283 
L 209.790488 285.756201 
L 210.193618 285.694193 
L 210.99988 285.35315 
L 211.806141 285.322146 
L 213.015533 284.950098 
L 213.418663 284.950098 
L 213.821794 284.764075 
L 214.628055 284.671063 
L 215.031186 284.516043 
L 216.643709 284.454035 
L 217.44997 284.299016 
L 218.256231 283.864961 
L 219.465623 283.430906 
L 220.271884 282.99685 
L 221.481276 282.469783 
L 223.093799 281.632677 
L 223.49693 281.167618 
L 224.303191 279.865453 
L 224.706321 279.741437 
L 225.109452 279.741437 
L 226.721975 278.842323 
L 227.125105 278.749311 
L 227.528236 278.34626 
L 228.334497 278.005217 
L 229.140759 277.633169 
L 229.543889 277.137106 
L 229.94702 276.45502 
L 230.350151 276.175984 
L 230.753281 275.43189 
L 231.156412 274.966831 
L 233.575196 273.602657 
L 235.187718 272.114469 
L 235.590849 271.153346 
L 235.99398 270.533268 
L 236.39711 270.192224 
L 236.800241 270.006201 
L 240.025286 266.936811 
L 240.831547 266.161713 
L 243.250331 264.580512 
L 243.653462 264.425492 
L 245.265984 263.433366 
L 245.669115 263.247343 
L 247.684768 261.325098 
L 248.49103 260.984055 
L 249.297291 260.39498 
L 249.700421 260.146949 
L 250.103552 260.084941 
L 251.312944 259.37185 
L 251.716075 258.906791 
L 253.731728 257.759646 
L 254.134859 257.604626 
L 255.34425 256.736516 
L 261.39121 254.504232 
L 262.197471 253.729134 
L 263.406863 253.109055 
L 264.213125 252.581988 
L 265.019386 252.333957 
L 265.422517 252.054921 
L 265.825647 251.930906 
L 267.035039 251.093799 
L 269.050692 250.62874 
L 270.260084 249.884646 
L 271.469476 249.60561 
L 271.872607 249.512598 
L 273.081999 248.58248 
L 274.694521 248.117421 
L 275.097652 247.776378 
L 277.516436 246.908268 
L 278.322697 246.753248 
L 279.128958 246.412205 
L 281.950873 245.327067 
L 282.757134 245.234055 
L 283.966526 244.8 
L 285.982179 243.77687 
L 288.400963 242.381693 
L 289.207225 242.164665 
L 290.416616 241.544587 
L 291.222878 241.389567 
L 292.029139 240.893504 
L 292.8354 240.676476 
L 294.044792 240.180413 
L 295.657315 239.963386 
L 296.463576 239.529331 
L 296.866707 239.157283 
L 297.269837 238.413189 
L 298.88236 237.94813 
L 300.494883 237.204035 
L 302.913666 236.025886 
L 303.719928 235.622835 
L 304.92932 235.374803 
L 306.138712 234.754724 
L 306.541842 234.692717 
L 308.557495 233.669587 
L 309.363757 233.14252 
L 310.573149 232.894488 
L 312.588802 232.367421 
L 312.991933 232.026378 
L 313.798194 231.747343 
L 315.813847 230.910236 
L 316.216978 230.600197 
L 316.620108 230.445177 
L 317.42637 229.980118 
L 319.038892 229.453051 
L 319.845154 228.925984 
L 320.248284 228.491929 
L 320.651415 228.243898 
L 321.054545 228.150886 
L 321.860807 227.468799 
L 322.263937 227.406791 
L 322.667068 226.724705 
L 323.070199 226.538681 
L 323.473329 226.197638 
L 323.87646 226.13563 
L 324.682721 225.608563 
L 325.488983 225.329528 
L 325.892113 225.019488 
L 326.295244 224.864469 
L 327.907766 223.748327 
L 329.117158 223.128248 
L 329.92342 222.91122 
L 330.729681 222.446161 
L 331.132812 221.733071 
L 331.939073 221.112992 
L 332.342203 221.01998 
L 334.760987 219.810827 
L 335.567249 219.469783 
L 336.37351 218.880709 
L 337.582902 217.733563 
L 338.389163 217.2375 
L 338.792294 216.772441 
L 340.404816 215.625295 
L 341.211078 214.788189 
L 342.017339 214.509154 
L 342.8236 213.951083 
L 344.032992 213.3 
L 344.436123 213.237992 
L 348.064299 211.346752 
L 349.273691 210.974705 
L 350.483082 210.509646 
L 350.886213 210.168602 
L 352.498736 209.51752 
L 352.901866 209.393504 
L 353.708128 208.866437 
L 354.514389 208.525394 
L 355.32065 207.936319 
L 356.126911 206.29311 
L 356.933173 205.362992 
L 358.142565 204.711909 
L 358.948826 204.370866 
L 359.351957 204.308858 
L 360.158218 203.936811 
L 361.770741 203.37874 
L 362.577002 202.913681 
L 363.383263 202.51063 
L 363.786394 202.386614 
L 366.205178 200.898425 
L 366.608308 200.433366 
L 367.8177 199.720276 
L 368.220831 199.565256 
L 369.027092 199.069193 
L 370.639615 198.170079 
L 371.042745 198.077067 
L 371.445876 197.736024 
L 374.26779 196.774902 
L 374.670921 196.495866 
L 375.477182 196.247835 
L 376.283444 195.906791 
L 376.686574 195.565748 
L 378.299097 194.976673 
L 379.105358 194.387598 
L 379.91162 194.046555 
L 380.717881 193.395472 
L 381.524142 193.147441 
L 381.927273 192.775394 
L 382.330403 192.713386 
L 383.136665 192.093307 
L 385.152318 190.884154 
L 385.958579 190.636122 
L 386.36171 190.388091 
L 386.76484 190.326083 
L 387.974232 189.643996 
L 394.021192 187.721752 
L 395.230584 186.853642 
L 395.633715 186.698622 
L 396.439976 186.233563 
L 396.843107 186.109547 
L 399.26189 184.71437 
L 399.665021 184.621358 
L 400.874413 183.877264 
L 402.083805 183.443209 
L 402.890066 183.164173 
L 404.502589 182.606102 
L 405.30885 182.327067 
L 406.921373 181.986024 
L 407.324503 181.8 
L 408.130765 181.582972 
L 408.533895 181.396949 
L 408.937026 181.334941 
L 409.340157 181.117913 
L 410.146418 180.962894 
L 411.35581 180.497835 
L 412.565202 180.311811 
L 414.983986 179.846752 
L 416.193377 179.567717 
L 416.596508 179.381693 
L 417.402769 179.226673 
L 418.209031 179.009646 
L 419.015292 178.637598 
L 419.418423 178.482579 
L 419.821553 178.482579 
L 424.25599 177.087402 
L 424.659121 176.870374 
L 425.062252 176.870374 
L 425.868513 176.560335 
L 426.271644 176.12628 
L 428.690427 175.10315 
L 430.30295 174.545079 
L 430.706081 174.297047 
L 431.915473 173.925 
L 432.721734 173.707972 
L 433.124865 173.428937 
L 433.527995 173.335925 
L 433.931126 172.963878 
L 435.140518 172.715846 
L 435.946779 172.343799 
L 436.34991 171.847736 
L 440.784347 170.85561 
L 441.187477 170.85561 
L 441.590608 170.669587 
L 443.203131 170.359547 
L 443.606261 170.173524 
L 445.218784 169.863484 
L 446.025045 169.522441 
L 446.831306 169.367421 
L 448.84696 168.840354 
L 450.056352 168.468307 
L 452.072005 167.817224 
L 452.878266 167.476181 
L 453.684527 167.166142 
L 454.087658 166.887106 
L 454.893919 166.639075 
L 457.715834 165.553937 
L 459.328356 165.367913 
L 462.553402 164.15876 
L 462.956532 163.84872 
L 463.359663 163.755709 
L 463.762793 163.538681 
L 464.165924 163.507677 
L 468.600361 161.864469 
L 470.616014 161.306398 
L 471.422276 160.903346 
L 472.631668 160.624311 
L 474.24419 159.260138 
L 475.856713 158.547047 
L 477.066105 158.01998 
L 478.678627 157.337894 
L 479.081758 157.213878 
L 479.484889 156.934843 
L 481.500542 156.252756 
L 485.531848 154.175492 
L 486.33811 153.803445 
L 486.74124 153.493406 
L 487.547502 153.21437 
L 489.966285 152.03622 
L 490.369416 151.943209 
L 491.578808 151.385138 
L 493.191331 150.827067 
L 493.997592 150.486024 
L 494.803853 150.362008 
L 495.206984 150.082972 
L 496.819506 149.772933 
L 497.625768 149.43189 
L 500.044551 148.25374 
L 500.447682 148.191732 
L 501.657074 147.478642 
L 502.866466 147.044587 
L 505.68838 145.835433 
L 506.091511 145.711417 
L 506.494642 145.432382 
L 507.300903 145.33937 
L 507.704034 145.060335 
L 508.510295 144.936319 
L 509.316556 144.533268 
L 509.719687 144.347244 
L 510.525948 144.130217 
L 511.33221 143.882185 
L 512.541601 143.417126 
L 513.750993 143.014075 
L 514.960385 142.735039 
L 516.572908 142.052953 
L 517.379169 141.618898 
L 518.991692 140.781791 
L 519.797953 140.595768 
L 520.201084 140.347736 
L 520.604214 140.254724 
L 521.813606 139.541634 
L 523.022998 139.076575 
L 525.844913 138.084449 
L 526.248043 137.960433 
L 527.054305 137.526378 
L 529.069958 136.813287 
L 531.488742 135.821161 
L 533.101264 135.046063 
L 537.132571 133.433858 
L 537.938832 133.030807 
L 538.341963 132.937795 
L 539.148224 132.627756 
L 539.551355 132.627756 
L 540.357616 132.255709 
L 541.970138 130.891535 
L 542.373269 130.76752 
L 542.7764 130.519488 
L 543.985792 130.178445 
L 544.388922 129.868406 
L 544.792053 129.775394 
L 546.001445 129.031299 
L 546.404576 128.752264 
L 547.613967 128.287205 
L 548.017098 128.070177 
L 549.22649 127.791142 
L 551.242143 127.078051 
L 552.048405 126.83002 
L 553.257797 126.178937 
L 554.064058 125.775886 
L 554.870319 125.558858 
L 556.482842 124.814764 
L 556.885972 124.690748 
L 557.692234 124.318701 
L 559.707887 123.636614 
L 560.917279 122.861516 
L 561.320409 122.768504 
L 562.126671 122.365453 
L 562.932932 122.055413 
L 563.336063 121.683366 
L 564.545455 121.218307 
L 564.948585 121.156299 
L 566.561108 120.412205 
L 567.7705 120.040157 
L 568.17363 119.854134 
L 568.576761 119.792126 
L 569.383022 119.451083 
L 570.592414 119.172047 
L 571.398675 118.706988 
L 571.801806 118.551969 
L 572.204937 118.241929 
L 573.414329 117.93189 
L 574.22059 117.62185 
L 575.026851 117.280807 
L 576.639374 116.629724 
L 579.461288 115.88563 
L 580.26755 115.575591 
L 581.880072 115.265551 
L 582.686334 115.110531 
L 583.895725 114.645472 
L 585.105117 114.366437 
L 586.314509 113.715354 
L 586.71764 113.343307 
L 587.523901 112.909252 
L 588.733293 112.165157 
L 591.152077 111.421063 
L 591.555208 111.111024 
L 595.183384 109.808858 
L 595.989645 109.529823 
L 597.199037 109.002756 
L 600.827213 107.514567 
L 601.633474 107.204528 
L 603.245996 106.553445 
L 603.649127 106.181398 
L 604.052258 106.11939 
L 605.66478 105.468307 
L 607.277303 105.065256 
L 607.680433 105.003248 
L 608.083564 104.817224 
L 608.486695 104.78622 
L 609.292956 104.507185 
L 609.696087 104.476181 
L 610.905479 104.011122 
L 612.518001 103.546063 
L 613.324262 102.925984 
L 614.936785 102.02687 
L 615.339916 101.933858 
L 616.146177 101.623819 
L 619.371222 100.042618 
L 619.774353 99.825591 
L 620.177483 99.453543 
L 622.193137 98.95748 
L 623.402529 98.399409 
L 624.20879 98.182382 
L 624.611921 97.996358 
L 625.015051 97.655315 
L 626.627574 97.22126 
L 627.030704 96.91122 
L 632.271403 94.988976 
L 633.077664 94.833957 
L 635.093317 94.182874 
L 636.302709 93.655807 
L 639.124624 92.787697 
L 639.930885 92.322638 
L 642.7528 91.361516 
L 644.365322 90.834449 
L 645.574714 90.555413 
L 646.784106 90.183366 
L 647.187237 90.090354 
L 647.590367 89.811319 
L 648.396629 89.625295 
L 650.009151 89.160236 
L 650.412282 89.129232 
L 651.218543 88.757185 
L 654.040458 88.044094 
L 655.65298 87.45502 
L 656.056111 87.45502 
L 657.265503 87.175984 
L 658.071764 87.020965 
L 658.878025 86.803937 
L 660.087417 86.152854 
L 661.296809 85.780807 
L 664.118724 84.819685 
L 665.731246 84.013583 
L 666.940638 83.734547 
L 667.746899 83.486516 
L 668.553161 83.083465 
L 668.956291 82.742421 
L 669.762553 82.49439 
L 670.165683 82.246358 
L 670.971945 82.153346 
L 673.793859 81.347244 
L 675.003251 81.099213 
L 676.212643 80.789173 
L 677.018904 80.60315 
L 678.228296 79.983071 
L 683.468995 77.967815 
L 684.275256 77.843799 
L 685.081517 77.68878 
L 685.484648 77.68878 
L 686.69404 77.285728 
L 687.903432 76.913681 
L 691.531607 75.890551 
L 692.337869 75.673524 
L 692.740999 75.580512 
L 693.14413 75.33248 
L 693.950391 75.177461 
L 694.756653 75.084449 
L 695.159783 74.867421 
L 695.562914 74.836417 
L 696.369175 74.30935 
L 697.981698 73.968307 
L 698.787959 73.627264 
L 699.59422 73.348228 
L 700.400482 73.131201 
L 701.206743 72.790157 
L 702.013004 72.511122 
L 703.625527 72.046063 
L 704.431788 71.984055 
L 705.238049 71.70502 
L 705.64118 71.55 
L 706.447441 71.425984 
L 708.059964 70.712894 
L 708.463095 70.650886 
L 709.269356 70.340846 
L 711.68814 69.937795 
L 712.494401 69.689764 
L 712.897532 69.627756 
L 713.703793 69.286713 
L 714.106924 69.224705 
L 714.510054 69.007677 
L 715.316315 68.325591 
L 719.347622 66.837402 
L 721.766406 66.186319 
L 722.169536 65.87628 
L 723.782059 65.163189 
L 725.394582 64.481102 
L 726.200843 64.233071 
L 727.410235 63.768012 
L 728.216496 63.426969 
L 729.829019 62.434843 
L 730.232149 62.341831 
L 731.441541 61.721752 
L 732.247803 61.411713 
L 733.860325 60.853642 
L 734.263456 60.667618 
L 734.666586 60.326575 
L 735.069717 60.233563 
L 735.875978 59.7375 
L 736.279109 59.644488 
L 737.488501 59.086417 
L 738.294762 58.807382 
L 738.697893 58.621358 
L 739.101023 58.590354 
L 741.116677 57.815256 
L 741.922938 57.660236 
L 742.729199 57.071161 
L 743.13233 57.071161 
L 743.938591 56.730118 
L 744.341722 56.66811 
L 744.744852 56.451083 
L 745.147983 56.389075 
L 745.551114 56.203051 
L 746.357375 56.079035 
L 747.163636 55.8 
L 747.163636 55.8 
" clip-path="url(#p54fb1e27b4)" style="fill: none; stroke: #1f77b4; stroke-width: 1.5; stroke-linecap: square"/>
   </g>
   <g id="line2d_38">
    <path d="M 138.839494 307.8 
L 142.46767 307.706988 
L 145.692715 307.551969 
L 147.305238 307.551969 
L 147.708368 307.427953 
L 149.724022 307.334941 
L 152.142806 307.055906 
L 154.561589 306.962894 
L 155.367851 306.869882 
L 158.189765 306.745866 
L 161.01168 306.652854 
L 163.027333 306.590846 
L 168.268031 306.497835 
L 170.283685 306.435827 
L 173.91186 306.342815 
L 175.524383 306.311811 
L 179.555689 306.218799 
L 181.168212 306.06378 
L 182.780734 306.032776 
L 185.199518 305.939764 
L 186.812041 305.90876 
L 188.827694 305.846752 
L 190.440217 305.691732 
L 194.068393 305.59872 
L 194.874654 305.536713 
L 196.487176 305.443701 
L 198.90596 305.350689 
L 200.518483 305.257677 
L 207.774834 304.792618 
L 210.596749 304.699606 
L 211.806141 304.575591 
L 213.821794 304.482579 
L 217.853101 304.265551 
L 221.884407 304.203543 
L 223.49693 304.01752 
L 225.512583 303.924508 
L 229.543889 303.521457 
L 231.962673 303.211417 
L 233.575196 303.149409 
L 236.800241 302.715354 
L 239.219025 302.653346 
L 240.428417 302.529331 
L 241.637809 302.436319 
L 252.925467 301.537205 
L 253.731728 301.382185 
L 256.150512 301.289173 
L 262.600602 300.886122 
L 265.422517 300.79311 
L 267.035039 300.607087 
L 269.050692 300.514075 
L 271.469476 300.421063 
L 273.485129 300.328051 
L 275.097652 300.297047 
L 277.113305 300.235039 
L 277.919567 300.111024 
L 283.563396 300.018012 
L 284.369657 299.925 
L 289.207225 299.831988 
L 292.8354 299.645965 
L 295.657315 299.552953 
L 297.269837 299.366929 
L 300.091752 299.273917 
L 300.898013 299.149902 
L 302.913666 299.087894 
L 306.944973 299.025886 
L 308.557495 298.870866 
L 310.170018 298.839862 
L 311.37941 298.74685 
L 312.991933 298.591831 
L 317.023239 298.374803 
L 321.054545 298.281791 
L 324.682721 298.095768 
L 325.892113 298.064764 
L 326.698374 297.940748 
L 328.714028 297.847736 
L 329.520289 297.785728 
L 330.32655 297.72372 
L 331.132812 297.661713 
L 335.164118 297.568701 
L 344.032992 296.979626 
L 344.839253 296.917618 
L 346.048645 296.824606 
L 348.87056 296.731594 
L 350.886213 296.669587 
L 356.530042 296.576575 
L 357.336303 296.452559 
L 362.980132 296.359547 
L 367.011439 296.14252 
L 367.8177 296.111516 
L 368.623961 296.018504 
L 370.639615 295.925492 
L 372.655268 295.863484 
L 374.670921 295.770472 
L 376.686574 295.708465 
L 380.31475 295.615453 
L 382.733534 295.522441 
L 388.377363 295.429429 
L 392.8118 295.181398 
L 394.424323 295.11939 
L 395.633715 295.026378 
L 401.277544 294.933366 
L 403.696328 294.840354 
L 410.952679 294.747343 
L 412.565202 294.716339 
L 417.402769 294.654331 
L 418.209031 294.592323 
L 423.85286 294.499311 
L 425.465382 294.468307 
L 435.946779 294.375295 
L 438.365563 294.282283 
L 455.29705 294.189272 
L 457.312703 294.127264 
L 467.7941 294.065256 
L 468.600361 294.003248 
L 470.616014 293.94124 
L 471.825406 293.817224 
L 474.24419 293.724213 
L 477.066105 293.600197 
L 480.694281 293.507185 
L 482.709934 293.445177 
L 485.531848 293.352165 
L 488.756893 293.197146 
L 490.772547 293.104134 
L 492.385069 293.07313 
L 499.23829 292.980118 
L 501.657074 292.887106 
L 506.091511 292.794094 
L 508.913426 292.670079 
L 511.73534 292.608071 
L 512.541601 292.546063 
L 522.216737 292.453051 
L 526.248043 292.236024 
L 529.069958 292.143012 
L 533.504395 291.89498 
L 536.326309 291.801969 
L 537.938832 291.770965 
L 540.760747 291.677953 
L 542.7764 291.460925 
L 546.807706 291.367913 
L 547.613967 291.274902 
L 551.645274 291.18189 
L 553.660927 291.119882 
L 558.095364 291.088878 
L 558.901626 290.995866 
L 563.336063 290.902854 
L 564.142324 290.840846 
L 573.011198 290.747835 
L 575.429982 290.654823 
L 581.476942 290.561811 
L 583.089464 290.530807 
L 586.71764 290.468799 
L 587.523901 290.375787 
L 592.7646 290.282776 
L 594.780253 290.220768 
L 602.036604 290.127756 
L 603.245996 290.034744 
L 604.455388 289.941732 
L 605.66478 289.84872 
L 611.71174 289.755709 
L 614.130524 289.662697 
L 625.015051 289.569685 
L 628.643227 289.383661 
L 633.480795 289.321654 
L 634.287056 289.259646 
L 640.334016 289.197638 
L 641.140277 289.13563 
L 645.574714 289.042618 
L 647.187237 289.011614 
L 654.040458 288.918602 
L 654.846719 288.856594 
L 662.10307 288.763583 
L 663.715593 288.732579 
L 667.746899 288.639567 
L 670.568814 288.515551 
L 675.003251 288.422539 
L 677.825166 288.298524 
L 681.453341 288.205512 
L 682.259603 288.143504 
L 690.322216 288.050492 
L 692.337869 287.988484 
L 694.756653 287.895472 
L 697.175436 287.802461 
L 709.269356 287.709449 
L 712.09127 287.585433 
L 718.944491 287.492421 
L 721.363275 287.399409 
L 726.603974 287.306398 
L 729.022757 287.213386 
L 732.247803 287.120374 
L 734.666586 287.027362 
L 747.163636 286.93435 
L 747.163636 286.93435 
" clip-path="url(#p54fb1e27b4)" style="fill: none; stroke: #ff7f0e; stroke-width: 1.5; stroke-linecap: square"/>
   </g>
   <g id="patch_3">
    <path d="M 108 320.4 
L 108 43.2 
" style="fill: none; stroke: #a9a9a9; stroke-width: 0.8; stroke-linejoin: miter; stroke-linecap: square"/>
   </g>
   <g id="patch_4">
    <path d="M 777.6 320.4 
L 777.6 43.2 
" style="fill: none"/>
   </g>
   <g id="patch_5">
    <path d="M 108 320.4 
L 777.6 320.4 
" style="fill: none; stroke: #a9a9a9; stroke-width: 0.8; stroke-linejoin: miter; stroke-linecap: square"/>
   </g>
   <g id="patch_6">
    <path d="M 108 43.2 
L 777.6 43.2 
" style="fill: none"/>
   </g>
   <g id="text_19">
    <!-- get_subscribe history -->
    <g style="fill: #a9a9a9" transform="translate(378.6075 37.2) scale(0.12 -0.12)">
     <defs>
      <path id="DejaVuSans-67" d="M 2906 1791 
Q 2906 2416 2648 2759 
Q 2391 3103 1925 3103 
Q 1463 3103 1205 2759 
Q 947 2416 947 1791 
Q 947 1169 1205 825 
Q 1463 481 1925 481 
Q 2391 481 2648 825 
Q 2906 1169 2906 1791 
z
M 3481 434 
Q 3481 -459 3084 -895 
Q 2688 -1331 1869 -1331 
Q 1566 -1331 1297 -1286 
Q 1028 -1241 775 -1147 
L 775 -588 
Q 1028 -725 1275 -790 
Q 1522 -856 1778 -856 
Q 2344 -856 2625 -561 
Q 2906 -266 2906 331 
L 2906 616 
Q 2728 306 2450 153 
Q 2172 0 1784 0 
Q 1141 0 747 490 
Q 353 981 353 1791 
Q 353 2603 747 3093 
Q 1141 3584 1784 3584 
Q 2172 3584 2450 3431 
Q 2728 3278 2906 2969 
L 2906 3500 
L 3481 3500 
L 3481 434 
z
" transform="scale(0.015625)"/>
      <path id="DejaVuSans-65" d="M 3597 1894 
L 3597 1613 
L 953 1613 
Q 991 1019 1311 708 
Q 1631 397 2203 397 
Q 2534 397 2845 478 
Q 3156 559 3463 722 
L 3463 178 
Q 3153 47 2828 -22 
Q 2503 -91 2169 -91 
Q 1331 -91 842 396 
Q 353 884 353 1716 
Q 353 2575 817 3079 
Q 1281 3584 2069 3584 
Q 2775 3584 3186 3129 
Q 3597 2675 3597 1894 
z
M 3022 2063 
Q 3016 2534 2758 2815 
Q 2500 3097 2075 3097 
Q 1594 3097 1305 2825 
Q 1016 2553 972 2059 
L 3022 2063 
z
" transform="scale(0.015625)"/>
      <path id="DejaVuSans-74" d="M 1172 4494 
L 1172 3500 
L 2356 3500 
L 2356 3053 
L 1172 3053 
L 1172 1153 
Q 1172 725 1289 603 
Q 1406 481 1766 481 
L 2356 481 
L 2356 0 
L 1766 0 
Q 1100 0 847 248 
Q 594 497 594 1153 
L 594 3053 
L 172 3053 
L 172 3500 
L 594 3500 
L 594 4494 
L 1172 4494 
z
" transform="scale(0.015625)"/>
      <path id="DejaVuSans-5f" d="M 3263 -1063 
L 3263 -1509 
L -63 -1509 
L -63 -1063 
L 3263 -1063 
z
" transform="scale(0.015625)"/>
      <path id="DejaVuSans-73" d="M 2834 3397 
L 2834 2853 
Q 2591 2978 2328 3040 
Q 2066 3103 1784 3103 
Q 1356 3103 1142 2972 
Q 928 2841 928 2578 
Q 928 2378 1081 2264 
Q 1234 2150 1697 2047 
L 1894 2003 
Q 2506 1872 2764 1633 
Q 3022 1394 3022 966 
Q 3022 478 2636 193 
Q 2250 -91 1575 -91 
Q 1294 -91 989 -36 
Q 684 19 347 128 
L 347 722 
Q 666 556 975 473 
Q 1284 391 1588 391 
Q 1994 391 2212 530 
Q 2431 669 2431 922 
Q 2431 1156 2273 1281 
Q 2116 1406 1581 1522 
L 1381 1569 
Q 847 1681 609 1914 
Q 372 2147 372 2553 
Q 372 3047 722 3315 
Q 1072 3584 1716 3584 
Q 2034 3584 2315 3537 
Q 2597 3491 2834 3397 
z
" transform="scale(0.015625)"/>
      <path id="DejaVuSans-75" d="M 544 1381 
L 544 3500 
L 1119 3500 
L 1119 1403 
Q 1119 906 1312 657 
Q 1506 409 1894 409 
Q 2359 409 2629 706 
Q 2900 1003 2900 1516 
L 2900 3500 
L 3475 3500 
L 3475 0 
L 2900 0 
L 2900 538 
Q 2691 219 2414 64 
Q 2138 -91 1772 -91 
Q 1169 -91 856 284 
Q 544 659 544 1381 
z
M 1991 3584 
L 1991 3584 
z
" transform="scale(0.015625)"/>
      <path id="DejaVuSans-62" d="M 3116 1747 
Q 3116 2381 2855 2742 
Q 2594 3103 2138 3103 
Q 1681 3103 1420 2742 
Q 1159 2381 1159 1747 
Q 1159 1113 1420 752 
Q 1681 391 2138 391 
Q 2594 391 2855 752 
Q 3116 1113 3116 1747 
z
M 1159 2969 
Q 1341 3281 1617 3432 
Q 1894 3584 2278 3584 
Q 2916 3584 3314 3078 
Q 3713 2572 3713 1747 
Q 3713 922 3314 415 
Q 2916 -91 2278 -91 
Q 1894 -91 1617 61 
Q 1341 213 1159 525 
L 1159 0 
L 581 0 
L 581 4863 
L 1159 4863 
L 1159 2969 
z
" transform="scale(0.015625)"/>
      <path id="DejaVuSans-63" d="M 3122 3366 
L 3122 2828 
Q 2878 2963 2633 3030 
Q 2388 3097 2138 3097 
Q 1578 3097 1268 2742 
Q 959 2388 959 1747 
Q 959 1106 1268 751 
Q 1578 397 2138 397 
Q 2388 397 2633 464 
Q 2878 531 3122 666 
L 3122 134 
Q 2881 22 2623 -34 
Q 2366 -91 2075 -91 
Q 1284 -91 818 406 
Q 353 903 353 1747 
Q 353 2603 823 3093 
Q 1294 3584 2113 3584 
Q 2378 3584 2631 3529 
Q 2884 3475 3122 3366 
z
" transform="scale(0.015625)"/>
      <path id="DejaVuSans-72" d="M 2631 2963 
Q 2534 3019 2420 3045 
Q 2306 3072 2169 3072 
Q 1681 3072 1420 2755 
Q 1159 2438 1159 1844 
L 1159 0 
L 581 0 
L 581 3500 
L 1159 3500 
L 1159 2956 
Q 1341 3275 1631 3429 
Q 1922 3584 2338 3584 
Q 2397 3584 2469 3576 
Q 2541 3569 2628 3553 
L 2631 2963 
z
" transform="scale(0.015625)"/>
      <path id="DejaVuSans-69" d="M 603 3500 
L 1178 3500 
L 1178 0 
L 603 0 
L 603 3500 
z
M 603 4863 
L 1178 4863 
L 1178 4134 
L 603 4134 
L 603 4863 
z
" transform="scale(0.015625)"/>
      <path id="DejaVuSans-20" transform="scale(0.015625)"/>
      <path id="DejaVuSans-68" d="M 3513 2113 
L 3513 0 
L 2938 0 
L 2938 2094 
Q 2938 2591 2744 2837 
Q 2550 3084 2163 3084 
Q 1697 3084 1428 2787 
Q 1159 2491 1159 1978 
L 1159 0 
L 581 0 
L 581 4863 
L 1159 4863 
L 1159 2956 
Q 1366 3272 1645 3428 
Q 1925 3584 2291 3584 
Q 2894 3584 3203 3211 
Q 3513 2838 3513 2113 
z
" transform="scale(0.015625)"/>
      <path id="DejaVuSans-6f" d="M 1959 3097 
Q 1497 3097 1228 2736 
Q 959 2375 959 1747 
Q 959 1119 1226 758 
Q 1494 397 1959 397 
Q 2419 397 2687 759 
Q 2956 1122 2956 1747 
Q 2956 2369 2687 2733 
Q 2419 3097 1959 3097 
z
M 1959 3584 
Q 2709 3584 3137 3096 
Q 3566 2609 3566 1747 
Q 3566 888 3137 398 
Q 2709 -91 1959 -91 
Q 1206 -91 779 398 
Q 353 888 353 1747 
Q 353 2609 779 3096 
Q 1206 3584 1959 3584 
z
" transform="scale(0.015625)"/>
      <path id="DejaVuSans-79" d="M 2059 -325 
Q 1816 -950 1584 -1140 
Q 1353 -1331 966 -1331 
L 506 -1331 
L 506 -850 
L 844 -850 
Q 1081 -850 1212 -737 
Q 1344 -625 1503 -206 
L 1606 56 
L 191 3500 
L 800 3500 
L 1894 763 
L 2988 3500 
L 3597 3500 
L 2059 -325 
z
" transform="scale(0.015625)"/>
     </defs>
     <use xlink:href="#DejaVuSans-67"/>
     <use xlink:href="#DejaVuSans-65" transform="translate(63.476562 0)"/>
     <use xlink:href="#DejaVuSans-74" transform="translate(125 0)"/>
     <use xlink:href="#DejaVuSans-5f" transform="translate(164.208984 0)"/>
     <use xlink:href="#DejaVuSans-73" transform="translate(214.208984 0)"/>
     <use xlink:href="#DejaVuSans-75" transform="translate(266.308594 0)"/>
     <use xlink:href="#DejaVuSans-62" transform="translate(329.6875 0)"/>
     <use xlink:href="#DejaVuSans-73" transform="translate(393.164062 0)"/>
     <use xlink:href="#DejaVuSans-63" transform="translate(445.263672 0)"/>
     <use xlink:href="#DejaVuSans-72" transform="translate(500.244141 0)"/>
     <use xlink:href="#DejaVuSans-69" transform="translate(541.357422 0)"/>
     <use xlink:href="#DejaVuSans-62" transform="translate(569.140625 0)"/>
     <use xlink:href="#DejaVuSans-65" transform="translate(632.617188 0)"/>
     <use xlink:href="#DejaVuSans-20" transform="translate(694.140625 0)"/>
     <use xlink:href="#DejaVuSans-68" transform="translate(725.927734 0)"/>
     <use xlink:href="#DejaVuSans-69" transform="translate(789.306641 0)"/>
     <use xlink:href="#DejaVuSans-73" transform="translate(817.089844 0)"/>
     <use xlink:href="#DejaVuSans-74" transform="translate(869.189453 0)"/>
     <use xlink:href="#DejaVuSans-6f" transform="translate(908.398438 0)"/>
     <use xlink:href="#DejaVuSans-72" transform="translate(969.580078 0)"/>
     <use xlink:href="#DejaVuSans-79" transform="translate(1010.693359 0)"/>
    </g>
   </g>
   <g id="legend_1">
    <g id="line2d_39">
     <path d="M 815.08 328.498438 
L 825.08 328.498438 
L 835.08 328.498438 
" style="fill: none; stroke: #1f77b4; stroke-width: 1.5; stroke-linecap: square"/>
    </g>
    <g id="text_20">
     <!-- star -->
     <g style="fill: #a9a9a9" transform="translate(843.08 331.998438) scale(0.1 -0.1)">
      <defs>
       <path id="DejaVuSans-61" d="M 2194 1759 
Q 1497 1759 1228 1600 
Q 959 1441 959 1056 
Q 959 750 1161 570 
Q 1363 391 1709 391 
Q 2188 391 2477 730 
Q 2766 1069 2766 1631 
L 2766 1759 
L 2194 1759 
z
M 3341 1997 
L 3341 0 
L 2766 0 
L 2766 531 
Q 2569 213 2275 61 
Q 1981 -91 1556 -91 
Q 1019 -91 701 211 
Q 384 513 384 1019 
Q 384 1609 779 1909 
Q 1175 2209 1959 2209 
L 2766 2209 
L 2766 2266 
Q 2766 2663 2505 2880 
Q 2244 3097 1772 3097 
Q 1472 3097 1187 3025 
Q 903 2953 641 2809 
L 641 3341 
Q 956 3463 1253 3523 
Q 1550 3584 1831 3584 
Q 2591 3584 2966 3190 
Q 3341 2797 3341 1997 
z
" transform="scale(0.015625)"/>
      </defs>
      <use xlink:href="#DejaVuSans-73"/>
      <use xlink:href="#DejaVuSans-74" transform="translate(52.099609 0)"/>
      <use xlink:href="#DejaVuSans-61" transform="translate(91.308594 0)"/>
      <use xlink:href="#DejaVuSans-72" transform="translate(152.587891 0)"/>
     </g>
    </g>
    <g id="line2d_40">
     <path d="M 815.08 343.176562 
L 825.08 343.176562 
L 835.08 343.176562 
" style="fill: none; stroke: #ff7f0e; stroke-width: 1.5; stroke-linecap: square"/>
    </g>
    <g id="text_21">
     <!-- fork -->
     <g style="fill: #a9a9a9" transform="translate(843.08 346.676562) scale(0.1 -0.1)">
      <defs>
       <path id="DejaVuSans-66" d="M 2375 4863 
L 2375 4384 
L 1825 4384 
Q 1516 4384 1395 4259 
Q 1275 4134 1275 3809 
L 1275 3500 
L 2222 3500 
L 2222 3053 
L 1275 3053 
L 1275 0 
L 697 0 
L 697 3053 
L 147 3053 
L 147 3500 
L 697 3500 
L 697 3744 
Q 697 4328 969 4595 
Q 1241 4863 1831 4863 
L 2375 4863 
z
" transform="scale(0.015625)"/>
       <path id="DejaVuSans-6b" d="M 581 4863 
L 1159 4863 
L 1159 1991 
L 2875 3500 
L 3609 3500 
L 1753 1863 
L 3688 0 
L 2938 0 
L 1159 1709 
L 1159 0 
L 581 0 
L 581 4863 
z
" transform="scale(0.015625)"/>
      </defs>
      <use xlink:href="#DejaVuSans-66"/>
      <use xlink:href="#DejaVuSans-6f" transform="translate(35.205078 0)"/>
      <use xlink:href="#DejaVuSans-72" transform="translate(96.386719 0)"/>
      <use xlink:href="#DejaVuSans-6b" transform="translate(137.5 0)"/>
     </g>
    </g>
   </g>
  </g>
 </g>
 <defs>
  <clipPath id="p54fb1e27b4">
   <rect x="108" y="43.2" width="669.6" height="277.2"/>
  </clipPath>
 </defs>
</svg>
