<?xml version="1.0" encoding="utf-8" standalone="no"?>
<!DOCTYPE svg PUBLIC "-//W3C//DTD SVG 1.1//EN"
  "http://www.w3.org/Graphics/SVG/1.1/DTD/svg11.dtd">
<svg xmlns:xlink="http://www.w3.org/1999/xlink" width="864pt" height="360pt" viewBox="0 0 864 360" xmlns="http://www.w3.org/2000/svg" version="1.1">
 <metadata>
  <rdf:RDF xmlns:dc="http://purl.org/dc/elements/1.1/" xmlns:cc="http://creativecommons.org/ns#" xmlns:rdf="http://www.w3.org/1999/02/22-rdf-syntax-ns#">
   <cc:Work>
    <dc:type rdf:resource="http://purl.org/dc/dcmitype/StillImage"/>
    <dc:date>2025-09-10T20:06:57.905939</dc:date>
    <dc:format>image/svg+xml</dc:format>
    <dc:creator>
     <cc:Agent>
      <dc:title>Matplotlib v3.10.6, https://matplotlib.org/</dc:title>
     </cc:Agent>
    </dc:creator>
   </cc:Work>
  </rdf:RDF>
 </metadata>
 <defs>
  <style type="text/css">*{stroke-linejoin: round; stroke-linecap: butt}</style>
 </defs>
 <g id="figure_1">
  <g id="patch_1">
   <path d="M 0 360 
L 864 360 
L 864 0 
L 0 0 
L 0 360 
z
" style="fill: none; opacity: 0"/>
  </g>
  <g id="axes_1">
   <g id="patch_2">
    <path d="M 108 320.4 
L 777.6 320.4 
L 777.6 43.2 
L 108 43.2 
L 108 320.4 
z
" style="fill: none; opacity: 0"/>
   </g>
   <g id="matplotlib.axis_1">
    <g id="xtick_1">
     <g id="line2d_1">
      <path d="M 129.158214 320.4 
L 129.158214 43.2 
" clip-path="url(#p6221f72825)" style="fill: none; stroke-dasharray: 5.12,1.28,0.8,1.28; stroke-dashoffset: 0; stroke: #b0b0b0; stroke-width: 0.8"/>
     </g>
     <g id="line2d_2">
      <defs>
       <path id="ma442ba8f7f" d="M 0 0 
L 0 3.5 
" style="stroke: #a9a9a9; stroke-width: 0.8"/>
      </defs>
      <g>
       <use xlink:href="#ma442ba8f7f" x="129.158214" y="320.4" style="fill: #a9a9a9; stroke: #a9a9a9; stroke-width: 0.8"/>
      </g>
     </g>
     <g id="text_1">
      <!-- 2021-07 -->
      <g style="fill: #a9a9a9" transform="translate(108.266808 334.998438) scale(0.1 -0.1)">
       <defs>
        <path id="DejaVuSans-32" d="M 1228 531 
L 3431 531 
L 3431 0 
L 469 0 
L 469 531 
Q 828 903 1448 1529 
Q 2069 2156 2228 2338 
Q 2531 2678 2651 2914 
Q 2772 3150 2772 3378 
Q 2772 3750 2511 3984 
Q 2250 4219 1831 4219 
Q 1534 4219 1204 4116 
Q 875 4013 500 3803 
L 500 4441 
Q 881 4594 1212 4672 
Q 1544 4750 1819 4750 
Q 2544 4750 2975 4387 
Q 3406 4025 3406 3419 
Q 3406 3131 3298 2873 
Q 3191 2616 2906 2266 
Q 2828 2175 2409 1742 
Q 1991 1309 1228 531 
z
" transform="scale(0.015625)"/>
        <path id="DejaVuSans-30" d="M 2034 4250 
Q 1547 4250 1301 3770 
Q 1056 3291 1056 2328 
Q 1056 1369 1301 889 
Q 1547 409 2034 409 
Q 2525 409 2770 889 
Q 3016 1369 3016 2328 
Q 3016 3291 2770 3770 
Q 2525 4250 2034 4250 
z
M 2034 4750 
Q 2819 4750 3233 4129 
Q 3647 3509 3647 2328 
Q 3647 1150 3233 529 
Q 2819 -91 2034 -91 
Q 1250 -91 836 529 
Q 422 1150 422 2328 
Q 422 3509 836 4129 
Q 1250 4750 2034 4750 
z
" transform="scale(0.015625)"/>
        <path id="DejaVuSans-31" d="M 794 531 
L 1825 531 
L 1825 4091 
L 703 3866 
L 703 4441 
L 1819 4666 
L 2450 4666 
L 2450 531 
L 3481 531 
L 3481 0 
L 794 0 
L 794 531 
z
" transform="scale(0.015625)"/>
        <path id="DejaVuSans-2d" d="M 313 2009 
L 1997 2009 
L 1997 1497 
L 313 1497 
L 313 2009 
z
" transform="scale(0.015625)"/>
        <path id="DejaVuSans-37" d="M 525 4666 
L 3525 4666 
L 3525 4397 
L 1831 0 
L 1172 0 
L 2766 4134 
L 525 4134 
L 525 4666 
z
" transform="scale(0.015625)"/>
       </defs>
       <use xlink:href="#DejaVuSans-32"/>
       <use xlink:href="#DejaVuSans-30" transform="translate(63.623047 0)"/>
       <use xlink:href="#DejaVuSans-32" transform="translate(127.246094 0)"/>
       <use xlink:href="#DejaVuSans-31" transform="translate(190.869141 0)"/>
       <use xlink:href="#DejaVuSans-2d" transform="translate(254.492188 0)"/>
       <use xlink:href="#DejaVuSans-30" transform="translate(290.576172 0)"/>
       <use xlink:href="#DejaVuSans-37" transform="translate(354.199219 0)"/>
      </g>
     </g>
    </g>
    <g id="xtick_2">
     <g id="line2d_3">
      <path d="M 203.383409 320.4 
L 203.383409 43.2 
" clip-path="url(#p6221f72825)" style="fill: none; stroke-dasharray: 5.12,1.28,0.8,1.28; stroke-dashoffset: 0; stroke: #b0b0b0; stroke-width: 0.8"/>
     </g>
     <g id="line2d_4">
      <g>
       <use xlink:href="#ma442ba8f7f" x="203.383409" y="320.4" style="fill: #a9a9a9; stroke: #a9a9a9; stroke-width: 0.8"/>
      </g>
     </g>
     <g id="text_2">
      <!-- 2022-01 -->
      <g style="fill: #a9a9a9" transform="translate(182.492002 334.998438) scale(0.1 -0.1)">
       <use xlink:href="#DejaVuSans-32"/>
       <use xlink:href="#DejaVuSans-30" transform="translate(63.623047 0)"/>
       <use xlink:href="#DejaVuSans-32" transform="translate(127.246094 0)"/>
       <use xlink:href="#DejaVuSans-32" transform="translate(190.869141 0)"/>
       <use xlink:href="#DejaVuSans-2d" transform="translate(254.492188 0)"/>
       <use xlink:href="#DejaVuSans-30" transform="translate(290.576172 0)"/>
       <use xlink:href="#DejaVuSans-31" transform="translate(354.199219 0)"/>
      </g>
     </g>
    </g>
    <g id="xtick_3">
     <g id="line2d_5">
      <path d="M 276.39841 320.4 
L 276.39841 43.2 
" clip-path="url(#p6221f72825)" style="fill: none; stroke-dasharray: 5.12,1.28,0.8,1.28; stroke-dashoffset: 0; stroke: #b0b0b0; stroke-width: 0.8"/>
     </g>
     <g id="line2d_6">
      <g>
       <use xlink:href="#ma442ba8f7f" x="276.39841" y="320.4" style="fill: #a9a9a9; stroke: #a9a9a9; stroke-width: 0.8"/>
      </g>
     </g>
     <g id="text_3">
      <!-- 2022-07 -->
      <g style="fill: #a9a9a9" transform="translate(255.507003 334.998438) scale(0.1 -0.1)">
       <use xlink:href="#DejaVuSans-32"/>
       <use xlink:href="#DejaVuSans-30" transform="translate(63.623047 0)"/>
       <use xlink:href="#DejaVuSans-32" transform="translate(127.246094 0)"/>
       <use xlink:href="#DejaVuSans-32" transform="translate(190.869141 0)"/>
       <use xlink:href="#DejaVuSans-2d" transform="translate(254.492188 0)"/>
       <use xlink:href="#DejaVuSans-30" transform="translate(290.576172 0)"/>
       <use xlink:href="#DejaVuSans-37" transform="translate(354.199219 0)"/>
      </g>
     </g>
    </g>
    <g id="xtick_4">
     <g id="line2d_7">
      <path d="M 350.623604 320.4 
L 350.623604 43.2 
" clip-path="url(#p6221f72825)" style="fill: none; stroke-dasharray: 5.12,1.28,0.8,1.28; stroke-dashoffset: 0; stroke: #b0b0b0; stroke-width: 0.8"/>
     </g>
     <g id="line2d_8">
      <g>
       <use xlink:href="#ma442ba8f7f" x="350.623604" y="320.4" style="fill: #a9a9a9; stroke: #a9a9a9; stroke-width: 0.8"/>
      </g>
     </g>
     <g id="text_4">
      <!-- 2023-01 -->
      <g style="fill: #a9a9a9" transform="translate(329.732198 334.998438) scale(0.1 -0.1)">
       <defs>
        <path id="DejaVuSans-33" d="M 2597 2516 
Q 3050 2419 3304 2112 
Q 3559 1806 3559 1356 
Q 3559 666 3084 287 
Q 2609 -91 1734 -91 
Q 1441 -91 1130 -33 
Q 819 25 488 141 
L 488 750 
Q 750 597 1062 519 
Q 1375 441 1716 441 
Q 2309 441 2620 675 
Q 2931 909 2931 1356 
Q 2931 1769 2642 2001 
Q 2353 2234 1838 2234 
L 1294 2234 
L 1294 2753 
L 1863 2753 
Q 2328 2753 2575 2939 
Q 2822 3125 2822 3475 
Q 2822 3834 2567 4026 
Q 2313 4219 1838 4219 
Q 1578 4219 1281 4162 
Q 984 4106 628 3988 
L 628 4550 
Q 988 4650 1302 4700 
Q 1616 4750 1894 4750 
Q 2613 4750 3031 4423 
Q 3450 4097 3450 3541 
Q 3450 3153 3228 2886 
Q 3006 2619 2597 2516 
z
" transform="scale(0.015625)"/>
       </defs>
       <use xlink:href="#DejaVuSans-32"/>
       <use xlink:href="#DejaVuSans-30" transform="translate(63.623047 0)"/>
       <use xlink:href="#DejaVuSans-32" transform="translate(127.246094 0)"/>
       <use xlink:href="#DejaVuSans-33" transform="translate(190.869141 0)"/>
       <use xlink:href="#DejaVuSans-2d" transform="translate(254.492188 0)"/>
       <use xlink:href="#DejaVuSans-30" transform="translate(290.576172 0)"/>
       <use xlink:href="#DejaVuSans-31" transform="translate(354.199219 0)"/>
      </g>
     </g>
    </g>
    <g id="xtick_5">
     <g id="line2d_9">
      <path d="M 423.638605 320.4 
L 423.638605 43.2 
" clip-path="url(#p6221f72825)" style="fill: none; stroke-dasharray: 5.12,1.28,0.8,1.28; stroke-dashoffset: 0; stroke: #b0b0b0; stroke-width: 0.8"/>
     </g>
     <g id="line2d_10">
      <g>
       <use xlink:href="#ma442ba8f7f" x="423.638605" y="320.4" style="fill: #a9a9a9; stroke: #a9a9a9; stroke-width: 0.8"/>
      </g>
     </g>
     <g id="text_5">
      <!-- 2023-07 -->
      <g style="fill: #a9a9a9" transform="translate(402.747198 334.998438) scale(0.1 -0.1)">
       <use xlink:href="#DejaVuSans-32"/>
       <use xlink:href="#DejaVuSans-30" transform="translate(63.623047 0)"/>
       <use xlink:href="#DejaVuSans-32" transform="translate(127.246094 0)"/>
       <use xlink:href="#DejaVuSans-33" transform="translate(190.869141 0)"/>
       <use xlink:href="#DejaVuSans-2d" transform="translate(254.492188 0)"/>
       <use xlink:href="#DejaVuSans-30" transform="translate(290.576172 0)"/>
       <use xlink:href="#DejaVuSans-37" transform="translate(354.199219 0)"/>
      </g>
     </g>
    </g>
    <g id="xtick_6">
     <g id="line2d_11">
      <path d="M 497.863799 320.4 
L 497.863799 43.2 
" clip-path="url(#p6221f72825)" style="fill: none; stroke-dasharray: 5.12,1.28,0.8,1.28; stroke-dashoffset: 0; stroke: #b0b0b0; stroke-width: 0.8"/>
     </g>
     <g id="line2d_12">
      <g>
       <use xlink:href="#ma442ba8f7f" x="497.863799" y="320.4" style="fill: #a9a9a9; stroke: #a9a9a9; stroke-width: 0.8"/>
      </g>
     </g>
     <g id="text_6">
      <!-- 2024-01 -->
      <g style="fill: #a9a9a9" transform="translate(476.972393 334.998438) scale(0.1 -0.1)">
       <defs>
        <path id="DejaVuSans-34" d="M 2419 4116 
L 825 1625 
L 2419 1625 
L 2419 4116 
z
M 2253 4666 
L 3047 4666 
L 3047 1625 
L 3713 1625 
L 3713 1100 
L 3047 1100 
L 3047 0 
L 2419 0 
L 2419 1100 
L 313 1100 
L 313 1709 
L 2253 4666 
z
" transform="scale(0.015625)"/>
       </defs>
       <use xlink:href="#DejaVuSans-32"/>
       <use xlink:href="#DejaVuSans-30" transform="translate(63.623047 0)"/>
       <use xlink:href="#DejaVuSans-32" transform="translate(127.246094 0)"/>
       <use xlink:href="#DejaVuSans-34" transform="translate(190.869141 0)"/>
       <use xlink:href="#DejaVuSans-2d" transform="translate(254.492188 0)"/>
       <use xlink:href="#DejaVuSans-30" transform="translate(290.576172 0)"/>
       <use xlink:href="#DejaVuSans-31" transform="translate(354.199219 0)"/>
      </g>
     </g>
    </g>
    <g id="xtick_7">
     <g id="line2d_13">
      <path d="M 571.282198 320.4 
L 571.282198 43.2 
" clip-path="url(#p6221f72825)" style="fill: none; stroke-dasharray: 5.12,1.28,0.8,1.28; stroke-dashoffset: 0; stroke: #b0b0b0; stroke-width: 0.8"/>
     </g>
     <g id="line2d_14">
      <g>
       <use xlink:href="#ma442ba8f7f" x="571.282198" y="320.4" style="fill: #a9a9a9; stroke: #a9a9a9; stroke-width: 0.8"/>
      </g>
     </g>
     <g id="text_7">
      <!-- 2024-07 -->
      <g style="fill: #a9a9a9" transform="translate(550.390791 334.998438) scale(0.1 -0.1)">
       <use xlink:href="#DejaVuSans-32"/>
       <use xlink:href="#DejaVuSans-30" transform="translate(63.623047 0)"/>
       <use xlink:href="#DejaVuSans-32" transform="translate(127.246094 0)"/>
       <use xlink:href="#DejaVuSans-34" transform="translate(190.869141 0)"/>
       <use xlink:href="#DejaVuSans-2d" transform="translate(254.492188 0)"/>
       <use xlink:href="#DejaVuSans-30" transform="translate(290.576172 0)"/>
       <use xlink:href="#DejaVuSans-37" transform="translate(354.199219 0)"/>
      </g>
     </g>
    </g>
    <g id="xtick_8">
     <g id="line2d_15">
      <path d="M 645.507392 320.4 
L 645.507392 43.2 
" clip-path="url(#p6221f72825)" style="fill: none; stroke-dasharray: 5.12,1.28,0.8,1.28; stroke-dashoffset: 0; stroke: #b0b0b0; stroke-width: 0.8"/>
     </g>
     <g id="line2d_16">
      <g>
       <use xlink:href="#ma442ba8f7f" x="645.507392" y="320.4" style="fill: #a9a9a9; stroke: #a9a9a9; stroke-width: 0.8"/>
      </g>
     </g>
     <g id="text_8">
      <!-- 2025-01 -->
      <g style="fill: #a9a9a9" transform="translate(624.615986 334.998438) scale(0.1 -0.1)">
       <defs>
        <path id="DejaVuSans-35" d="M 691 4666 
L 3169 4666 
L 3169 4134 
L 1269 4134 
L 1269 2991 
Q 1406 3038 1543 3061 
Q 1681 3084 1819 3084 
Q 2600 3084 3056 2656 
Q 3513 2228 3513 1497 
Q 3513 744 3044 326 
Q 2575 -91 1722 -91 
Q 1428 -91 1123 -41 
Q 819 9 494 109 
L 494 744 
Q 775 591 1075 516 
Q 1375 441 1709 441 
Q 2250 441 2565 725 
Q 2881 1009 2881 1497 
Q 2881 1984 2565 2268 
Q 2250 2553 1709 2553 
Q 1456 2553 1204 2497 
Q 953 2441 691 2322 
L 691 4666 
z
" transform="scale(0.015625)"/>
       </defs>
       <use xlink:href="#DejaVuSans-32"/>
       <use xlink:href="#DejaVuSans-30" transform="translate(63.623047 0)"/>
       <use xlink:href="#DejaVuSans-32" transform="translate(127.246094 0)"/>
       <use xlink:href="#DejaVuSans-35" transform="translate(190.869141 0)"/>
       <use xlink:href="#DejaVuSans-2d" transform="translate(254.492188 0)"/>
       <use xlink:href="#DejaVuSans-30" transform="translate(290.576172 0)"/>
       <use xlink:href="#DejaVuSans-31" transform="translate(354.199219 0)"/>
      </g>
     </g>
    </g>
    <g id="xtick_9">
     <g id="line2d_17">
      <path d="M 718.522393 320.4 
L 718.522393 43.2 
" clip-path="url(#p6221f72825)" style="fill: none; stroke-dasharray: 5.12,1.28,0.8,1.28; stroke-dashoffset: 0; stroke: #b0b0b0; stroke-width: 0.8"/>
     </g>
     <g id="line2d_18">
      <g>
       <use xlink:href="#ma442ba8f7f" x="718.522393" y="320.4" style="fill: #a9a9a9; stroke: #a9a9a9; stroke-width: 0.8"/>
      </g>
     </g>
     <g id="text_9">
      <!-- 2025-07 -->
      <g style="fill: #a9a9a9" transform="translate(697.630987 334.998438) scale(0.1 -0.1)">
       <use xlink:href="#DejaVuSans-32"/>
       <use xlink:href="#DejaVuSans-30" transform="translate(63.623047 0)"/>
       <use xlink:href="#DejaVuSans-32" transform="translate(127.246094 0)"/>
       <use xlink:href="#DejaVuSans-35" transform="translate(190.869141 0)"/>
       <use xlink:href="#DejaVuSans-2d" transform="translate(254.492188 0)"/>
       <use xlink:href="#DejaVuSans-30" transform="translate(290.576172 0)"/>
       <use xlink:href="#DejaVuSans-37" transform="translate(354.199219 0)"/>
      </g>
     </g>
    </g>
   </g>
   <g id="matplotlib.axis_2">
    <g id="ytick_1">
     <g id="line2d_19">
      <path d="M 108 307.831015 
L 777.6 307.831015 
" clip-path="url(#p6221f72825)" style="fill: none; stroke-dasharray: 5.12,1.28,0.8,1.28; stroke-dashoffset: 0; stroke: #b0b0b0; stroke-width: 0.8"/>
     </g>
     <g id="line2d_20">
      <defs>
       <path id="medd0738f1d" d="M 0 0 
L -3.5 0 
" style="stroke: #a9a9a9; stroke-width: 0.8"/>
      </defs>
      <g>
       <use xlink:href="#medd0738f1d" x="108" y="307.831015" style="fill: #a9a9a9; stroke: #a9a9a9; stroke-width: 0.8"/>
      </g>
     </g>
     <g id="text_10">
      <!-- 0 -->
      <g style="fill: #a9a9a9" transform="translate(94.6375 311.630234) scale(0.1 -0.1)">
       <use xlink:href="#DejaVuSans-30"/>
      </g>
     </g>
    </g>
    <g id="ytick_2">
     <g id="line2d_21">
      <path d="M 108 276.815631 
L 777.6 276.815631 
" clip-path="url(#p6221f72825)" style="fill: none; stroke-dasharray: 5.12,1.28,0.8,1.28; stroke-dashoffset: 0; stroke: #b0b0b0; stroke-width: 0.8"/>
     </g>
     <g id="line2d_22">
      <g>
       <use xlink:href="#medd0738f1d" x="108" y="276.815631" style="fill: #a9a9a9; stroke: #a9a9a9; stroke-width: 0.8"/>
      </g>
     </g>
     <g id="text_11">
      <!-- 1000 -->
      <g style="fill: #a9a9a9" transform="translate(75.55 280.61485) scale(0.1 -0.1)">
       <use xlink:href="#DejaVuSans-31"/>
       <use xlink:href="#DejaVuSans-30" transform="translate(63.623047 0)"/>
       <use xlink:href="#DejaVuSans-30" transform="translate(127.246094 0)"/>
       <use xlink:href="#DejaVuSans-30" transform="translate(190.869141 0)"/>
      </g>
     </g>
    </g>
    <g id="ytick_3">
     <g id="line2d_23">
      <path d="M 108 245.800246 
L 777.6 245.800246 
" clip-path="url(#p6221f72825)" style="fill: none; stroke-dasharray: 5.12,1.28,0.8,1.28; stroke-dashoffset: 0; stroke: #b0b0b0; stroke-width: 0.8"/>
     </g>
     <g id="line2d_24">
      <g>
       <use xlink:href="#medd0738f1d" x="108" y="245.800246" style="fill: #a9a9a9; stroke: #a9a9a9; stroke-width: 0.8"/>
      </g>
     </g>
     <g id="text_12">
      <!-- 2000 -->
      <g style="fill: #a9a9a9" transform="translate(75.55 249.599465) scale(0.1 -0.1)">
       <use xlink:href="#DejaVuSans-32"/>
       <use xlink:href="#DejaVuSans-30" transform="translate(63.623047 0)"/>
       <use xlink:href="#DejaVuSans-30" transform="translate(127.246094 0)"/>
       <use xlink:href="#DejaVuSans-30" transform="translate(190.869141 0)"/>
      </g>
     </g>
    </g>
    <g id="ytick_4">
     <g id="line2d_25">
      <path d="M 108 214.784862 
L 777.6 214.784862 
" clip-path="url(#p6221f72825)" style="fill: none; stroke-dasharray: 5.12,1.28,0.8,1.28; stroke-dashoffset: 0; stroke: #b0b0b0; stroke-width: 0.8"/>
     </g>
     <g id="line2d_26">
      <g>
       <use xlink:href="#medd0738f1d" x="108" y="214.784862" style="fill: #a9a9a9; stroke: #a9a9a9; stroke-width: 0.8"/>
      </g>
     </g>
     <g id="text_13">
      <!-- 3000 -->
      <g style="fill: #a9a9a9" transform="translate(75.55 218.58408) scale(0.1 -0.1)">
       <use xlink:href="#DejaVuSans-33"/>
       <use xlink:href="#DejaVuSans-30" transform="translate(63.623047 0)"/>
       <use xlink:href="#DejaVuSans-30" transform="translate(127.246094 0)"/>
       <use xlink:href="#DejaVuSans-30" transform="translate(190.869141 0)"/>
      </g>
     </g>
    </g>
    <g id="ytick_5">
     <g id="line2d_27">
      <path d="M 108 183.769477 
L 777.6 183.769477 
" clip-path="url(#p6221f72825)" style="fill: none; stroke-dasharray: 5.12,1.28,0.8,1.28; stroke-dashoffset: 0; stroke: #b0b0b0; stroke-width: 0.8"/>
     </g>
     <g id="line2d_28">
      <g>
       <use xlink:href="#medd0738f1d" x="108" y="183.769477" style="fill: #a9a9a9; stroke: #a9a9a9; stroke-width: 0.8"/>
      </g>
     </g>
     <g id="text_14">
      <!-- 4000 -->
      <g style="fill: #a9a9a9" transform="translate(75.55 187.568696) scale(0.1 -0.1)">
       <use xlink:href="#DejaVuSans-34"/>
       <use xlink:href="#DejaVuSans-30" transform="translate(63.623047 0)"/>
       <use xlink:href="#DejaVuSans-30" transform="translate(127.246094 0)"/>
       <use xlink:href="#DejaVuSans-30" transform="translate(190.869141 0)"/>
      </g>
     </g>
    </g>
    <g id="ytick_6">
     <g id="line2d_29">
      <path d="M 108 152.754092 
L 777.6 152.754092 
" clip-path="url(#p6221f72825)" style="fill: none; stroke-dasharray: 5.12,1.28,0.8,1.28; stroke-dashoffset: 0; stroke: #b0b0b0; stroke-width: 0.8"/>
     </g>
     <g id="line2d_30">
      <g>
       <use xlink:href="#medd0738f1d" x="108" y="152.754092" style="fill: #a9a9a9; stroke: #a9a9a9; stroke-width: 0.8"/>
      </g>
     </g>
     <g id="text_15">
      <!-- 5000 -->
      <g style="fill: #a9a9a9" transform="translate(75.55 156.553311) scale(0.1 -0.1)">
       <use xlink:href="#DejaVuSans-35"/>
       <use xlink:href="#DejaVuSans-30" transform="translate(63.623047 0)"/>
       <use xlink:href="#DejaVuSans-30" transform="translate(127.246094 0)"/>
       <use xlink:href="#DejaVuSans-30" transform="translate(190.869141 0)"/>
      </g>
     </g>
    </g>
    <g id="ytick_7">
     <g id="line2d_31">
      <path d="M 108 121.738708 
L 777.6 121.738708 
" clip-path="url(#p6221f72825)" style="fill: none; stroke-dasharray: 5.12,1.28,0.8,1.28; stroke-dashoffset: 0; stroke: #b0b0b0; stroke-width: 0.8"/>
     </g>
     <g id="line2d_32">
      <g>
       <use xlink:href="#medd0738f1d" x="108" y="121.738708" style="fill: #a9a9a9; stroke: #a9a9a9; stroke-width: 0.8"/>
      </g>
     </g>
     <g id="text_16">
      <!-- 6000 -->
      <g style="fill: #a9a9a9" transform="translate(75.55 125.537926) scale(0.1 -0.1)">
       <defs>
        <path id="DejaVuSans-36" d="M 2113 2584 
Q 1688 2584 1439 2293 
Q 1191 2003 1191 1497 
Q 1191 994 1439 701 
Q 1688 409 2113 409 
Q 2538 409 2786 701 
Q 3034 994 3034 1497 
Q 3034 2003 2786 2293 
Q 2538 2584 2113 2584 
z
M 3366 4563 
L 3366 3988 
Q 3128 4100 2886 4159 
Q 2644 4219 2406 4219 
Q 1781 4219 1451 3797 
Q 1122 3375 1075 2522 
Q 1259 2794 1537 2939 
Q 1816 3084 2150 3084 
Q 2853 3084 3261 2657 
Q 3669 2231 3669 1497 
Q 3669 778 3244 343 
Q 2819 -91 2113 -91 
Q 1303 -91 875 529 
Q 447 1150 447 2328 
Q 447 3434 972 4092 
Q 1497 4750 2381 4750 
Q 2619 4750 2861 4703 
Q 3103 4656 3366 4563 
z
" transform="scale(0.015625)"/>
       </defs>
       <use xlink:href="#DejaVuSans-36"/>
       <use xlink:href="#DejaVuSans-30" transform="translate(63.623047 0)"/>
       <use xlink:href="#DejaVuSans-30" transform="translate(127.246094 0)"/>
       <use xlink:href="#DejaVuSans-30" transform="translate(190.869141 0)"/>
      </g>
     </g>
    </g>
    <g id="ytick_8">
     <g id="line2d_33">
      <path d="M 108 90.723323 
L 777.6 90.723323 
" clip-path="url(#p6221f72825)" style="fill: none; stroke-dasharray: 5.12,1.28,0.8,1.28; stroke-dashoffset: 0; stroke: #b0b0b0; stroke-width: 0.8"/>
     </g>
     <g id="line2d_34">
      <g>
       <use xlink:href="#medd0738f1d" x="108" y="90.723323" style="fill: #a9a9a9; stroke: #a9a9a9; stroke-width: 0.8"/>
      </g>
     </g>
     <g id="text_17">
      <!-- 7000 -->
      <g style="fill: #a9a9a9" transform="translate(75.55 94.522542) scale(0.1 -0.1)">
       <use xlink:href="#DejaVuSans-37"/>
       <use xlink:href="#DejaVuSans-30" transform="translate(63.623047 0)"/>
       <use xlink:href="#DejaVuSans-30" transform="translate(127.246094 0)"/>
       <use xlink:href="#DejaVuSans-30" transform="translate(190.869141 0)"/>
      </g>
     </g>
    </g>
    <g id="ytick_9">
     <g id="line2d_35">
      <path d="M 108 59.707938 
L 777.6 59.707938 
" clip-path="url(#p6221f72825)" style="fill: none; stroke-dasharray: 5.12,1.28,0.8,1.28; stroke-dashoffset: 0; stroke: #b0b0b0; stroke-width: 0.8"/>
     </g>
     <g id="line2d_36">
      <g>
       <use xlink:href="#medd0738f1d" x="108" y="59.707938" style="fill: #a9a9a9; stroke: #a9a9a9; stroke-width: 0.8"/>
      </g>
     </g>
     <g id="text_18">
      <!-- 8000 -->
      <g style="fill: #a9a9a9" transform="translate(75.55 63.507157) scale(0.1 -0.1)">
       <defs>
        <path id="DejaVuSans-38" d="M 2034 2216 
Q 1584 2216 1326 1975 
Q 1069 1734 1069 1313 
Q 1069 891 1326 650 
Q 1584 409 2034 409 
Q 2484 409 2743 651 
Q 3003 894 3003 1313 
Q 3003 1734 2745 1975 
Q 2488 2216 2034 2216 
z
M 1403 2484 
Q 997 2584 770 2862 
Q 544 3141 544 3541 
Q 544 4100 942 4425 
Q 1341 4750 2034 4750 
Q 2731 4750 3128 4425 
Q 3525 4100 3525 3541 
Q 3525 3141 3298 2862 
Q 3072 2584 2669 2484 
Q 3125 2378 3379 2068 
Q 3634 1759 3634 1313 
Q 3634 634 3220 271 
Q 2806 -91 2034 -91 
Q 1263 -91 848 271 
Q 434 634 434 1313 
Q 434 1759 690 2068 
Q 947 2378 1403 2484 
z
M 1172 3481 
Q 1172 3119 1398 2916 
Q 1625 2713 2034 2713 
Q 2441 2713 2670 2916 
Q 2900 3119 2900 3481 
Q 2900 3844 2670 4047 
Q 2441 4250 2034 4250 
Q 1625 4250 1398 4047 
Q 1172 3844 1172 3481 
z
" transform="scale(0.015625)"/>
       </defs>
       <use xlink:href="#DejaVuSans-38"/>
       <use xlink:href="#DejaVuSans-30" transform="translate(63.623047 0)"/>
       <use xlink:href="#DejaVuSans-30" transform="translate(127.246094 0)"/>
       <use xlink:href="#DejaVuSans-30" transform="translate(190.869141 0)"/>
      </g>
     </g>
    </g>
   </g>
   <g id="line2d_37">
    <path d="M 138.436364 307.737969 
L 140.85675 307.520862 
L 141.260148 307.334769 
L 142.873739 307.117662 
L 144.487331 306.776492 
L 145.294126 306.652431 
L 147.311115 306.466338 
L 148.117911 306.125169 
L 148.521309 305.566892 
L 148.924706 305.287754 
L 149.328104 304.357292 
L 149.731502 304.295262 
L 150.1349 303.954092 
L 150.941695 303.519877 
L 152.555286 302.186215 
L 154.168878 301.3488 
L 155.379071 300.759508 
L 155.782469 300.077169 
L 156.589264 299.456862 
L 156.992662 299.270769 
L 161.02664 298.650462 
L 161.430038 298.464369 
L 164.253823 298.216246 
L 165.867414 297.813046 
L 169.094596 297.347815 
L 169.497994 297.130708 
L 169.901392 297.068677 
L 170.708187 296.789538 
L 173.531972 296.293292 
L 174.338767 296.045169 
L 177.969348 295.424862 
L 178.776143 295.238769 
L 179.582939 295.207754 
L 181.19653 294.804554 
L 181.599928 294.215262 
L 182.810121 293.719015 
L 184.020314 293.377846 
L 184.423712 293.160738 
L 185.230508 293.005662 
L 186.844099 292.509415 
L 187.650895 292.447385 
L 188.45769 292.230277 
L 190.071281 291.796062 
L 190.474679 291.765046 
L 191.281475 291.361846 
L 191.684873 291.299815 
L 192.08827 291.082708 
L 196.525646 290.307323 
L 198.139237 289.811077 
L 198.542635 289.531938 
L 200.559624 288.8496 
L 201.36642 288.260308 
L 202.576613 288.012185 
L 207.820784 286.461415 
L 208.224182 286.399385 
L 209.837773 285.748062 
L 210.241171 285.686031 
L 211.047967 285.344862 
L 211.854762 285.313846 
L 213.064956 284.941662 
L 213.468354 284.941662 
L 213.871751 284.755569 
L 214.678547 284.662523 
L 215.081945 284.507446 
L 216.695536 284.445415 
L 217.502331 284.290338 
L 218.309127 283.856123 
L 219.51932 283.421908 
L 220.326116 282.987692 
L 221.536309 282.460431 
L 223.149901 281.623015 
L 223.553298 281.157785 
L 224.360094 279.855138 
L 224.763492 279.731077 
L 225.16689 279.731077 
L 226.780481 278.831631 
L 227.183879 278.738585 
L 227.587276 278.335385 
L 228.394072 277.994215 
L 229.200868 277.622031 
L 229.604265 277.125785 
L 230.007663 276.443446 
L 230.411061 276.164308 
L 230.814459 275.419938 
L 231.217856 274.954708 
L 233.638243 273.590031 
L 235.251834 272.101292 
L 235.655232 271.139815 
L 236.05863 270.519508 
L 236.462028 270.178338 
L 236.865426 269.992246 
L 240.092608 266.921723 
L 240.899404 266.146338 
L 243.31979 264.564554 
L 243.723188 264.409477 
L 245.336779 263.416985 
L 245.740177 263.230892 
L 247.757166 261.307938 
L 248.563962 260.966769 
L 249.370757 260.377477 
L 249.774155 260.129354 
L 250.177553 260.067323 
L 251.387746 259.353969 
L 251.791144 258.888738 
L 253.808133 257.741169 
L 254.211531 257.586092 
L 255.421724 256.717662 
L 261.472691 254.484554 
L 262.279487 253.709169 
L 263.48968 253.088862 
L 264.296476 252.5616 
L 265.103271 252.313477 
L 265.506669 252.034338 
L 265.910067 251.910277 
L 267.12026 251.072862 
L 269.137249 250.607631 
L 270.347443 249.863262 
L 271.557636 249.584123 
L 271.961034 249.491077 
L 273.171227 248.560615 
L 274.784818 248.095385 
L 275.188216 247.754215 
L 277.608603 246.885785 
L 278.415399 246.730708 
L 279.222194 246.389538 
L 282.045979 245.304 
L 282.852774 245.210954 
L 284.062968 244.776738 
L 286.079957 243.753231 
L 288.500343 242.357538 
L 289.307139 242.140431 
L 290.517332 241.520123 
L 291.324128 241.365046 
L 292.130924 240.8688 
L 292.937719 240.651692 
L 294.147913 240.155446 
L 295.761504 239.938338 
L 296.568299 239.504123 
L 296.971697 239.131938 
L 297.375095 238.387569 
L 298.988686 237.922338 
L 300.602277 237.177969 
L 303.022664 235.999385 
L 303.82946 235.596185 
L 305.039653 235.348062 
L 306.249846 234.727754 
L 306.653244 234.665723 
L 308.670233 233.642215 
L 309.477029 233.114954 
L 310.687222 232.866831 
L 312.704211 232.339569 
L 313.107609 231.9984 
L 313.914404 231.719262 
L 315.931393 230.881846 
L 316.334791 230.571692 
L 316.738189 230.416615 
L 317.544985 229.951385 
L 319.158576 229.424123 
L 319.965371 228.896862 
L 320.368769 228.462646 
L 320.772167 228.214523 
L 321.175565 228.121477 
L 321.98236 227.439138 
L 322.385758 227.377108 
L 322.789156 226.694769 
L 323.192554 226.508677 
L 323.595952 226.167508 
L 323.999349 226.105477 
L 324.806145 225.578215 
L 325.612941 225.299077 
L 326.016338 224.988923 
L 326.419736 224.833846 
L 328.033327 223.717292 
L 329.243521 223.096985 
L 330.050316 222.879877 
L 330.857112 222.414646 
L 331.26051 221.701292 
L 332.067305 221.080985 
L 332.470703 220.987938 
L 334.89109 219.778338 
L 335.697885 219.437169 
L 336.504681 218.847877 
L 337.714874 217.700308 
L 338.52167 217.204062 
L 338.925068 216.738831 
L 340.538659 215.591262 
L 341.345455 214.753846 
L 342.15225 214.474708 
L 342.959046 213.916431 
L 344.169239 213.265108 
L 344.572637 213.203077 
L 348.203217 211.311138 
L 349.41341 210.938954 
L 350.623604 210.473723 
L 351.027002 210.132554 
L 352.640593 209.481231 
L 353.043991 209.357169 
L 353.850786 208.829908 
L 354.657582 208.488738 
L 355.464377 207.899446 
L 356.271173 206.255631 
L 357.077969 205.325169 
L 358.288162 204.673846 
L 359.094958 204.332677 
L 359.498355 204.270646 
L 360.305151 203.898462 
L 361.918742 203.340185 
L 362.725538 202.874954 
L 363.532333 202.471754 
L 363.935731 202.347692 
L 366.356118 200.858954 
L 366.759516 200.393723 
L 367.969709 199.680369 
L 368.373107 199.525292 
L 369.179902 199.029046 
L 370.793494 198.1296 
L 371.196891 198.036554 
L 371.600289 197.695385 
L 374.424074 196.733908 
L 374.827472 196.454769 
L 375.634267 196.206646 
L 376.441063 195.865477 
L 376.844461 195.524308 
L 378.458052 194.935015 
L 379.264847 194.345723 
L 380.071643 194.004554 
L 380.878438 193.353231 
L 381.685234 193.105108 
L 382.088632 192.732923 
L 382.49203 192.670892 
L 383.298825 192.050585 
L 385.315814 190.840985 
L 386.12261 190.592862 
L 386.526008 190.344738 
L 386.929405 190.282708 
L 388.139599 189.600369 
L 394.190566 187.677415 
L 395.400759 186.808985 
L 395.804157 186.653908 
L 396.610952 186.188677 
L 397.01435 186.064615 
L 399.434737 184.668923 
L 399.838135 184.575877 
L 401.048328 183.831508 
L 402.258522 183.397292 
L 403.065317 183.118154 
L 404.678908 182.559877 
L 405.485704 182.280738 
L 407.099295 181.939569 
L 407.502693 181.753477 
L 408.309489 181.536369 
L 408.712886 181.350277 
L 409.116284 181.288246 
L 409.519682 181.071138 
L 410.326477 180.916062 
L 411.536671 180.450831 
L 412.746864 180.264738 
L 415.167251 179.799508 
L 416.377444 179.520369 
L 416.780842 179.334277 
L 417.587638 179.1792 
L 418.394433 178.962092 
L 419.201229 178.589908 
L 419.604627 178.434831 
L 420.008025 178.434831 
L 424.4454 177.039138 
L 424.848798 176.822031 
L 425.252196 176.822031 
L 426.058992 176.511877 
L 426.462389 176.077662 
L 428.882776 175.054154 
L 430.496367 174.495877 
L 430.899765 174.247754 
L 432.109958 173.875569 
L 432.916754 173.658462 
L 433.320152 173.379323 
L 433.72355 173.286277 
L 434.126947 172.914092 
L 435.337141 172.665969 
L 436.143936 172.293785 
L 436.547334 171.797538 
L 440.98471 170.805046 
L 441.388108 170.805046 
L 441.791506 170.618954 
L 443.405097 170.3088 
L 443.808494 170.122708 
L 445.422086 169.812554 
L 446.228881 169.471385 
L 447.035677 169.316308 
L 449.052666 168.789046 
L 450.262859 168.416862 
L 452.279848 167.765538 
L 453.086644 167.424369 
L 453.893439 167.114215 
L 454.296837 166.835077 
L 455.103633 166.586954 
L 457.927417 165.501415 
L 459.541008 165.315323 
L 462.768191 164.105723 
L 463.171589 163.795569 
L 463.574986 163.702523 
L 463.978384 163.485415 
L 464.381782 163.4544 
L 468.819158 161.810585 
L 470.836147 161.252308 
L 471.642942 160.849108 
L 472.853136 160.569969 
L 474.466727 159.205292 
L 476.080318 158.491938 
L 477.290511 157.964677 
L 478.904103 157.282338 
L 479.3075 157.158277 
L 479.710898 156.879138 
L 481.727887 156.1968 
L 485.761865 154.118769 
L 486.568661 153.746585 
L 486.972059 153.436431 
L 487.778854 153.157292 
L 490.199241 151.978708 
L 490.602639 151.885662 
L 491.812832 151.327385 
L 493.426423 150.769108 
L 494.233219 150.427938 
L 495.040014 150.303877 
L 495.443412 150.024738 
L 497.057003 149.714585 
L 497.863799 149.373415 
L 500.284186 148.194831 
L 500.687584 148.1328 
L 501.897777 147.419446 
L 503.10797 146.985231 
L 505.931755 145.775631 
L 506.335153 145.651569 
L 506.738551 145.372431 
L 507.545346 145.279385 
L 507.948744 145.000246 
L 508.755539 144.876185 
L 509.562335 144.472985 
L 509.965733 144.286892 
L 510.772528 144.069785 
L 511.579324 143.821662 
L 512.789517 143.356431 
L 513.999711 142.953231 
L 515.209904 142.674092 
L 516.823495 141.991754 
L 517.630291 141.557538 
L 519.243882 140.720123 
L 520.050678 140.534031 
L 520.454076 140.285908 
L 520.857473 140.192862 
L 522.067667 139.479508 
L 523.27786 139.014277 
L 526.101645 138.021785 
L 526.505042 137.897723 
L 527.311838 137.463508 
L 529.328827 136.750154 
L 531.749214 135.757662 
L 533.362805 134.982277 
L 537.396783 133.369477 
L 538.203579 132.966277 
L 538.606976 132.873231 
L 539.413772 132.563077 
L 539.81717 132.563077 
L 540.623965 132.190892 
L 542.237556 130.826215 
L 542.640954 130.702154 
L 543.044352 130.454031 
L 544.254545 130.112862 
L 544.657943 129.802708 
L 545.061341 129.709662 
L 546.271534 128.965292 
L 546.674932 128.686154 
L 547.885126 128.220923 
L 548.288523 128.003815 
L 549.498717 127.724677 
L 551.515706 127.011323 
L 552.322501 126.7632 
L 553.532695 126.111877 
L 554.33949 125.708677 
L 555.146286 125.491569 
L 556.759877 124.7472 
L 557.163275 124.623138 
L 557.97007 124.250954 
L 559.987059 123.568615 
L 561.197253 122.793231 
L 561.600651 122.700185 
L 562.407446 122.296985 
L 563.214242 121.986831 
L 563.61764 121.614646 
L 564.827833 121.149415 
L 565.231231 121.087385 
L 566.844822 120.343015 
L 568.055015 119.970831 
L 568.458413 119.784738 
L 568.861811 119.722708 
L 569.668607 119.381538 
L 570.8788 119.1024 
L 571.685596 118.637169 
L 572.088993 118.482092 
L 572.492391 118.171938 
L 573.702584 117.861785 
L 574.105982 117.613662 
L 574.912778 117.396554 
L 576.122971 116.714215 
L 576.526369 116.6832 
L 577.736562 116.28 
L 578.543358 116.217969 
L 579.350154 115.907815 
L 581.77054 115.163446 
L 582.577336 115.132431 
L 585.804518 114.046892 
L 586.611314 113.612677 
L 587.014712 113.240492 
L 587.821507 112.806277 
L 589.031701 112.061908 
L 591.452087 111.317538 
L 591.855485 111.007385 
L 595.486065 109.704738 
L 596.292861 109.4256 
L 597.503054 108.898338 
L 601.133635 107.4096 
L 601.94043 107.099446 
L 603.554021 106.448123 
L 603.957419 106.075938 
L 604.360817 106.013908 
L 605.974408 105.362585 
L 607.587999 104.959385 
L 607.991397 104.897354 
L 608.394795 104.711262 
L 608.798193 104.680246 
L 609.604988 104.401108 
L 610.008386 104.370092 
L 611.218579 103.904862 
L 612.832171 103.439631 
L 613.638966 102.819323 
L 615.252557 101.919877 
L 615.655955 101.826831 
L 616.462751 101.516677 
L 619.689933 99.934892 
L 620.093331 99.717785 
L 620.496729 99.3456 
L 622.513718 98.849354 
L 623.723911 98.291077 
L 624.530707 98.073969 
L 624.934104 97.887877 
L 625.337502 97.546708 
L 626.951093 97.112492 
L 627.354491 96.802338 
L 632.598663 94.879385 
L 633.405458 94.724308 
L 635.422447 94.072985 
L 636.632641 93.545723 
L 639.456425 92.677292 
L 640.263221 92.212062 
L 643.087005 91.250585 
L 644.700596 90.723323 
L 645.91079 90.444185 
L 647.120983 90.072 
L 647.524381 89.978954 
L 647.927779 89.699815 
L 648.734574 89.513723 
L 650.348166 89.048492 
L 650.751563 89.017477 
L 651.558359 88.645292 
L 654.382144 87.931938 
L 655.995735 87.342646 
L 656.399132 87.342646 
L 657.609326 87.063508 
L 658.416121 86.908431 
L 659.222917 86.691323 
L 660.43311 86.04 
L 661.643304 85.667815 
L 664.467088 84.706338 
L 666.08068 83.899938 
L 667.290873 83.6208 
L 668.097669 83.372677 
L 668.904464 82.969477 
L 669.307862 82.628308 
L 670.114658 82.380185 
L 670.518055 82.132062 
L 671.324851 82.039015 
L 674.148635 81.232615 
L 675.358829 80.984492 
L 676.569022 80.674338 
L 677.375818 80.488246 
L 678.586011 79.867938 
L 683.830183 77.851938 
L 684.636978 77.727877 
L 685.443774 77.5728 
L 685.847172 77.5728 
L 687.057365 77.1696 
L 688.267558 76.797415 
L 691.898138 75.773908 
L 692.704934 75.5568 
L 693.108332 75.463754 
L 693.51173 75.215631 
L 694.318525 75.060554 
L 695.125321 74.967508 
L 695.528719 74.7504 
L 695.932116 74.719385 
L 696.738912 74.192123 
L 698.352503 73.850954 
L 699.159299 73.509785 
L 699.966094 73.230646 
L 700.77289 73.013538 
L 701.579686 72.672369 
L 702.386481 72.393231 
L 704.000072 71.928 
L 704.806868 71.865969 
L 705.613663 71.586831 
L 706.017061 71.431754 
L 706.823857 71.307692 
L 708.437448 70.594338 
L 708.840846 70.532308 
L 709.647641 70.222154 
L 712.068028 69.818954 
L 712.874824 69.570831 
L 713.278222 69.5088 
L 714.085017 69.167631 
L 714.488415 69.1056 
L 714.891813 68.888492 
L 715.698608 68.206154 
L 719.732586 66.717415 
L 722.152973 66.066092 
L 722.556371 65.755938 
L 724.169962 65.042585 
L 725.783553 64.360246 
L 726.590349 64.112123 
L 727.800542 63.646892 
L 728.607338 63.305723 
L 730.220929 62.313231 
L 730.624327 62.220185 
L 731.83452 61.599877 
L 732.641316 61.289723 
L 734.254907 60.731446 
L 734.658305 60.545354 
L 735.061703 60.204185 
L 735.4651 60.111138 
L 736.271896 59.614892 
L 736.675294 59.521846 
L 737.885487 58.963569 
L 738.692283 58.684431 
L 739.09568 58.498338 
L 739.499078 58.467323 
L 741.516067 57.691938 
L 742.322863 57.536862 
L 743.129658 56.947569 
L 743.533056 56.947569 
L 744.339852 56.6064 
L 744.74325 56.544369 
L 745.146647 56.327262 
L 745.550045 56.265231 
L 745.953443 56.079138 
L 747.163636 55.8 
L 747.163636 55.8 
" clip-path="url(#p6221f72825)" style="fill: none; stroke: #1f77b4; stroke-width: 1.5; stroke-linecap: square"/>
   </g>
   <g id="line2d_38">
    <path d="M 138.839761 307.8 
L 142.470342 307.706954 
L 145.697524 307.551877 
L 147.311115 307.551877 
L 147.714513 307.427815 
L 149.731502 307.334769 
L 152.151889 307.055631 
L 154.572275 306.962585 
L 155.379071 306.869538 
L 158.202856 306.745477 
L 161.02664 306.652431 
L 163.043629 306.5904 
L 168.2878 306.497354 
L 170.304789 306.435323 
L 173.93537 306.342277 
L 175.548961 306.311262 
L 179.582939 306.218215 
L 181.19653 306.063138 
L 182.810121 306.032123 
L 185.230508 305.939077 
L 186.844099 305.908062 
L 188.861088 305.846031 
L 190.474679 305.690954 
L 194.105259 305.597908 
L 194.912055 305.535877 
L 196.525646 305.442831 
L 198.946033 305.349785 
L 200.559624 305.256738 
L 207.820784 304.791508 
L 210.644569 304.698462 
L 211.854762 304.5744 
L 213.871751 304.481354 
L 217.905729 304.264246 
L 221.939707 304.202215 
L 223.553298 304.016123 
L 225.570287 303.923077 
L 229.604265 303.519877 
L 232.024652 303.209723 
L 233.638243 303.147692 
L 236.865426 302.713477 
L 239.285812 302.651446 
L 240.496006 302.527385 
L 241.706199 302.434338 
L 253.001337 301.534892 
L 253.808133 301.379815 
L 256.22852 301.286769 
L 262.682885 300.883569 
L 265.506669 300.790523 
L 267.12026 300.604431 
L 269.137249 300.511385 
L 271.557636 300.418338 
L 273.574625 300.325292 
L 275.188216 300.294277 
L 277.205205 300.232246 
L 278.012001 300.108185 
L 283.65957 300.015138 
L 284.466365 299.922092 
L 289.307139 299.829046 
L 292.937719 299.642954 
L 295.761504 299.549908 
L 297.375095 299.363815 
L 300.198879 299.270769 
L 301.005675 299.146708 
L 303.022664 299.084677 
L 307.056642 299.022646 
L 308.670233 298.867569 
L 310.283824 298.836554 
L 311.494018 298.743508 
L 313.107609 298.588431 
L 317.141587 298.371323 
L 321.175565 298.278277 
L 324.806145 298.092185 
L 326.016338 298.061169 
L 326.823134 297.937108 
L 328.840123 297.844062 
L 329.646918 297.782031 
L 330.453714 297.72 
L 331.26051 297.657969 
L 335.294488 297.564923 
L 344.169239 296.975631 
L 344.976035 296.9136 
L 346.186228 296.820554 
L 349.010013 296.727508 
L 351.027002 296.665477 
L 356.674571 296.572431 
L 357.481366 296.448369 
L 363.128935 296.355323 
L 367.162913 296.138215 
L 367.969709 296.1072 
L 368.776505 296.014154 
L 370.793494 295.921108 
L 372.810483 295.859077 
L 374.827472 295.766031 
L 376.844461 295.704 
L 380.475041 295.610954 
L 382.895427 295.517908 
L 388.542997 295.424862 
L 392.980372 295.176738 
L 394.593963 295.114708 
L 395.804157 295.021662 
L 401.451726 294.928615 
L 403.872113 294.835569 
L 411.133273 294.742523 
L 412.746864 294.711508 
L 417.587638 294.649477 
L 418.394433 294.587446 
L 424.042003 294.4944 
L 425.655594 294.463385 
L 436.143936 294.370338 
L 438.564323 294.277292 
L 455.507031 294.184246 
L 457.52402 294.122215 
L 468.012362 294.060185 
L 468.819158 293.998154 
L 470.836147 293.936123 
L 472.04634 293.812062 
L 474.466727 293.719015 
L 477.290511 293.594954 
L 480.921092 293.501908 
L 482.938081 293.439877 
L 485.761865 293.346831 
L 488.989048 293.191754 
L 491.006037 293.098708 
L 492.619628 293.067692 
L 499.47739 292.974646 
L 501.897777 292.8816 
L 506.335153 292.788554 
L 509.158937 292.664492 
L 511.982722 292.602462 
L 512.789517 292.540431 
L 522.471065 292.447385 
L 526.505042 292.230277 
L 529.328827 292.137231 
L 533.766203 291.889108 
L 536.589987 291.796062 
L 538.203579 291.765046 
L 541.027363 291.672 
L 543.044352 291.454892 
L 547.07833 291.361846 
L 547.885126 291.2688 
L 551.919104 291.175754 
L 553.936093 291.113723 
L 558.373468 291.082708 
L 559.180264 290.989662 
L 563.61764 290.896615 
L 564.424435 290.834585 
L 573.299187 290.741538 
L 575.719573 290.648492 
L 581.77054 290.555446 
L 583.384132 290.524431 
L 587.014712 290.4624 
L 587.821507 290.369354 
L 593.065679 290.276308 
L 595.082668 290.214277 
L 602.343828 290.121231 
L 603.554021 290.028185 
L 604.764215 289.935138 
L 605.974408 289.842092 
L 612.025375 289.749046 
L 614.445762 289.656 
L 625.337502 289.562954 
L 628.968082 289.376862 
L 633.808856 289.314831 
L 634.615652 289.2528 
L 640.666618 289.190769 
L 641.473414 289.128738 
L 645.91079 289.035692 
L 647.524381 289.004677 
L 654.382144 288.911631 
L 655.188939 288.8496 
L 662.450099 288.756554 
L 664.063691 288.725538 
L 668.097669 288.632492 
L 670.921453 288.508431 
L 675.358829 288.415385 
L 678.182613 288.291323 
L 681.813194 288.198277 
L 682.619989 288.136246 
L 690.687945 288.0432 
L 692.704934 287.981169 
L 695.125321 287.888123 
L 697.545708 287.795077 
L 709.647641 287.702031 
L 712.471426 287.577969 
L 719.329189 287.484923 
L 721.749575 287.391877 
L 726.993747 287.298831 
L 729.414133 287.205785 
L 732.641316 287.112738 
L 735.061703 287.019692 
L 747.163636 286.926646 
L 747.163636 286.926646 
" clip-path="url(#p6221f72825)" style="fill: none; stroke: #ff7f0e; stroke-width: 1.5; stroke-linecap: square"/>
   </g>
   <g id="patch_3">
    <path d="M 108 320.4 
L 108 43.2 
" style="fill: none; stroke: #a9a9a9; stroke-width: 0.8; stroke-linejoin: miter; stroke-linecap: square"/>
   </g>
   <g id="patch_4">
    <path d="M 777.6 320.4 
L 777.6 43.2 
" style="fill: none"/>
   </g>
   <g id="patch_5">
    <path d="M 108 320.4 
L 777.6 320.4 
" style="fill: none; stroke: #a9a9a9; stroke-width: 0.8; stroke-linejoin: miter; stroke-linecap: square"/>
   </g>
   <g id="patch_6">
    <path d="M 108 43.2 
L 777.6 43.2 
" style="fill: none"/>
   </g>
   <g id="text_19">
    <!-- get_subscribe history -->
    <g style="fill: #a9a9a9" transform="translate(378.6075 37.2) scale(0.12 -0.12)">
     <defs>
      <path id="DejaVuSans-67" d="M 2906 1791 
Q 2906 2416 2648 2759 
Q 2391 3103 1925 3103 
Q 1463 3103 1205 2759 
Q 947 2416 947 1791 
Q 947 1169 1205 825 
Q 1463 481 1925 481 
Q 2391 481 2648 825 
Q 2906 1169 2906 1791 
z
M 3481 434 
Q 3481 -459 3084 -895 
Q 2688 -1331 1869 -1331 
Q 1566 -1331 1297 -1286 
Q 1028 -1241 775 -1147 
L 775 -588 
Q 1028 -725 1275 -790 
Q 1522 -856 1778 -856 
Q 2344 -856 2625 -561 
Q 2906 -266 2906 331 
L 2906 616 
Q 2728 306 2450 153 
Q 2172 0 1784 0 
Q 1141 0 747 490 
Q 353 981 353 1791 
Q 353 2603 747 3093 
Q 1141 3584 1784 3584 
Q 2172 3584 2450 3431 
Q 2728 3278 2906 2969 
L 2906 3500 
L 3481 3500 
L 3481 434 
z
" transform="scale(0.015625)"/>
      <path id="DejaVuSans-65" d="M 3597 1894 
L 3597 1613 
L 953 1613 
Q 991 1019 1311 708 
Q 1631 397 2203 397 
Q 2534 397 2845 478 
Q 3156 559 3463 722 
L 3463 178 
Q 3153 47 2828 -22 
Q 2503 -91 2169 -91 
Q 1331 -91 842 396 
Q 353 884 353 1716 
Q 353 2575 817 3079 
Q 1281 3584 2069 3584 
Q 2775 3584 3186 3129 
Q 3597 2675 3597 1894 
z
M 3022 2063 
Q 3016 2534 2758 2815 
Q 2500 3097 2075 3097 
Q 1594 3097 1305 2825 
Q 1016 2553 972 2059 
L 3022 2063 
z
" transform="scale(0.015625)"/>
      <path id="DejaVuSans-74" d="M 1172 4494 
L 1172 3500 
L 2356 3500 
L 2356 3053 
L 1172 3053 
L 1172 1153 
Q 1172 725 1289 603 
Q 1406 481 1766 481 
L 2356 481 
L 2356 0 
L 1766 0 
Q 1100 0 847 248 
Q 594 497 594 1153 
L 594 3053 
L 172 3053 
L 172 3500 
L 594 3500 
L 594 4494 
L 1172 4494 
z
" transform="scale(0.015625)"/>
      <path id="DejaVuSans-5f" d="M 3263 -1063 
L 3263 -1509 
L -63 -1509 
L -63 -1063 
L 3263 -1063 
z
" transform="scale(0.015625)"/>
      <path id="DejaVuSans-73" d="M 2834 3397 
L 2834 2853 
Q 2591 2978 2328 3040 
Q 2066 3103 1784 3103 
Q 1356 3103 1142 2972 
Q 928 2841 928 2578 
Q 928 2378 1081 2264 
Q 1234 2150 1697 2047 
L 1894 2003 
Q 2506 1872 2764 1633 
Q 3022 1394 3022 966 
Q 3022 478 2636 193 
Q 2250 -91 1575 -91 
Q 1294 -91 989 -36 
Q 684 19 347 128 
L 347 722 
Q 666 556 975 473 
Q 1284 391 1588 391 
Q 1994 391 2212 530 
Q 2431 669 2431 922 
Q 2431 1156 2273 1281 
Q 2116 1406 1581 1522 
L 1381 1569 
Q 847 1681 609 1914 
Q 372 2147 372 2553 
Q 372 3047 722 3315 
Q 1072 3584 1716 3584 
Q 2034 3584 2315 3537 
Q 2597 3491 2834 3397 
z
" transform="scale(0.015625)"/>
      <path id="DejaVuSans-75" d="M 544 1381 
L 544 3500 
L 1119 3500 
L 1119 1403 
Q 1119 906 1312 657 
Q 1506 409 1894 409 
Q 2359 409 2629 706 
Q 2900 1003 2900 1516 
L 2900 3500 
L 3475 3500 
L 3475 0 
L 2900 0 
L 2900 538 
Q 2691 219 2414 64 
Q 2138 -91 1772 -91 
Q 1169 -91 856 284 
Q 544 659 544 1381 
z
M 1991 3584 
L 1991 3584 
z
" transform="scale(0.015625)"/>
      <path id="DejaVuSans-62" d="M 3116 1747 
Q 3116 2381 2855 2742 
Q 2594 3103 2138 3103 
Q 1681 3103 1420 2742 
Q 1159 2381 1159 1747 
Q 1159 1113 1420 752 
Q 1681 391 2138 391 
Q 2594 391 2855 752 
Q 3116 1113 3116 1747 
z
M 1159 2969 
Q 1341 3281 1617 3432 
Q 1894 3584 2278 3584 
Q 2916 3584 3314 3078 
Q 3713 2572 3713 1747 
Q 3713 922 3314 415 
Q 2916 -91 2278 -91 
Q 1894 -91 1617 61 
Q 1341 213 1159 525 
L 1159 0 
L 581 0 
L 581 4863 
L 1159 4863 
L 1159 2969 
z
" transform="scale(0.015625)"/>
      <path id="DejaVuSans-63" d="M 3122 3366 
L 3122 2828 
Q 2878 2963 2633 3030 
Q 2388 3097 2138 3097 
Q 1578 3097 1268 2742 
Q 959 2388 959 1747 
Q 959 1106 1268 751 
Q 1578 397 2138 397 
Q 2388 397 2633 464 
Q 2878 531 3122 666 
L 3122 134 
Q 2881 22 2623 -34 
Q 2366 -91 2075 -91 
Q 1284 -91 818 406 
Q 353 903 353 1747 
Q 353 2603 823 3093 
Q 1294 3584 2113 3584 
Q 2378 3584 2631 3529 
Q 2884 3475 3122 3366 
z
" transform="scale(0.015625)"/>
      <path id="DejaVuSans-72" d="M 2631 2963 
Q 2534 3019 2420 3045 
Q 2306 3072 2169 3072 
Q 1681 3072 1420 2755 
Q 1159 2438 1159 1844 
L 1159 0 
L 581 0 
L 581 3500 
L 1159 3500 
L 1159 2956 
Q 1341 3275 1631 3429 
Q 1922 3584 2338 3584 
Q 2397 3584 2469 3576 
Q 2541 3569 2628 3553 
L 2631 2963 
z
" transform="scale(0.015625)"/>
      <path id="DejaVuSans-69" d="M 603 3500 
L 1178 3500 
L 1178 0 
L 603 0 
L 603 3500 
z
M 603 4863 
L 1178 4863 
L 1178 4134 
L 603 4134 
L 603 4863 
z
" transform="scale(0.015625)"/>
      <path id="DejaVuSans-20" transform="scale(0.015625)"/>
      <path id="DejaVuSans-68" d="M 3513 2113 
L 3513 0 
L 2938 0 
L 2938 2094 
Q 2938 2591 2744 2837 
Q 2550 3084 2163 3084 
Q 1697 3084 1428 2787 
Q 1159 2491 1159 1978 
L 1159 0 
L 581 0 
L 581 4863 
L 1159 4863 
L 1159 2956 
Q 1366 3272 1645 3428 
Q 1925 3584 2291 3584 
Q 2894 3584 3203 3211 
Q 3513 2838 3513 2113 
z
" transform="scale(0.015625)"/>
      <path id="DejaVuSans-6f" d="M 1959 3097 
Q 1497 3097 1228 2736 
Q 959 2375 959 1747 
Q 959 1119 1226 758 
Q 1494 397 1959 397 
Q 2419 397 2687 759 
Q 2956 1122 2956 1747 
Q 2956 2369 2687 2733 
Q 2419 3097 1959 3097 
z
M 1959 3584 
Q 2709 3584 3137 3096 
Q 3566 2609 3566 1747 
Q 3566 888 3137 398 
Q 2709 -91 1959 -91 
Q 1206 -91 779 398 
Q 353 888 353 1747 
Q 353 2609 779 3096 
Q 1206 3584 1959 3584 
z
" transform="scale(0.015625)"/>
      <path id="DejaVuSans-79" d="M 2059 -325 
Q 1816 -950 1584 -1140 
Q 1353 -1331 966 -1331 
L 506 -1331 
L 506 -850 
L 844 -850 
Q 1081 -850 1212 -737 
Q 1344 -625 1503 -206 
L 1606 56 
L 191 3500 
L 800 3500 
L 1894 763 
L 2988 3500 
L 3597 3500 
L 2059 -325 
z
" transform="scale(0.015625)"/>
     </defs>
     <use xlink:href="#DejaVuSans-67"/>
     <use xlink:href="#DejaVuSans-65" transform="translate(63.476562 0)"/>
     <use xlink:href="#DejaVuSans-74" transform="translate(125 0)"/>
     <use xlink:href="#DejaVuSans-5f" transform="translate(164.208984 0)"/>
     <use xlink:href="#DejaVuSans-73" transform="translate(214.208984 0)"/>
     <use xlink:href="#DejaVuSans-75" transform="translate(266.308594 0)"/>
     <use xlink:href="#DejaVuSans-62" transform="translate(329.6875 0)"/>
     <use xlink:href="#DejaVuSans-73" transform="translate(393.164062 0)"/>
     <use xlink:href="#DejaVuSans-63" transform="translate(445.263672 0)"/>
     <use xlink:href="#DejaVuSans-72" transform="translate(500.244141 0)"/>
     <use xlink:href="#DejaVuSans-69" transform="translate(541.357422 0)"/>
     <use xlink:href="#DejaVuSans-62" transform="translate(569.140625 0)"/>
     <use xlink:href="#DejaVuSans-65" transform="translate(632.617188 0)"/>
     <use xlink:href="#DejaVuSans-20" transform="translate(694.140625 0)"/>
     <use xlink:href="#DejaVuSans-68" transform="translate(725.927734 0)"/>
     <use xlink:href="#DejaVuSans-69" transform="translate(789.306641 0)"/>
     <use xlink:href="#DejaVuSans-73" transform="translate(817.089844 0)"/>
     <use xlink:href="#DejaVuSans-74" transform="translate(869.189453 0)"/>
     <use xlink:href="#DejaVuSans-6f" transform="translate(908.398438 0)"/>
     <use xlink:href="#DejaVuSans-72" transform="translate(969.580078 0)"/>
     <use xlink:href="#DejaVuSans-79" transform="translate(1010.693359 0)"/>
    </g>
   </g>
   <g id="legend_1">
    <g id="line2d_39">
     <path d="M 815.08 328.498438 
L 825.08 328.498438 
L 835.08 328.498438 
" style="fill: none; stroke: #1f77b4; stroke-width: 1.5; stroke-linecap: square"/>
    </g>
    <g id="text_20">
     <!-- star -->
     <g style="fill: #a9a9a9" transform="translate(843.08 331.998438) scale(0.1 -0.1)">
      <defs>
       <path id="DejaVuSans-61" d="M 2194 1759 
Q 1497 1759 1228 1600 
Q 959 1441 959 1056 
Q 959 750 1161 570 
Q 1363 391 1709 391 
Q 2188 391 2477 730 
Q 2766 1069 2766 1631 
L 2766 1759 
L 2194 1759 
z
M 3341 1997 
L 3341 0 
L 2766 0 
L 2766 531 
Q 2569 213 2275 61 
Q 1981 -91 1556 -91 
Q 1019 -91 701 211 
Q 384 513 384 1019 
Q 384 1609 779 1909 
Q 1175 2209 1959 2209 
L 2766 2209 
L 2766 2266 
Q 2766 2663 2505 2880 
Q 2244 3097 1772 3097 
Q 1472 3097 1187 3025 
Q 903 2953 641 2809 
L 641 3341 
Q 956 3463 1253 3523 
Q 1550 3584 1831 3584 
Q 2591 3584 2966 3190 
Q 3341 2797 3341 1997 
z
" transform="scale(0.015625)"/>
      </defs>
      <use xlink:href="#DejaVuSans-73"/>
      <use xlink:href="#DejaVuSans-74" transform="translate(52.099609 0)"/>
      <use xlink:href="#DejaVuSans-61" transform="translate(91.308594 0)"/>
      <use xlink:href="#DejaVuSans-72" transform="translate(152.587891 0)"/>
     </g>
    </g>
    <g id="line2d_40">
     <path d="M 815.08 343.176562 
L 825.08 343.176562 
L 835.08 343.176562 
" style="fill: none; stroke: #ff7f0e; stroke-width: 1.5; stroke-linecap: square"/>
    </g>
    <g id="text_21">
     <!-- fork -->
     <g style="fill: #a9a9a9" transform="translate(843.08 346.676562) scale(0.1 -0.1)">
      <defs>
       <path id="DejaVuSans-66" d="M 2375 4863 
L 2375 4384 
L 1825 4384 
Q 1516 4384 1395 4259 
Q 1275 4134 1275 3809 
L 1275 3500 
L 2222 3500 
L 2222 3053 
L 1275 3053 
L 1275 0 
L 697 0 
L 697 3053 
L 147 3053 
L 147 3500 
L 697 3500 
L 697 3744 
Q 697 4328 969 4595 
Q 1241 4863 1831 4863 
L 2375 4863 
z
" transform="scale(0.015625)"/>
       <path id="DejaVuSans-6b" d="M 581 4863 
L 1159 4863 
L 1159 1991 
L 2875 3500 
L 3609 3500 
L 1753 1863 
L 3688 0 
L 2938 0 
L 1159 1709 
L 1159 0 
L 581 0 
L 581 4863 
z
" transform="scale(0.015625)"/>
      </defs>
      <use xlink:href="#DejaVuSans-66"/>
      <use xlink:href="#DejaVuSans-6f" transform="translate(35.205078 0)"/>
      <use xlink:href="#DejaVuSans-72" transform="translate(96.386719 0)"/>
      <use xlink:href="#DejaVuSans-6b" transform="translate(137.5 0)"/>
     </g>
    </g>
   </g>
  </g>
 </g>
 <defs>
  <clipPath id="p6221f72825">
   <rect x="108" y="43.2" width="669.6" height="277.2"/>
  </clipPath>
 </defs>
</svg>
