<?xml version="1.0" encoding="utf-8" standalone="no"?>
<!DOCTYPE svg PUBLIC "-//W3C//DTD SVG 1.1//EN"
  "http://www.w3.org/Graphics/SVG/1.1/DTD/svg11.dtd">
<svg xmlns:xlink="http://www.w3.org/1999/xlink" width="864pt" height="360pt" viewBox="0 0 864 360" xmlns="http://www.w3.org/2000/svg" version="1.1">
 <metadata>
  <rdf:RDF xmlns:dc="http://purl.org/dc/elements/1.1/" xmlns:cc="http://creativecommons.org/ns#" xmlns:rdf="http://www.w3.org/1999/02/22-rdf-syntax-ns#">
   <cc:Work>
    <dc:type rdf:resource="http://purl.org/dc/dcmitype/StillImage"/>
    <dc:date>2025-09-10T08:15:01.723027</dc:date>
    <dc:format>image/svg+xml</dc:format>
    <dc:creator>
     <cc:Agent>
      <dc:title>Matplotlib v3.10.6, https://matplotlib.org/</dc:title>
     </cc:Agent>
    </dc:creator>
   </cc:Work>
  </rdf:RDF>
 </metadata>
 <defs>
  <style type="text/css">*{stroke-linejoin: round; stroke-linecap: butt}</style>
 </defs>
 <g id="figure_1">
  <g id="patch_1">
   <path d="M 0 360 
L 864 360 
L 864 0 
L 0 0 
L 0 360 
z
" style="fill: none; opacity: 0"/>
  </g>
  <g id="axes_1">
   <g id="patch_2">
    <path d="M 108 320.4 
L 777.6 320.4 
L 777.6 43.2 
L 108 43.2 
L 108 320.4 
z
" style="fill: none; opacity: 0"/>
   </g>
   <g id="matplotlib.axis_1">
    <g id="xtick_1">
     <g id="line2d_1">
      <path d="M 129.158214 320.4 
L 129.158214 43.2 
" clip-path="url(#pee4ab9decf)" style="fill: none; stroke-dasharray: 5.12,1.28,0.8,1.28; stroke-dashoffset: 0; stroke: #b0b0b0; stroke-width: 0.8"/>
     </g>
     <g id="line2d_2">
      <defs>
       <path id="m945b91c523" d="M 0 0 
L 0 3.5 
" style="stroke: #a9a9a9; stroke-width: 0.8"/>
      </defs>
      <g>
       <use xlink:href="#m945b91c523" x="129.158214" y="320.4" style="fill: #a9a9a9; stroke: #a9a9a9; stroke-width: 0.8"/>
      </g>
     </g>
     <g id="text_1">
      <!-- 2021-07 -->
      <g style="fill: #a9a9a9" transform="translate(108.266808 334.998438) scale(0.1 -0.1)">
       <defs>
        <path id="DejaVuSans-32" d="M 1228 531 
L 3431 531 
L 3431 0 
L 469 0 
L 469 531 
Q 828 903 1448 1529 
Q 2069 2156 2228 2338 
Q 2531 2678 2651 2914 
Q 2772 3150 2772 3378 
Q 2772 3750 2511 3984 
Q 2250 4219 1831 4219 
Q 1534 4219 1204 4116 
Q 875 4013 500 3803 
L 500 4441 
Q 881 4594 1212 4672 
Q 1544 4750 1819 4750 
Q 2544 4750 2975 4387 
Q 3406 4025 3406 3419 
Q 3406 3131 3298 2873 
Q 3191 2616 2906 2266 
Q 2828 2175 2409 1742 
Q 1991 1309 1228 531 
z
" transform="scale(0.015625)"/>
        <path id="DejaVuSans-30" d="M 2034 4250 
Q 1547 4250 1301 3770 
Q 1056 3291 1056 2328 
Q 1056 1369 1301 889 
Q 1547 409 2034 409 
Q 2525 409 2770 889 
Q 3016 1369 3016 2328 
Q 3016 3291 2770 3770 
Q 2525 4250 2034 4250 
z
M 2034 4750 
Q 2819 4750 3233 4129 
Q 3647 3509 3647 2328 
Q 3647 1150 3233 529 
Q 2819 -91 2034 -91 
Q 1250 -91 836 529 
Q 422 1150 422 2328 
Q 422 3509 836 4129 
Q 1250 4750 2034 4750 
z
" transform="scale(0.015625)"/>
        <path id="DejaVuSans-31" d="M 794 531 
L 1825 531 
L 1825 4091 
L 703 3866 
L 703 4441 
L 1819 4666 
L 2450 4666 
L 2450 531 
L 3481 531 
L 3481 0 
L 794 0 
L 794 531 
z
" transform="scale(0.015625)"/>
        <path id="DejaVuSans-2d" d="M 313 2009 
L 1997 2009 
L 1997 1497 
L 313 1497 
L 313 2009 
z
" transform="scale(0.015625)"/>
        <path id="DejaVuSans-37" d="M 525 4666 
L 3525 4666 
L 3525 4397 
L 1831 0 
L 1172 0 
L 2766 4134 
L 525 4134 
L 525 4666 
z
" transform="scale(0.015625)"/>
       </defs>
       <use xlink:href="#DejaVuSans-32"/>
       <use xlink:href="#DejaVuSans-30" transform="translate(63.623047 0)"/>
       <use xlink:href="#DejaVuSans-32" transform="translate(127.246094 0)"/>
       <use xlink:href="#DejaVuSans-31" transform="translate(190.869141 0)"/>
       <use xlink:href="#DejaVuSans-2d" transform="translate(254.492188 0)"/>
       <use xlink:href="#DejaVuSans-30" transform="translate(290.576172 0)"/>
       <use xlink:href="#DejaVuSans-37" transform="translate(354.199219 0)"/>
      </g>
     </g>
    </g>
    <g id="xtick_2">
     <g id="line2d_3">
      <path d="M 203.383409 320.4 
L 203.383409 43.2 
" clip-path="url(#pee4ab9decf)" style="fill: none; stroke-dasharray: 5.12,1.28,0.8,1.28; stroke-dashoffset: 0; stroke: #b0b0b0; stroke-width: 0.8"/>
     </g>
     <g id="line2d_4">
      <g>
       <use xlink:href="#m945b91c523" x="203.383409" y="320.4" style="fill: #a9a9a9; stroke: #a9a9a9; stroke-width: 0.8"/>
      </g>
     </g>
     <g id="text_2">
      <!-- 2022-01 -->
      <g style="fill: #a9a9a9" transform="translate(182.492002 334.998438) scale(0.1 -0.1)">
       <use xlink:href="#DejaVuSans-32"/>
       <use xlink:href="#DejaVuSans-30" transform="translate(63.623047 0)"/>
       <use xlink:href="#DejaVuSans-32" transform="translate(127.246094 0)"/>
       <use xlink:href="#DejaVuSans-32" transform="translate(190.869141 0)"/>
       <use xlink:href="#DejaVuSans-2d" transform="translate(254.492188 0)"/>
       <use xlink:href="#DejaVuSans-30" transform="translate(290.576172 0)"/>
       <use xlink:href="#DejaVuSans-31" transform="translate(354.199219 0)"/>
      </g>
     </g>
    </g>
    <g id="xtick_3">
     <g id="line2d_5">
      <path d="M 276.39841 320.4 
L 276.39841 43.2 
" clip-path="url(#pee4ab9decf)" style="fill: none; stroke-dasharray: 5.12,1.28,0.8,1.28; stroke-dashoffset: 0; stroke: #b0b0b0; stroke-width: 0.8"/>
     </g>
     <g id="line2d_6">
      <g>
       <use xlink:href="#m945b91c523" x="276.39841" y="320.4" style="fill: #a9a9a9; stroke: #a9a9a9; stroke-width: 0.8"/>
      </g>
     </g>
     <g id="text_3">
      <!-- 2022-07 -->
      <g style="fill: #a9a9a9" transform="translate(255.507003 334.998438) scale(0.1 -0.1)">
       <use xlink:href="#DejaVuSans-32"/>
       <use xlink:href="#DejaVuSans-30" transform="translate(63.623047 0)"/>
       <use xlink:href="#DejaVuSans-32" transform="translate(127.246094 0)"/>
       <use xlink:href="#DejaVuSans-32" transform="translate(190.869141 0)"/>
       <use xlink:href="#DejaVuSans-2d" transform="translate(254.492188 0)"/>
       <use xlink:href="#DejaVuSans-30" transform="translate(290.576172 0)"/>
       <use xlink:href="#DejaVuSans-37" transform="translate(354.199219 0)"/>
      </g>
     </g>
    </g>
    <g id="xtick_4">
     <g id="line2d_7">
      <path d="M 350.623604 320.4 
L 350.623604 43.2 
" clip-path="url(#pee4ab9decf)" style="fill: none; stroke-dasharray: 5.12,1.28,0.8,1.28; stroke-dashoffset: 0; stroke: #b0b0b0; stroke-width: 0.8"/>
     </g>
     <g id="line2d_8">
      <g>
       <use xlink:href="#m945b91c523" x="350.623604" y="320.4" style="fill: #a9a9a9; stroke: #a9a9a9; stroke-width: 0.8"/>
      </g>
     </g>
     <g id="text_4">
      <!-- 2023-01 -->
      <g style="fill: #a9a9a9" transform="translate(329.732198 334.998438) scale(0.1 -0.1)">
       <defs>
        <path id="DejaVuSans-33" d="M 2597 2516 
Q 3050 2419 3304 2112 
Q 3559 1806 3559 1356 
Q 3559 666 3084 287 
Q 2609 -91 1734 -91 
Q 1441 -91 1130 -33 
Q 819 25 488 141 
L 488 750 
Q 750 597 1062 519 
Q 1375 441 1716 441 
Q 2309 441 2620 675 
Q 2931 909 2931 1356 
Q 2931 1769 2642 2001 
Q 2353 2234 1838 2234 
L 1294 2234 
L 1294 2753 
L 1863 2753 
Q 2328 2753 2575 2939 
Q 2822 3125 2822 3475 
Q 2822 3834 2567 4026 
Q 2313 4219 1838 4219 
Q 1578 4219 1281 4162 
Q 984 4106 628 3988 
L 628 4550 
Q 988 4650 1302 4700 
Q 1616 4750 1894 4750 
Q 2613 4750 3031 4423 
Q 3450 4097 3450 3541 
Q 3450 3153 3228 2886 
Q 3006 2619 2597 2516 
z
" transform="scale(0.015625)"/>
       </defs>
       <use xlink:href="#DejaVuSans-32"/>
       <use xlink:href="#DejaVuSans-30" transform="translate(63.623047 0)"/>
       <use xlink:href="#DejaVuSans-32" transform="translate(127.246094 0)"/>
       <use xlink:href="#DejaVuSans-33" transform="translate(190.869141 0)"/>
       <use xlink:href="#DejaVuSans-2d" transform="translate(254.492188 0)"/>
       <use xlink:href="#DejaVuSans-30" transform="translate(290.576172 0)"/>
       <use xlink:href="#DejaVuSans-31" transform="translate(354.199219 0)"/>
      </g>
     </g>
    </g>
    <g id="xtick_5">
     <g id="line2d_9">
      <path d="M 423.638605 320.4 
L 423.638605 43.2 
" clip-path="url(#pee4ab9decf)" style="fill: none; stroke-dasharray: 5.12,1.28,0.8,1.28; stroke-dashoffset: 0; stroke: #b0b0b0; stroke-width: 0.8"/>
     </g>
     <g id="line2d_10">
      <g>
       <use xlink:href="#m945b91c523" x="423.638605" y="320.4" style="fill: #a9a9a9; stroke: #a9a9a9; stroke-width: 0.8"/>
      </g>
     </g>
     <g id="text_5">
      <!-- 2023-07 -->
      <g style="fill: #a9a9a9" transform="translate(402.747198 334.998438) scale(0.1 -0.1)">
       <use xlink:href="#DejaVuSans-32"/>
       <use xlink:href="#DejaVuSans-30" transform="translate(63.623047 0)"/>
       <use xlink:href="#DejaVuSans-32" transform="translate(127.246094 0)"/>
       <use xlink:href="#DejaVuSans-33" transform="translate(190.869141 0)"/>
       <use xlink:href="#DejaVuSans-2d" transform="translate(254.492188 0)"/>
       <use xlink:href="#DejaVuSans-30" transform="translate(290.576172 0)"/>
       <use xlink:href="#DejaVuSans-37" transform="translate(354.199219 0)"/>
      </g>
     </g>
    </g>
    <g id="xtick_6">
     <g id="line2d_11">
      <path d="M 497.863799 320.4 
L 497.863799 43.2 
" clip-path="url(#pee4ab9decf)" style="fill: none; stroke-dasharray: 5.12,1.28,0.8,1.28; stroke-dashoffset: 0; stroke: #b0b0b0; stroke-width: 0.8"/>
     </g>
     <g id="line2d_12">
      <g>
       <use xlink:href="#m945b91c523" x="497.863799" y="320.4" style="fill: #a9a9a9; stroke: #a9a9a9; stroke-width: 0.8"/>
      </g>
     </g>
     <g id="text_6">
      <!-- 2024-01 -->
      <g style="fill: #a9a9a9" transform="translate(476.972393 334.998438) scale(0.1 -0.1)">
       <defs>
        <path id="DejaVuSans-34" d="M 2419 4116 
L 825 1625 
L 2419 1625 
L 2419 4116 
z
M 2253 4666 
L 3047 4666 
L 3047 1625 
L 3713 1625 
L 3713 1100 
L 3047 1100 
L 3047 0 
L 2419 0 
L 2419 1100 
L 313 1100 
L 313 1709 
L 2253 4666 
z
" transform="scale(0.015625)"/>
       </defs>
       <use xlink:href="#DejaVuSans-32"/>
       <use xlink:href="#DejaVuSans-30" transform="translate(63.623047 0)"/>
       <use xlink:href="#DejaVuSans-32" transform="translate(127.246094 0)"/>
       <use xlink:href="#DejaVuSans-34" transform="translate(190.869141 0)"/>
       <use xlink:href="#DejaVuSans-2d" transform="translate(254.492188 0)"/>
       <use xlink:href="#DejaVuSans-30" transform="translate(290.576172 0)"/>
       <use xlink:href="#DejaVuSans-31" transform="translate(354.199219 0)"/>
      </g>
     </g>
    </g>
    <g id="xtick_7">
     <g id="line2d_13">
      <path d="M 571.282198 320.4 
L 571.282198 43.2 
" clip-path="url(#pee4ab9decf)" style="fill: none; stroke-dasharray: 5.12,1.28,0.8,1.28; stroke-dashoffset: 0; stroke: #b0b0b0; stroke-width: 0.8"/>
     </g>
     <g id="line2d_14">
      <g>
       <use xlink:href="#m945b91c523" x="571.282198" y="320.4" style="fill: #a9a9a9; stroke: #a9a9a9; stroke-width: 0.8"/>
      </g>
     </g>
     <g id="text_7">
      <!-- 2024-07 -->
      <g style="fill: #a9a9a9" transform="translate(550.390791 334.998438) scale(0.1 -0.1)">
       <use xlink:href="#DejaVuSans-32"/>
       <use xlink:href="#DejaVuSans-30" transform="translate(63.623047 0)"/>
       <use xlink:href="#DejaVuSans-32" transform="translate(127.246094 0)"/>
       <use xlink:href="#DejaVuSans-34" transform="translate(190.869141 0)"/>
       <use xlink:href="#DejaVuSans-2d" transform="translate(254.492188 0)"/>
       <use xlink:href="#DejaVuSans-30" transform="translate(290.576172 0)"/>
       <use xlink:href="#DejaVuSans-37" transform="translate(354.199219 0)"/>
      </g>
     </g>
    </g>
    <g id="xtick_8">
     <g id="line2d_15">
      <path d="M 645.507392 320.4 
L 645.507392 43.2 
" clip-path="url(#pee4ab9decf)" style="fill: none; stroke-dasharray: 5.12,1.28,0.8,1.28; stroke-dashoffset: 0; stroke: #b0b0b0; stroke-width: 0.8"/>
     </g>
     <g id="line2d_16">
      <g>
       <use xlink:href="#m945b91c523" x="645.507392" y="320.4" style="fill: #a9a9a9; stroke: #a9a9a9; stroke-width: 0.8"/>
      </g>
     </g>
     <g id="text_8">
      <!-- 2025-01 -->
      <g style="fill: #a9a9a9" transform="translate(624.615986 334.998438) scale(0.1 -0.1)">
       <defs>
        <path id="DejaVuSans-35" d="M 691 4666 
L 3169 4666 
L 3169 4134 
L 1269 4134 
L 1269 2991 
Q 1406 3038 1543 3061 
Q 1681 3084 1819 3084 
Q 2600 3084 3056 2656 
Q 3513 2228 3513 1497 
Q 3513 744 3044 326 
Q 2575 -91 1722 -91 
Q 1428 -91 1123 -41 
Q 819 9 494 109 
L 494 744 
Q 775 591 1075 516 
Q 1375 441 1709 441 
Q 2250 441 2565 725 
Q 2881 1009 2881 1497 
Q 2881 1984 2565 2268 
Q 2250 2553 1709 2553 
Q 1456 2553 1204 2497 
Q 953 2441 691 2322 
L 691 4666 
z
" transform="scale(0.015625)"/>
       </defs>
       <use xlink:href="#DejaVuSans-32"/>
       <use xlink:href="#DejaVuSans-30" transform="translate(63.623047 0)"/>
       <use xlink:href="#DejaVuSans-32" transform="translate(127.246094 0)"/>
       <use xlink:href="#DejaVuSans-35" transform="translate(190.869141 0)"/>
       <use xlink:href="#DejaVuSans-2d" transform="translate(254.492188 0)"/>
       <use xlink:href="#DejaVuSans-30" transform="translate(290.576172 0)"/>
       <use xlink:href="#DejaVuSans-31" transform="translate(354.199219 0)"/>
      </g>
     </g>
    </g>
    <g id="xtick_9">
     <g id="line2d_17">
      <path d="M 718.522393 320.4 
L 718.522393 43.2 
" clip-path="url(#pee4ab9decf)" style="fill: none; stroke-dasharray: 5.12,1.28,0.8,1.28; stroke-dashoffset: 0; stroke: #b0b0b0; stroke-width: 0.8"/>
     </g>
     <g id="line2d_18">
      <g>
       <use xlink:href="#m945b91c523" x="718.522393" y="320.4" style="fill: #a9a9a9; stroke: #a9a9a9; stroke-width: 0.8"/>
      </g>
     </g>
     <g id="text_9">
      <!-- 2025-07 -->
      <g style="fill: #a9a9a9" transform="translate(697.630987 334.998438) scale(0.1 -0.1)">
       <use xlink:href="#DejaVuSans-32"/>
       <use xlink:href="#DejaVuSans-30" transform="translate(63.623047 0)"/>
       <use xlink:href="#DejaVuSans-32" transform="translate(127.246094 0)"/>
       <use xlink:href="#DejaVuSans-35" transform="translate(190.869141 0)"/>
       <use xlink:href="#DejaVuSans-2d" transform="translate(254.492188 0)"/>
       <use xlink:href="#DejaVuSans-30" transform="translate(290.576172 0)"/>
       <use xlink:href="#DejaVuSans-37" transform="translate(354.199219 0)"/>
      </g>
     </g>
    </g>
   </g>
   <g id="matplotlib.axis_2">
    <g id="ytick_1">
     <g id="line2d_19">
      <path d="M 108 307.831031 
L 777.6 307.831031 
" clip-path="url(#pee4ab9decf)" style="fill: none; stroke-dasharray: 5.12,1.28,0.8,1.28; stroke-dashoffset: 0; stroke: #b0b0b0; stroke-width: 0.8"/>
     </g>
     <g id="line2d_20">
      <defs>
       <path id="m61d5bbddc9" d="M 0 0 
L -3.5 0 
" style="stroke: #a9a9a9; stroke-width: 0.8"/>
      </defs>
      <g>
       <use xlink:href="#m61d5bbddc9" x="108" y="307.831031" style="fill: #a9a9a9; stroke: #a9a9a9; stroke-width: 0.8"/>
      </g>
     </g>
     <g id="text_10">
      <!-- 0 -->
      <g style="fill: #a9a9a9" transform="translate(94.6375 311.630249) scale(0.1 -0.1)">
       <use xlink:href="#DejaVuSans-30"/>
      </g>
     </g>
    </g>
    <g id="ytick_2">
     <g id="line2d_21">
      <path d="M 108 276.800369 
L 777.6 276.800369 
" clip-path="url(#pee4ab9decf)" style="fill: none; stroke-dasharray: 5.12,1.28,0.8,1.28; stroke-dashoffset: 0; stroke: #b0b0b0; stroke-width: 0.8"/>
     </g>
     <g id="line2d_22">
      <g>
       <use xlink:href="#m61d5bbddc9" x="108" y="276.800369" style="fill: #a9a9a9; stroke: #a9a9a9; stroke-width: 0.8"/>
      </g>
     </g>
     <g id="text_11">
      <!-- 1000 -->
      <g style="fill: #a9a9a9" transform="translate(75.55 280.599588) scale(0.1 -0.1)">
       <use xlink:href="#DejaVuSans-31"/>
       <use xlink:href="#DejaVuSans-30" transform="translate(63.623047 0)"/>
       <use xlink:href="#DejaVuSans-30" transform="translate(127.246094 0)"/>
       <use xlink:href="#DejaVuSans-30" transform="translate(190.869141 0)"/>
      </g>
     </g>
    </g>
    <g id="ytick_3">
     <g id="line2d_23">
      <path d="M 108 245.769708 
L 777.6 245.769708 
" clip-path="url(#pee4ab9decf)" style="fill: none; stroke-dasharray: 5.12,1.28,0.8,1.28; stroke-dashoffset: 0; stroke: #b0b0b0; stroke-width: 0.8"/>
     </g>
     <g id="line2d_24">
      <g>
       <use xlink:href="#m61d5bbddc9" x="108" y="245.769708" style="fill: #a9a9a9; stroke: #a9a9a9; stroke-width: 0.8"/>
      </g>
     </g>
     <g id="text_12">
      <!-- 2000 -->
      <g style="fill: #a9a9a9" transform="translate(75.55 249.568927) scale(0.1 -0.1)">
       <use xlink:href="#DejaVuSans-32"/>
       <use xlink:href="#DejaVuSans-30" transform="translate(63.623047 0)"/>
       <use xlink:href="#DejaVuSans-30" transform="translate(127.246094 0)"/>
       <use xlink:href="#DejaVuSans-30" transform="translate(190.869141 0)"/>
      </g>
     </g>
    </g>
    <g id="ytick_4">
     <g id="line2d_25">
      <path d="M 108 214.739047 
L 777.6 214.739047 
" clip-path="url(#pee4ab9decf)" style="fill: none; stroke-dasharray: 5.12,1.28,0.8,1.28; stroke-dashoffset: 0; stroke: #b0b0b0; stroke-width: 0.8"/>
     </g>
     <g id="line2d_26">
      <g>
       <use xlink:href="#m61d5bbddc9" x="108" y="214.739047" style="fill: #a9a9a9; stroke: #a9a9a9; stroke-width: 0.8"/>
      </g>
     </g>
     <g id="text_13">
      <!-- 3000 -->
      <g style="fill: #a9a9a9" transform="translate(75.55 218.538266) scale(0.1 -0.1)">
       <use xlink:href="#DejaVuSans-33"/>
       <use xlink:href="#DejaVuSans-30" transform="translate(63.623047 0)"/>
       <use xlink:href="#DejaVuSans-30" transform="translate(127.246094 0)"/>
       <use xlink:href="#DejaVuSans-30" transform="translate(190.869141 0)"/>
      </g>
     </g>
    </g>
    <g id="ytick_5">
     <g id="line2d_27">
      <path d="M 108 183.708386 
L 777.6 183.708386 
" clip-path="url(#pee4ab9decf)" style="fill: none; stroke-dasharray: 5.12,1.28,0.8,1.28; stroke-dashoffset: 0; stroke: #b0b0b0; stroke-width: 0.8"/>
     </g>
     <g id="line2d_28">
      <g>
       <use xlink:href="#m61d5bbddc9" x="108" y="183.708386" style="fill: #a9a9a9; stroke: #a9a9a9; stroke-width: 0.8"/>
      </g>
     </g>
     <g id="text_14">
      <!-- 4000 -->
      <g style="fill: #a9a9a9" transform="translate(75.55 187.507604) scale(0.1 -0.1)">
       <use xlink:href="#DejaVuSans-34"/>
       <use xlink:href="#DejaVuSans-30" transform="translate(63.623047 0)"/>
       <use xlink:href="#DejaVuSans-30" transform="translate(127.246094 0)"/>
       <use xlink:href="#DejaVuSans-30" transform="translate(190.869141 0)"/>
      </g>
     </g>
    </g>
    <g id="ytick_6">
     <g id="line2d_29">
      <path d="M 108 152.677724 
L 777.6 152.677724 
" clip-path="url(#pee4ab9decf)" style="fill: none; stroke-dasharray: 5.12,1.28,0.8,1.28; stroke-dashoffset: 0; stroke: #b0b0b0; stroke-width: 0.8"/>
     </g>
     <g id="line2d_30">
      <g>
       <use xlink:href="#m61d5bbddc9" x="108" y="152.677724" style="fill: #a9a9a9; stroke: #a9a9a9; stroke-width: 0.8"/>
      </g>
     </g>
     <g id="text_15">
      <!-- 5000 -->
      <g style="fill: #a9a9a9" transform="translate(75.55 156.476943) scale(0.1 -0.1)">
       <use xlink:href="#DejaVuSans-35"/>
       <use xlink:href="#DejaVuSans-30" transform="translate(63.623047 0)"/>
       <use xlink:href="#DejaVuSans-30" transform="translate(127.246094 0)"/>
       <use xlink:href="#DejaVuSans-30" transform="translate(190.869141 0)"/>
      </g>
     </g>
    </g>
    <g id="ytick_7">
     <g id="line2d_31">
      <path d="M 108 121.647063 
L 777.6 121.647063 
" clip-path="url(#pee4ab9decf)" style="fill: none; stroke-dasharray: 5.12,1.28,0.8,1.28; stroke-dashoffset: 0; stroke: #b0b0b0; stroke-width: 0.8"/>
     </g>
     <g id="line2d_32">
      <g>
       <use xlink:href="#m61d5bbddc9" x="108" y="121.647063" style="fill: #a9a9a9; stroke: #a9a9a9; stroke-width: 0.8"/>
      </g>
     </g>
     <g id="text_16">
      <!-- 6000 -->
      <g style="fill: #a9a9a9" transform="translate(75.55 125.446282) scale(0.1 -0.1)">
       <defs>
        <path id="DejaVuSans-36" d="M 2113 2584 
Q 1688 2584 1439 2293 
Q 1191 2003 1191 1497 
Q 1191 994 1439 701 
Q 1688 409 2113 409 
Q 2538 409 2786 701 
Q 3034 994 3034 1497 
Q 3034 2003 2786 2293 
Q 2538 2584 2113 2584 
z
M 3366 4563 
L 3366 3988 
Q 3128 4100 2886 4159 
Q 2644 4219 2406 4219 
Q 1781 4219 1451 3797 
Q 1122 3375 1075 2522 
Q 1259 2794 1537 2939 
Q 1816 3084 2150 3084 
Q 2853 3084 3261 2657 
Q 3669 2231 3669 1497 
Q 3669 778 3244 343 
Q 2819 -91 2113 -91 
Q 1303 -91 875 529 
Q 447 1150 447 2328 
Q 447 3434 972 4092 
Q 1497 4750 2381 4750 
Q 2619 4750 2861 4703 
Q 3103 4656 3366 4563 
z
" transform="scale(0.015625)"/>
       </defs>
       <use xlink:href="#DejaVuSans-36"/>
       <use xlink:href="#DejaVuSans-30" transform="translate(63.623047 0)"/>
       <use xlink:href="#DejaVuSans-30" transform="translate(127.246094 0)"/>
       <use xlink:href="#DejaVuSans-30" transform="translate(190.869141 0)"/>
      </g>
     </g>
    </g>
    <g id="ytick_8">
     <g id="line2d_33">
      <path d="M 108 90.616402 
L 777.6 90.616402 
" clip-path="url(#pee4ab9decf)" style="fill: none; stroke-dasharray: 5.12,1.28,0.8,1.28; stroke-dashoffset: 0; stroke: #b0b0b0; stroke-width: 0.8"/>
     </g>
     <g id="line2d_34">
      <g>
       <use xlink:href="#m61d5bbddc9" x="108" y="90.616402" style="fill: #a9a9a9; stroke: #a9a9a9; stroke-width: 0.8"/>
      </g>
     </g>
     <g id="text_17">
      <!-- 7000 -->
      <g style="fill: #a9a9a9" transform="translate(75.55 94.415621) scale(0.1 -0.1)">
       <use xlink:href="#DejaVuSans-37"/>
       <use xlink:href="#DejaVuSans-30" transform="translate(63.623047 0)"/>
       <use xlink:href="#DejaVuSans-30" transform="translate(127.246094 0)"/>
       <use xlink:href="#DejaVuSans-30" transform="translate(190.869141 0)"/>
      </g>
     </g>
    </g>
    <g id="ytick_9">
     <g id="line2d_35">
      <path d="M 108 59.585741 
L 777.6 59.585741 
" clip-path="url(#pee4ab9decf)" style="fill: none; stroke-dasharray: 5.12,1.28,0.8,1.28; stroke-dashoffset: 0; stroke: #b0b0b0; stroke-width: 0.8"/>
     </g>
     <g id="line2d_36">
      <g>
       <use xlink:href="#m61d5bbddc9" x="108" y="59.585741" style="fill: #a9a9a9; stroke: #a9a9a9; stroke-width: 0.8"/>
      </g>
     </g>
     <g id="text_18">
      <!-- 8000 -->
      <g style="fill: #a9a9a9" transform="translate(75.55 63.384959) scale(0.1 -0.1)">
       <defs>
        <path id="DejaVuSans-38" d="M 2034 2216 
Q 1584 2216 1326 1975 
Q 1069 1734 1069 1313 
Q 1069 891 1326 650 
Q 1584 409 2034 409 
Q 2484 409 2743 651 
Q 3003 894 3003 1313 
Q 3003 1734 2745 1975 
Q 2488 2216 2034 2216 
z
M 1403 2484 
Q 997 2584 770 2862 
Q 544 3141 544 3541 
Q 544 4100 942 4425 
Q 1341 4750 2034 4750 
Q 2731 4750 3128 4425 
Q 3525 4100 3525 3541 
Q 3525 3141 3298 2862 
Q 3072 2584 2669 2484 
Q 3125 2378 3379 2068 
Q 3634 1759 3634 1313 
Q 3634 634 3220 271 
Q 2806 -91 2034 -91 
Q 1263 -91 848 271 
Q 434 634 434 1313 
Q 434 1759 690 2068 
Q 947 2378 1403 2484 
z
M 1172 3481 
Q 1172 3119 1398 2916 
Q 1625 2713 2034 2713 
Q 2441 2713 2670 2916 
Q 2900 3119 2900 3481 
Q 2900 3844 2670 4047 
Q 2441 4250 2034 4250 
Q 1625 4250 1398 4047 
Q 1172 3844 1172 3481 
z
" transform="scale(0.015625)"/>
       </defs>
       <use xlink:href="#DejaVuSans-38"/>
       <use xlink:href="#DejaVuSans-30" transform="translate(63.623047 0)"/>
       <use xlink:href="#DejaVuSans-30" transform="translate(127.246094 0)"/>
       <use xlink:href="#DejaVuSans-30" transform="translate(190.869141 0)"/>
      </g>
     </g>
    </g>
   </g>
   <g id="line2d_37">
    <path d="M 138.436364 307.737939 
L 140.85675 307.520724 
L 141.260148 307.33454 
L 142.873739 307.117325 
L 144.487331 306.775988 
L 145.294126 306.651866 
L 147.311115 306.465682 
L 148.117911 306.124344 
L 148.521309 305.565792 
L 148.924706 305.286516 
L 149.328104 304.355597 
L 149.731502 304.293535 
L 150.1349 303.952198 
L 150.941695 303.517769 
L 152.555286 302.15242 
L 154.168878 301.314592 
L 155.379071 300.725009 
L 155.782469 300.042335 
L 156.589264 299.421721 
L 156.992662 299.235537 
L 161.02664 298.614924 
L 161.430038 298.42874 
L 164.253823 298.180495 
L 165.867414 297.777096 
L 169.094596 297.311636 
L 169.497994 297.094422 
L 169.901392 297.032361 
L 170.708187 296.753085 
L 173.531972 296.256594 
L 174.338767 296.008349 
L 177.969348 295.387736 
L 178.776143 295.201552 
L 179.582939 295.170521 
L 181.19653 294.767122 
L 181.599928 294.17754 
L 182.810121 293.681049 
L 184.020314 293.339712 
L 184.423712 293.122497 
L 185.230508 292.967344 
L 186.844099 292.470853 
L 187.650895 292.408792 
L 188.45769 292.191577 
L 190.071281 291.757148 
L 190.474679 291.726117 
L 191.281475 291.322719 
L 191.684873 291.260658 
L 192.08827 291.043443 
L 196.525646 290.267676 
L 198.139237 289.771186 
L 198.542635 289.49191 
L 200.559624 288.809235 
L 201.36642 288.219653 
L 202.576613 287.971407 
L 207.820784 286.419874 
L 208.224182 286.357813 
L 209.837773 285.706169 
L 210.241171 285.644108 
L 211.047967 285.302771 
L 211.854762 285.27174 
L 213.064956 284.899372 
L 213.468354 284.899372 
L 213.871751 284.713188 
L 214.678547 284.620096 
L 215.081945 284.464943 
L 216.695536 284.402881 
L 217.502331 284.247728 
L 218.309127 283.813299 
L 219.51932 283.37887 
L 220.326116 282.94444 
L 221.536309 282.416919 
L 223.149901 281.579091 
L 223.553298 281.113631 
L 224.360094 279.810344 
L 224.763492 279.686221 
L 225.16689 279.686221 
L 226.780481 278.786332 
L 227.183879 278.69324 
L 227.587276 278.289841 
L 228.394072 277.948504 
L 229.200868 277.576136 
L 229.604265 277.079645 
L 230.007663 276.396971 
L 230.411061 276.117695 
L 230.814459 275.372959 
L 231.217856 274.907499 
L 233.638243 273.54215 
L 235.251834 272.052678 
L 235.655232 271.090728 
L 236.05863 270.470115 
L 236.462028 270.128777 
L 236.865426 269.942593 
L 240.092608 266.870558 
L 240.899404 266.094791 
L 243.31979 264.512228 
L 243.723188 264.357074 
L 245.336779 263.364093 
L 245.740177 263.177909 
L 247.757166 261.254008 
L 248.563962 260.912671 
L 249.370757 260.323088 
L 249.774155 260.074843 
L 250.177553 260.012782 
L 251.387746 259.299076 
L 251.791144 258.833617 
L 253.808133 257.685482 
L 254.211531 257.530329 
L 255.421724 256.66147 
L 261.472691 254.427263 
L 262.279487 253.651496 
L 263.48968 253.030883 
L 264.296476 252.503362 
L 265.103271 252.255116 
L 265.506669 251.97584 
L 265.910067 251.851718 
L 267.12026 251.01389 
L 269.137249 250.54843 
L 270.347443 249.803694 
L 271.557636 249.524418 
L 271.961034 249.431326 
L 273.171227 248.500406 
L 274.784818 248.034946 
L 275.188216 247.693609 
L 277.608603 246.824751 
L 278.415399 246.669597 
L 279.222194 246.32826 
L 282.045979 245.242187 
L 282.852774 245.149095 
L 284.062968 244.714666 
L 286.079957 243.690654 
L 288.500343 242.294274 
L 289.307139 242.077059 
L 290.517332 241.456446 
L 291.324128 241.301293 
L 292.130924 240.804802 
L 292.937719 240.587588 
L 294.147913 240.091097 
L 295.761504 239.873883 
L 296.568299 239.439453 
L 296.971697 239.067085 
L 297.375095 238.322349 
L 298.988686 237.85689 
L 300.602277 237.112154 
L 303.022664 235.932989 
L 303.82946 235.52959 
L 305.039653 235.281345 
L 306.249846 234.660731 
L 306.653244 234.59867 
L 308.670233 233.574658 
L 309.477029 233.047137 
L 310.687222 232.798892 
L 312.704211 232.271371 
L 313.107609 231.930033 
L 313.914404 231.650757 
L 315.931393 230.812929 
L 316.334791 230.502623 
L 316.738189 230.34747 
L 317.544985 229.88201 
L 319.158576 229.354488 
L 319.965371 228.826967 
L 320.368769 228.392538 
L 320.772167 228.144293 
L 321.175565 228.051201 
L 321.98236 227.368526 
L 322.385758 227.306465 
L 322.789156 226.62379 
L 323.192554 226.437606 
L 323.595952 226.096269 
L 323.999349 226.034208 
L 324.806145 225.506686 
L 325.612941 225.22741 
L 326.016338 224.917104 
L 326.419736 224.76195 
L 328.033327 223.644847 
L 329.243521 223.024233 
L 330.050316 222.807019 
L 330.857112 222.341559 
L 331.26051 221.627854 
L 332.067305 221.00724 
L 332.470703 220.914149 
L 334.89109 219.703953 
L 335.697885 219.362615 
L 336.504681 218.773033 
L 337.714874 217.624898 
L 338.52167 217.128408 
L 338.925068 216.662948 
L 340.538659 215.514813 
L 341.345455 214.676986 
L 342.15225 214.39771 
L 342.959046 213.839158 
L 344.169239 213.187514 
L 344.572637 213.125453 
L 348.203217 211.232582 
L 349.41341 210.860214 
L 350.623604 210.394754 
L 351.027002 210.053417 
L 352.640593 209.401773 
L 353.043991 209.277651 
L 353.850786 208.750129 
L 354.657582 208.408792 
L 355.464377 207.819209 
L 356.271173 206.174584 
L 357.077969 205.243665 
L 358.288162 204.592021 
L 359.094958 204.250683 
L 359.498355 204.188622 
L 360.305151 203.816254 
L 361.918742 203.257702 
L 362.725538 202.792242 
L 363.532333 202.388844 
L 363.935731 202.264721 
L 366.356118 200.775249 
L 366.759516 200.309789 
L 367.969709 199.596084 
L 368.373107 199.440931 
L 369.179902 198.94444 
L 370.793494 198.044551 
L 371.196891 197.951459 
L 371.600289 197.610122 
L 374.424074 196.648171 
L 374.827472 196.368895 
L 375.634267 196.12065 
L 376.441063 195.779313 
L 376.844461 195.437976 
L 378.458052 194.848393 
L 379.264847 194.25881 
L 380.071643 193.917473 
L 380.878438 193.265829 
L 381.685234 193.017584 
L 382.088632 192.645216 
L 382.49203 192.583155 
L 383.298825 191.962542 
L 385.315814 190.752346 
L 386.12261 190.5041 
L 386.526008 190.255855 
L 386.929405 190.193794 
L 388.139599 189.511119 
L 394.190566 187.587218 
L 395.400759 186.71836 
L 395.804157 186.563207 
L 396.610952 186.097747 
L 397.01435 185.973624 
L 399.434737 184.577244 
L 399.838135 184.484152 
L 401.048328 183.739416 
L 402.258522 183.304987 
L 403.065317 183.025711 
L 404.678908 182.467159 
L 405.485704 182.187883 
L 407.099295 181.846546 
L 407.502693 181.660362 
L 408.309489 181.443147 
L 408.712886 181.256963 
L 409.116284 181.194902 
L 409.519682 180.977687 
L 410.326477 180.822534 
L 411.536671 180.357074 
L 412.746864 180.17089 
L 415.167251 179.70543 
L 416.377444 179.426154 
L 416.780842 179.23997 
L 417.587638 179.084817 
L 418.394433 178.867603 
L 419.201229 178.495235 
L 419.604627 178.340081 
L 420.008025 178.340081 
L 424.4454 176.943702 
L 424.848798 176.726487 
L 425.252196 176.726487 
L 426.058992 176.41618 
L 426.462389 175.981751 
L 428.882776 174.957739 
L 430.496367 174.399187 
L 430.899765 174.150942 
L 432.109958 173.778574 
L 432.916754 173.561359 
L 433.320152 173.282083 
L 433.72355 173.188992 
L 434.126947 172.816624 
L 435.337141 172.568378 
L 436.143936 172.19601 
L 436.547334 171.69952 
L 440.98471 170.706539 
L 441.388108 170.706539 
L 441.791506 170.520355 
L 443.405097 170.210048 
L 443.808494 170.023864 
L 445.422086 169.713557 
L 446.228881 169.37222 
L 447.035677 169.217067 
L 449.052666 168.689546 
L 450.262859 168.317178 
L 452.279848 167.665534 
L 453.086644 167.324197 
L 453.893439 167.01389 
L 454.296837 166.734614 
L 455.103633 166.486369 
L 457.927417 165.400296 
L 459.541008 165.214112 
L 462.768191 164.003916 
L 463.171589 163.693609 
L 463.574986 163.600517 
L 463.978384 163.383303 
L 464.381782 163.352272 
L 468.819158 161.707647 
L 470.836147 161.149095 
L 471.642942 160.745696 
L 472.853136 160.46642 
L 474.466727 159.101071 
L 476.080318 158.387366 
L 477.290511 157.859845 
L 478.904103 157.17717 
L 479.3075 157.053048 
L 479.710898 156.773772 
L 481.727887 156.091097 
L 485.761865 154.012043 
L 486.568661 153.639675 
L 486.972059 153.329368 
L 487.778854 153.050092 
L 490.199241 151.870927 
L 490.602639 151.777835 
L 491.812832 151.219283 
L 493.426423 150.660731 
L 494.233219 150.319394 
L 495.040014 150.195272 
L 495.443412 149.915996 
L 497.057003 149.605689 
L 497.863799 149.264352 
L 500.284186 148.085187 
L 500.687584 148.023125 
L 501.897777 147.30942 
L 503.10797 146.874991 
L 505.931755 145.664795 
L 506.335153 145.540672 
L 506.738551 145.261396 
L 507.545346 145.168304 
L 507.948744 144.889028 
L 508.755539 144.764906 
L 509.562335 144.361507 
L 509.965733 144.175323 
L 510.772528 143.958109 
L 511.579324 143.709863 
L 512.789517 143.244403 
L 513.999711 142.841005 
L 515.209904 142.561729 
L 516.823495 141.879054 
L 517.630291 141.444625 
L 519.243882 140.606797 
L 520.050678 140.420613 
L 520.454076 140.172368 
L 520.857473 140.079276 
L 522.067667 139.365571 
L 523.27786 138.900111 
L 526.101645 137.90713 
L 526.505042 137.783007 
L 527.311838 137.348578 
L 529.328827 136.634873 
L 531.749214 135.641891 
L 533.362805 134.866125 
L 537.396783 133.25253 
L 538.203579 132.849132 
L 538.606976 132.75604 
L 539.413772 132.445733 
L 539.81717 132.445733 
L 540.623965 132.073365 
L 542.237556 130.708016 
L 542.640954 130.583894 
L 543.044352 130.335648 
L 544.254545 129.994311 
L 544.657943 129.684004 
L 545.061341 129.590912 
L 546.271534 128.846177 
L 546.674932 128.566901 
L 547.885126 128.101441 
L 548.288523 127.884226 
L 549.498717 127.60495 
L 551.515706 126.891245 
L 552.322501 126.643 
L 553.532695 125.991356 
L 554.33949 125.587957 
L 555.146286 125.370743 
L 556.759877 124.626007 
L 557.163275 124.501884 
L 557.97007 124.129516 
L 559.987059 123.446842 
L 561.197253 122.671075 
L 561.600651 122.577983 
L 562.407446 122.174584 
L 563.214242 121.864278 
L 563.61764 121.49191 
L 564.827833 121.02645 
L 565.231231 120.964389 
L 566.844822 120.219653 
L 568.055015 119.847285 
L 568.458413 119.661101 
L 568.861811 119.59904 
L 569.668607 119.257702 
L 570.8788 118.978426 
L 571.685596 118.512966 
L 572.088993 118.357813 
L 572.492391 118.047506 
L 573.702584 117.7372 
L 574.105982 117.488955 
L 574.912778 117.27174 
L 576.122971 116.589065 
L 576.526369 116.558035 
L 577.736562 116.154636 
L 578.543358 116.092575 
L 579.350154 115.782268 
L 581.77054 115.037532 
L 582.577336 115.006502 
L 585.804518 113.920429 
L 586.611314 113.485999 
L 587.014712 113.113631 
L 587.821507 112.679202 
L 589.031701 111.934466 
L 591.452087 111.18973 
L 591.855485 110.879424 
L 595.486065 109.576136 
L 596.292861 109.29686 
L 597.503054 108.769339 
L 601.133635 107.279867 
L 601.94043 106.96956 
L 603.554021 106.317917 
L 603.957419 105.945549 
L 604.360817 105.883487 
L 605.974408 105.231843 
L 607.587999 104.828445 
L 607.991397 104.766383 
L 608.394795 104.580199 
L 608.798193 104.549169 
L 609.604988 104.269893 
L 610.008386 104.238862 
L 611.218579 103.773402 
L 612.832171 103.307942 
L 613.638966 102.687329 
L 615.252557 101.78744 
L 615.655955 101.694348 
L 616.462751 101.384041 
L 619.689933 99.801478 
L 620.093331 99.584263 
L 620.496729 99.211895 
L 622.513718 98.715405 
L 623.723911 98.156853 
L 624.530707 97.939638 
L 624.934104 97.753454 
L 625.337502 97.412117 
L 626.951093 96.977687 
L 627.354491 96.667381 
L 632.598663 94.74348 
L 633.405458 94.588327 
L 635.422447 93.936683 
L 636.632641 93.409161 
L 639.456425 92.540303 
L 640.263221 92.074843 
L 643.087005 91.112893 
L 644.700596 90.585371 
L 645.91079 90.306095 
L 647.120983 89.933727 
L 647.524381 89.840635 
L 647.927779 89.561359 
L 648.734574 89.375175 
L 650.348166 88.909716 
L 650.751563 88.878685 
L 651.558359 88.506317 
L 654.382144 87.792612 
L 655.995735 87.203029 
L 656.399132 87.203029 
L 657.609326 86.923753 
L 658.416121 86.7686 
L 659.222917 86.551385 
L 660.43311 85.899741 
L 661.643304 85.527373 
L 664.467088 84.565423 
L 666.08068 83.758626 
L 667.290873 83.47935 
L 668.097669 83.231105 
L 668.904464 82.827706 
L 669.307862 82.486369 
L 670.114658 82.238123 
L 670.518055 81.989878 
L 671.324851 81.896786 
L 674.148635 81.089989 
L 675.358829 80.841744 
L 676.569022 80.531437 
L 677.375818 80.345253 
L 678.586011 79.72464 
L 683.830183 77.707647 
L 684.636978 77.583524 
L 685.443774 77.428371 
L 685.847172 77.428371 
L 687.057365 77.024972 
L 688.267558 76.652604 
L 691.898138 75.628593 
L 692.704934 75.411378 
L 693.108332 75.318286 
L 693.51173 75.070041 
L 694.318525 74.914887 
L 695.125321 74.821795 
L 695.528719 74.604581 
L 695.932116 74.57355 
L 696.738912 74.046029 
L 698.352503 73.704692 
L 699.159299 73.363354 
L 699.966094 73.084078 
L 700.77289 72.866864 
L 701.579686 72.525526 
L 702.386481 72.24625 
L 704.000072 71.780791 
L 704.806868 71.718729 
L 705.613663 71.439453 
L 706.017061 71.2843 
L 706.823857 71.160177 
L 708.437448 70.446472 
L 708.840846 70.384411 
L 709.647641 70.074104 
L 712.068028 69.670706 
L 712.874824 69.42246 
L 713.278222 69.360399 
L 714.085017 69.019062 
L 714.488415 68.957 
L 714.891813 68.739786 
L 715.698608 68.057111 
L 719.732586 66.567639 
L 722.152973 65.915996 
L 722.556371 65.605689 
L 724.169962 64.891984 
L 725.783553 64.209309 
L 726.590349 63.961064 
L 727.800542 63.495604 
L 728.607338 63.154267 
L 730.220929 62.161286 
L 730.624327 62.068194 
L 731.83452 61.44758 
L 732.641316 61.137274 
L 734.254907 60.578722 
L 734.658305 60.392538 
L 735.061703 60.051201 
L 735.4651 59.958109 
L 736.271896 59.461618 
L 736.675294 59.368526 
L 737.885487 58.809974 
L 738.692283 58.530698 
L 739.09568 58.344514 
L 739.499078 58.313484 
L 741.516067 57.537717 
L 742.322863 57.382564 
L 743.129658 56.792981 
L 743.533056 56.792981 
L 744.339852 56.451644 
L 744.74325 56.389583 
L 745.146647 56.172368 
L 745.550045 56.110307 
L 745.953443 55.924123 
L 747.163636 55.8 
L 747.163636 55.8 
" clip-path="url(#pee4ab9decf)" style="fill: none; stroke: #1f77b4; stroke-width: 1.5; stroke-linecap: square"/>
   </g>
   <g id="line2d_38">
    <path d="M 138.839761 307.8 
L 142.470342 307.706908 
L 145.697524 307.551755 
L 147.311115 307.551755 
L 147.714513 307.427632 
L 149.731502 307.33454 
L 152.151889 307.055264 
L 154.572275 306.962172 
L 155.379071 306.86908 
L 158.202856 306.744958 
L 161.02664 306.651866 
L 163.043629 306.589804 
L 168.2878 306.496712 
L 170.304789 306.434651 
L 173.93537 306.341559 
L 175.548961 306.310528 
L 179.582939 306.217436 
L 181.19653 306.062283 
L 182.810121 306.031252 
L 185.230508 305.93816 
L 186.844099 305.90713 
L 188.861088 305.845068 
L 190.474679 305.689915 
L 194.105259 305.596823 
L 194.912055 305.534762 
L 196.525646 305.44167 
L 198.946033 305.348578 
L 200.559624 305.255486 
L 207.820784 304.790026 
L 210.644569 304.696934 
L 211.854762 304.572811 
L 213.871751 304.479719 
L 217.905729 304.262505 
L 221.939707 304.200443 
L 223.553298 304.014259 
L 225.570287 303.921167 
L 229.604265 303.517769 
L 232.024652 303.207462 
L 233.638243 303.145401 
L 236.865426 302.710972 
L 239.285812 302.64891 
L 240.496006 302.524788 
L 241.706199 302.431696 
L 253.001337 301.531806 
L 253.808133 301.376653 
L 256.22852 301.283561 
L 262.682885 300.880163 
L 265.506669 300.787071 
L 267.12026 300.600887 
L 269.137249 300.507795 
L 271.557636 300.414703 
L 273.574625 300.321611 
L 275.188216 300.29058 
L 277.205205 300.228519 
L 278.012001 300.104396 
L 283.65957 300.011304 
L 284.466365 299.918212 
L 289.307139 299.82512 
L 292.937719 299.638936 
L 295.761504 299.545844 
L 297.375095 299.35966 
L 300.198879 299.266568 
L 301.005675 299.142446 
L 303.022664 299.080384 
L 307.056642 299.018323 
L 308.670233 298.86317 
L 310.283824 298.832139 
L 311.494018 298.739047 
L 313.107609 298.583894 
L 317.141587 298.366679 
L 321.175565 298.273587 
L 324.806145 298.087403 
L 326.016338 298.056372 
L 326.823134 297.93225 
L 328.840123 297.839158 
L 329.646918 297.777096 
L 330.453714 297.715035 
L 331.26051 297.652974 
L 335.294488 297.559882 
L 344.169239 296.970299 
L 344.976035 296.908238 
L 346.186228 296.815146 
L 349.010013 296.722054 
L 351.027002 296.659993 
L 356.674571 296.566901 
L 357.481366 296.442778 
L 363.128935 296.349686 
L 367.162913 296.132471 
L 367.969709 296.101441 
L 368.776505 296.008349 
L 370.793494 295.915257 
L 372.810483 295.853195 
L 374.827472 295.760103 
L 376.844461 295.698042 
L 380.475041 295.60495 
L 382.895427 295.511858 
L 388.542997 295.418766 
L 392.980372 295.170521 
L 394.593963 295.10846 
L 395.804157 295.015368 
L 401.451726 294.922276 
L 403.872113 294.829184 
L 411.133273 294.736092 
L 412.746864 294.705061 
L 417.587638 294.643 
L 418.394433 294.580938 
L 424.042003 294.487846 
L 425.655594 294.456816 
L 436.143936 294.363724 
L 438.564323 294.270632 
L 455.507031 294.17754 
L 457.52402 294.115478 
L 468.012362 294.053417 
L 468.819158 293.991356 
L 470.836147 293.929294 
L 472.04634 293.805172 
L 474.466727 293.71208 
L 477.290511 293.587957 
L 480.921092 293.494865 
L 482.938081 293.432804 
L 485.761865 293.339712 
L 488.989048 293.184559 
L 491.006037 293.091467 
L 492.619628 293.060436 
L 499.47739 292.967344 
L 501.897777 292.874252 
L 506.335153 292.78116 
L 509.158937 292.657037 
L 511.982722 292.594976 
L 512.789517 292.532915 
L 522.471065 292.439823 
L 526.505042 292.222608 
L 529.328827 292.129516 
L 533.766203 291.881271 
L 536.589987 291.788179 
L 538.203579 291.757148 
L 541.027363 291.664056 
L 543.044352 291.446842 
L 547.07833 291.35375 
L 547.885126 291.260658 
L 551.919104 291.167566 
L 553.936093 291.105504 
L 558.373468 291.074474 
L 559.180264 290.981382 
L 563.61764 290.88829 
L 564.424435 290.826228 
L 573.299187 290.733136 
L 575.719573 290.640044 
L 581.77054 290.546952 
L 583.384132 290.515922 
L 587.014712 290.45386 
L 587.821507 290.360768 
L 593.065679 290.267676 
L 595.082668 290.205615 
L 602.343828 290.112523 
L 603.554021 290.019431 
L 604.764215 289.926339 
L 605.974408 289.833247 
L 612.025375 289.740155 
L 614.445762 289.647063 
L 625.337502 289.553971 
L 628.968082 289.367787 
L 633.808856 289.305726 
L 634.615652 289.243665 
L 640.666618 289.181603 
L 641.473414 289.119542 
L 645.91079 289.02645 
L 647.524381 288.995419 
L 654.382144 288.902327 
L 655.188939 288.840266 
L 662.450099 288.747174 
L 664.063691 288.716143 
L 668.097669 288.623051 
L 670.921453 288.498929 
L 675.358829 288.405837 
L 678.182613 288.281714 
L 681.813194 288.188622 
L 682.619989 288.126561 
L 690.687945 288.033469 
L 692.704934 287.971407 
L 695.125321 287.878315 
L 697.545708 287.785223 
L 709.647641 287.692132 
L 712.471426 287.568009 
L 719.329189 287.474917 
L 721.749575 287.381825 
L 726.993747 287.288733 
L 729.414133 287.195641 
L 732.641316 287.102549 
L 735.061703 287.009457 
L 747.163636 286.916365 
L 747.163636 286.916365 
" clip-path="url(#pee4ab9decf)" style="fill: none; stroke: #ff7f0e; stroke-width: 1.5; stroke-linecap: square"/>
   </g>
   <g id="patch_3">
    <path d="M 108 320.4 
L 108 43.2 
" style="fill: none; stroke: #a9a9a9; stroke-width: 0.8; stroke-linejoin: miter; stroke-linecap: square"/>
   </g>
   <g id="patch_4">
    <path d="M 777.6 320.4 
L 777.6 43.2 
" style="fill: none"/>
   </g>
   <g id="patch_5">
    <path d="M 108 320.4 
L 777.6 320.4 
" style="fill: none; stroke: #a9a9a9; stroke-width: 0.8; stroke-linejoin: miter; stroke-linecap: square"/>
   </g>
   <g id="patch_6">
    <path d="M 108 43.2 
L 777.6 43.2 
" style="fill: none"/>
   </g>
   <g id="text_19">
    <!-- get_subscribe history -->
    <g style="fill: #a9a9a9" transform="translate(378.6075 37.2) scale(0.12 -0.12)">
     <defs>
      <path id="DejaVuSans-67" d="M 2906 1791 
Q 2906 2416 2648 2759 
Q 2391 3103 1925 3103 
Q 1463 3103 1205 2759 
Q 947 2416 947 1791 
Q 947 1169 1205 825 
Q 1463 481 1925 481 
Q 2391 481 2648 825 
Q 2906 1169 2906 1791 
z
M 3481 434 
Q 3481 -459 3084 -895 
Q 2688 -1331 1869 -1331 
Q 1566 -1331 1297 -1286 
Q 1028 -1241 775 -1147 
L 775 -588 
Q 1028 -725 1275 -790 
Q 1522 -856 1778 -856 
Q 2344 -856 2625 -561 
Q 2906 -266 2906 331 
L 2906 616 
Q 2728 306 2450 153 
Q 2172 0 1784 0 
Q 1141 0 747 490 
Q 353 981 353 1791 
Q 353 2603 747 3093 
Q 1141 3584 1784 3584 
Q 2172 3584 2450 3431 
Q 2728 3278 2906 2969 
L 2906 3500 
L 3481 3500 
L 3481 434 
z
" transform="scale(0.015625)"/>
      <path id="DejaVuSans-65" d="M 3597 1894 
L 3597 1613 
L 953 1613 
Q 991 1019 1311 708 
Q 1631 397 2203 397 
Q 2534 397 2845 478 
Q 3156 559 3463 722 
L 3463 178 
Q 3153 47 2828 -22 
Q 2503 -91 2169 -91 
Q 1331 -91 842 396 
Q 353 884 353 1716 
Q 353 2575 817 3079 
Q 1281 3584 2069 3584 
Q 2775 3584 3186 3129 
Q 3597 2675 3597 1894 
z
M 3022 2063 
Q 3016 2534 2758 2815 
Q 2500 3097 2075 3097 
Q 1594 3097 1305 2825 
Q 1016 2553 972 2059 
L 3022 2063 
z
" transform="scale(0.015625)"/>
      <path id="DejaVuSans-74" d="M 1172 4494 
L 1172 3500 
L 2356 3500 
L 2356 3053 
L 1172 3053 
L 1172 1153 
Q 1172 725 1289 603 
Q 1406 481 1766 481 
L 2356 481 
L 2356 0 
L 1766 0 
Q 1100 0 847 248 
Q 594 497 594 1153 
L 594 3053 
L 172 3053 
L 172 3500 
L 594 3500 
L 594 4494 
L 1172 4494 
z
" transform="scale(0.015625)"/>
      <path id="DejaVuSans-5f" d="M 3263 -1063 
L 3263 -1509 
L -63 -1509 
L -63 -1063 
L 3263 -1063 
z
" transform="scale(0.015625)"/>
      <path id="DejaVuSans-73" d="M 2834 3397 
L 2834 2853 
Q 2591 2978 2328 3040 
Q 2066 3103 1784 3103 
Q 1356 3103 1142 2972 
Q 928 2841 928 2578 
Q 928 2378 1081 2264 
Q 1234 2150 1697 2047 
L 1894 2003 
Q 2506 1872 2764 1633 
Q 3022 1394 3022 966 
Q 3022 478 2636 193 
Q 2250 -91 1575 -91 
Q 1294 -91 989 -36 
Q 684 19 347 128 
L 347 722 
Q 666 556 975 473 
Q 1284 391 1588 391 
Q 1994 391 2212 530 
Q 2431 669 2431 922 
Q 2431 1156 2273 1281 
Q 2116 1406 1581 1522 
L 1381 1569 
Q 847 1681 609 1914 
Q 372 2147 372 2553 
Q 372 3047 722 3315 
Q 1072 3584 1716 3584 
Q 2034 3584 2315 3537 
Q 2597 3491 2834 3397 
z
" transform="scale(0.015625)"/>
      <path id="DejaVuSans-75" d="M 544 1381 
L 544 3500 
L 1119 3500 
L 1119 1403 
Q 1119 906 1312 657 
Q 1506 409 1894 409 
Q 2359 409 2629 706 
Q 2900 1003 2900 1516 
L 2900 3500 
L 3475 3500 
L 3475 0 
L 2900 0 
L 2900 538 
Q 2691 219 2414 64 
Q 2138 -91 1772 -91 
Q 1169 -91 856 284 
Q 544 659 544 1381 
z
M 1991 3584 
L 1991 3584 
z
" transform="scale(0.015625)"/>
      <path id="DejaVuSans-62" d="M 3116 1747 
Q 3116 2381 2855 2742 
Q 2594 3103 2138 3103 
Q 1681 3103 1420 2742 
Q 1159 2381 1159 1747 
Q 1159 1113 1420 752 
Q 1681 391 2138 391 
Q 2594 391 2855 752 
Q 3116 1113 3116 1747 
z
M 1159 2969 
Q 1341 3281 1617 3432 
Q 1894 3584 2278 3584 
Q 2916 3584 3314 3078 
Q 3713 2572 3713 1747 
Q 3713 922 3314 415 
Q 2916 -91 2278 -91 
Q 1894 -91 1617 61 
Q 1341 213 1159 525 
L 1159 0 
L 581 0 
L 581 4863 
L 1159 4863 
L 1159 2969 
z
" transform="scale(0.015625)"/>
      <path id="DejaVuSans-63" d="M 3122 3366 
L 3122 2828 
Q 2878 2963 2633 3030 
Q 2388 3097 2138 3097 
Q 1578 3097 1268 2742 
Q 959 2388 959 1747 
Q 959 1106 1268 751 
Q 1578 397 2138 397 
Q 2388 397 2633 464 
Q 2878 531 3122 666 
L 3122 134 
Q 2881 22 2623 -34 
Q 2366 -91 2075 -91 
Q 1284 -91 818 406 
Q 353 903 353 1747 
Q 353 2603 823 3093 
Q 1294 3584 2113 3584 
Q 2378 3584 2631 3529 
Q 2884 3475 3122 3366 
z
" transform="scale(0.015625)"/>
      <path id="DejaVuSans-72" d="M 2631 2963 
Q 2534 3019 2420 3045 
Q 2306 3072 2169 3072 
Q 1681 3072 1420 2755 
Q 1159 2438 1159 1844 
L 1159 0 
L 581 0 
L 581 3500 
L 1159 3500 
L 1159 2956 
Q 1341 3275 1631 3429 
Q 1922 3584 2338 3584 
Q 2397 3584 2469 3576 
Q 2541 3569 2628 3553 
L 2631 2963 
z
" transform="scale(0.015625)"/>
      <path id="DejaVuSans-69" d="M 603 3500 
L 1178 3500 
L 1178 0 
L 603 0 
L 603 3500 
z
M 603 4863 
L 1178 4863 
L 1178 4134 
L 603 4134 
L 603 4863 
z
" transform="scale(0.015625)"/>
      <path id="DejaVuSans-20" transform="scale(0.015625)"/>
      <path id="DejaVuSans-68" d="M 3513 2113 
L 3513 0 
L 2938 0 
L 2938 2094 
Q 2938 2591 2744 2837 
Q 2550 3084 2163 3084 
Q 1697 3084 1428 2787 
Q 1159 2491 1159 1978 
L 1159 0 
L 581 0 
L 581 4863 
L 1159 4863 
L 1159 2956 
Q 1366 3272 1645 3428 
Q 1925 3584 2291 3584 
Q 2894 3584 3203 3211 
Q 3513 2838 3513 2113 
z
" transform="scale(0.015625)"/>
      <path id="DejaVuSans-6f" d="M 1959 3097 
Q 1497 3097 1228 2736 
Q 959 2375 959 1747 
Q 959 1119 1226 758 
Q 1494 397 1959 397 
Q 2419 397 2687 759 
Q 2956 1122 2956 1747 
Q 2956 2369 2687 2733 
Q 2419 3097 1959 3097 
z
M 1959 3584 
Q 2709 3584 3137 3096 
Q 3566 2609 3566 1747 
Q 3566 888 3137 398 
Q 2709 -91 1959 -91 
Q 1206 -91 779 398 
Q 353 888 353 1747 
Q 353 2609 779 3096 
Q 1206 3584 1959 3584 
z
" transform="scale(0.015625)"/>
      <path id="DejaVuSans-79" d="M 2059 -325 
Q 1816 -950 1584 -1140 
Q 1353 -1331 966 -1331 
L 506 -1331 
L 506 -850 
L 844 -850 
Q 1081 -850 1212 -737 
Q 1344 -625 1503 -206 
L 1606 56 
L 191 3500 
L 800 3500 
L 1894 763 
L 2988 3500 
L 3597 3500 
L 2059 -325 
z
" transform="scale(0.015625)"/>
     </defs>
     <use xlink:href="#DejaVuSans-67"/>
     <use xlink:href="#DejaVuSans-65" transform="translate(63.476562 0)"/>
     <use xlink:href="#DejaVuSans-74" transform="translate(125 0)"/>
     <use xlink:href="#DejaVuSans-5f" transform="translate(164.208984 0)"/>
     <use xlink:href="#DejaVuSans-73" transform="translate(214.208984 0)"/>
     <use xlink:href="#DejaVuSans-75" transform="translate(266.308594 0)"/>
     <use xlink:href="#DejaVuSans-62" transform="translate(329.6875 0)"/>
     <use xlink:href="#DejaVuSans-73" transform="translate(393.164062 0)"/>
     <use xlink:href="#DejaVuSans-63" transform="translate(445.263672 0)"/>
     <use xlink:href="#DejaVuSans-72" transform="translate(500.244141 0)"/>
     <use xlink:href="#DejaVuSans-69" transform="translate(541.357422 0)"/>
     <use xlink:href="#DejaVuSans-62" transform="translate(569.140625 0)"/>
     <use xlink:href="#DejaVuSans-65" transform="translate(632.617188 0)"/>
     <use xlink:href="#DejaVuSans-20" transform="translate(694.140625 0)"/>
     <use xlink:href="#DejaVuSans-68" transform="translate(725.927734 0)"/>
     <use xlink:href="#DejaVuSans-69" transform="translate(789.306641 0)"/>
     <use xlink:href="#DejaVuSans-73" transform="translate(817.089844 0)"/>
     <use xlink:href="#DejaVuSans-74" transform="translate(869.189453 0)"/>
     <use xlink:href="#DejaVuSans-6f" transform="translate(908.398438 0)"/>
     <use xlink:href="#DejaVuSans-72" transform="translate(969.580078 0)"/>
     <use xlink:href="#DejaVuSans-79" transform="translate(1010.693359 0)"/>
    </g>
   </g>
   <g id="legend_1">
    <g id="line2d_39">
     <path d="M 815.08 328.498438 
L 825.08 328.498438 
L 835.08 328.498438 
" style="fill: none; stroke: #1f77b4; stroke-width: 1.5; stroke-linecap: square"/>
    </g>
    <g id="text_20">
     <!-- star -->
     <g style="fill: #a9a9a9" transform="translate(843.08 331.998438) scale(0.1 -0.1)">
      <defs>
       <path id="DejaVuSans-61" d="M 2194 1759 
Q 1497 1759 1228 1600 
Q 959 1441 959 1056 
Q 959 750 1161 570 
Q 1363 391 1709 391 
Q 2188 391 2477 730 
Q 2766 1069 2766 1631 
L 2766 1759 
L 2194 1759 
z
M 3341 1997 
L 3341 0 
L 2766 0 
L 2766 531 
Q 2569 213 2275 61 
Q 1981 -91 1556 -91 
Q 1019 -91 701 211 
Q 384 513 384 1019 
Q 384 1609 779 1909 
Q 1175 2209 1959 2209 
L 2766 2209 
L 2766 2266 
Q 2766 2663 2505 2880 
Q 2244 3097 1772 3097 
Q 1472 3097 1187 3025 
Q 903 2953 641 2809 
L 641 3341 
Q 956 3463 1253 3523 
Q 1550 3584 1831 3584 
Q 2591 3584 2966 3190 
Q 3341 2797 3341 1997 
z
" transform="scale(0.015625)"/>
      </defs>
      <use xlink:href="#DejaVuSans-73"/>
      <use xlink:href="#DejaVuSans-74" transform="translate(52.099609 0)"/>
      <use xlink:href="#DejaVuSans-61" transform="translate(91.308594 0)"/>
      <use xlink:href="#DejaVuSans-72" transform="translate(152.587891 0)"/>
     </g>
    </g>
    <g id="line2d_40">
     <path d="M 815.08 343.176562 
L 825.08 343.176562 
L 835.08 343.176562 
" style="fill: none; stroke: #ff7f0e; stroke-width: 1.5; stroke-linecap: square"/>
    </g>
    <g id="text_21">
     <!-- fork -->
     <g style="fill: #a9a9a9" transform="translate(843.08 346.676562) scale(0.1 -0.1)">
      <defs>
       <path id="DejaVuSans-66" d="M 2375 4863 
L 2375 4384 
L 1825 4384 
Q 1516 4384 1395 4259 
Q 1275 4134 1275 3809 
L 1275 3500 
L 2222 3500 
L 2222 3053 
L 1275 3053 
L 1275 0 
L 697 0 
L 697 3053 
L 147 3053 
L 147 3500 
L 697 3500 
L 697 3744 
Q 697 4328 969 4595 
Q 1241 4863 1831 4863 
L 2375 4863 
z
" transform="scale(0.015625)"/>
       <path id="DejaVuSans-6b" d="M 581 4863 
L 1159 4863 
L 1159 1991 
L 2875 3500 
L 3609 3500 
L 1753 1863 
L 3688 0 
L 2938 0 
L 1159 1709 
L 1159 0 
L 581 0 
L 581 4863 
z
" transform="scale(0.015625)"/>
      </defs>
      <use xlink:href="#DejaVuSans-66"/>
      <use xlink:href="#DejaVuSans-6f" transform="translate(35.205078 0)"/>
      <use xlink:href="#DejaVuSans-72" transform="translate(96.386719 0)"/>
      <use xlink:href="#DejaVuSans-6b" transform="translate(137.5 0)"/>
     </g>
    </g>
   </g>
  </g>
 </g>
 <defs>
  <clipPath id="pee4ab9decf">
   <rect x="108" y="43.2" width="669.6" height="277.2"/>
  </clipPath>
 </defs>
</svg>
