<?xml version="1.0" encoding="utf-8" standalone="no"?>
<!DOCTYPE svg PUBLIC "-//W3C//DTD SVG 1.1//EN"
  "http://www.w3.org/Graphics/SVG/1.1/DTD/svg11.dtd">
<svg xmlns:xlink="http://www.w3.org/1999/xlink" width="864pt" height="360pt" viewBox="0 0 864 360" xmlns="http://www.w3.org/2000/svg" version="1.1">
 <metadata>
  <rdf:RDF xmlns:dc="http://purl.org/dc/elements/1.1/" xmlns:cc="http://creativecommons.org/ns#" xmlns:rdf="http://www.w3.org/1999/02/22-rdf-syntax-ns#">
   <cc:Work>
    <dc:type rdf:resource="http://purl.org/dc/dcmitype/StillImage"/>
    <dc:date>2025-09-08T20:08:02.966034</dc:date>
    <dc:format>image/svg+xml</dc:format>
    <dc:creator>
     <cc:Agent>
      <dc:title>Matplotlib v3.10.6, https://matplotlib.org/</dc:title>
     </cc:Agent>
    </dc:creator>
   </cc:Work>
  </rdf:RDF>
 </metadata>
 <defs>
  <style type="text/css">*{stroke-linejoin: round; stroke-linecap: butt}</style>
 </defs>
 <g id="figure_1">
  <g id="patch_1">
   <path d="M 0 360 
L 864 360 
L 864 0 
L 0 0 
L 0 360 
z
" style="fill: none; opacity: 0"/>
  </g>
  <g id="axes_1">
   <g id="patch_2">
    <path d="M 108 320.4 
L 777.6 320.4 
L 777.6 43.2 
L 108 43.2 
L 108 320.4 
z
" style="fill: none; opacity: 0"/>
   </g>
   <g id="matplotlib.axis_1">
    <g id="xtick_1">
     <g id="line2d_1">
      <path d="M 129.145901 320.4 
L 129.145901 43.2 
" clip-path="url(#pc69bde78c8)" style="fill: none; stroke-dasharray: 5.12,1.28,0.8,1.28; stroke-dashoffset: 0; stroke: #b0b0b0; stroke-width: 0.8"/>
     </g>
     <g id="line2d_2">
      <defs>
       <path id="md90cb5561f" d="M 0 0 
L 0 3.5 
" style="stroke: #a9a9a9; stroke-width: 0.8"/>
      </defs>
      <g>
       <use xlink:href="#md90cb5561f" x="129.145901" y="320.4" style="fill: #a9a9a9; stroke: #a9a9a9; stroke-width: 0.8"/>
      </g>
     </g>
     <g id="text_1">
      <!-- 2021-07 -->
      <g style="fill: #a9a9a9" transform="translate(108.254495 334.998438) scale(0.1 -0.1)">
       <defs>
        <path id="DejaVuSans-32" d="M 1228 531 
L 3431 531 
L 3431 0 
L 469 0 
L 469 531 
Q 828 903 1448 1529 
Q 2069 2156 2228 2338 
Q 2531 2678 2651 2914 
Q 2772 3150 2772 3378 
Q 2772 3750 2511 3984 
Q 2250 4219 1831 4219 
Q 1534 4219 1204 4116 
Q 875 4013 500 3803 
L 500 4441 
Q 881 4594 1212 4672 
Q 1544 4750 1819 4750 
Q 2544 4750 2975 4387 
Q 3406 4025 3406 3419 
Q 3406 3131 3298 2873 
Q 3191 2616 2906 2266 
Q 2828 2175 2409 1742 
Q 1991 1309 1228 531 
z
" transform="scale(0.015625)"/>
        <path id="DejaVuSans-30" d="M 2034 4250 
Q 1547 4250 1301 3770 
Q 1056 3291 1056 2328 
Q 1056 1369 1301 889 
Q 1547 409 2034 409 
Q 2525 409 2770 889 
Q 3016 1369 3016 2328 
Q 3016 3291 2770 3770 
Q 2525 4250 2034 4250 
z
M 2034 4750 
Q 2819 4750 3233 4129 
Q 3647 3509 3647 2328 
Q 3647 1150 3233 529 
Q 2819 -91 2034 -91 
Q 1250 -91 836 529 
Q 422 1150 422 2328 
Q 422 3509 836 4129 
Q 1250 4750 2034 4750 
z
" transform="scale(0.015625)"/>
        <path id="DejaVuSans-31" d="M 794 531 
L 1825 531 
L 1825 4091 
L 703 3866 
L 703 4441 
L 1819 4666 
L 2450 4666 
L 2450 531 
L 3481 531 
L 3481 0 
L 794 0 
L 794 531 
z
" transform="scale(0.015625)"/>
        <path id="DejaVuSans-2d" d="M 313 2009 
L 1997 2009 
L 1997 1497 
L 313 1497 
L 313 2009 
z
" transform="scale(0.015625)"/>
        <path id="DejaVuSans-37" d="M 525 4666 
L 3525 4666 
L 3525 4397 
L 1831 0 
L 1172 0 
L 2766 4134 
L 525 4134 
L 525 4666 
z
" transform="scale(0.015625)"/>
       </defs>
       <use xlink:href="#DejaVuSans-32"/>
       <use xlink:href="#DejaVuSans-30" transform="translate(63.623047 0)"/>
       <use xlink:href="#DejaVuSans-32" transform="translate(127.246094 0)"/>
       <use xlink:href="#DejaVuSans-31" transform="translate(190.869141 0)"/>
       <use xlink:href="#DejaVuSans-2d" transform="translate(254.492188 0)"/>
       <use xlink:href="#DejaVuSans-30" transform="translate(290.576172 0)"/>
       <use xlink:href="#DejaVuSans-37" transform="translate(354.199219 0)"/>
      </g>
     </g>
    </g>
    <g id="xtick_2">
     <g id="line2d_3">
      <path d="M 203.469602 320.4 
L 203.469602 43.2 
" clip-path="url(#pc69bde78c8)" style="fill: none; stroke-dasharray: 5.12,1.28,0.8,1.28; stroke-dashoffset: 0; stroke: #b0b0b0; stroke-width: 0.8"/>
     </g>
     <g id="line2d_4">
      <g>
       <use xlink:href="#md90cb5561f" x="203.469602" y="320.4" style="fill: #a9a9a9; stroke: #a9a9a9; stroke-width: 0.8"/>
      </g>
     </g>
     <g id="text_2">
      <!-- 2022-01 -->
      <g style="fill: #a9a9a9" transform="translate(182.578196 334.998438) scale(0.1 -0.1)">
       <use xlink:href="#DejaVuSans-32"/>
       <use xlink:href="#DejaVuSans-30" transform="translate(63.623047 0)"/>
       <use xlink:href="#DejaVuSans-32" transform="translate(127.246094 0)"/>
       <use xlink:href="#DejaVuSans-32" transform="translate(190.869141 0)"/>
       <use xlink:href="#DejaVuSans-2d" transform="translate(254.492188 0)"/>
       <use xlink:href="#DejaVuSans-30" transform="translate(290.576172 0)"/>
       <use xlink:href="#DejaVuSans-31" transform="translate(354.199219 0)"/>
      </g>
     </g>
    </g>
    <g id="xtick_3">
     <g id="line2d_5">
      <path d="M 276.581504 320.4 
L 276.581504 43.2 
" clip-path="url(#pc69bde78c8)" style="fill: none; stroke-dasharray: 5.12,1.28,0.8,1.28; stroke-dashoffset: 0; stroke: #b0b0b0; stroke-width: 0.8"/>
     </g>
     <g id="line2d_6">
      <g>
       <use xlink:href="#md90cb5561f" x="276.581504" y="320.4" style="fill: #a9a9a9; stroke: #a9a9a9; stroke-width: 0.8"/>
      </g>
     </g>
     <g id="text_3">
      <!-- 2022-07 -->
      <g style="fill: #a9a9a9" transform="translate(255.690098 334.998438) scale(0.1 -0.1)">
       <use xlink:href="#DejaVuSans-32"/>
       <use xlink:href="#DejaVuSans-30" transform="translate(63.623047 0)"/>
       <use xlink:href="#DejaVuSans-32" transform="translate(127.246094 0)"/>
       <use xlink:href="#DejaVuSans-32" transform="translate(190.869141 0)"/>
       <use xlink:href="#DejaVuSans-2d" transform="translate(254.492188 0)"/>
       <use xlink:href="#DejaVuSans-30" transform="translate(290.576172 0)"/>
       <use xlink:href="#DejaVuSans-37" transform="translate(354.199219 0)"/>
      </g>
     </g>
    </g>
    <g id="xtick_4">
     <g id="line2d_7">
      <path d="M 350.905206 320.4 
L 350.905206 43.2 
" clip-path="url(#pc69bde78c8)" style="fill: none; stroke-dasharray: 5.12,1.28,0.8,1.28; stroke-dashoffset: 0; stroke: #b0b0b0; stroke-width: 0.8"/>
     </g>
     <g id="line2d_8">
      <g>
       <use xlink:href="#md90cb5561f" x="350.905206" y="320.4" style="fill: #a9a9a9; stroke: #a9a9a9; stroke-width: 0.8"/>
      </g>
     </g>
     <g id="text_4">
      <!-- 2023-01 -->
      <g style="fill: #a9a9a9" transform="translate(330.0138 334.998438) scale(0.1 -0.1)">
       <defs>
        <path id="DejaVuSans-33" d="M 2597 2516 
Q 3050 2419 3304 2112 
Q 3559 1806 3559 1356 
Q 3559 666 3084 287 
Q 2609 -91 1734 -91 
Q 1441 -91 1130 -33 
Q 819 25 488 141 
L 488 750 
Q 750 597 1062 519 
Q 1375 441 1716 441 
Q 2309 441 2620 675 
Q 2931 909 2931 1356 
Q 2931 1769 2642 2001 
Q 2353 2234 1838 2234 
L 1294 2234 
L 1294 2753 
L 1863 2753 
Q 2328 2753 2575 2939 
Q 2822 3125 2822 3475 
Q 2822 3834 2567 4026 
Q 2313 4219 1838 4219 
Q 1578 4219 1281 4162 
Q 984 4106 628 3988 
L 628 4550 
Q 988 4650 1302 4700 
Q 1616 4750 1894 4750 
Q 2613 4750 3031 4423 
Q 3450 4097 3450 3541 
Q 3450 3153 3228 2886 
Q 3006 2619 2597 2516 
z
" transform="scale(0.015625)"/>
       </defs>
       <use xlink:href="#DejaVuSans-32"/>
       <use xlink:href="#DejaVuSans-30" transform="translate(63.623047 0)"/>
       <use xlink:href="#DejaVuSans-32" transform="translate(127.246094 0)"/>
       <use xlink:href="#DejaVuSans-33" transform="translate(190.869141 0)"/>
       <use xlink:href="#DejaVuSans-2d" transform="translate(254.492188 0)"/>
       <use xlink:href="#DejaVuSans-30" transform="translate(290.576172 0)"/>
       <use xlink:href="#DejaVuSans-31" transform="translate(354.199219 0)"/>
      </g>
     </g>
    </g>
    <g id="xtick_5">
     <g id="line2d_9">
      <path d="M 424.017108 320.4 
L 424.017108 43.2 
" clip-path="url(#pc69bde78c8)" style="fill: none; stroke-dasharray: 5.12,1.28,0.8,1.28; stroke-dashoffset: 0; stroke: #b0b0b0; stroke-width: 0.8"/>
     </g>
     <g id="line2d_10">
      <g>
       <use xlink:href="#md90cb5561f" x="424.017108" y="320.4" style="fill: #a9a9a9; stroke: #a9a9a9; stroke-width: 0.8"/>
      </g>
     </g>
     <g id="text_5">
      <!-- 2023-07 -->
      <g style="fill: #a9a9a9" transform="translate(403.125702 334.998438) scale(0.1 -0.1)">
       <use xlink:href="#DejaVuSans-32"/>
       <use xlink:href="#DejaVuSans-30" transform="translate(63.623047 0)"/>
       <use xlink:href="#DejaVuSans-32" transform="translate(127.246094 0)"/>
       <use xlink:href="#DejaVuSans-33" transform="translate(190.869141 0)"/>
       <use xlink:href="#DejaVuSans-2d" transform="translate(254.492188 0)"/>
       <use xlink:href="#DejaVuSans-30" transform="translate(290.576172 0)"/>
       <use xlink:href="#DejaVuSans-37" transform="translate(354.199219 0)"/>
      </g>
     </g>
    </g>
    <g id="xtick_6">
     <g id="line2d_11">
      <path d="M 498.34081 320.4 
L 498.34081 43.2 
" clip-path="url(#pc69bde78c8)" style="fill: none; stroke-dasharray: 5.12,1.28,0.8,1.28; stroke-dashoffset: 0; stroke: #b0b0b0; stroke-width: 0.8"/>
     </g>
     <g id="line2d_12">
      <g>
       <use xlink:href="#md90cb5561f" x="498.34081" y="320.4" style="fill: #a9a9a9; stroke: #a9a9a9; stroke-width: 0.8"/>
      </g>
     </g>
     <g id="text_6">
      <!-- 2024-01 -->
      <g style="fill: #a9a9a9" transform="translate(477.449403 334.998438) scale(0.1 -0.1)">
       <defs>
        <path id="DejaVuSans-34" d="M 2419 4116 
L 825 1625 
L 2419 1625 
L 2419 4116 
z
M 2253 4666 
L 3047 4666 
L 3047 1625 
L 3713 1625 
L 3713 1100 
L 3047 1100 
L 3047 0 
L 2419 0 
L 2419 1100 
L 313 1100 
L 313 1709 
L 2253 4666 
z
" transform="scale(0.015625)"/>
       </defs>
       <use xlink:href="#DejaVuSans-32"/>
       <use xlink:href="#DejaVuSans-30" transform="translate(63.623047 0)"/>
       <use xlink:href="#DejaVuSans-32" transform="translate(127.246094 0)"/>
       <use xlink:href="#DejaVuSans-34" transform="translate(190.869141 0)"/>
       <use xlink:href="#DejaVuSans-2d" transform="translate(254.492188 0)"/>
       <use xlink:href="#DejaVuSans-30" transform="translate(290.576172 0)"/>
       <use xlink:href="#DejaVuSans-31" transform="translate(354.199219 0)"/>
      </g>
     </g>
    </g>
    <g id="xtick_7">
     <g id="line2d_13">
      <path d="M 571.856645 320.4 
L 571.856645 43.2 
" clip-path="url(#pc69bde78c8)" style="fill: none; stroke-dasharray: 5.12,1.28,0.8,1.28; stroke-dashoffset: 0; stroke: #b0b0b0; stroke-width: 0.8"/>
     </g>
     <g id="line2d_14">
      <g>
       <use xlink:href="#md90cb5561f" x="571.856645" y="320.4" style="fill: #a9a9a9; stroke: #a9a9a9; stroke-width: 0.8"/>
      </g>
     </g>
     <g id="text_7">
      <!-- 2024-07 -->
      <g style="fill: #a9a9a9" transform="translate(550.965238 334.998438) scale(0.1 -0.1)">
       <use xlink:href="#DejaVuSans-32"/>
       <use xlink:href="#DejaVuSans-30" transform="translate(63.623047 0)"/>
       <use xlink:href="#DejaVuSans-32" transform="translate(127.246094 0)"/>
       <use xlink:href="#DejaVuSans-34" transform="translate(190.869141 0)"/>
       <use xlink:href="#DejaVuSans-2d" transform="translate(254.492188 0)"/>
       <use xlink:href="#DejaVuSans-30" transform="translate(290.576172 0)"/>
       <use xlink:href="#DejaVuSans-37" transform="translate(354.199219 0)"/>
      </g>
     </g>
    </g>
    <g id="xtick_8">
     <g id="line2d_15">
      <path d="M 646.180346 320.4 
L 646.180346 43.2 
" clip-path="url(#pc69bde78c8)" style="fill: none; stroke-dasharray: 5.12,1.28,0.8,1.28; stroke-dashoffset: 0; stroke: #b0b0b0; stroke-width: 0.8"/>
     </g>
     <g id="line2d_16">
      <g>
       <use xlink:href="#md90cb5561f" x="646.180346" y="320.4" style="fill: #a9a9a9; stroke: #a9a9a9; stroke-width: 0.8"/>
      </g>
     </g>
     <g id="text_8">
      <!-- 2025-01 -->
      <g style="fill: #a9a9a9" transform="translate(625.28894 334.998438) scale(0.1 -0.1)">
       <defs>
        <path id="DejaVuSans-35" d="M 691 4666 
L 3169 4666 
L 3169 4134 
L 1269 4134 
L 1269 2991 
Q 1406 3038 1543 3061 
Q 1681 3084 1819 3084 
Q 2600 3084 3056 2656 
Q 3513 2228 3513 1497 
Q 3513 744 3044 326 
Q 2575 -91 1722 -91 
Q 1428 -91 1123 -41 
Q 819 9 494 109 
L 494 744 
Q 775 591 1075 516 
Q 1375 441 1709 441 
Q 2250 441 2565 725 
Q 2881 1009 2881 1497 
Q 2881 1984 2565 2268 
Q 2250 2553 1709 2553 
Q 1456 2553 1204 2497 
Q 953 2441 691 2322 
L 691 4666 
z
" transform="scale(0.015625)"/>
       </defs>
       <use xlink:href="#DejaVuSans-32"/>
       <use xlink:href="#DejaVuSans-30" transform="translate(63.623047 0)"/>
       <use xlink:href="#DejaVuSans-32" transform="translate(127.246094 0)"/>
       <use xlink:href="#DejaVuSans-35" transform="translate(190.869141 0)"/>
       <use xlink:href="#DejaVuSans-2d" transform="translate(254.492188 0)"/>
       <use xlink:href="#DejaVuSans-30" transform="translate(290.576172 0)"/>
       <use xlink:href="#DejaVuSans-31" transform="translate(354.199219 0)"/>
      </g>
     </g>
    </g>
    <g id="xtick_9">
     <g id="line2d_17">
      <path d="M 719.292248 320.4 
L 719.292248 43.2 
" clip-path="url(#pc69bde78c8)" style="fill: none; stroke-dasharray: 5.12,1.28,0.8,1.28; stroke-dashoffset: 0; stroke: #b0b0b0; stroke-width: 0.8"/>
     </g>
     <g id="line2d_18">
      <g>
       <use xlink:href="#md90cb5561f" x="719.292248" y="320.4" style="fill: #a9a9a9; stroke: #a9a9a9; stroke-width: 0.8"/>
      </g>
     </g>
     <g id="text_9">
      <!-- 2025-07 -->
      <g style="fill: #a9a9a9" transform="translate(698.400842 334.998438) scale(0.1 -0.1)">
       <use xlink:href="#DejaVuSans-32"/>
       <use xlink:href="#DejaVuSans-30" transform="translate(63.623047 0)"/>
       <use xlink:href="#DejaVuSans-32" transform="translate(127.246094 0)"/>
       <use xlink:href="#DejaVuSans-35" transform="translate(190.869141 0)"/>
       <use xlink:href="#DejaVuSans-2d" transform="translate(254.492188 0)"/>
       <use xlink:href="#DejaVuSans-30" transform="translate(290.576172 0)"/>
       <use xlink:href="#DejaVuSans-37" transform="translate(354.199219 0)"/>
      </g>
     </g>
    </g>
   </g>
   <g id="matplotlib.axis_2">
    <g id="ytick_1">
     <g id="line2d_19">
      <path d="M 108 307.831027 
L 777.6 307.831027 
" clip-path="url(#pc69bde78c8)" style="fill: none; stroke-dasharray: 5.12,1.28,0.8,1.28; stroke-dashoffset: 0; stroke: #b0b0b0; stroke-width: 0.8"/>
     </g>
     <g id="line2d_20">
      <defs>
       <path id="m688457d540" d="M 0 0 
L -3.5 0 
" style="stroke: #a9a9a9; stroke-width: 0.8"/>
      </defs>
      <g>
       <use xlink:href="#m688457d540" x="108" y="307.831027" style="fill: #a9a9a9; stroke: #a9a9a9; stroke-width: 0.8"/>
      </g>
     </g>
     <g id="text_10">
      <!-- 0 -->
      <g style="fill: #a9a9a9" transform="translate(94.6375 311.630246) scale(0.1 -0.1)">
       <use xlink:href="#DejaVuSans-30"/>
      </g>
     </g>
    </g>
    <g id="ytick_2">
     <g id="line2d_21">
      <path d="M 108 276.804186 
L 777.6 276.804186 
" clip-path="url(#pc69bde78c8)" style="fill: none; stroke-dasharray: 5.12,1.28,0.8,1.28; stroke-dashoffset: 0; stroke: #b0b0b0; stroke-width: 0.8"/>
     </g>
     <g id="line2d_22">
      <g>
       <use xlink:href="#m688457d540" x="108" y="276.804186" style="fill: #a9a9a9; stroke: #a9a9a9; stroke-width: 0.8"/>
      </g>
     </g>
     <g id="text_11">
      <!-- 1000 -->
      <g style="fill: #a9a9a9" transform="translate(75.55 280.603405) scale(0.1 -0.1)">
       <use xlink:href="#DejaVuSans-31"/>
       <use xlink:href="#DejaVuSans-30" transform="translate(63.623047 0)"/>
       <use xlink:href="#DejaVuSans-30" transform="translate(127.246094 0)"/>
       <use xlink:href="#DejaVuSans-30" transform="translate(190.869141 0)"/>
      </g>
     </g>
    </g>
    <g id="ytick_3">
     <g id="line2d_23">
      <path d="M 108 245.777345 
L 777.6 245.777345 
" clip-path="url(#pc69bde78c8)" style="fill: none; stroke-dasharray: 5.12,1.28,0.8,1.28; stroke-dashoffset: 0; stroke: #b0b0b0; stroke-width: 0.8"/>
     </g>
     <g id="line2d_24">
      <g>
       <use xlink:href="#m688457d540" x="108" y="245.777345" style="fill: #a9a9a9; stroke: #a9a9a9; stroke-width: 0.8"/>
      </g>
     </g>
     <g id="text_12">
      <!-- 2000 -->
      <g style="fill: #a9a9a9" transform="translate(75.55 249.576564) scale(0.1 -0.1)">
       <use xlink:href="#DejaVuSans-32"/>
       <use xlink:href="#DejaVuSans-30" transform="translate(63.623047 0)"/>
       <use xlink:href="#DejaVuSans-30" transform="translate(127.246094 0)"/>
       <use xlink:href="#DejaVuSans-30" transform="translate(190.869141 0)"/>
      </g>
     </g>
    </g>
    <g id="ytick_4">
     <g id="line2d_25">
      <path d="M 108 214.750505 
L 777.6 214.750505 
" clip-path="url(#pc69bde78c8)" style="fill: none; stroke-dasharray: 5.12,1.28,0.8,1.28; stroke-dashoffset: 0; stroke: #b0b0b0; stroke-width: 0.8"/>
     </g>
     <g id="line2d_26">
      <g>
       <use xlink:href="#m688457d540" x="108" y="214.750505" style="fill: #a9a9a9; stroke: #a9a9a9; stroke-width: 0.8"/>
      </g>
     </g>
     <g id="text_13">
      <!-- 3000 -->
      <g style="fill: #a9a9a9" transform="translate(75.55 218.549724) scale(0.1 -0.1)">
       <use xlink:href="#DejaVuSans-33"/>
       <use xlink:href="#DejaVuSans-30" transform="translate(63.623047 0)"/>
       <use xlink:href="#DejaVuSans-30" transform="translate(127.246094 0)"/>
       <use xlink:href="#DejaVuSans-30" transform="translate(190.869141 0)"/>
      </g>
     </g>
    </g>
    <g id="ytick_5">
     <g id="line2d_27">
      <path d="M 108 183.723664 
L 777.6 183.723664 
" clip-path="url(#pc69bde78c8)" style="fill: none; stroke-dasharray: 5.12,1.28,0.8,1.28; stroke-dashoffset: 0; stroke: #b0b0b0; stroke-width: 0.8"/>
     </g>
     <g id="line2d_28">
      <g>
       <use xlink:href="#m688457d540" x="108" y="183.723664" style="fill: #a9a9a9; stroke: #a9a9a9; stroke-width: 0.8"/>
      </g>
     </g>
     <g id="text_14">
      <!-- 4000 -->
      <g style="fill: #a9a9a9" transform="translate(75.55 187.522883) scale(0.1 -0.1)">
       <use xlink:href="#DejaVuSans-34"/>
       <use xlink:href="#DejaVuSans-30" transform="translate(63.623047 0)"/>
       <use xlink:href="#DejaVuSans-30" transform="translate(127.246094 0)"/>
       <use xlink:href="#DejaVuSans-30" transform="translate(190.869141 0)"/>
      </g>
     </g>
    </g>
    <g id="ytick_6">
     <g id="line2d_29">
      <path d="M 108 152.696823 
L 777.6 152.696823 
" clip-path="url(#pc69bde78c8)" style="fill: none; stroke-dasharray: 5.12,1.28,0.8,1.28; stroke-dashoffset: 0; stroke: #b0b0b0; stroke-width: 0.8"/>
     </g>
     <g id="line2d_30">
      <g>
       <use xlink:href="#m688457d540" x="108" y="152.696823" style="fill: #a9a9a9; stroke: #a9a9a9; stroke-width: 0.8"/>
      </g>
     </g>
     <g id="text_15">
      <!-- 5000 -->
      <g style="fill: #a9a9a9" transform="translate(75.55 156.496042) scale(0.1 -0.1)">
       <use xlink:href="#DejaVuSans-35"/>
       <use xlink:href="#DejaVuSans-30" transform="translate(63.623047 0)"/>
       <use xlink:href="#DejaVuSans-30" transform="translate(127.246094 0)"/>
       <use xlink:href="#DejaVuSans-30" transform="translate(190.869141 0)"/>
      </g>
     </g>
    </g>
    <g id="ytick_7">
     <g id="line2d_31">
      <path d="M 108 121.669983 
L 777.6 121.669983 
" clip-path="url(#pc69bde78c8)" style="fill: none; stroke-dasharray: 5.12,1.28,0.8,1.28; stroke-dashoffset: 0; stroke: #b0b0b0; stroke-width: 0.8"/>
     </g>
     <g id="line2d_32">
      <g>
       <use xlink:href="#m688457d540" x="108" y="121.669983" style="fill: #a9a9a9; stroke: #a9a9a9; stroke-width: 0.8"/>
      </g>
     </g>
     <g id="text_16">
      <!-- 6000 -->
      <g style="fill: #a9a9a9" transform="translate(75.55 125.469202) scale(0.1 -0.1)">
       <defs>
        <path id="DejaVuSans-36" d="M 2113 2584 
Q 1688 2584 1439 2293 
Q 1191 2003 1191 1497 
Q 1191 994 1439 701 
Q 1688 409 2113 409 
Q 2538 409 2786 701 
Q 3034 994 3034 1497 
Q 3034 2003 2786 2293 
Q 2538 2584 2113 2584 
z
M 3366 4563 
L 3366 3988 
Q 3128 4100 2886 4159 
Q 2644 4219 2406 4219 
Q 1781 4219 1451 3797 
Q 1122 3375 1075 2522 
Q 1259 2794 1537 2939 
Q 1816 3084 2150 3084 
Q 2853 3084 3261 2657 
Q 3669 2231 3669 1497 
Q 3669 778 3244 343 
Q 2819 -91 2113 -91 
Q 1303 -91 875 529 
Q 447 1150 447 2328 
Q 447 3434 972 4092 
Q 1497 4750 2381 4750 
Q 2619 4750 2861 4703 
Q 3103 4656 3366 4563 
z
" transform="scale(0.015625)"/>
       </defs>
       <use xlink:href="#DejaVuSans-36"/>
       <use xlink:href="#DejaVuSans-30" transform="translate(63.623047 0)"/>
       <use xlink:href="#DejaVuSans-30" transform="translate(127.246094 0)"/>
       <use xlink:href="#DejaVuSans-30" transform="translate(190.869141 0)"/>
      </g>
     </g>
    </g>
    <g id="ytick_8">
     <g id="line2d_33">
      <path d="M 108 90.643142 
L 777.6 90.643142 
" clip-path="url(#pc69bde78c8)" style="fill: none; stroke-dasharray: 5.12,1.28,0.8,1.28; stroke-dashoffset: 0; stroke: #b0b0b0; stroke-width: 0.8"/>
     </g>
     <g id="line2d_34">
      <g>
       <use xlink:href="#m688457d540" x="108" y="90.643142" style="fill: #a9a9a9; stroke: #a9a9a9; stroke-width: 0.8"/>
      </g>
     </g>
     <g id="text_17">
      <!-- 7000 -->
      <g style="fill: #a9a9a9" transform="translate(75.55 94.442361) scale(0.1 -0.1)">
       <use xlink:href="#DejaVuSans-37"/>
       <use xlink:href="#DejaVuSans-30" transform="translate(63.623047 0)"/>
       <use xlink:href="#DejaVuSans-30" transform="translate(127.246094 0)"/>
       <use xlink:href="#DejaVuSans-30" transform="translate(190.869141 0)"/>
      </g>
     </g>
    </g>
    <g id="ytick_9">
     <g id="line2d_35">
      <path d="M 108 59.616301 
L 777.6 59.616301 
" clip-path="url(#pc69bde78c8)" style="fill: none; stroke-dasharray: 5.12,1.28,0.8,1.28; stroke-dashoffset: 0; stroke: #b0b0b0; stroke-width: 0.8"/>
     </g>
     <g id="line2d_36">
      <g>
       <use xlink:href="#m688457d540" x="108" y="59.616301" style="fill: #a9a9a9; stroke: #a9a9a9; stroke-width: 0.8"/>
      </g>
     </g>
     <g id="text_18">
      <!-- 8000 -->
      <g style="fill: #a9a9a9" transform="translate(75.55 63.41552) scale(0.1 -0.1)">
       <defs>
        <path id="DejaVuSans-38" d="M 2034 2216 
Q 1584 2216 1326 1975 
Q 1069 1734 1069 1313 
Q 1069 891 1326 650 
Q 1584 409 2034 409 
Q 2484 409 2743 651 
Q 3003 894 3003 1313 
Q 3003 1734 2745 1975 
Q 2488 2216 2034 2216 
z
M 1403 2484 
Q 997 2584 770 2862 
Q 544 3141 544 3541 
Q 544 4100 942 4425 
Q 1341 4750 2034 4750 
Q 2731 4750 3128 4425 
Q 3525 4100 3525 3541 
Q 3525 3141 3298 2862 
Q 3072 2584 2669 2484 
Q 3125 2378 3379 2068 
Q 3634 1759 3634 1313 
Q 3634 634 3220 271 
Q 2806 -91 2034 -91 
Q 1263 -91 848 271 
Q 434 634 434 1313 
Q 434 1759 690 2068 
Q 947 2378 1403 2484 
z
M 1172 3481 
Q 1172 3119 1398 2916 
Q 1625 2713 2034 2713 
Q 2441 2713 2670 2916 
Q 2900 3119 2900 3481 
Q 2900 3844 2670 4047 
Q 2441 4250 2034 4250 
Q 1625 4250 1398 4047 
Q 1172 3844 1172 3481 
z
" transform="scale(0.015625)"/>
       </defs>
       <use xlink:href="#DejaVuSans-38"/>
       <use xlink:href="#DejaVuSans-30" transform="translate(63.623047 0)"/>
       <use xlink:href="#DejaVuSans-30" transform="translate(127.246094 0)"/>
       <use xlink:href="#DejaVuSans-30" transform="translate(190.869141 0)"/>
      </g>
     </g>
    </g>
   </g>
   <g id="line2d_37">
    <path d="M 138.436364 307.737946 
L 140.859963 307.520758 
L 141.263896 307.334597 
L 142.879628 307.11741 
L 144.495361 306.776114 
L 145.303227 306.652007 
L 147.322893 306.465846 
L 148.130759 306.124551 
L 148.534693 305.566067 
L 148.938626 305.286826 
L 149.342559 304.356021 
L 149.746492 304.293967 
L 150.150425 303.952672 
L 150.958292 303.518296 
L 152.574024 302.153115 
L 154.189757 301.31539 
L 155.401556 300.72588 
L 155.80549 300.04329 
L 156.613356 299.422753 
L 157.017289 299.236592 
L 161.056621 298.616055 
L 161.460554 298.429894 
L 164.288086 298.181679 
L 165.903819 297.77833 
L 169.135284 297.312928 
L 169.539217 297.09574 
L 169.94315 297.033686 
L 170.751016 296.754445 
L 173.578549 296.258015 
L 174.386415 296.009801 
L 178.021813 295.389264 
L 178.82968 295.203103 
L 179.637546 295.172076 
L 181.253279 294.768727 
L 181.657212 294.179217 
L 182.869011 293.682787 
L 184.080811 293.341492 
L 184.484744 293.124304 
L 185.29261 292.96917 
L 186.908343 292.472741 
L 187.716209 292.410687 
L 188.524076 292.193499 
L 190.139808 291.759123 
L 190.543741 291.728097 
L 191.351608 291.324748 
L 191.755541 291.262694 
L 192.159474 291.045506 
L 196.602739 290.269835 
L 198.218471 289.773406 
L 198.622405 289.494164 
L 200.64207 288.811574 
L 201.449937 288.222064 
L 202.661736 287.973849 
L 207.912867 286.422507 
L 208.3168 286.360453 
L 209.932533 285.708889 
L 210.336466 285.646836 
L 211.144333 285.305541 
L 211.952199 285.274514 
L 213.163998 284.902192 
L 213.567931 284.902192 
L 213.971865 284.716031 
L 214.779731 284.62295 
L 215.183664 284.467816 
L 216.799397 284.405762 
L 217.607263 284.250628 
L 218.415129 283.816252 
L 219.626929 283.35085 
L 220.434795 282.916474 
L 221.646595 282.389017 
L 223.262327 281.551293 
L 223.66626 281.08589 
L 224.474127 279.782763 
L 224.87806 279.658656 
L 225.281993 279.658656 
L 226.897726 278.72785 
L 227.301659 278.63477 
L 227.705592 278.231421 
L 228.513458 277.890126 
L 229.321325 277.517803 
L 229.725258 277.021374 
L 230.129191 276.338784 
L 230.533124 276.059542 
L 230.937057 275.314898 
L 231.340991 274.849495 
L 233.764589 273.484314 
L 235.380322 271.995026 
L 235.784255 271.033194 
L 236.188188 270.412657 
L 236.592122 270.071362 
L 236.996055 269.885201 
L 240.22752 266.813543 
L 241.035386 266.037872 
L 243.458985 264.455504 
L 243.862919 264.300369 
L 245.478651 263.30751 
L 245.882584 263.121349 
L 247.90225 261.197685 
L 248.710116 260.85639 
L 249.517983 260.26688 
L 249.921916 260.018665 
L 250.325849 259.956612 
L 251.537649 259.242994 
L 251.941582 258.777592 
L 253.961248 257.629599 
L 254.365181 257.474464 
L 255.57698 256.605713 
L 261.635978 254.37178 
L 262.443844 253.596109 
L 263.655643 252.975573 
L 264.46351 252.448116 
L 265.271376 252.199902 
L 265.675309 251.92066 
L 266.079242 251.796553 
L 267.291042 250.958828 
L 269.310708 250.493425 
L 270.522507 249.748781 
L 271.734307 249.46954 
L 272.13824 249.376459 
L 273.350039 248.445654 
L 274.965772 247.980251 
L 275.369705 247.638956 
L 277.793304 246.770204 
L 278.60117 246.61507 
L 279.409037 246.273775 
L 282.236569 245.187836 
L 283.044435 245.094755 
L 284.256235 244.660379 
L 286.2759 243.636493 
L 288.699499 242.240286 
L 289.507366 242.023098 
L 290.719165 241.402561 
L 291.527031 241.247427 
L 292.334898 240.750997 
L 293.142764 240.533809 
L 294.354564 240.03738 
L 295.970296 239.820192 
L 296.778163 239.385816 
L 297.182096 239.013494 
L 297.586029 238.26885 
L 299.201761 237.803447 
L 300.817494 237.058803 
L 303.241093 235.879783 
L 304.048959 235.476434 
L 305.260759 235.22822 
L 306.472558 234.607683 
L 306.876492 234.545629 
L 308.896157 233.521743 
L 309.704024 232.994287 
L 310.915823 232.746072 
L 312.935489 232.218616 
L 313.339422 231.877321 
L 314.147288 231.598079 
L 316.166954 230.760355 
L 316.570887 230.450086 
L 316.974821 230.294952 
L 317.782687 229.829549 
L 319.398419 229.302093 
L 320.206286 228.774637 
L 320.610219 228.340261 
L 321.014152 228.092046 
L 321.418085 227.998966 
L 322.225952 227.316375 
L 322.629885 227.254322 
L 323.033818 226.571731 
L 323.437751 226.38557 
L 323.841684 226.044275 
L 324.245617 225.982221 
L 325.053484 225.454765 
L 325.86135 225.175523 
L 326.265283 224.865255 
L 326.669216 224.710121 
L 328.284949 223.593154 
L 329.496749 222.972618 
L 330.304615 222.75543 
L 331.112481 222.290027 
L 331.516414 221.57641 
L 332.324281 220.955873 
L 332.728214 220.862792 
L 335.151813 219.652746 
L 335.959679 219.31145 
L 336.767545 218.72194 
L 337.979345 217.573947 
L 338.787211 217.077518 
L 339.191144 216.612115 
L 340.806877 215.464122 
L 341.614743 214.626397 
L 342.42261 214.347156 
L 343.230476 213.788673 
L 344.442275 213.137109 
L 344.846209 213.075055 
L 348.481607 211.182418 
L 349.693407 210.810096 
L 350.905206 210.344693 
L 351.309139 210.003398 
L 352.924872 209.351835 
L 353.328805 209.227727 
L 354.136671 208.700271 
L 354.944538 208.358976 
L 355.752404 207.769466 
L 356.56027 206.125043 
L 357.368137 205.194238 
L 358.579936 204.542674 
L 359.387802 204.201379 
L 359.791736 204.139325 
L 360.599602 203.767003 
L 362.215334 203.20852 
L 363.023201 202.743117 
L 363.831067 202.339769 
L 364.235 202.215661 
L 366.658599 200.726373 
L 367.062532 200.26097 
L 368.274332 199.547353 
L 368.678265 199.392219 
L 369.486131 198.895789 
L 371.101864 197.996011 
L 371.505797 197.90293 
L 371.90973 197.561635 
L 374.737262 196.599803 
L 375.141196 196.320561 
L 375.949062 196.072347 
L 376.756928 195.731051 
L 377.160861 195.389756 
L 378.776594 194.800246 
L 379.58446 194.210736 
L 380.392327 193.869441 
L 381.200193 193.217877 
L 382.008059 192.969663 
L 382.411993 192.597341 
L 382.815926 192.535287 
L 383.623792 191.91475 
L 385.643458 190.704703 
L 386.451324 190.456489 
L 386.855257 190.208274 
L 387.25919 190.14622 
L 388.47099 189.46363 
L 394.529987 187.539966 
L 395.741787 186.671214 
L 396.14572 186.51608 
L 396.953586 186.050677 
L 397.357519 185.92657 
L 399.781118 184.530362 
L 400.185052 184.437281 
L 401.396851 183.692637 
L 402.608651 183.258262 
L 403.416517 182.97902 
L 405.03225 182.420537 
L 405.840116 182.141295 
L 407.455848 181.8 
L 407.859782 181.613839 
L 408.667648 181.396651 
L 409.071581 181.21049 
L 409.475514 181.148436 
L 409.879447 180.931248 
L 410.687314 180.776114 
L 411.899113 180.310712 
L 413.110913 180.124551 
L 415.534512 179.659148 
L 416.746311 179.379906 
L 417.150244 179.193745 
L 417.958111 179.038611 
L 418.765977 178.821423 
L 419.573843 178.449101 
L 419.977776 178.293967 
L 420.38171 178.293967 
L 424.824974 176.897759 
L 425.228908 176.680571 
L 425.632841 176.680571 
L 426.440707 176.370303 
L 426.84464 175.935927 
L 429.268239 174.912041 
L 430.883972 174.353558 
L 431.287905 174.105344 
L 432.499704 173.733021 
L 433.307571 173.515834 
L 433.711504 173.236592 
L 434.115437 173.143511 
L 434.51937 172.771189 
L 435.73117 172.522975 
L 436.539036 172.150653 
L 436.942969 171.654223 
L 441.386234 170.661364 
L 441.790167 170.661364 
L 442.1941 170.475203 
L 443.809833 170.164935 
L 444.213766 169.978774 
L 445.829499 169.668505 
L 446.637365 169.32721 
L 447.445231 169.172076 
L 449.464897 168.64462 
L 451.08063 168.117163 
L 451.484563 168.024083 
L 451.888496 167.806895 
L 452.696362 167.589707 
L 453.504229 167.248412 
L 454.312095 166.938143 
L 454.716028 166.658902 
L 455.523895 166.410687 
L 458.351427 165.324748 
L 459.967159 165.138587 
L 463.198625 163.92854 
L 463.602558 163.618271 
L 464.006491 163.525191 
L 464.410424 163.308003 
L 464.814357 163.276976 
L 469.257622 161.632554 
L 471.277288 161.07407 
L 472.085154 160.670721 
L 473.296954 160.39148 
L 474.912686 159.026299 
L 476.528419 158.312682 
L 477.740218 157.785225 
L 479.355951 157.102635 
L 479.759884 156.978527 
L 480.163817 156.699286 
L 482.183483 156.016695 
L 486.222815 153.937897 
L 487.030681 153.565575 
L 487.434614 153.255307 
L 488.242481 152.976065 
L 490.66608 151.797045 
L 491.070013 151.703965 
L 492.281812 151.145481 
L 493.897545 150.586998 
L 494.705411 150.245703 
L 495.513277 150.121596 
L 495.917211 149.842354 
L 497.532943 149.532086 
L 498.34081 149.19079 
L 500.764409 148.01177 
L 501.168342 147.949717 
L 502.380141 147.236099 
L 503.591941 146.801724 
L 506.419473 145.591677 
L 506.823406 145.46757 
L 507.227339 145.188328 
L 508.035205 145.095247 
L 508.439139 144.816006 
L 509.247005 144.691899 
L 510.054871 144.28855 
L 510.458804 144.102389 
L 511.266671 143.885201 
L 512.074537 143.636986 
L 513.286336 143.171583 
L 514.498136 142.768234 
L 515.709935 142.488993 
L 517.325668 141.806402 
L 518.133534 141.372027 
L 519.749267 140.534302 
L 520.557133 140.348141 
L 520.961067 140.099926 
L 521.365 140.006846 
L 522.576799 139.293228 
L 523.788599 138.827826 
L 526.616131 137.834967 
L 527.020064 137.710859 
L 527.82793 137.276484 
L 529.847596 136.562866 
L 532.271195 135.570007 
L 533.886928 134.794336 
L 537.926259 133.180941 
L 538.734126 132.777592 
L 539.138059 132.684511 
L 539.945925 132.374243 
L 540.349858 132.374243 
L 541.157725 132.001921 
L 542.773457 130.63674 
L 543.17739 130.512632 
L 543.581324 130.264418 
L 544.793123 129.923122 
L 545.197056 129.612854 
L 545.600989 129.519773 
L 546.812789 128.775129 
L 547.216722 128.495888 
L 548.428521 128.030485 
L 548.832455 127.813297 
L 550.044254 127.534056 
L 552.06392 126.820438 
L 552.871786 126.572224 
L 554.083586 125.92066 
L 554.891452 125.517311 
L 555.699318 125.300123 
L 557.315051 124.555479 
L 557.718984 124.431372 
L 558.52685 124.059049 
L 560.546516 123.376459 
L 561.758316 122.600788 
L 562.162249 122.507707 
L 562.970115 122.104359 
L 563.777982 121.79409 
L 564.181915 121.421768 
L 565.393714 120.956365 
L 565.797647 120.894312 
L 567.41338 120.149668 
L 568.625179 119.777345 
L 569.029113 119.591184 
L 569.433046 119.529131 
L 570.240912 119.187836 
L 571.452712 118.908594 
L 572.260578 118.443191 
L 572.664511 118.288057 
L 573.068444 117.977789 
L 574.280244 117.66752 
L 574.684177 117.419306 
L 575.492043 117.202118 
L 576.703843 116.519527 
L 577.107776 116.4885 
L 578.319575 116.085151 
L 579.127442 116.023098 
L 579.935308 115.712829 
L 582.358907 114.968185 
L 583.166773 114.937158 
L 586.398239 113.851219 
L 587.206105 113.416843 
L 587.610038 113.044521 
L 588.417904 112.610145 
L 589.629704 111.865501 
L 592.053303 111.120857 
L 592.457236 110.810589 
L 596.092634 109.507461 
L 596.900501 109.22822 
L 598.1123 108.700763 
L 601.747699 107.211475 
L 602.555565 106.901207 
L 604.171298 106.249643 
L 604.575231 105.877321 
L 604.979164 105.815267 
L 606.594897 105.163704 
L 608.210629 104.760355 
L 608.614562 104.698301 
L 609.018496 104.51214 
L 609.422429 104.481113 
L 610.230295 104.201871 
L 610.634228 104.170845 
L 611.846028 103.705442 
L 613.46176 103.240039 
L 614.269627 102.619503 
L 615.885359 101.719724 
L 616.289292 101.626644 
L 617.097159 101.316375 
L 620.328624 99.734006 
L 620.732557 99.516819 
L 621.13649 99.144496 
L 623.156156 98.648067 
L 624.367956 98.089584 
L 625.175822 97.872396 
L 625.579755 97.686235 
L 625.983688 97.34494 
L 627.599421 96.910564 
L 628.003354 96.600295 
L 633.254485 94.676631 
L 634.062351 94.521497 
L 636.082017 93.869934 
L 637.293817 93.342477 
L 640.121349 92.473726 
L 640.929215 92.008323 
L 643.756747 91.046491 
L 645.37248 90.519035 
L 646.584279 90.239793 
L 647.796079 89.867471 
L 648.200012 89.774391 
L 648.603945 89.495149 
L 649.411812 89.308988 
L 651.027544 88.843585 
L 651.431477 88.812558 
L 652.239344 88.440236 
L 655.066876 87.726619 
L 656.682608 87.137109 
L 657.086542 87.137109 
L 658.298341 86.857868 
L 659.106207 86.702733 
L 659.914074 86.485545 
L 661.125873 85.833982 
L 662.337673 85.46166 
L 665.165205 84.499828 
L 666.780937 83.69313 
L 667.992737 83.413888 
L 668.800603 83.165673 
L 669.60847 82.762325 
L 670.012403 82.421029 
L 670.820269 82.172815 
L 671.224202 81.9246 
L 672.032069 81.831519 
L 674.859601 81.024821 
L 676.0714 80.776607 
L 677.2832 80.466338 
L 678.091066 80.280177 
L 679.302865 79.65964 
L 684.553997 77.642896 
L 685.361863 77.518788 
L 686.169729 77.363654 
L 686.573662 77.363654 
L 687.785462 76.960305 
L 688.997261 76.587983 
L 692.63266 75.564098 
L 693.440526 75.34691 
L 693.844459 75.253829 
L 694.248392 75.005614 
L 695.056259 74.85048 
L 695.864125 74.7574 
L 696.268058 74.540212 
L 696.671991 74.509185 
L 697.479858 73.981729 
L 699.09559 73.640433 
L 699.903457 73.299138 
L 700.711323 73.019897 
L 701.519189 72.802709 
L 702.327056 72.461413 
L 703.134922 72.182172 
L 704.750655 71.716769 
L 705.558521 71.654716 
L 706.366387 71.375474 
L 706.77032 71.22034 
L 707.578187 71.096232 
L 709.193919 70.382615 
L 709.597852 70.320561 
L 710.405719 70.010293 
L 712.829318 69.606944 
L 713.637184 69.358729 
L 714.041117 69.296676 
L 714.848984 68.95538 
L 715.252917 68.893327 
L 715.65685 68.676139 
L 716.464716 67.993548 
L 720.504048 66.50426 
L 722.927647 65.852696 
L 723.33158 65.542428 
L 724.947313 64.828811 
L 726.563045 64.14622 
L 727.370912 63.898005 
L 728.582711 63.432603 
L 729.390577 63.091308 
L 731.00631 62.098449 
L 731.410243 62.005368 
L 732.622043 61.384831 
L 733.429909 61.074563 
L 735.045642 60.51608 
L 735.449575 60.329919 
L 735.853508 59.988623 
L 736.257441 59.895543 
L 737.065307 59.399114 
L 737.469241 59.306033 
L 738.68104 58.74755 
L 739.488906 58.468308 
L 739.892839 58.282147 
L 740.296773 58.25112 
L 742.316438 57.475449 
L 743.124305 57.320315 
L 743.932171 56.730805 
L 744.336104 56.730805 
L 745.143971 56.38951 
L 745.547904 56.327456 
L 745.951837 56.110268 
L 746.35577 56.048215 
L 746.759703 55.862054 
L 747.163636 55.8 
L 747.163636 55.8 
" clip-path="url(#pc69bde78c8)" style="fill: none; stroke: #1f77b4; stroke-width: 1.5; stroke-linecap: square"/>
   </g>
   <g id="line2d_38">
    <path d="M 138.840297 307.8 
L 142.475695 307.706919 
L 145.707161 307.551785 
L 147.322893 307.551785 
L 147.726826 307.427678 
L 149.746492 307.334597 
L 152.170091 307.055356 
L 154.59369 306.962275 
L 155.401556 306.869195 
L 158.229088 306.745087 
L 161.056621 306.652007 
L 163.076286 306.589953 
L 168.327418 306.496873 
L 170.347083 306.434819 
L 173.982482 306.341738 
L 175.598214 306.310712 
L 179.637546 306.217631 
L 181.253279 306.062497 
L 182.869011 306.03147 
L 185.29261 305.93839 
L 186.908343 305.907363 
L 188.928009 305.845309 
L 190.543741 305.690175 
L 194.17914 305.597094 
L 194.987006 305.535041 
L 196.602739 305.44196 
L 199.026338 305.34888 
L 200.64207 305.255799 
L 207.912867 304.790396 
L 210.740399 304.697316 
L 211.952199 304.573209 
L 213.971865 304.480128 
L 218.011196 304.26294 
L 222.050528 304.200886 
L 223.66626 304.014725 
L 225.685926 303.921645 
L 229.725258 303.518296 
L 232.148857 303.208028 
L 233.764589 303.145974 
L 236.996055 302.711598 
L 239.419654 302.649544 
L 240.631453 302.525437 
L 241.843253 302.432357 
L 253.153381 301.532578 
L 253.961248 301.377444 
L 256.384846 301.284363 
L 262.847777 300.881015 
L 265.675309 300.787934 
L 267.291042 300.601773 
L 269.310708 300.508692 
L 271.734307 300.415612 
L 273.753972 300.322531 
L 275.369705 300.291505 
L 277.389371 300.229451 
L 278.197237 300.105344 
L 283.852301 300.012263 
L 284.660168 299.919182 
L 289.507366 299.826102 
L 293.142764 299.639941 
L 295.970296 299.54686 
L 297.586029 299.360699 
L 300.413561 299.267619 
L 301.221427 299.143511 
L 303.241093 299.081458 
L 307.280425 299.019404 
L 308.896157 298.86427 
L 310.51189 298.833243 
L 311.723689 298.740163 
L 313.339422 298.585028 
L 317.378754 298.36784 
L 321.418085 298.27476 
L 325.053484 298.088599 
L 326.265283 298.057572 
L 327.07315 297.933465 
L 329.092815 297.840384 
L 329.900682 297.77833 
L 330.708548 297.716277 
L 331.516414 297.654223 
L 335.555746 297.561143 
L 344.442275 296.971633 
L 345.250142 296.909579 
L 346.461941 296.816498 
L 349.289473 296.723418 
L 351.309139 296.661364 
L 356.964203 296.568284 
L 357.77207 296.444176 
L 363.427134 296.351096 
L 367.466466 296.133908 
L 368.274332 296.102881 
L 369.082198 296.009801 
L 371.101864 295.91672 
L 373.12153 295.854666 
L 375.141196 295.761586 
L 377.160861 295.699532 
L 380.79626 295.606452 
L 383.219859 295.513371 
L 388.874923 295.420291 
L 393.318188 295.172076 
L 394.93392 295.110022 
L 396.14572 295.016942 
L 401.800784 294.923861 
L 404.224383 294.830781 
L 411.49518 294.7377 
L 413.110913 294.706673 
L 417.958111 294.64462 
L 418.765977 294.582566 
L 424.421041 294.489485 
L 426.036774 294.458459 
L 436.539036 294.365378 
L 438.962635 294.272297 
L 455.927828 294.179217 
L 457.947494 294.117163 
L 468.449756 294.05511 
L 469.257622 293.993056 
L 471.277288 293.931002 
L 472.489087 293.806895 
L 474.912686 293.713814 
L 477.740218 293.589707 
L 481.375617 293.496626 
L 483.395283 293.434573 
L 486.222815 293.341492 
L 489.45428 293.186358 
L 491.473946 293.093278 
L 493.089678 293.062251 
L 499.956542 292.96917 
L 502.380141 292.87609 
L 506.823406 292.783009 
L 509.650938 292.658902 
L 512.47847 292.596848 
L 513.286336 292.534794 
L 522.980732 292.441714 
L 527.020064 292.224526 
L 529.847596 292.131445 
L 534.290861 291.883231 
L 537.118393 291.79015 
L 538.734126 291.759123 
L 541.561658 291.666043 
L 543.581324 291.448855 
L 547.620655 291.355774 
L 548.428521 291.262694 
L 552.467853 291.169613 
L 554.487519 291.10756 
L 558.930784 291.076533 
L 559.73865 290.983452 
L 564.181915 290.890372 
L 564.989781 290.828318 
L 573.876311 290.735238 
L 576.29991 290.642157 
L 582.358907 290.549077 
L 583.97464 290.51805 
L 587.610038 290.455996 
L 588.417904 290.362916 
L 593.669035 290.269835 
L 595.688701 290.207781 
L 602.959498 290.114701 
L 604.171298 290.02162 
L 605.383097 289.92854 
L 606.594897 289.835459 
L 612.653894 289.742379 
L 615.077493 289.649298 
L 625.983688 289.556218 
L 629.619087 289.370057 
L 634.466285 289.308003 
L 635.274151 289.245949 
L 641.333148 289.183896 
L 642.141015 289.121842 
L 646.584279 289.028761 
L 648.200012 288.997735 
L 655.066876 288.904654 
L 655.874742 288.8426 
L 663.145539 288.74952 
L 664.761272 288.718493 
L 668.39667 288.625412 
L 671.628135 288.470278 
L 676.0714 288.377198 
L 678.898932 288.25309 
L 682.534331 288.16001 
L 683.342197 288.097956 
L 691.42086 288.004876 
L 693.440526 287.942822 
L 695.864125 287.849741 
L 698.287724 287.756661 
L 710.405719 287.66358 
L 713.233251 287.539473 
L 720.100115 287.446393 
L 722.523714 287.353312 
L 727.774845 287.260231 
L 730.198444 287.167151 
L 733.429909 287.07407 
L 735.853508 286.98099 
L 747.163636 286.887909 
L 747.163636 286.887909 
" clip-path="url(#pc69bde78c8)" style="fill: none; stroke: #ff7f0e; stroke-width: 1.5; stroke-linecap: square"/>
   </g>
   <g id="patch_3">
    <path d="M 108 320.4 
L 108 43.2 
" style="fill: none; stroke: #a9a9a9; stroke-width: 0.8; stroke-linejoin: miter; stroke-linecap: square"/>
   </g>
   <g id="patch_4">
    <path d="M 777.6 320.4 
L 777.6 43.2 
" style="fill: none"/>
   </g>
   <g id="patch_5">
    <path d="M 108 320.4 
L 777.6 320.4 
" style="fill: none; stroke: #a9a9a9; stroke-width: 0.8; stroke-linejoin: miter; stroke-linecap: square"/>
   </g>
   <g id="patch_6">
    <path d="M 108 43.2 
L 777.6 43.2 
" style="fill: none"/>
   </g>
   <g id="text_19">
    <!-- get_subscribe history -->
    <g style="fill: #a9a9a9" transform="translate(378.6075 37.2) scale(0.12 -0.12)">
     <defs>
      <path id="DejaVuSans-67" d="M 2906 1791 
Q 2906 2416 2648 2759 
Q 2391 3103 1925 3103 
Q 1463 3103 1205 2759 
Q 947 2416 947 1791 
Q 947 1169 1205 825 
Q 1463 481 1925 481 
Q 2391 481 2648 825 
Q 2906 1169 2906 1791 
z
M 3481 434 
Q 3481 -459 3084 -895 
Q 2688 -1331 1869 -1331 
Q 1566 -1331 1297 -1286 
Q 1028 -1241 775 -1147 
L 775 -588 
Q 1028 -725 1275 -790 
Q 1522 -856 1778 -856 
Q 2344 -856 2625 -561 
Q 2906 -266 2906 331 
L 2906 616 
Q 2728 306 2450 153 
Q 2172 0 1784 0 
Q 1141 0 747 490 
Q 353 981 353 1791 
Q 353 2603 747 3093 
Q 1141 3584 1784 3584 
Q 2172 3584 2450 3431 
Q 2728 3278 2906 2969 
L 2906 3500 
L 3481 3500 
L 3481 434 
z
" transform="scale(0.015625)"/>
      <path id="DejaVuSans-65" d="M 3597 1894 
L 3597 1613 
L 953 1613 
Q 991 1019 1311 708 
Q 1631 397 2203 397 
Q 2534 397 2845 478 
Q 3156 559 3463 722 
L 3463 178 
Q 3153 47 2828 -22 
Q 2503 -91 2169 -91 
Q 1331 -91 842 396 
Q 353 884 353 1716 
Q 353 2575 817 3079 
Q 1281 3584 2069 3584 
Q 2775 3584 3186 3129 
Q 3597 2675 3597 1894 
z
M 3022 2063 
Q 3016 2534 2758 2815 
Q 2500 3097 2075 3097 
Q 1594 3097 1305 2825 
Q 1016 2553 972 2059 
L 3022 2063 
z
" transform="scale(0.015625)"/>
      <path id="DejaVuSans-74" d="M 1172 4494 
L 1172 3500 
L 2356 3500 
L 2356 3053 
L 1172 3053 
L 1172 1153 
Q 1172 725 1289 603 
Q 1406 481 1766 481 
L 2356 481 
L 2356 0 
L 1766 0 
Q 1100 0 847 248 
Q 594 497 594 1153 
L 594 3053 
L 172 3053 
L 172 3500 
L 594 3500 
L 594 4494 
L 1172 4494 
z
" transform="scale(0.015625)"/>
      <path id="DejaVuSans-5f" d="M 3263 -1063 
L 3263 -1509 
L -63 -1509 
L -63 -1063 
L 3263 -1063 
z
" transform="scale(0.015625)"/>
      <path id="DejaVuSans-73" d="M 2834 3397 
L 2834 2853 
Q 2591 2978 2328 3040 
Q 2066 3103 1784 3103 
Q 1356 3103 1142 2972 
Q 928 2841 928 2578 
Q 928 2378 1081 2264 
Q 1234 2150 1697 2047 
L 1894 2003 
Q 2506 1872 2764 1633 
Q 3022 1394 3022 966 
Q 3022 478 2636 193 
Q 2250 -91 1575 -91 
Q 1294 -91 989 -36 
Q 684 19 347 128 
L 347 722 
Q 666 556 975 473 
Q 1284 391 1588 391 
Q 1994 391 2212 530 
Q 2431 669 2431 922 
Q 2431 1156 2273 1281 
Q 2116 1406 1581 1522 
L 1381 1569 
Q 847 1681 609 1914 
Q 372 2147 372 2553 
Q 372 3047 722 3315 
Q 1072 3584 1716 3584 
Q 2034 3584 2315 3537 
Q 2597 3491 2834 3397 
z
" transform="scale(0.015625)"/>
      <path id="DejaVuSans-75" d="M 544 1381 
L 544 3500 
L 1119 3500 
L 1119 1403 
Q 1119 906 1312 657 
Q 1506 409 1894 409 
Q 2359 409 2629 706 
Q 2900 1003 2900 1516 
L 2900 3500 
L 3475 3500 
L 3475 0 
L 2900 0 
L 2900 538 
Q 2691 219 2414 64 
Q 2138 -91 1772 -91 
Q 1169 -91 856 284 
Q 544 659 544 1381 
z
M 1991 3584 
L 1991 3584 
z
" transform="scale(0.015625)"/>
      <path id="DejaVuSans-62" d="M 3116 1747 
Q 3116 2381 2855 2742 
Q 2594 3103 2138 3103 
Q 1681 3103 1420 2742 
Q 1159 2381 1159 1747 
Q 1159 1113 1420 752 
Q 1681 391 2138 391 
Q 2594 391 2855 752 
Q 3116 1113 3116 1747 
z
M 1159 2969 
Q 1341 3281 1617 3432 
Q 1894 3584 2278 3584 
Q 2916 3584 3314 3078 
Q 3713 2572 3713 1747 
Q 3713 922 3314 415 
Q 2916 -91 2278 -91 
Q 1894 -91 1617 61 
Q 1341 213 1159 525 
L 1159 0 
L 581 0 
L 581 4863 
L 1159 4863 
L 1159 2969 
z
" transform="scale(0.015625)"/>
      <path id="DejaVuSans-63" d="M 3122 3366 
L 3122 2828 
Q 2878 2963 2633 3030 
Q 2388 3097 2138 3097 
Q 1578 3097 1268 2742 
Q 959 2388 959 1747 
Q 959 1106 1268 751 
Q 1578 397 2138 397 
Q 2388 397 2633 464 
Q 2878 531 3122 666 
L 3122 134 
Q 2881 22 2623 -34 
Q 2366 -91 2075 -91 
Q 1284 -91 818 406 
Q 353 903 353 1747 
Q 353 2603 823 3093 
Q 1294 3584 2113 3584 
Q 2378 3584 2631 3529 
Q 2884 3475 3122 3366 
z
" transform="scale(0.015625)"/>
      <path id="DejaVuSans-72" d="M 2631 2963 
Q 2534 3019 2420 3045 
Q 2306 3072 2169 3072 
Q 1681 3072 1420 2755 
Q 1159 2438 1159 1844 
L 1159 0 
L 581 0 
L 581 3500 
L 1159 3500 
L 1159 2956 
Q 1341 3275 1631 3429 
Q 1922 3584 2338 3584 
Q 2397 3584 2469 3576 
Q 2541 3569 2628 3553 
L 2631 2963 
z
" transform="scale(0.015625)"/>
      <path id="DejaVuSans-69" d="M 603 3500 
L 1178 3500 
L 1178 0 
L 603 0 
L 603 3500 
z
M 603 4863 
L 1178 4863 
L 1178 4134 
L 603 4134 
L 603 4863 
z
" transform="scale(0.015625)"/>
      <path id="DejaVuSans-20" transform="scale(0.015625)"/>
      <path id="DejaVuSans-68" d="M 3513 2113 
L 3513 0 
L 2938 0 
L 2938 2094 
Q 2938 2591 2744 2837 
Q 2550 3084 2163 3084 
Q 1697 3084 1428 2787 
Q 1159 2491 1159 1978 
L 1159 0 
L 581 0 
L 581 4863 
L 1159 4863 
L 1159 2956 
Q 1366 3272 1645 3428 
Q 1925 3584 2291 3584 
Q 2894 3584 3203 3211 
Q 3513 2838 3513 2113 
z
" transform="scale(0.015625)"/>
      <path id="DejaVuSans-6f" d="M 1959 3097 
Q 1497 3097 1228 2736 
Q 959 2375 959 1747 
Q 959 1119 1226 758 
Q 1494 397 1959 397 
Q 2419 397 2687 759 
Q 2956 1122 2956 1747 
Q 2956 2369 2687 2733 
Q 2419 3097 1959 3097 
z
M 1959 3584 
Q 2709 3584 3137 3096 
Q 3566 2609 3566 1747 
Q 3566 888 3137 398 
Q 2709 -91 1959 -91 
Q 1206 -91 779 398 
Q 353 888 353 1747 
Q 353 2609 779 3096 
Q 1206 3584 1959 3584 
z
" transform="scale(0.015625)"/>
      <path id="DejaVuSans-79" d="M 2059 -325 
Q 1816 -950 1584 -1140 
Q 1353 -1331 966 -1331 
L 506 -1331 
L 506 -850 
L 844 -850 
Q 1081 -850 1212 -737 
Q 1344 -625 1503 -206 
L 1606 56 
L 191 3500 
L 800 3500 
L 1894 763 
L 2988 3500 
L 3597 3500 
L 2059 -325 
z
" transform="scale(0.015625)"/>
     </defs>
     <use xlink:href="#DejaVuSans-67"/>
     <use xlink:href="#DejaVuSans-65" transform="translate(63.476562 0)"/>
     <use xlink:href="#DejaVuSans-74" transform="translate(125 0)"/>
     <use xlink:href="#DejaVuSans-5f" transform="translate(164.208984 0)"/>
     <use xlink:href="#DejaVuSans-73" transform="translate(214.208984 0)"/>
     <use xlink:href="#DejaVuSans-75" transform="translate(266.308594 0)"/>
     <use xlink:href="#DejaVuSans-62" transform="translate(329.6875 0)"/>
     <use xlink:href="#DejaVuSans-73" transform="translate(393.164062 0)"/>
     <use xlink:href="#DejaVuSans-63" transform="translate(445.263672 0)"/>
     <use xlink:href="#DejaVuSans-72" transform="translate(500.244141 0)"/>
     <use xlink:href="#DejaVuSans-69" transform="translate(541.357422 0)"/>
     <use xlink:href="#DejaVuSans-62" transform="translate(569.140625 0)"/>
     <use xlink:href="#DejaVuSans-65" transform="translate(632.617188 0)"/>
     <use xlink:href="#DejaVuSans-20" transform="translate(694.140625 0)"/>
     <use xlink:href="#DejaVuSans-68" transform="translate(725.927734 0)"/>
     <use xlink:href="#DejaVuSans-69" transform="translate(789.306641 0)"/>
     <use xlink:href="#DejaVuSans-73" transform="translate(817.089844 0)"/>
     <use xlink:href="#DejaVuSans-74" transform="translate(869.189453 0)"/>
     <use xlink:href="#DejaVuSans-6f" transform="translate(908.398438 0)"/>
     <use xlink:href="#DejaVuSans-72" transform="translate(969.580078 0)"/>
     <use xlink:href="#DejaVuSans-79" transform="translate(1010.693359 0)"/>
    </g>
   </g>
   <g id="legend_1">
    <g id="line2d_39">
     <path d="M 815.08 328.498438 
L 825.08 328.498438 
L 835.08 328.498438 
" style="fill: none; stroke: #1f77b4; stroke-width: 1.5; stroke-linecap: square"/>
    </g>
    <g id="text_20">
     <!-- star -->
     <g style="fill: #a9a9a9" transform="translate(843.08 331.998438) scale(0.1 -0.1)">
      <defs>
       <path id="DejaVuSans-61" d="M 2194 1759 
Q 1497 1759 1228 1600 
Q 959 1441 959 1056 
Q 959 750 1161 570 
Q 1363 391 1709 391 
Q 2188 391 2477 730 
Q 2766 1069 2766 1631 
L 2766 1759 
L 2194 1759 
z
M 3341 1997 
L 3341 0 
L 2766 0 
L 2766 531 
Q 2569 213 2275 61 
Q 1981 -91 1556 -91 
Q 1019 -91 701 211 
Q 384 513 384 1019 
Q 384 1609 779 1909 
Q 1175 2209 1959 2209 
L 2766 2209 
L 2766 2266 
Q 2766 2663 2505 2880 
Q 2244 3097 1772 3097 
Q 1472 3097 1187 3025 
Q 903 2953 641 2809 
L 641 3341 
Q 956 3463 1253 3523 
Q 1550 3584 1831 3584 
Q 2591 3584 2966 3190 
Q 3341 2797 3341 1997 
z
" transform="scale(0.015625)"/>
      </defs>
      <use xlink:href="#DejaVuSans-73"/>
      <use xlink:href="#DejaVuSans-74" transform="translate(52.099609 0)"/>
      <use xlink:href="#DejaVuSans-61" transform="translate(91.308594 0)"/>
      <use xlink:href="#DejaVuSans-72" transform="translate(152.587891 0)"/>
     </g>
    </g>
    <g id="line2d_40">
     <path d="M 815.08 343.176562 
L 825.08 343.176562 
L 835.08 343.176562 
" style="fill: none; stroke: #ff7f0e; stroke-width: 1.5; stroke-linecap: square"/>
    </g>
    <g id="text_21">
     <!-- fork -->
     <g style="fill: #a9a9a9" transform="translate(843.08 346.676562) scale(0.1 -0.1)">
      <defs>
       <path id="DejaVuSans-66" d="M 2375 4863 
L 2375 4384 
L 1825 4384 
Q 1516 4384 1395 4259 
Q 1275 4134 1275 3809 
L 1275 3500 
L 2222 3500 
L 2222 3053 
L 1275 3053 
L 1275 0 
L 697 0 
L 697 3053 
L 147 3053 
L 147 3500 
L 697 3500 
L 697 3744 
Q 697 4328 969 4595 
Q 1241 4863 1831 4863 
L 2375 4863 
z
" transform="scale(0.015625)"/>
       <path id="DejaVuSans-6b" d="M 581 4863 
L 1159 4863 
L 1159 1991 
L 2875 3500 
L 3609 3500 
L 1753 1863 
L 3688 0 
L 2938 0 
L 1159 1709 
L 1159 0 
L 581 0 
L 581 4863 
z
" transform="scale(0.015625)"/>
      </defs>
      <use xlink:href="#DejaVuSans-66"/>
      <use xlink:href="#DejaVuSans-6f" transform="translate(35.205078 0)"/>
      <use xlink:href="#DejaVuSans-72" transform="translate(96.386719 0)"/>
      <use xlink:href="#DejaVuSans-6b" transform="translate(137.5 0)"/>
     </g>
    </g>
   </g>
  </g>
 </g>
 <defs>
  <clipPath id="pc69bde78c8">
   <rect x="108" y="43.2" width="669.6" height="277.2"/>
  </clipPath>
 </defs>
</svg>
